<svg xmlns="http://www.w3.org/2000/svg" viewBox="0 0 420.92 420.92"><defs><style>.cls-1{fill:#1c1e23;}.cls-2{fill:#4c4c54;}.cls-3{fill:#feeb6d;}.cls-4{fill:#124a31;}.cls-5{fill:#219968;}.cls-6{fill:#2eb780;}.cls-7{fill:#818181;}.cls-8{fill:#7c889b;}</style></defs><g id="Layer_6" data-name="Layer 6"><path class="cls-1" d="M417.09,66.49c-.8,7-4.16,14.09-7.2,20.3-7,14.28-15.67,27.84-23.65,41.57Q361.46,171,336.58,213.65l-7.5,12.89a5.89,5.89,0,0,1,.15,1.42c-.62,40.48,1.9,80.6,9.43,120.41,9.56,4.17,16.09,14.56,13.48,25.29-3.75,15.39-24.7,13.47-36.66,10.69-11.77-2.74-25.75-12.47-20.39-26.54,4.36-11.47,20.73-12.68,32.05-11.4-6.09-33.41-9.35-67.67-8.62-101.7q-3.27,5.59-6.52,11.2-6.36,11-12.74,21.92c-3,5.14-6.07,11.27-12.77,11.7a5.19,5.19,0,0,1-4.92-2.5,5,5,0,0,1-1.54-2q-10.89-24.68-20.82-49.73.33-9.24,1-18.51c.38-5.39-6.82-6-9-2-22.58-59.06-42-119.28-61.3-179.46-1.6-5,4.51-8.47,7.56-5.82q54.42,7.88,109,14.44,24.76,3,49.57,5.67C372,51.38,388.33,52.06,404,55.39,410.15,56.7,418,58.45,417.09,66.49Zm-13.56,8.68c.32-.84,1.41-5.58,2.21-8.22-.53-.16-1.1-.37-1.36-.42-1.72-.38-3.45-.71-5.18-1-7.26-1.3-14.6-2-21.93-2.76q-88-9.27-175.64-22.32Q209.28,64.08,217,87.71c21.11,64.16,43.36,128,70.52,189.89,1.53-1.76,2.68-4.6,3.52-6.05q3.19-5.48,6.37-11,6.58-11.35,13.19-22.7,13-22.33,25.92-44.63,23-39.56,45.9-79.12C389.8,101.48,398.26,88.9,403.53,75.17ZM340.92,371.24c2.17-5.92-3.57-12.44-9.14-13.31a5.49,5.49,0,0,1-2.84-1.27,49.43,49.43,0,0,0-12.86.39c-2.88.46-8.14,1-10,3.62-1.6,2.25-.3,5.65,1.33,7.48,2.36,2.66,6.14,4,9.5,4.75a55.92,55.92,0,0,0,13.77,1.4C333.87,374.25,339.61,374.82,340.92,371.24Z"/><path class="cls-2" d="M405.74,67c-.8,2.64-1.89,7.38-2.21,8.22-5.27,13.73-13.73,26.31-21.1,39q-23,39.54-45.9,79.12-12.93,22.32-25.92,44.63-6.58,11.34-13.19,22.7-3.18,5.48-6.37,11c-.84,1.45-2,4.29-3.52,6.05C260.37,215.72,238.12,151.87,217,87.71q-7.77-23.61-15.38-47.27,87.56,13.06,175.64,22.32c7.33.78,14.67,1.46,21.93,2.76,1.73.3,3.46.63,5.18,1C404.64,66.58,405.21,66.79,405.74,67Zm-67.53,90.27c3.14-.2,3.79-5.25.78-6.21-6.69-2.12-14.36-2.16-21.32-2.89l-5.42-.54q.74-11.09,1.69-22.15,12.33,1,24.67,1.94c4.51.34,5.42-6.51.88-7q-12.42-1.34-24.89-2.45c.53-6.06,1.11-12.12,1.7-18.18.38-4-5.72-4.76-6.18-.77-.71,6.14-1.31,12.27-1.88,18.4Q292.79,116,277.3,115c.11-6.14.24-12.27.35-18.4.08-4-6.08-4.85-6.23-.78-.23,6.25-.42,12.48-.58,18.73q-11-.73-22.08-1.39c-4.32-.27-5.22,6.35-.84,6.72q11.36.95,22.73,1.93-.27,11.08-.43,22.17c-6.29-.38-12.58-.59-18.83-.44-3.63.09-3.39,5.87.07,6.3,6.18.76,12.41,1.25,18.64,1.66q-.12,9.34-.2,18.69l-.85,0c-.94.05-1.88.13-2.81.2a3.35,3.35,0,0,0,.07,6.62c1.18,0,2.37,0,3.54,0h0c0,2.85,0,5.71-.05,8.57,0,4.11,6.41,5,6.44.8,0-3.19.07-6.38.1-9.56,5.45.1,10.89.21,16.34.37,3.65.1,7.5.53,11.32.75q-.37,6.49-.75,13c-.27,4.73,7.22,5.53,7.25.9s.13-9.23.26-13.85c1-.06,2-.14,3-.28,3.91-.56,3.27-5.56-.06-6.43-.86-.22-1.75-.41-2.65-.56q.32-8,.78-16l5,.5C323.76,155.94,331.21,157.66,338.21,157.22Z"/><path class="cls-3" d="M331.78,357.93c5.57.87,11.31,7.39,9.14,13.31-1.31,3.58-7.05,3-10.24,3.06a55.92,55.92,0,0,1-13.77-1.4c-3.36-.8-7.14-2.09-9.5-4.75-1.63-1.83-2.93-5.23-1.33-7.48,1.86-2.59,7.12-3.16,10-3.62a49.43,49.43,0,0,1,12.86-.39A5.49,5.49,0,0,0,331.78,357.93Z"/><path class="cls-1" d="M339,151c3,1,2.36,6-.78,6.21-7,.44-14.45-1.28-21.43-2l-5-.5q-.46,8-.78,16c.9.15,1.79.34,2.65.56,3.33.87,4,5.87.06,6.43-1,.14-2,.22-3,.28-.13,4.62-.23,9.24-.26,13.85s-7.52,3.83-7.25-.9q.38-6.53.75-13c-3.82-.22-7.67-.65-11.32-.75-5.45-.16-10.89-.27-16.34-.37,0,3.18-.07,6.37-.1,9.56,0,4.18-6.45,3.31-6.44-.8,0-2.86,0-5.72.05-8.57h0c-1.17,0-2.36,0-3.54,0a3.35,3.35,0,0,1-.07-6.62c.93-.07,1.87-.15,2.81-.2l.85,0q.08-9.34.2-18.69c-6.23-.41-12.46-.9-18.64-1.66-3.46-.43-3.7-6.21-.07-6.3,6.25-.15,12.54.06,18.83.44q.16-11.08.43-22.17-11.37-1-22.73-1.93c-4.38-.37-3.48-7,.84-6.72q11,.66,22.08,1.39c.16-6.25.35-12.48.58-18.73.15-4.07,6.31-3.2,6.23.78-.11,6.13-.24,12.26-.35,18.4q15.48,1.09,30.94,2.4c.57-6.13,1.17-12.26,1.88-18.4.46-4,6.56-3.2,6.18.77-.59,6.06-1.17,12.12-1.7,18.18Q327,119,339.49,120.37c4.54.49,3.63,7.34-.88,7q-12.33-.91-24.67-1.94-.94,11.07-1.69,22.15l5.42.54C324.63,148.85,332.3,148.89,339,151Zm-34.52,19.15c.31-5.36.63-10.73,1-16.08-3.37-.33-6.75-.63-10.11-.92-6.21-.55-12.44-.9-18.67-1.27q-.14,9.12-.25,18.24,7.71-.15,15.4,0C295.8,170.22,300.18,170,304.47,170.16ZM305.91,147q.75-11,1.66-22.06-15.21-1.24-30.41-2.56-.21,11-.38,22.07c6.2.48,12.38,1.07,18.53,1.59C298.84,146.29,302.38,146.61,305.91,147Z"/><path class="cls-2" d="M305.44,154.08c-.34,5.35-.66,10.72-1,16.08-4.29-.14-8.67.06-12.66,0q-7.69-.16-15.4,0,.1-9.12.25-18.24c6.23.37,12.46.72,18.67,1.27C298.69,153.45,302.07,153.75,305.44,154.08Z"/><path class="cls-2" d="M307.57,124.89q-.92,11-1.66,22.06c-3.53-.34-7.07-.66-10.6-1-6.15-.52-12.33-1.11-18.53-1.59q.18-11,.38-22.07Q292.37,123.64,307.57,124.89Z"/><path class="cls-1" d="M277.91,347.45c2.29,15.4-14.88,18-26.29,18-6.79,0-14.07-.35-19.76-4.52-4.76-3.46-8.07-9.49-6.74-15.48,2.68-12.17,17.1-14.36,28.26-13.89l.15,1.07c.82,5.53,10.5,4.3,9.85-1.33-.05-.41-.1-.83-.14-1.24a18.9,18.9,0,0,1,5.71,2.86A22.18,22.18,0,0,1,277.91,347.45Zm-11.08,4.72c2.52-2.79-2-11.14-5.26-12.37a3.94,3.94,0,0,1-3.16,1.09c-.17,0-.35,0-.53,0a3.46,3.46,0,0,1-1.47-.08c-6.06-.27-14.09-.24-18.88,3.25-3.06,2.24-3.34,5.3-.58,7.92s6.76,2.85,10.22,3C252.24,355.16,263,356.42,266.83,352.17Z"/><path class="cls-3" d="M261.57,339.8c3.29,1.23,7.78,9.58,5.26,12.37-3.85,4.25-14.59,3-19.66,2.78-3.46-.15-7.56-.48-10.22-3s-2.48-5.68.58-7.92c4.79-3.49,12.82-3.52,18.88-3.25a3.46,3.46,0,0,0,1.47.08c.18,0,.36,0,.53,0A3.94,3.94,0,0,0,261.57,339.8Z"/><path class="cls-1" d="M263.38,331.27c.65,5.63-9,6.86-9.85,1.33l-.15-1.07,1.26.07c2.44-2.25,5.59-2.43,8.6-1.57C263.28,330.44,263.33,330.86,263.38,331.27Z"/><path class="cls-1" d="M263.24,330c-3-.86-6.16-.68-8.6,1.57l-1.26-.07c-5.44-37.82-6-76.69-2.75-114.72a5,5,0,0,1,.59-2c.51,1.36,1,2.71,1.55,4.06l-.61.85c.6.8,1.14,1.62,1.66,2.45a34.11,34.11,0,0,1,2,3.65q.57,1.09,1.11,2.22a5,5,0,0,1,.52,3c.57,1.44,1.14,2.87,1.72,4.31A633,633,0,0,0,263.24,330Z"/><path class="cls-1" d="M259.21,235.32c-.58-1.44-1.15-2.87-1.72-4.31a5,5,0,0,0-.52-3q-.54-1.12-1.11-2.22a34.11,34.11,0,0,0-2-3.65c-.52-.83-1.06-1.65-1.66-2.45l.61-.85c-.52-1.35-1-2.7-1.55-4.06,2.15-4,9.35-3.4,9,2Q259.53,226.08,259.21,235.32Z"/><path class="cls-1" d="M244,267.74s0,0,0,0v0Z"/></g><g id="Layer_1" data-name="Layer 1"><path class="cls-4" d="M251.63,261.05c.08,5.93.19,12.05-1.91,17.7-2.35,6.32-7.27,10.62-12.42,14.67-6.29,4.95-12.64,9.82-19,14.73q-6,4.65-11.94,9.29a2.22,2.22,0,0,1,0-.37,4,4,0,0,0-4-4,4.12,4.12,0,0,0-4,4c-.2,2.08-.91,4.87-.27,7l-.42.12q-9.12,7.06-18.22,14.16L159.63,353.8c-5.57,4.33-11.07,9.64-17.2,13.15-12.81,7.32-23.28-9.47-30.91-17.35q-16.44-17-32.86-33.93l-4.11-4.24q.86,9.42,1.7,18.84c0,.55.09,1.09.14,1.65-2.25-2.67-8.08-1.11-8,3.09,0,1.94.08,3.87.14,5.8a4.62,4.62,0,0,0-.35,1.89c0,1.95,0,3.92.1,5.88-.05-.48-.11-.95-.16-1.43-.06-.85-.12-1.69-.2-2.53l-4-44.1q-9.7-10-19.39-20.06C35.32,270.82,26,260.67,20,248.59c-6.38-12.83-8.67-27-9.69-41.16-1.1-15.55-1.38-31.16-2-46.73-.55-14.13-3.3-30.3.62-44.13S25.4,93.11,35.05,83.41Q70.12,48.16,105.2,12.92c3.09.72,4,1.24,8.16,4.08a5.15,5.15,0,0,1,1.43.38,459.22,459.22,0,0,1,86.68,48.41c12.64,9,26.7,18.4,37.08,30.06,10.82,12.18,10.83,26.61,11.09,42.08l1.58,98Q251.42,248.5,251.63,261.05Zm-9.62,7c.39-6.68-.09-13.49-.2-20.17l-.72-44.23q-.36-22.11-.71-44.22L240,135.54c-.11-6.56.16-13.37-1.32-19.81A29.35,29.35,0,0,0,234,105.57c-5-7.2-12.82-12.76-19.55-18.1Q198.59,74.9,181.59,63.84a459,459,0,0,0-71.65-38.17,4.21,4.21,0,0,1-2.09-1.8q-33.85,34-67.7,68c-5.48,5.51-11.45,10.81-16.33,16.89-5.31,6.59-6.89,14-6.92,22.26,0,15.76,1.13,31.61,1.76,47.35,1.1,28.22.69,56.52,18.94,79.84,8.23,10.53,18,19.86,27.31,29.44l4.61,4.75c1.85,1.92,1.67,1.7,3.58,3.69l22.21,22.94,21.41,22.12,0,0a14.3,14.3,0,0,0,2.91,3h0c2.28,2.36,4.57,4.71,6.85,7.08,2,2,5.08,6.85,7.83,7.67,3.67,1.1,8.39-4.09,10.92-6.06l16.1-12.51c23.53-18.3,47.37-36.28,70.63-54.92C238,280.64,241.57,276,242,268.07Z"/><path class="cls-4" d="M242.11,382.32c2.6,4.43,2.83,10.38-.1,14.7-3.09,4.57-9.06,6.4-14.21,7.38-10.21,2-25.39,2.31-31-8.46a18.72,18.72,0,0,1-.39-15.45c1.23,5,9.69,4.49,9.82-1.4q.08-2.79.12-5.58a12.82,12.82,0,0,1,1.38,0,5.22,5.22,0,0,1,1.23-.42C219.76,370.71,235.8,371.56,242.11,382.32Zm-8.35,8.17c.73-2.59-2-4.86-3.89-5.93a20.59,20.59,0,0,0-8.5-2.35,14.15,14.15,0,0,0-5-.61,14.28,14.28,0,0,0-5.09.31,14,14,0,0,0-2.84.38l-.27.07-.07,0c-3.54.25-3.92,4.23-3.22,7,.76,3,2.62,4.5,5.54,5.28,5.17,1.37,11.17.76,16.28-.52C228.74,393.57,233.07,392.87,233.76,390.49Z"/><path class="cls-5" d="M241.81,247.9c.11,6.68.59,13.49.2,20.17-.44,7.94-4,12.57-10,17.4-23.26,18.64-47.1,36.62-70.63,54.92l-16.1,12.51c-2.53,2-7.25,7.16-10.92,6.06-2.75-.82-5.82-5.62-7.83-7.67-2.28-2.37-4.57-4.72-6.85-7.08a6.29,6.29,0,0,0,7.68.32c4.54-2.87,1.46-9.55-2.87-9-2.61-2-4.1-7.49-4.62-10.09-1-5-.74-10.21-.7-15.28q.13-15.37.28-30.73a2.28,2.28,0,0,0,0-.45s0-.06,0-.08a4.26,4.26,0,0,0-.09-1.08,2.86,2.86,0,0,0,.21-.58,5.2,5.2,0,0,0-1.36-5.15,4.93,4.93,0,0,0-3.48-1.4l0-1a4.18,4.18,0,0,0,4.27-4.62c-1.85-28.64-3.21-57.42-3-86.12,0-3.23-.09-6.67,2.1-9.32,1.8-2.18,4.67-3.6,7.07-5Q134,159.21,143,153.87l36.88-22a4.47,4.47,0,0,0,2.1-5.3l1.14-.42a5,5,0,0,0,5.91,3.36,17.37,17.37,0,0,0,6.46-3,5.22,5.22,0,0,0,1.57-.56,113.53,113.53,0,0,1,34-12.37c2.71-.54,3.77-3.52,3.35-5.91a5.12,5.12,0,0,0-.1-.54,3.48,3.48,0,0,0-.6-1.39l.27-.18a29.35,29.35,0,0,1,4.66,10.16c1.48,6.44,1.21,13.25,1.32,19.81l.39,23.91q.35,22.11.71,44.22Z"/><path class="cls-5" d="M234.44,107.68c.42,2.39-.64,5.37-3.35,5.91a113.53,113.53,0,0,0-34,12.37,5.22,5.22,0,0,1-1.57.56,17.37,17.37,0,0,1-6.46,3,5,5,0,0,1-5.91-3.36,4.85,4.85,0,0,1,3.37-5.91,14.41,14.41,0,0,0,1.81-.53l.06,0c.23-.16.5-.28.74-.42s.55-.35.82-.53l.12-.1c.42-.38.81-.78,1.2-1.21a4.33,4.33,0,0,1,3.89-1.32,122,122,0,0,1,30.94-11.26,4.61,4.61,0,0,1,4.37-1.18,4.87,4.87,0,0,0,.52.12,4.79,4.79,0,0,1,2.74,2,3.48,3.48,0,0,1,.6,1.39A5.12,5.12,0,0,1,234.44,107.68Z"/><path class="cls-6" d="M234,105.57l-.27.18a4.79,4.79,0,0,0-2.74-2,4.87,4.87,0,0,1-.52-.12,4.61,4.61,0,0,0-4.37,1.18,122,122,0,0,0-30.94,11.26,4.33,4.33,0,0,0-3.89,1.32c-.39.43-.78.83-1.2,1.21l-.12.1c-.27.18-.54.37-.82.53s-.51.26-.74.42l-.06,0a14.41,14.41,0,0,1-1.81.53,4.85,4.85,0,0,0-3.37,5.91l-1.14.42c-.8-2.72-3.79-4.87-7-3L135.2,147.36c-6.72,4-16.26,7.95-22.48,14a5.36,5.36,0,0,0-.69-.51q-16.11-9.21-32.18-18.45c-5.38-3.08-10.22,5.21-4.85,8.3Q91.1,160,107.18,169.2l.27.12a16.87,16.87,0,0,0-.63,2.24c-1.43,6.9-.46,14.72-.36,21.73.12,7.57.28,15.16.51,22.73q.77,24.53,2.37,49a4.93,4.93,0,0,0,5.33,4.62l0,1a4.29,4.29,0,0,0-2.34.65c-3,1.87-3.18,5.1-3.47,8.3a36.51,36.51,0,0,0,.24,7.54v.08h0c.05.42.1.84.16,1.28a2.93,2.93,0,0,0,.29.91c-.44,11.78-1.1,23.86.48,35.32.48,3.51,2.89,11.4,6.66,16.43L95.31,319.06,73.1,296.12c-1.91-2-1.73-1.77-3.58-3.69l-4.61-4.75c-9.26-9.58-19.08-18.91-27.31-29.44-18.25-23.32-17.84-51.62-18.94-79.84-.63-15.74-1.8-31.59-1.76-47.35,0-8.3,1.61-15.67,6.92-22.26,4.88-6.08,10.85-11.38,16.33-16.89q33.85-34,67.7-68a4.21,4.21,0,0,0,2.09,1.8,459,459,0,0,1,71.65,38.17q17,11.07,32.87,23.63C221.19,92.81,229,98.37,234,105.57Z"/><path class="cls-7" d="M229.87,384.56c1.91,1.07,4.62,3.34,3.89,5.93-.69,2.38-5,3.08-7,3.6-5.11,1.28-11.11,1.89-16.28.52-2.92-.78-4.78-2.3-5.54-5.28-.7-2.77-.32-6.75,3.22-7l.07,0,.27-.07a14,14,0,0,1,2.84-.38,14.28,14.28,0,0,1,5.09-.31,14.15,14.15,0,0,1,5,.61A20.59,20.59,0,0,1,229.87,384.56Z"/><path class="cls-4" d="M206.34,318.35c.67,11.3,1.31,28.5.34,39.71h0c0-2.2,0-4.38,0-6.58,0-.12,0-.23,0-.35,0-.74,0-1.49.05-2.23a4.38,4.38,0,0,0-.06-.83,0,0,0,0,0,0,0v-1.11c0-5.11-6.49-5.82-8.61-2.25h0c0-.17,0-.33,0-.49.2-6.57.08-13.15-.32-19.71,0-.11,0-.21,0-.31l.42-.12a3.94,3.94,0,0,0,.49,1.06,3.77,3.77,0,0,0,5.86.76C206.23,324.06,206.23,321,206.34,318.35Z"/><path class="cls-4" d="M206.69,348.07a4.38,4.38,0,0,1,.06.83c0,.74,0,1.49-.05,2.23C206.7,350.11,206.7,349.09,206.69,348.07Z"/><path class="cls-4" d="M206.69,348.07c0,1,0,2,0,3.06,0,.12,0,.23,0,.35,0,2.19-.08,4.38-.14,6.57a1.13,1.13,0,0,0-.18,0,4.33,4.33,0,0,0-2.18.41c-.8-.31-1.59-.66-2.36-1A5,5,0,0,0,198,357c.12-2.55.2-5.09.21-7.65a5.58,5.58,0,0,0,0-.72c0-.47,0-.93,0-1.41h0c1.74-3.75,7.89-3.54,8.51.85A0,0,0,0,1,206.69,348.07Z"/><path class="cls-4" d="M206.69,346.94v1.11c-.62-4.39-6.77-4.6-8.51-.85h0c0-.83,0-1.67-.11-2.51h0C200.2,341.12,206.67,341.83,206.69,346.94Z"/><path class="cls-4" d="M206.69,351.48c0,2.2,0,4.38,0,6.58h-.1C206.61,355.86,206.65,353.67,206.69,351.48Z"/><path class="cls-4" d="M206.55,358.05h.1c0,5.15-.13,10.3-.25,15.45-4.86.1-8.17,3-9.94,7a4.78,4.78,0,0,1-.15-1.4c0-1.37.06-2.73.11-4.1.45-3.49.82-7,1.11-10.47a70.11,70.11,0,0,1,8.81.22C206.41,362.51,206.49,360.28,206.55,358.05Z"/><path class="cls-4" d="M206.55,358.05c-.06,2.23-.14,4.46-.21,6.69a70.11,70.11,0,0,0-8.81-.22c.22-2.51.39-5,.49-7.54a5,5,0,0,1,3.81.41c.77.38,1.56.73,2.36,1a4.33,4.33,0,0,1,2.18-.41A1.13,1.13,0,0,1,206.55,358.05Z"/><path class="cls-4" d="M202.43,313.07a4,4,0,0,1,4,4,2.22,2.22,0,0,0,0,.37l-.11.09c0-.09,0-.17,0-.24-.15-2.68-2,.25-3.11,2.66,1.05-.8,2.08-1.62,3.12-2.42,0,.26,0,.55.05.82-.11,2.62-.11,5.71-1.83,7.53a3.77,3.77,0,0,1-5.86-.76,3.94,3.94,0,0,1-.49-1.06c-.64-2.12.07-4.91.27-7A4.12,4.12,0,0,1,202.43,313.07Z"/><path class="cls-4" d="M206.4,373.51q0,2.79-.12,5.58c-.13,5.89-8.59,6.37-9.82,1.4C198.23,376.54,201.54,373.61,206.4,373.51Z"/><path class="cls-4" d="M206.29,317.53l.11-.09c0,.29,0,.6-.06.91C206.33,318.08,206.32,317.79,206.29,317.53Z"/><path class="cls-4" d="M206.28,317.29c0,.07,0,.15,0,.24-1,.8-2.07,1.62-3.12,2.42C204.27,317.54,206.13,314.61,206.28,317.29Z"/><path class="cls-4" d="M182,126.58a4.47,4.47,0,0,1-2.1,5.3l-36.88,22q-9,5.34-17.94,10.71c-2.4,1.42-5.27,2.84-7.07,5-2.19,2.65-2.09,6.09-2.1,9.32-.2,28.7,1.16,57.48,3,86.12a4.18,4.18,0,0,1-4.27,4.62,4.93,4.93,0,0,1-5.33-4.62q-1.59-24.5-2.37-49c-.23-7.57-.39-15.16-.51-22.73-.1-7-1.07-14.83.36-21.73a16.87,16.87,0,0,1,.63-2.24l-.27-.12Q91.09,160,75,150.75c-5.37-3.09-.53-11.38,4.85-8.3Q95.92,151.68,112,160.9a5.36,5.36,0,0,1,.69.51c6.22-6.1,15.76-10,22.48-14l39.87-23.77C178.23,121.71,181.22,123.86,182,126.58Z"/><path class="cls-5" d="M124.47,335.51c4.33-.53,7.41,6.15,2.87,9a6.29,6.29,0,0,1-7.68-.32h0c-1-1-1.94-2-2.91-3l0,0c-3.77-5-6.18-12.92-6.66-16.43-1.58-11.46-.92-23.54-.48-35.32a2.93,2.93,0,0,1-.29-.91c-.06-.44-.11-.86-.16-1.28h0v-.08a36.51,36.51,0,0,1-.24-7.54c.29-3.2.5-6.43,3.47-8.3a4.29,4.29,0,0,1,2.34-.65,4.93,4.93,0,0,1,3.48,1.4,5.2,5.2,0,0,1,1.36,5.15,2.86,2.86,0,0,1-.21.58,4.26,4.26,0,0,1,.09,1.08s0,.06,0,.08a2.28,2.28,0,0,1,0,.45q-.12,15.34-.28,30.73c0,5.07-.32,10.29.7,15.28C120.37,328,121.86,333.47,124.47,335.51Z"/><path class="cls-5" d="M116.74,341.21c1,1,2,2,2.91,3A14.3,14.3,0,0,1,116.74,341.21Z"/><path class="cls-4" d="M117.5,383.54c6,13.14-8,21.69-18.81,23.91C86.45,410,70,409.68,66.46,394.75a20,20,0,0,1,3.52-17c0,.35,0,.69,0,1,.15,4.4,4.86,5.68,7.65,3.87h0a5.23,5.23,0,0,0-.77,2.47,10.61,10.61,0,0,0,0,9c3.38,7.5,15.5,4.48,21.55,3,5.54-1.42,14.57-6.76,7.08-12.24-3.63-2.65-8.32-3.68-13-3.92a15.3,15.3,0,0,0-3.13-.73,14.44,14.44,0,0,0-8.33.3l-.11-.09c-.11.09-.23.16-.34.24-.42.16-.84.33-1.26.52a3.9,3.9,0,0,0-.35.19h0a5,5,0,0,0,.72-2.56c0-2.59.06-5.18,0-7.79h0a18.65,18.65,0,0,1,2.4-.57,4.92,4.92,0,0,0,3.95.1l.46.28C97.62,370,112.54,372.61,117.5,383.54Zm-3.94,6.22a2.24,2.24,0,0,1,0-.24l0,0C113.56,389.63,113.55,389.69,113.56,389.76Z"/><path class="cls-4" d="M113.59,389.52a2.24,2.24,0,0,0,0,.24c0-.07,0-.13,0-.21Z"/><path class="cls-7" d="M76.92,385.11a5.23,5.23,0,0,1,.77-2.47,3.48,3.48,0,0,1,1.3-1.31,3.9,3.9,0,0,1,.35-.19c.42-.19.84-.36,1.26-.52.11-.08.23-.15.34-.24l.11.09a14.44,14.44,0,0,1,8.33-.3,15.3,15.3,0,0,1,3.13.73c4.69.24,9.38,1.27,13,3.92,7.49,5.48-1.54,10.82-7.08,12.24-6,1.52-18.17,4.54-21.55-3A10.61,10.61,0,0,1,76.92,385.11Z"/><path class="cls-4" d="M79.75,371c0,2.61,0,5.2,0,7.79a5,5,0,0,1-.72,2.56h0a3.48,3.48,0,0,0-1.3,1.31h0c-2.79,1.81-7.5.53-7.65-3.87,0-.34,0-.68,0-1A19.44,19.44,0,0,1,79.75,371Z"/><path class="cls-4" d="M79.75,371h0A19.44,19.44,0,0,0,70,377.73c-.07-1.81-.14-3.62-.22-5.42a5,5,0,0,0,.2-1.77c-.14-2.57-.35-5.12-.59-7.68-.05-1-.09-2-.13-3a34.66,34.66,0,0,1,9.12.8q-.4-6.33-.77-12.68a1,1,0,0,1,.24.05c0-.33-.06-.66-.08-1-.46-5-.92-10.07-1.36-15.08a1.57,1.57,0,0,1,.2.25c.33,5.5,1.08,10.93,1.84,16.37a134.49,134.49,0,0,0,1.25,16.4C79.71,367,79.75,369,79.75,371Z"/><path class="cls-4" d="M77.75,347c0,.33.06.66.08,1a1,1,0,0,0-.24-.05c-.11-1.75-.22-3.49-.31-5.24-.3-5.11-7.14-5.8-8.74-1.89-.06-1.93-.11-3.86-.14-5.8-.09-4.2,5.74-5.76,8-3.09C76.83,336.93,77.29,342,77.75,347Z"/><path class="cls-4" d="M77.59,347.94q.38,6.35.77,12.68a34.66,34.66,0,0,0-9.12-.8c-.16-3.55-.3-7.1-.44-10.66a44.13,44.13,0,0,1,7.65-1.29A4.24,4.24,0,0,1,77.59,347.94Z"/><path class="cls-4" d="M77.28,342.7c.09,1.75.2,3.49.31,5.24a4.24,4.24,0,0,0-1.14-.07,44.13,44.13,0,0,0-7.65,1.29c-.1-2.78-.2-5.56-.26-8.35C70.14,336.9,77,337.59,77.28,342.7Z"/><path class="cls-4" d="M69.24,359.82h0c-.17-3.51-.48-7-.84-10.55l.44-.11C68.94,352.72,69.08,356.27,69.24,359.82Z"/><path class="cls-4" d="M68.8,349.16l-.44.11c0-.21,0-.42-.07-.63v-.06c-.05-2-.07-3.93-.1-5.88a4.62,4.62,0,0,1,.35-1.89C68.6,343.6,68.7,346.38,68.8,349.16Z"/></g><g id="Layer_7" data-name="Layer 7"><path class="cls-1" d="M366.88,178.51c3.46,7.65.38,16.23-2.09,23.7a101.77,101.77,0,0,1-10.18,22.68c-9.09,14.37-23.52,23.57-39.26,29.32C281,266.74,241.44,261,208.09,248a4.78,4.78,0,0,1-2.32-1.86,22.37,22.37,0,0,1-14.91,1.56,5.05,5.05,0,0,1-2.15-1.06c-6.71-1.92-13.5-7.54-11.6-15.35a9.53,9.53,0,0,1,4.63-6.24c-1.49-4-2.3-8.41-.53-11.57s4.85-3.65,8.09-3.22a8.78,8.78,0,0,1,4-5.76,7.87,7.87,0,0,1,6.66-.85c2.53-3.17,6.82-4.63,11.53-2.77,6.78,2.69,9.72,11,10.07,18,20.6,7.09,43.21,8,64.6,4.25,19.73-3.48,38.94-12.38,48-31.22a0,0,0,0,1,0,0c0-.12,0-.23,0-.35.81-8.51,5.58-16.25,13.52-19.88C355.31,168.2,363.4,170.82,366.88,178.51ZM355.49,197c1.14-3.6,2.91-7.88,2.55-11.7-.42-4.43-3.21-6-7-3.86a13.54,13.54,0,0,0-6.51,10.08,5.44,5.44,0,0,1-.69,2.08,5.47,5.47,0,0,1-.39,3.66c-9.58,20.56-31.25,31.67-52.68,35.64-23.2,4.29-48,3.75-70.33-4.42a30.06,30.06,0,0,1-6.71,11.75c33.52,9.35,68.85,16.72,102.3,2.64,16.46-6.93,28.56-18.19,35.5-34.73C353,204.52,354.3,200.77,355.49,197ZM209.73,228.58a19.79,19.79,0,0,0,1.73-10.15,16,16,0,0,0-1.16-4.67c-.42-1-2.8-5.53-2.48-2,.38,4.13-5.82,6.87-8.52,3.67a5.34,5.34,0,0,1,.21.64,5.11,5.11,0,0,1-7.42,5.7l-.23-.1a35.14,35.14,0,0,0,2.16,5.69c2.91,5.26-3.7,9.8-8,6.15.74.63.85,1.62,1.64,2.46a7.8,7.8,0,0,0,3.38,1.71,5.08,5.08,0,0,1,2.54,0C200.43,239.36,206.94,234.63,209.73,228.58Z"/><path class="cls-2" d="M358,185.32c.36,3.82-1.41,8.1-2.55,11.7s-2.46,7.5-4,11.14c-6.94,16.54-19,27.8-35.5,34.73-33.45,14.08-68.78,6.71-102.3-2.64a30.06,30.06,0,0,0,6.71-11.75c22.3,8.17,47.13,8.71,70.33,4.42,21.43-4,43.1-15.08,52.68-35.64a5.47,5.47,0,0,0,.39-3.66,5.44,5.44,0,0,0,.69-2.08A13.54,13.54,0,0,1,351,181.46C354.83,179.36,357.62,180.89,358,185.32Z"/><path class="cls-8" d="M211.46,218.43a19.79,19.79,0,0,1-1.73,10.15c-2.79,6-9.3,10.78-16.12,9.13a5.08,5.08,0,0,0-2.54,0,7.8,7.8,0,0,1-3.38-1.71c-.79-.84-.9-1.83-1.64-2.46,4.27,3.65,10.88-.89,8-6.15a35.14,35.14,0,0,1-2.16-5.69l.23.1a5.11,5.11,0,0,0,7.42-5.7,5.34,5.34,0,0,0-.21-.64c2.7,3.2,8.9.46,8.52-3.67-.32-3.55,2.06,1,2.48,2A16,16,0,0,1,211.46,218.43Z"/></g><g id="Layer_4" data-name="Layer 4"><path class="cls-4" d="M380.72,172.7c3.27,2.93,5.36,6.83,4.21,11.7a10.3,10.3,0,0,1-5.89,7.24,7.31,7.31,0,0,1-4.29.34,10.52,10.52,0,0,1,.4,3.05,13.59,13.59,0,0,1-2,6.35A10.48,10.48,0,0,1,363,206.3c-9.22-1.13-14.54-12.52-17.44-21.15-.08,0-.15.06-.25.08l-77.09,18.46c-10.79,2.58-21.85,6.22-32.87,7.58-7.31.9-16.09-1.84-18.26-9.77-2-7.43,3.67-13.12,10-15.79,9.64-4.07,20.91-5.43,31.06-7.81l67.55-15.8c5.37-1.24,11.84-3.42,17.68-2.66,0-.11,0-.22,0-.33a3.36,3.36,0,0,1,.24-1.69,4.67,4.67,0,0,1-.91-2.6C342,144,352,134.65,362.74,139.2a12.7,12.7,0,0,1,7.5,14.86c5,1,9.54,3.58,11.54,9A10.44,10.44,0,0,1,380.72,172.7Zm-8.32,9.21c1.63.2,4.07,1.85,2.88-1.21-.73-1.84-4.27-3-5.93-3.79-4.64-2.06-1.91-8.78,2.42-8.95,3.35-.12-2.13-4.37-3.33-4.66a25.3,25.3,0,0,0-6.68-.19c-4.95.24-6.27-6.54-2.42-8.94,3.24-2,1.67-6.39-1.93-6.57-4-.19-5.4,4-5.21,7.22a4.66,4.66,0,0,1-.22,1.68,6.33,6.33,0,0,1,.89,2.61,45.46,45.46,0,0,1,.19,7c1.26,3.27.63,7.13-1,10.66a4.66,4.66,0,0,1,1.61,2.39c1.47,5,3.68,11.75,7.63,15.47,6.57,6.18,2.46-5.1,3.1-7.84C365.32,183,368.74,181.45,372.4,181.91Zm-29.46-11.27c.1-.48.15-1,.21-1.44-1-.57-3-.29-4.09-.19-4.81.42-9.63,2.06-14.34,3.16l-32,7.49-32.06,7.49c-9.45,2.21-19.78,3.56-28.88,7-1.44.54-4.15,1.43-5,2.92-1.75,3.31,2.2,4.55,4.67,4.8,4.73.49,10-1.62,14.59-2.71l32.22-7.72,63-15.1a5.13,5.13,0,0,1,.51-.9c.38-.56.88-1.2,1.33-1.83A5.79,5.79,0,0,1,342.94,170.64Z"/><path class="cls-5" d="M375.28,180.7c1.19,3.06-1.25,1.41-2.88,1.21-3.66-.46-7.08,1.05-8,4.87-.64,2.74,3.47,14-3.1,7.84-3.95-3.72-6.16-10.46-7.63-15.47a4.66,4.66,0,0,0-1.61-2.39c1.61-3.53,2.24-7.39,1-10.66a45.46,45.46,0,0,0-.19-7,6.33,6.33,0,0,0-.89-2.61,4.66,4.66,0,0,0,.22-1.68c-.19-3.24,1.22-7.41,5.21-7.22,3.6.18,5.17,4.54,1.93,6.57-3.85,2.4-2.53,9.18,2.42,8.94a25.3,25.3,0,0,1,6.68.19c1.2.29,6.68,4.54,3.33,4.66-4.33.17-7.06,6.89-2.42,8.95C371,177.65,374.55,178.86,375.28,180.7Z"/><path class="cls-6" d="M343.15,169.2c-.06.48-.11,1-.21,1.44a5.79,5.79,0,0,0,.21,2.93c-.45.63-.95,1.27-1.33,1.83a5.13,5.13,0,0,0-.51.9l-63,15.1-32.22,7.72c-4.56,1.09-9.86,3.2-14.59,2.71-2.47-.25-6.42-1.49-4.67-4.8.8-1.49,3.51-2.38,5-2.92,9.1-3.4,19.43-4.75,28.88-7l32.06-7.49,32-7.49c4.71-1.1,9.53-2.74,14.34-3.16C340.18,168.91,342.13,168.63,343.15,169.2Z"/><path class="cls-1" d="M35.44,199.25c2.18,5.38,1.47,10.91-1.92,15a12.81,12.81,0,0,1-2.27,12.54c2.59,3.91,5.16,7.87,1.13,12.41s-10.61,3.25-15.2.78C2.5,232,1.92,213.67,2.74,199.12a4.65,4.65,0,0,1,1.75-3.51c-.1-12.86,21.28-30.73,29-14.25a15.57,15.57,0,0,1,.75,10.32c-.24.92-1.4,2.71-1.52,3.68C33,194.87,35.23,198.72,35.44,199.25ZM25.25,209c4.41-2.87.39-7-1.14-10-1.3-2.51-1.07-4.48-.22-7.06,1-3.17,2.47-8.94-3-6.45-3.76,1.73-7.19,7.42-6.73,11.31a3.77,3.77,0,0,1-1.92,4c-.46,7.94-.9,16.6,3,23.75a17.37,17.37,0,0,0,7.51,7.54c3.05,1.49,1,.59.38-.41A40.76,40.76,0,0,1,20.74,228c-1.09-2.16-.7-5.4,1.73-6.56,1.74-.84,3.4-3,1.8-4.92C22.28,214.09,22.45,210.82,25.25,209Z"/><path class="cls-8" d="M24.11,199c1.53,3,5.55,7.16,1.14,10-2.8,1.81-3,5.08-1,7.54,1.6,1.95-.06,4.08-1.8,4.92-2.43,1.16-2.82,4.4-1.73,6.56a40.76,40.76,0,0,0,2.39,3.64c.65,1,2.67,1.9-.38.41a17.37,17.37,0,0,1-7.51-7.54c-3.89-7.15-3.45-15.81-3-23.75a3.77,3.77,0,0,0,1.92-4c-.46-3.89,3-9.58,6.73-11.31,5.46-2.49,4,3.28,3,6.45C23,194.5,22.81,196.47,24.11,199Z"/></g></svg>