<svg xmlns="http://www.w3.org/2000/svg" viewBox="0 0 420.92 420.92"><defs><style>.cls-1{fill:#1c1e23;}.cls-2{fill:#7c889b;}.cls-3{fill:#540f3c;}.cls-4{fill:#d72984;}.cls-5{fill:#818181;}.cls-6{fill:#971e5a;}.cls-7{fill:#124a31;}.cls-8{fill:#219968;}.cls-9{fill:#2eb780;}</style></defs><g id="Layer_4" data-name="Layer 4"><path class="cls-1" d="M33.64,197.78c2.13,5.25,1.44,10.65-1.88,14.64a12.47,12.47,0,0,1-2.21,12.23c2.53,3.82,5,7.68,1.1,12.11s-10.35,3.17-14.83.76C1.5,229.78.94,211.85,1.74,197.65a4.52,4.52,0,0,1,1.71-3.42c-.11-12.55,20.76-30,28.29-13.91a15.21,15.21,0,0,1,.73,10.07c-.24.91-1.36,2.65-1.48,3.6C31.22,193.51,33.44,197.27,33.64,197.78Zm-9.95,9.52c4.31-2.79.39-6.87-1.11-9.79-1.26-2.44-1-4.36-.21-6.88,1-3.09,2.41-8.73-2.92-6.29-3.66,1.69-7,7.24-6.57,11A3.66,3.66,0,0,1,11,199.28c-.44,7.76-.88,16.2,2.92,23.18a17,17,0,0,0,7.33,7.35c3,1.46,1,.58.37-.39a40.18,40.18,0,0,1-2.33-3.55c-1.06-2.11-.69-5.27,1.69-6.41,1.7-.82,3.31-2.89,1.76-4.8C20.8,212.26,21,209.07,23.69,207.3Z"/><path class="cls-2" d="M22.58,197.51c1.5,2.92,5.42,7,1.11,9.79-2.72,1.77-2.89,5-.94,7.36,1.55,1.91-.06,4-1.76,4.8-2.38,1.14-2.75,4.3-1.69,6.41a40.18,40.18,0,0,0,2.33,3.55c.64,1,2.6,1.85-.37.39a17,17,0,0,1-7.33-7.35c-3.8-7-3.36-15.42-2.92-23.18a3.66,3.66,0,0,0,1.87-3.91c-.44-3.79,2.91-9.34,6.57-11,5.33-2.44,3.94,3.2,2.92,6.29C21.54,193.15,21.32,195.07,22.58,197.51Z"/><path class="cls-3" d="M399.77,224.29c10-1,17,9.22,16.28,18.41-.75,9.79-10.11,16-19.43,15.63-9.57-.37-17.61-8-16.36-17.87,1.17-9.15,8.9-16.24,17.95-15.74A4.72,4.72,0,0,1,399.77,224.29Zm7,17.29c.13-3.78-2.13-7.62-5.88-7.92a4.82,4.82,0,0,1-3,.35c-4.42-.85-8.26,4.06-8.44,8.1-.18,4.63,4.1,7,8.26,6.88S406.59,246.3,406.74,241.58Z"/><path class="cls-3" d="M415.53,154c5.71,9.73,3.86,24.16-6.32,30.21a20.51,20.51,0,0,1-19,.76,39.65,39.65,0,0,0-3.82-2.55,15,15,0,0,1-4.09-6c-1.61-8.76,1.27-15.8,5.61-21.9.28-2.19.71-2.19,2.14-4.13C396.9,141.09,410.25,145,415.53,154Zm-12.2,22.72c5.43-2.42,7-9.14,5.58-14.49a10.67,10.67,0,0,0-4.67-6.71,8.2,8.2,0,0,0-.75-.41,3.89,3.89,0,0,0-2.2-.8h0a3,3,0,0,0-3,.62,12.34,12.34,0,0,0-7,7.26,17.22,17.22,0,0,0-.91,5.19,8.3,8.3,0,0,0,.59,5.42C392.9,177.64,399.21,178.56,403.33,176.73Z"/><path class="cls-4" d="M408.91,162.24c1.42,5.35-.15,12.07-5.58,14.49-4.12,1.83-10.43.91-12.32-3.92a8.3,8.3,0,0,1-.59-5.42c.1,3.27,2.09,4.31,5.43,3.82,6-.88,10.89-2.34,6.63-6.63-.1-.09-.38-.44-.55-.61a3.68,3.68,0,0,0,0-.45c-.08.24-.08.12-.06,0a4.64,4.64,0,0,0,3.62-4.48,5,5,0,0,0-2-3.89,8.2,8.2,0,0,1,.75.41A10.67,10.67,0,0,1,408.91,162.24Z"/><path class="cls-4" d="M400.86,233.66c3.75.3,6,4.14,5.88,7.92-.15,4.72-4.72,7.3-9,7.41s-8.44-2.25-8.26-6.88c.18-4,4-9,8.44-8.1A4.82,4.82,0,0,0,400.86,233.66Z"/><path class="cls-4" d="M405.53,159a4.64,4.64,0,0,1-3.62,4.48l-3.3-.79c2.82-1.52,2.21-5.78-.37-7.68l.07-.08a8.66,8.66,0,0,1,2.54-.62h.44a10,10,0,0,1,2.2.8A5,5,0,0,1,405.53,159Z"/><path class="cls-4" d="M402.48,164.58c4.26,4.29-.66,5.75-6.63,6.63-3.34.49-5.33-.55-5.43-3.82.82-2.7,3.71-3.8,6.66-4.23a4.74,4.74,0,0,0,1.53-.46l3.3.79c0,.15,0,.27.06,0a3.68,3.68,0,0,1,0,.45C402.1,164.14,402.38,164.49,402.48,164.58Z"/><path class="cls-4" d="M403.49,155.12a10,10,0,0,0-2.2-.8A3.89,3.89,0,0,1,403.49,155.12Z"/><path class="cls-4" d="M401.27,154.32h-.42a8.66,8.66,0,0,0-2.54.62A3,3,0,0,1,401.27,154.32Z"/><path class="cls-3" d="M388.62,82.16c7.75,6.72,12.91,16,11.34,26.46-1,6.95-5,13.57-11.22,16.54a126,126,0,0,1-7.95,10.48c-3.88,4.56-8.88,10.78-15.49,10.8-11.5.06-11.79-15.45-19.53-21.12-16.16-11.82-39.94-3-53.75,8.13-17.54,14.1-29.25,35.79-30.87,58.3-1.59,22.3,6.88,47.11,26.42,59.55,17.21,11,43.35,9.19,55.87-8.15a4.84,4.84,0,0,1,6.4-1.67q11.36,5.67,22.7,11.34c3.4,1.69,7.8,3.12,10.86,5.42,2.41,1.84,2.63,4.51,2.94,7.39,1.3,12.06-4.57,23.5-12.83,31.95a61.84,61.84,0,0,1-5.58,5.06,244.5,244.5,0,0,1,6.56,29.12,10.86,10.86,0,0,1,1.95-.35c6.67-.55,11,5.46,11.83,11.44,1.87,13.6-10.13,24.28-21.82,28.38S338,371.49,339.83,356c1.62-13.61,14.2-17.92,26-19.45a227.36,227.36,0,0,0-6.05-28.31c-17.59,10.21-39.69,12.71-59.51,10.06a112.3,112.3,0,0,1-38.5-12.5l1.4,20.36a13.55,13.55,0,0,1,13,4.84c9.94,11.93-.11,27.23-11.78,33-11.85,5.89-31.77,3.39-32.51-13.27-.55-12.45,11.67-17.89,22.26-20q-1.05-15.41-2.1-30.84c-24.89-16.61-43.65-42.33-54.24-71-14.89-40.3-13.05-87,6.8-125.35C214,85.28,227.89,69.3,245.23,58.15c22.31-14.37,48-18.44,73.58-11.43,12.92,3.52,25.21,9.21,37,15.43C367,68,379,73.86,388.62,82.16Zm2.11,24.92a17,17,0,0,0-1.59-9.71c-5.23-10.2-17.32-15.68-26.85-21-21.72-12.2-45.51-24.57-71.12-23.87-38.1,1-69.23,32-83,65.49-13.45,32.59-14.2,69.83-3.16,103.2,12.43,37.5,39.75,71.39,78.27,83.73,19.36,6.19,40.52,7,59.92.5a65.44,65.44,0,0,0,14.21-6.79c2.49-1.79,2.49-1.79,5.12-3.66,9.31-7.4,16.11-17.61,14.37-29.52l-28.13-14.06c-15.62,17.64-43.19,21-63.69,9.36-21.15-12-32.52-36.64-33.41-60.27-.91-24.51,9.17-49,26.08-66.56,15.23-15.85,37-26.67,59.38-22.18,9.18,1.85,17.84,7,22.5,15.34,1.3,2.32,1.94,6.34,3.71,8.27,3,3.29,5.74-.63,8.08-3.17,1.91-2.06,3.71-4.2,5.42-6.41a48.19,48.19,0,0,0,9.31-9.29c1.42-1.95,3.38-4.3,4.19-6.55a8.55,8.55,0,0,0,.43-2.8ZM379.1,345.7a5.57,5.57,0,0,0-.41-2.89,3.16,3.16,0,0,0-2-2.42c-4.1,1.6-4,1.18-8.62,3-6,1.23-12.3,3.36-16.46,8.09-4.46,5.08-2.9,12.05,4.45,12.25,6.07.17,12.69-2.94,17.12-6.93a17.83,17.83,0,0,0,5.31-7.67A12,12,0,0,0,379.1,345.7Zm-108.36-5a4.75,4.75,0,0,0-1.65-3.53,5.51,5.51,0,0,0-3.44-1.69,4.54,4.54,0,0,0-4.25.22,4.91,4.91,0,0,0-.79.64,20.55,20.55,0,0,0-9,4.48,18.73,18.73,0,0,0-7.74,3.94c-6.45,5.9.7,13.32,7.65,13.29,7.13,0,16.44-5.47,18.74-12.52a10.73,10.73,0,0,0,.5-4.16C270.73,341.11,270.74,340.89,270.74,340.66Z"/><path class="cls-4" d="M398.24,155c2.58,1.9,3.19,6.16.37,7.68a4.74,4.74,0,0,1-1.53.46c-2.95.43-5.84,1.53-6.66,4.23a17.22,17.22,0,0,1,.91-5.19,12.34,12.34,0,0,1,7-7.26Z"/><path class="cls-4" d="M389.14,97.37a17,17,0,0,1,1.59,9.71,24.58,24.58,0,0,0-1.3-6.77c-1.76-5.75-10.8-3.29-9,2.49a14.7,14.7,0,0,1,.79,4.28,57.38,57.38,0,0,1-5,6.73,72.24,72.24,0,0,1-9.6,8c-4.82,3.53-.14,11.67,4.72,8.08,1.85-1.35,3.72-2.74,5.52-4.16-1.71,2.21-3.51,4.35-5.42,6.41-2.34,2.54-5.05,6.46-8.08,3.17-1.77-1.93-2.41-6-3.71-8.27-4.66-8.33-13.32-13.49-22.5-15.34-22.35-4.49-44.15,6.33-59.38,22.18-16.91,17.59-27,42-26.08,66.56.89,23.63,12.26,48.29,33.41,60.27,20.5,11.61,48.07,8.28,63.69-9.36l28.13,14.06c1.74,11.91-5.06,22.12-14.37,29.52-2.63,1.87-2.63,1.87-5.12,3.66a65.44,65.44,0,0,1-14.21,6.79c-19.4,6.46-40.56,5.69-59.92-.5-38.52-12.34-65.84-46.23-78.27-83.73-11-33.37-10.29-70.61,3.16-103.2,13.81-33.47,44.94-64.45,83-65.49,25.61-.7,49.4,11.67,71.12,23.87C371.82,81.69,383.91,87.17,389.14,97.37Z"/><path class="cls-4" d="M390.73,107.08v0a15,15,0,0,1-.88,3.49,4.28,4.28,0,0,0-4.33,2.2c-.89,1.51-1.82,3-2.75,4.48a12,12,0,0,1-1.22.28c-3.26.49-4,3.42-3,5.83-.58.8-1.17,1.58-1.78,2.36-1.8,1.42-3.67,2.81-5.52,4.16-4.86,3.59-9.54-4.55-4.72-8.08a72.24,72.24,0,0,0,9.6-8,57.38,57.38,0,0,0,5-6.73,14.7,14.7,0,0,0-.79-4.28c-1.76-5.78,7.28-8.24,9-2.49A24.58,24.58,0,0,1,390.73,107.08Z"/><path class="cls-4" d="M390.73,107.11a8.55,8.55,0,0,1-.43,2.8c-.81,2.25-2.77,4.6-4.19,6.55a48.19,48.19,0,0,1-9.31,9.29c.61-.78,1.2-1.56,1.78-2.36-1-2.41-.29-5.34,3-5.83a12,12,0,0,0,1.22-.28c.93-1.48,1.86-3,2.75-4.48a4.28,4.28,0,0,1,4.33-2.2A15,15,0,0,0,390.73,107.11Z"/><path class="cls-3" d="M382,200.7c1.42,8.13-3,17.38-11,20.24s-18.1-1.48-20.89-9.72c-2.42-7.08.77-13.36,5.38-18.47,4.79-1.87,9-5,14.76-4.18a25,25,0,0,1,5.85,1.64A18.41,18.41,0,0,1,382,200.7Zm-14.77,11.63c4.27-1.13,6.43-6.44,5.48-10.47a10.19,10.19,0,0,0-6.12-6.89c-3.47,2.79-7.42,6.31-7.84,10.65S363,213.43,367.18,212.33Z"/><path class="cls-5" d="M378.69,342.81a5.57,5.57,0,0,1,.41,2.89,12,12,0,0,1-.62,3.41,17.83,17.83,0,0,1-5.31,7.67c-4.43,4-11.05,7.1-17.12,6.93-7.35-.2-8.91-7.17-4.45-12.25,4.16-4.73,10.47-6.86,16.46-8.09,4.62-1.8,4.52-1.38,8.62-3A3.16,3.16,0,0,1,378.69,342.81Z"/><path class="cls-4" d="M372.66,201.86c.95,4-1.21,9.34-5.48,10.47s-8.92-2.33-8.48-6.71,4.37-7.86,7.84-10.65A10.19,10.19,0,0,1,372.66,201.86Z"/><path class="cls-3" d="M335.64,187.13c1.94,16.27-9.77,33.21-26.74,33.85-14.54.55-29.23-10.34-29.52-25.54-.32-16.09,15.24-30.6,31.25-28.56a5,5,0,0,1,1.55.46C323.07,166,334.22,175.2,335.64,187.13Zm-9.64,8c1.18-5.53.44-12.53-4.4-16.19a11.55,11.55,0,0,0-1.81-1.11A18.28,18.28,0,0,0,301,178a1.74,1.74,0,0,1-.18-.33,19.55,19.55,0,0,0-12.08,16.25c-.69,9.25,7.37,16.1,15.93,17.47C315.47,213.11,323.8,205.4,326,195.15Z"/><path class="cls-6" d="M321.6,179c4.84,3.66,5.58,10.66,4.4,16.19-2.2,10.25-10.53,18-21.29,16.23-8.56-1.37-16.62-8.22-15.93-17.47a19.55,19.55,0,0,1,12.08-16.25,1.74,1.74,0,0,0,.18.33l-.21.13a6.56,6.56,0,0,0-2.26,1.24,6.13,6.13,0,0,0-2.1,4c-.11.26-.24.5-.33.76a4.23,4.23,0,0,0,0,3.07c.94,4.46,8.09,5.84,9,.6.06-.31.08-.61.13-.9.92-.07,2.13-.46,2.78-.52a27.49,27.49,0,0,1,8.3.2A4.7,4.7,0,0,0,320,178l-.21-.13A11.55,11.55,0,0,1,321.6,179Z"/><path class="cls-6" d="M320,178a4.7,4.7,0,0,1-3.6,8.56,27.49,27.49,0,0,0-8.3-.2c-.65.06-1.86.45-2.78.52-.05.29-.07.59-.13.9-.92,5.24-8.07,3.86-9-.6a4.23,4.23,0,0,1,0-3.07c.09-.26.22-.5.33-.76a6.13,6.13,0,0,1,2.1-4,6.56,6.56,0,0,1,2.26-1.24L301,178c1.43,2.34,4.78,3.63,7.35,1.16,3.06-3,7.69-3.15,11.4-1.3Z"/><path class="cls-6" d="M319.79,177.85c-3.71-1.85-8.34-1.67-11.4,1.3-2.57,2.47-5.92,1.18-7.35-1.16A18.28,18.28,0,0,1,319.79,177.85Z"/><path class="cls-5" d="M269.09,337.13a4.75,4.75,0,0,1,1.65,3.53c0,.23,0,.45,0,.67a7.63,7.63,0,0,0-1.43-4A1.33,1.33,0,0,0,269.09,337.13Z"/><path class="cls-5" d="M270.72,341.33a10.73,10.73,0,0,1-.5,4.16c-2.3,7.05-11.61,12.48-18.74,12.52-6.95,0-14.1-7.39-7.65-13.29a18.73,18.73,0,0,1,7.74-3.94,20,20,0,0,0-4.46,5.45c-2.28,4.07,2,7.81,5.47,6.88a6.4,6.4,0,0,0,2.52,1.62c3.21,1.09,6.37-.21,8.85-2.27a15.22,15.22,0,0,0,2.79-3.21C269.37,347.75,270.55,344.4,270.72,341.33Z"/><path class="cls-5" d="M270.72,341.33c-.17,3.07-1.35,6.42-4,7.92a15.22,15.22,0,0,1-2.79,3.21c-2.48,2.06-5.64,3.36-8.85,2.27a6.4,6.4,0,0,1-2.52-1.62A4.35,4.35,0,0,0,255.2,351a11.76,11.76,0,0,1,3-3.57,10.23,10.23,0,0,1,5.53-2.22,4.79,4.79,0,0,0,4.69-4.68c0-2.37-2.14-4.89-4.69-4.69l-.17,0c0-.12.07-.25.09-.38a5.42,5.42,0,0,1,2,0,4.16,4.16,0,0,1,.48.22c.19.11.34.24.52.34a4.25,4.25,0,0,1,2.44,1.13,1.33,1.33,0,0,1,.2.22A7.63,7.63,0,0,1,270.72,341.33Z"/><path class="cls-5" d="M268.45,340.49a4.79,4.79,0,0,1-4.69,4.68,10.23,10.23,0,0,0-5.53,2.22l-2-2.51a5.07,5.07,0,0,0,5.12-5.88,1.52,1.52,0,0,1,0-.21,5,5,0,0,0,2.31-3l.17,0C266.31,335.6,268.45,338.12,268.45,340.49Z"/><path class="cls-5" d="M269.09,337.13a4.25,4.25,0,0,0-2.44-1.13c-.18-.1-.33-.23-.52-.34a4.16,4.16,0,0,0-.48-.22A5.51,5.51,0,0,1,269.09,337.13Z"/><path class="cls-5" d="M265.65,335.44a5.42,5.42,0,0,0-2,0c0,.13-.06.26-.09.38a18.67,18.67,0,0,0-3,.47,4.91,4.91,0,0,1,.79-.64A4.54,4.54,0,0,1,265.65,335.44Z"/><path class="cls-5" d="M263.59,335.83a5,5,0,0,1-2.31,3,1.52,1.52,0,0,0,0,.21,5.07,5.07,0,0,1-5.12,5.88,3.77,3.77,0,0,1-3.86-3.1l.14-.13a4.89,4.89,0,0,1,5.71-.65,4.11,4.11,0,0,1,.76-1.75,5.43,5.43,0,0,1,1.67-2.95A18.67,18.67,0,0,1,263.59,335.83Z"/><path class="cls-5" d="M260.61,336.3a5.43,5.43,0,0,0-1.67,2.95,4.11,4.11,0,0,0-.76,1.75,4.89,4.89,0,0,0-5.71.65l-.14.13c0-.1,0-.19-.05-.28-.06-.31-.1-.6-.13-.88-.19,0-.39.1-.58.16A20.55,20.55,0,0,1,260.61,336.3Z"/><path class="cls-5" d="M256.19,344.88l2,2.51a11.76,11.76,0,0,0-3,3.57,4.35,4.35,0,0,1-2.62,2.15,6.86,6.86,0,0,1-1.35-1.89,5.67,5.67,0,0,1-1.75-3.88A4.9,4.9,0,0,1,251,343a4.46,4.46,0,0,1,.76-.63,6.85,6.85,0,0,1,.58-.62A3.77,3.77,0,0,0,256.19,344.88Z"/><path class="cls-5" d="M252.28,341.5c0,.09,0,.18.05.28a6.85,6.85,0,0,0-.58.62,4.46,4.46,0,0,0-.76.63,4.9,4.9,0,0,0-1.51,4.31,5.67,5.67,0,0,0,1.75,3.88,6.86,6.86,0,0,0,1.35,1.89c-3.44.93-7.75-2.81-5.47-6.88a20,20,0,0,1,4.46-5.45c.19-.06.39-.12.58-.16C252.18,340.9,252.22,341.19,252.28,341.5Z"/><path class="cls-7" d="M244.77,260.16c.09,5.78.2,11.77-1.85,17.27-2.3,6.17-7.1,10.37-12.13,14.33-6.13,4.82-12.33,9.58-18.49,14.37l-11.75,9.13c0-.08,0-.15,0-.23-.16-2.61-2,.25-3,2.6l3.05-2.37c.69,11.33,1.39,29.42.27,40.58a15.88,15.88,0,0,1,13.63,13.05c1.7,10.76-6.77,20.69-17.32,21.82-10,1.06-21.07-5.52-20.9-16.47.14-8.49,7-15.85,15.08-16.59a203.33,203.33,0,0,0,.87-35.58,3,3,0,0,1,0-.32l-17.78,13.83L155,350.67c-5.42,4.22-10.79,9.4-16.77,12.82-12.5,7.15-22.71-9.23-30.17-16.94L76,313.46c-1.34-1.38-2.67-2.77-4-4.15l1.65,18.39c.49,5.44,1,10.89,1.48,16.32.21,2.34.41,4.68.62,7,.18,2.11-.31,7.61.84,9.32a4.75,4.75,0,0,1,.64,1.2,3.47,3.47,0,0,1,1.39.12c2.08.47,5.29-.61,7.54-.51a24.82,24.82,0,0,1,10.43,2.55c5.76,3,9.86,9.31,9.27,16-1.27,14.16-23,19.62-34,15-11.51-4.79-16.55-21.67-6.32-30.37a4.63,4.63,0,0,1,2.1-1.05c-.07-.31-.14-.62-.18-.93-1.19-6.75-1.32-13.83-1.92-20.66l-3.87-43q-9.48-9.76-18.91-19.57c-9-9.42-18.1-19.31-24-31.11-6.21-12.52-8.44-26.35-9.43-40.17C8.27,192.68,8,177.44,7.41,162.25c-.54-13.8-3.22-29.56.6-43.06S24,96.3,33.46,86.83L101.9,18.05c3,.7,3.89,1.2,8,4a5.32,5.32,0,0,1,1.4.35,448.43,448.43,0,0,1,84.57,47.26C208.17,78.43,221.9,87.6,232,99c10.58,11.89,10.58,26,10.82,41.06l1.56,95.64Q244.58,247.91,244.77,260.16ZM235.4,267c.36-6.52-.09-13.16-.2-19.69q-.34-21.57-.7-43.15T233.79,161c-.11-7.78-.24-15.54-.37-23.32-.11-6.42.16-13-1.29-19.33a28.36,28.36,0,0,0-4.54-9.91c-4.92-7-12.51-12.45-19.08-17.66-10.32-8.19-21-15.87-32.07-23.07a449.56,449.56,0,0,0-69.91-37.25,3.91,3.91,0,0,1-2-1.74l-66,66.37c-5.36,5.39-11.18,10.56-15.94,16.48-5.18,6.43-6.73,13.62-6.75,21.72-.05,15.39,1.1,30.85,1.71,46.21,1.08,27.54.68,55.15,18.48,77.91,8,10.27,17.6,19.36,26.66,28.7,1.5,1.56,3,3.11,4.49,4.65,1.81,1.88,1.63,1.66,3.49,3.61l21.67,22.37,20.82,21.5a14.18,14.18,0,0,0,3,3.08l6.64,6.87c1.94,2,5,6.68,7.64,7.49,3.58,1.07,8.18-4,10.64-5.91l15.72-12.22c23-17.85,46.22-35.4,68.92-53.59C231.49,279.28,235,274.75,235.4,267ZM205.27,371.91a6.4,6.4,0,0,0-5.82-6.79,5,5,0,0,1-5.32,2c-4.67-1.3-9.52,4-8.39,8.67,1,4.26,6.27,6,10.13,5.63A10.18,10.18,0,0,0,205.27,371.91ZM96.16,380.1c1.29-3-1-6.33-3.48-7.89-5.58-3.46-11.6-.25-17.45-1.06a9.41,9.41,0,0,1-2.54-.75,5.61,5.61,0,0,1-.54.56c-3.77,3.21-3.51,8.8-.37,12.51,4.17,4.91,12,4.16,17.27,1.81C91.28,384.31,95.15,382.46,96.16,380.1Z"/><path class="cls-8" d="M235.2,247.33c.11,6.53.56,13.17.2,19.69-.43,7.73-3.91,12.26-9.78,17-22.7,18.19-46,35.74-68.92,53.59L141,349.79c-2.46,1.92-7.06,7-10.64,5.91-2.69-.81-5.7-5.48-7.64-7.49l-6.64-6.87a6.11,6.11,0,0,0,7.44.28c4.42-2.81,1.42-9.32-2.8-8.8-2.54-2-4-7.31-4.51-9.84-1-4.87-.72-10-.67-14.91q.12-15,.27-30a2.86,2.86,0,0,0,0-.43.16.16,0,0,1,0-.09,4,4,0,0,0-.09-1,4.74,4.74,0,0,0,.2-.56,5.09,5.09,0,0,0-1.32-5,4.84,4.84,0,0,0-3.38-1.36l0-1a4,4,0,0,0,4.16-4.48c-1.82-27.95-3.13-56-3-84,0-3.14-.07-6.5,2-9.08,1.77-2.14,4.55-3.51,6.9-4.92q8.75-5.24,17.52-10.43,18-10.74,36-21.46a4.4,4.4,0,0,0,2.05-5.18l1.11-.41a4.78,4.78,0,0,0,5.76,3.27,16.71,16.71,0,0,0,6.3-2.91,5,5,0,0,0,1.52-.54,111.18,111.18,0,0,1,33.17-12.09c2.66-.51,3.68-3.43,3.28-5.76,0-.18-.06-.34-.09-.52a3.64,3.64,0,0,0-.59-1.36l.26-.17a28.36,28.36,0,0,1,4.54,9.91c1.45,6.29,1.18,12.91,1.29,19.33.13,7.78.26,15.54.37,23.32q.36,21.58.71,43.16T235.2,247.33Z"/><path class="cls-8" d="M228,110.51c.4,2.33-.62,5.25-3.28,5.76a111.18,111.18,0,0,0-33.17,12.09,5,5,0,0,1-1.52.54,16.71,16.71,0,0,1-6.3,2.91,4.78,4.78,0,0,1-5.76-3.27,4.72,4.72,0,0,1,3.28-5.76c.59-.14,1.18-.33,1.77-.51,0,0,0,0,0,0,.24-.15.51-.26.74-.4s.53-.34.8-.51a.94.94,0,0,0,.1-.1,16.26,16.26,0,0,0,1.17-1.18,4.21,4.21,0,0,1,3.81-1.29,119.16,119.16,0,0,1,30.19-11,4.49,4.49,0,0,1,4.25-1.13,4.87,4.87,0,0,1,.52.12,4.71,4.71,0,0,1,2.68,1.9,3.64,3.64,0,0,1,.59,1.36C228,110.17,228,110.33,228,110.51Z"/><path class="cls-9" d="M227.59,108.46l-.26.17a4.71,4.71,0,0,0-2.68-1.9,4.87,4.87,0,0,0-.52-.12,4.49,4.49,0,0,0-4.25,1.13,119.16,119.16,0,0,0-30.19,11,4.21,4.21,0,0,0-3.81,1.29,16.26,16.26,0,0,1-1.17,1.18.94.94,0,0,1-.1.1c-.27.17-.53.35-.8.51s-.5.25-.74.4c0,0,0,0,0,0-.59.18-1.18.37-1.77.51a4.72,4.72,0,0,0-3.28,5.76l-1.11.41c-.79-2.65-3.71-4.75-6.79-2.91q-19.44,11.6-38.9,23.2c-6.57,3.91-15.87,7.75-21.94,13.7a5.28,5.28,0,0,0-.69-.49l-31.38-18c-5.25-3-10,5.08-4.74,8.08q15.69,9,31.4,18c.08.05.18.07.26.12a16.78,16.78,0,0,0-.61,2.19c-1.39,6.73-.46,14.35-.35,21.19.1,7.4.28,14.79.5,22.19q.74,23.93,2.31,47.83a4.79,4.79,0,0,0,5.21,4.48l0,1a4.31,4.31,0,0,0-2.3.63c-2.89,1.83-3.1,5-3.38,8.11a35.37,35.37,0,0,0,.23,7.35v.07h0c.05.42.09.83.15,1.26a3.4,3.4,0,0,0,.27.89c-.42,11.5-1,23.28.48,34.45.47,3.4,2.8,11.05,6.43,15.95l-20.82-21.5L70.58,294.39c-1.86-1.95-1.68-1.73-3.49-3.61-1.5-1.54-3-3.09-4.49-4.65-9.06-9.34-18.63-18.43-26.66-28.7-17.8-22.76-17.4-50.37-18.48-77.91-.61-15.36-1.76-30.82-1.71-46.21,0-8.1,1.57-15.29,6.75-21.72,4.76-5.92,10.58-11.09,15.94-16.48l66.05-66.37a3.91,3.91,0,0,0,2,1.74,449.56,449.56,0,0,1,69.91,37.25c11,7.2,21.75,14.88,32.07,23.07C215.08,96,222.67,101.43,227.59,108.46Z"/><path class="cls-5" d="M199.45,365.12a6.4,6.4,0,0,1,5.82,6.79,10.18,10.18,0,0,1-9.4,9.54c-3.86.34-9.1-1.37-10.13-5.63-1.13-4.68,3.72-10,8.39-8.67A5,5,0,0,0,199.45,365.12Z"/><path class="cls-7" d="M200.53,315c0,.08,0,.15,0,.23l-3.05,2.37C198.55,315.28,200.37,312.42,200.53,315Z"/><path class="cls-7" d="M176.87,129a4.4,4.4,0,0,1-2.05,5.18q-18,10.71-36,21.46-8.78,5.21-17.52,10.43c-2.35,1.41-5.13,2.78-6.9,4.92-2.12,2.58-2,5.94-2,9.08-.18,28,1.13,56.09,3,84a4,4,0,0,1-4.16,4.48,4.79,4.79,0,0,1-5.21-4.48q-1.55-23.91-2.31-47.83c-.22-7.4-.4-14.79-.5-22.19-.11-6.84-1-14.46.35-21.19a16.78,16.78,0,0,1,.61-2.19c-.08,0-.18-.07-.26-.12q-15.7-9-31.4-18c-5.23-3-.51-11.09,4.74-8.08l31.38,18a5.28,5.28,0,0,1,.69.49c6.07-5.95,15.37-9.79,21.94-13.7q19.44-11.61,38.9-23.2C173.16,124.2,176.08,126.3,176.87,129Z"/><path class="cls-8" d="M120.7,332.82c4.22-.52,7.22,6,2.8,8.8a6.11,6.11,0,0,1-7.44-.28l-3-3.08c-3.63-4.9-6-12.55-6.43-15.95-1.53-11.17-.9-22.95-.48-34.45a3.4,3.4,0,0,1-.27-.89c-.06-.43-.1-.84-.15-1.26h0v-.07a35.37,35.37,0,0,1-.23-7.35c.28-3.14.49-6.28,3.38-8.11a4.31,4.31,0,0,1,2.3-.63,4.84,4.84,0,0,1,3.38,1.36,5.09,5.09,0,0,1,1.32,5,4.74,4.74,0,0,1-.2.56,4,4,0,0,1,.09,1,.16.16,0,0,0,0,.09,2.86,2.86,0,0,1,0,.43q-.14,15-.27,30c0,4.94-.32,10,.67,14.91C116.7,325.51,118.16,330.83,120.7,332.82Z"/><path class="cls-8" d="M113.07,338.26l3,3.08A14.18,14.18,0,0,1,113.07,338.26Z"/><path class="cls-5" d="M92.68,372.21c2.5,1.56,4.77,4.88,3.48,7.89-1,2.36-4.88,4.21-7.11,5.18-5.31,2.35-13.1,3.1-17.27-1.81-3.14-3.71-3.4-9.3.37-12.51a5.61,5.61,0,0,0,.54-.56,9.41,9.41,0,0,0,2.54.75C81.08,372,87.1,368.75,92.68,372.21Z"/><path class="cls-7" d="M362.8,205c3.21,2.85,5.24,6.66,4.12,11.42a10.07,10.07,0,0,1-5.75,7.05,7.22,7.22,0,0,1-4.19.34,10.3,10.3,0,0,1,.39,3,13.4,13.4,0,0,1-2,6.21,10.22,10.22,0,0,1-9.92,4.8c-9-1.1-14.21-12.21-17-20.63l-.25.07-75.23,18c-10.52,2.52-21.3,6.07-32.06,7.38-7.13.88-15.7-1.78-17.82-9.52-2-7.26,3.58-12.82,9.72-15.4,9.4-4,20.4-5.32,30.31-7.63L309,194.68c5.24-1.23,11.55-3.34,17.25-2.6,0-.12,0-.22,0-.33a3.38,3.38,0,0,1,.22-1.64,4.75,4.75,0,0,1-.89-2.54c-.6-10.55,9.22-19.67,19.67-15.25a12.38,12.38,0,0,1,7.31,14.51c4.92,1,9.32,3.48,11.27,8.74A10.19,10.19,0,0,1,362.8,205Zm-8.11,9c1.6.19,4,1.81,2.8-1.18-.7-1.8-4.16-3-5.77-3.7-4.53-2-1.88-8.56,2.36-8.73,3.26-.12-2.08-4.26-3.25-4.54a24.18,24.18,0,0,0-6.53-.19c-4.82.23-6.12-6.38-2.36-8.73,3.16-2,1.64-6.23-1.87-6.4-3.89-.2-5.27,3.87-5.1,7a4.51,4.51,0,0,1-.2,1.64,6.1,6.1,0,0,1,.87,2.54,46,46,0,0,1,.19,6.83c1.23,3.17.6,6.94-1,10.39a4.61,4.61,0,0,1,1.56,2.34c1.45,4.9,3.6,11.47,7.44,15.08,6.42,6.05,2.4-5,3-7.63C347.78,215,351.12,213.56,354.69,214ZM326,203c.08-.47.13-.95.2-1.42-1-.55-2.9-.27-4-.18-4.69.41-9.41,2-14,3.08l-31.26,7.32-31.29,7.31c-9.21,2.16-19.3,3.47-28.17,6.79-1.41.53-4.06,1.39-4.83,2.85-1.72,3.23,2.14,4.44,4.56,4.68,4.61.48,9.78-1.58,14.23-2.64q15.72-3.78,31.43-7.53l61.52-14.74a5.69,5.69,0,0,1,.49-.89c.38-.55.87-1.16,1.3-1.79A5.66,5.66,0,0,1,326,203Z"/><path class="cls-3" d="M361.92,263.41c1.5,11.24-8.49,19.28-18.59,21.16-13.24,2.48-27.74,1.12-41.19,1.28-26.52.32-53.06.8-79.59.95-7.25.05-15.27-.54-21.07-4.75-2.46,7.68-7,14.26-15.33,17.62-6.24,2.53-14.77,1.92-18.15-4.75a10.63,10.63,0,0,1-1.16-5.93,7.41,7.41,0,0,1-4.29-5,10.53,10.53,0,0,1,.92-7.35,6.86,6.86,0,0,1,.95-1.32,7.91,7.91,0,0,1-5.56-7.18c-.51-6.22,4.84-11.15,10.53-14a12.76,12.76,0,0,1,5.89-15.07c10.7-5.71,20.7,3.18,26.25,11.59a7.07,7.07,0,0,1,.41.76,4.46,4.46,0,0,1,2,3.66c.07,1.4.12,2.84.14,4.32,26.11-2.34,52.51-3.07,78.68-4.5,24.51-1.35,49.17-1.87,73.26,3.66a4.58,4.58,0,0,1,1.18.44A5.1,5.1,0,0,1,361.92,263.41ZM332,276.12c7-.12,18.51-1,20.4-8.76-21.81-4.82-44.15-4.41-66.34-3.25-20.75,1.07-41.49,2.35-62.24,3.54l-16.29.93c-2.63.15-3.31-.61-3.32,1.77s2.71,4.3,4.48,5.23c4.76,2.52,11,1.89,16.17,1.83q6.91-.09,13.84-.16,31.16-.37,62.3-.75C311.33,276.38,321.67,276.31,332,276.12Zm-137.19-8.47c.17-3.65,0-7.35-.14-11a4.66,4.66,0,0,1-1.23-1.3c-2.3-3.46-5.24-7.61-9.62-8.47-3.08-.59-8.92,3-4.24,5.29,3.61,1.75,2.67,7.7-1.12,8.56a18.18,18.18,0,0,0-8.21,4.16c-1.55,1.26-3.2,1.51-.89,2.14a7.47,7.47,0,0,0,2.89-.26c3.22-.6,7,2.12,5.76,5.76a14.3,14.3,0,0,1-2.42,4.56c-.28.34-1,1.3-1.82,2.25h.41a6.38,6.38,0,0,1,4,2.05c2.85,2.6,1,6.62-2.06,7.82-.93.38,1.57,2.2,2.57,2.41,2.11.47,4.37-.71,6.08-1.82a20.5,20.5,0,0,0,7.25-9.07,34.6,34.6,0,0,0,2.6-10.83A10.94,10.94,0,0,1,194.81,267.65Z"/><path class="cls-8" d="M357.49,212.82c1.17,3-1.2,1.37-2.8,1.18-3.57-.44-6.91,1-7.79,4.76-.63,2.67,3.39,13.68-3,7.63-3.84-3.61-6-10.18-7.44-15.08a4.61,4.61,0,0,0-1.56-2.34c1.56-3.45,2.19-7.22,1-10.39a46,46,0,0,0-.19-6.83,6.1,6.1,0,0,0-.87-2.54,4.51,4.51,0,0,0,.2-1.64c-.17-3.17,1.21-7.24,5.1-7,3.51.17,5,4.43,1.87,6.4-3.76,2.35-2.46,9,2.36,8.73a24.18,24.18,0,0,1,6.53.19c1.17.28,6.51,4.42,3.25,4.54-4.24.17-6.89,6.72-2.36,8.73C353.33,209.83,356.79,211,357.49,212.82Z"/><path class="cls-4" d="M352.4,267.36c-1.89,7.73-13.4,8.64-20.4,8.76-10.33.19-20.67.26-31,.38q-31.15.36-62.3.75-6.91.06-13.84.16c-5.19.06-11.41.69-16.17-1.83-1.77-.93-4.49-3-4.48-5.23s.69-1.62,3.32-1.77l16.29-.93c20.75-1.19,41.49-2.47,62.24-3.54C308.25,263,330.59,262.54,352.4,267.36Z"/><path class="cls-9" d="M326.15,201.59c-.07.47-.12.95-.2,1.42a5.66,5.66,0,0,0,.2,2.84c-.43.63-.92,1.24-1.3,1.79a5.69,5.69,0,0,0-.49.89l-61.52,14.74q-15.72,3.75-31.43,7.53c-4.45,1.06-9.62,3.12-14.23,2.64-2.42-.24-6.28-1.45-4.56-4.68.77-1.46,3.42-2.32,4.83-2.85,8.87-3.32,19-4.63,28.17-6.79l31.29-7.31,31.26-7.32c4.58-1.06,9.3-2.67,14-3.08C323.25,201.32,325.16,201,326.15,201.59Z"/><path class="cls-6" d="M194.67,256.69c.16,3.61.31,7.31.14,11a10.94,10.94,0,0,0-.15,2.3,34.6,34.6,0,0,1-2.6,10.83,20.5,20.5,0,0,1-7.25,9.07c-1.71,1.11-4,2.29-6.08,1.82-1-.21-3.5-2-2.57-2.41,3.06-1.2,4.91-5.22,2.06-7.82a6.38,6.38,0,0,0-4-2.05h-.41c.79-.95,1.54-1.91,1.82-2.25a14.3,14.3,0,0,0,2.42-4.56c1.28-3.64-2.54-6.36-5.76-5.76a7.47,7.47,0,0,1-2.89.26c-2.31-.63-.66-.88.89-2.14a18.18,18.18,0,0,1,8.21-4.16c3.79-.86,4.73-6.81,1.12-8.56-4.68-2.3,1.16-5.88,4.24-5.29,4.38.86,7.32,5,9.62,8.47A4.66,4.66,0,0,0,194.67,256.69Z"/><path class="cls-3" d="M33.83,199.87C36,205.1,35.27,210.51,32,214.51a12.46,12.46,0,0,1-2.23,12.22c2.54,3.81,5.05,7.69,1.12,12.11S20.49,242,16,239.59C1.7,231.85,1.13,213.92,1.92,199.74a4.58,4.58,0,0,1,1.72-3.43c-.11-12.55,20.75-30,28.28-13.92a15.16,15.16,0,0,1,.73,10.09c-.22.9-1.36,2.64-1.46,3.59C31.42,195.58,33.62,199.35,33.83,199.87Zm-9.94,9.52c4.31-2.81.39-6.88-1.12-9.8-1.26-2.44-1.05-4.36-.22-6.89,1-3.08,2.43-8.71-2.9-6.28-3.67,1.69-7,7.23-6.58,11a3.62,3.62,0,0,1-1.88,3.91c-.43,7.76-.86,16.21,2.93,23.19a16.9,16.9,0,0,0,7.33,7.35c3,1.46,1,.58.37-.4a33.83,33.83,0,0,1-2.32-3.55c-1.08-2.11-.69-5.26,1.67-6.41,1.71-.82,3.32-2.88,1.77-4.79C21,214.34,21.16,211.16,23.89,209.39Z"/><path class="cls-6" d="M22.77,199.59c1.51,2.92,5.43,7,1.12,9.8-2.73,1.77-2.91,5-.95,7.35,1.55,1.91-.06,4-1.77,4.79-2.36,1.15-2.75,4.3-1.67,6.41a33.83,33.83,0,0,0,2.32,3.55c.64,1,2.61,1.86-.37.4a16.9,16.9,0,0,1-7.33-7.35c-3.79-7-3.36-15.43-2.93-23.19a3.62,3.62,0,0,0,1.88-3.91c-.44-3.79,2.91-9.33,6.58-11,5.33-2.43,3.93,3.2,2.9,6.28C21.72,195.23,21.51,197.15,22.77,199.59Z"/></g></svg>