<svg xmlns="http://www.w3.org/2000/svg" viewBox="0 0 420.92 420.92"><defs><style>.cls-1{fill:#095659;}.cls-2{fill:#31bfc6;}.cls-3{fill:#818181;}.cls-4{fill:#124a31;}.cls-5{fill:#219968;}.cls-6{fill:#2eb780;}.cls-7{fill:#138085;}</style></defs><g id="Layer_13" data-name="Layer 13"><path class="cls-1" d="M414.24,68.05c9.78,4.6,2.57,22.16-.77,29.61a203.62,203.62,0,0,1-10.62,20.15,98.2,98.2,0,0,1-5.1,8.56,7.82,7.82,0,0,1-.82,1.13,5.12,5.12,0,0,1-.25.53,8.08,8.08,0,0,1-.76,1.08c-.26.33-.51.7-.81,1a4.8,4.8,0,0,1-.85.7c-.19.14-.38.28-.58.4-.37.41-.73.81-1,1.21l.63-.81a6.31,6.31,0,0,1-3.22,2.44,3.46,3.46,0,0,1-.53.14,5.61,5.61,0,0,1-6.41-.83c-1.89-2-2.47-4.29-3.66-6.68a81.47,81.47,0,0,0-4.61-7.8c-3.15-4.85-6.59-9.5-9.84-14.29-8-11.82-15.28-24.12-23.53-35.79a4.41,4.41,0,0,1,.26-5.93,5.85,5.85,0,0,1,5.34-5.73c3.58-.28,7.48,1,11,1.6,3.68.66,7.36,1.32,11.05,1.93,6.32,1,12.62,2,19,2.48,6.06.44,12.15.77,18.15,1.78C409.25,65.45,412.22,66.25,414.24,68.05ZM407.3,82a22.07,22.07,0,0,0,.82-4.35c-8.16-1.71-16.21-2.15-24.57-3-6.43-.64-12.83-1.76-19.19-2.84-2.54-.44-5.34-.76-8.15-1.19,6.71,9.65,12.81,19.72,19.5,29.4,3.61,5.22,7.4,10.31,10.73,15.71.61,1,1.24,2,1.87,3,1.14-1.74,2.41-3.43,3.41-5.08,3.11-5.09,6.06-10.28,8.79-15.59A86.71,86.71,0,0,0,407.3,82Z"/><path class="cls-2" d="M408.12,77.66A22.07,22.07,0,0,1,407.3,82a86.71,86.71,0,0,1-6.79,16.12c-2.73,5.31-5.68,10.5-8.79,15.59-1,1.65-2.27,3.34-3.41,5.08-.63-1-1.26-2.06-1.87-3-3.33-5.4-7.12-10.49-10.73-15.71-6.69-9.68-12.79-19.75-19.5-29.4,2.81.43,5.61.75,8.15,1.19,6.36,1.08,12.76,2.2,19.19,2.84C391.91,75.51,400,76,408.12,77.66Z"/><path class="cls-1" d="M306.37,64.61l-.21-.07a41.67,41.67,0,0,0-4.79-1.14c-4.22-.8-8.51-1.23-12.78-1.62-6.37-.59-12.86-.63-19.25-1.17,3.81,7.59,10.15,14,14.58,21.17,6.32,10.17,12.37,20.54,18.17,31,11.09,20,20.47,41,33.07,60.15a8,8,0,0,1,.69,1,6,6,0,0,1,.63.81c4.11,6.38-4.43,18.16-7.65,23.4a105.61,105.61,0,0,1-8.32,11.93,22.19,22.19,0,0,1-3.27,3.37l-.23.19c-7.32,2.92-13.08-2.72-17.87-8.2a72.92,72.92,0,0,0-3.42-7.48H296c-7.77-14.84-14-30.43-21.34-45.47-8.57-17.46-19-34.1-26.82-51.89a6.37,6.37,0,0,1-.51-2q-2.91-5.66-5.92-11.22c-3.16-5.82-7.25-11.35-11-17a5.89,5.89,0,0,1-1.15-1.49c-.3-.54-.59-1.08-.88-1.62A80.91,80.91,0,0,1,224,59.58,41.91,41.91,0,0,0,221,55.44a8.77,8.77,0,0,0,1.12-.2c4.55-1.05,5-7.36,1.26-9.63a1.29,1.29,0,0,0-.16-.09.61.61,0,0,1-.07-.1,1.58,1.58,0,0,0,0-.19,8.13,8.13,0,0,0-.23-1.44c.8.06,1.6.1,2.4.15,4.39,3.49,7.68,8.76,10.48,13.81h0c2,3.19,4.2,6.26,6.34,9.32a170.08,170.08,0,0,1,11.14,18.63q4.54,8.72,8.9,17.56l-.33,0c7.92,14.26,15.62,28.74,22.8,43.35,8.27,16.81,15.07,34.33,24.1,50.78a6.11,6.11,0,0,1,.54,1.36,5,5,0,0,1,1.54,1.62l.2.31c.11.13.24.26.36.38a6.18,6.18,0,0,0,.53.36,4.91,4.91,0,0,1,.66-.17,84.36,84.36,0,0,0,6-8.45,116.38,116.38,0,0,0,6-10.4c.46-.92.94-1.84,1.33-2.8-13.58-19.68-23-41.9-34.57-62.74-5.95-10.71-11.86-21.66-18.63-31.87-5.64-8.51-13.14-16.19-15.52-26.4a5,5,0,0,1,2.69-5.92,5.75,5.75,0,0,1,5.05-3.7c9.22-1.09,19.47.45,28.64,1.45,4.82.52,17.36.85,21.42,6.06a5.79,5.79,0,0,1,2.5,2.9c.43,1.09.79,2.14,1.14,3.17.18.31.36.63.55.93,1.91,3,4,6,6,8.92,2.93,4.22,7.92,9.42,9.51,14.72,3.69,5.39,7.18,10.93,10.41,16.56,5.44,9.48,10.63,19.18,15.6,28.92,4.24,8.31,9.21,17.45,10.95,26.77l.13.07c.66,2.57,1.45,5.09,2.16,7.65,0,.14,0,.28.08.42-2.81,16.79-13.38,31.86-21.48,46.44-5,9.09-10,18.21-15.3,27.15q-2.17,3.65-4.36,7.28a4.82,4.82,0,0,1,.39,1c1.07,3.82.83,8.27,1.38,12.21a122.13,122.13,0,0,1,1.4,13.89c.31,12.26-.88,24.45.59,36.68,1.1,9.17,2.4,18.27,3.26,27.47.32,3.46.66,6.92,1.07,10.36.13,1.06.27,2.11.43,3.17,0,.21.1.6.17,1a4.48,4.48,0,0,1,.45,1.89c9.35,3.69,16.44,16.33,15.26,25.66-3.45,27.34-49.36,18.13-60.07,1.19-7.55-11.94,3.54-23.2,14.63-26.53,4.45-1.34,11.65-3.11,17.73-2.49-.61-3.76-.52-7.93-.77-10.44-.89-9-1.82-18-3-27-1.8-13.39-.83-26.51-1-40a126.21,126.21,0,0,0-1-12.9,32.9,32.9,0,0,1-2.82,3.58,5,5,0,0,1-1.09.84,5.92,5.92,0,0,1-5.47,3.64,15.15,15.15,0,0,1-3.29-.6,12.76,12.76,0,0,0-1.86-.76l-.12-.05c-.28-.11-.57-.24-.85-.37a7.75,7.75,0,0,1-.86-.44,5.1,5.1,0,0,1-.89-.63l-.06,0c-.34,0-1.05-.87-1.31-1.12s-.49-.48-.73-.74a6.14,6.14,0,0,1-1.09-1.75c-5.26-6.16-9.38-13.59-13.4-20.49-4.44-7.62-8.72-15.32-13-23-9.87-17.53-19.23-35.35-29.23-52.8-9.62-16.77-19.18-33.77-29.67-50-6.45-10-11.85-21.37-19.54-30.49-2.67.24-5.41-.87-8.14-1.36-2-.36-4.07-.58-6.12-.75,2.89,5.46,6.49,10.53,9.89,15.68a152.11,152.11,0,0,1,11.85,22c6.79,15.27,14.82,29.76,22.35,44.67,3.48,6.91,6.92,13.85,10.41,20.76a11.44,11.44,0,0,0-1.12-1.42c-2.36-2.55-7.91-1.58-8.43,2.23a15.09,15.09,0,0,0,.54,6.21,5.63,5.63,0,0,0,0,.58c-4.34-8.65-8.59-17.35-12.95-26-4-7.85-8.26-15.52-12.28-23.33-3.57-6.94-6.45-14.19-9.67-21.29a162.05,162.05,0,0,0-12.26-21.76c-4.38-6.72-8.64-13.48-10.91-21.24a4.53,4.53,0,0,1,2-5.52,5.82,5.82,0,0,1,4.79-3.22c4.59-.51,9.3.13,13.85.81,3.17.48,7.23.75,9.69,3a5,5,0,0,1,2,.86c4.76,3.36,7.88,8.75,11,13.6,3.62,5.73,7,11.6,10.74,17.25,10.6,16.1,20.19,33,29.87,49.61,10.11,17.39,19.48,35.18,29.37,52.69,4.69,8.31,9.39,16.61,14.17,24.85,4.29,7.39,9.21,14.26,13.86,21.38,3.58-7.89,9.36-15.31,13.74-22.63,5.09-8.54,9.94-17.19,14.71-25.91,8-14.66,16.82-28.44,21.79-44.41a7.33,7.33,0,0,1-1.92-2.75c-2.11-5.06-3.55-10.35-5.84-15.36-2.37-5.19-5-10.27-7.66-15.31-5.18-9.73-10.28-19.58-16.07-29-3.46-5.62-7.2-11-11-16.35-.63-1.53-1.32-3.11-2.06-4.69-1.31-1.88-2.62-3.76-3.9-5.66a100.78,100.78,0,0,1-5.7-9.17,15.56,15.56,0,0,0-1.35-1.15c-.13-.44-.24-.89-.33-1.33a5.64,5.64,0,0,0-.56-.21A1.74,1.74,0,0,1,306.37,64.61Zm37.24,319.61c3-3,2-7.79.12-11.13a10,10,0,0,0-5.27-4.94c-.21-.14-.41-.29-.63-.41a12.66,12.66,0,0,0-5-2.29,13.76,13.76,0,0,0-5.19-.07c0-.05-.07-.08-.1-.13a36.47,36.47,0,0,0-5.12.44c-3.79.59-8,1.46-11.4,3.29-2.9,1.55-6.11,5-3.27,8.54s7.71,5.49,11.82,6.83C325.9,386.42,338.13,389.69,343.61,384.22Z"/><path class="cls-2" d="M306.37,64.61a1.74,1.74,0,0,0,.34.14,5.64,5.64,0,0,1,.56.21c.09.44.2.89.33,1.33A15.56,15.56,0,0,1,309,67.44a100.78,100.78,0,0,0,5.7,9.17c1.28,1.9,2.59,3.78,3.9,5.66.74,1.58,1.43,3.16,2.06,4.69,3.82,5.34,7.56,10.73,11,16.35,5.79,9.38,10.89,19.23,16.07,29,2.68,5,5.29,10.12,7.66,15.31,2.29,5,3.73,10.3,5.84,15.36a7.33,7.33,0,0,0,1.92,2.75c-5,16-13.78,29.75-21.79,44.41-4.77,8.72-9.62,17.37-14.71,25.91-4.38,7.32-10.16,14.74-13.74,22.63-4.65-7.12-9.57-14-13.86-21.38-4.78-8.24-9.48-16.54-14.17-24.85-9.89-17.51-19.26-35.3-29.37-52.69-9.68-16.66-19.27-33.51-29.87-49.61-3.73-5.65-7.12-11.52-10.74-17.25-3.07-4.85-6.19-10.24-11-13.6a5,5,0,0,0-2-.86c-2.46-2.24-6.52-2.51-9.69-3-4.55-.68-9.26-1.32-13.85-.81a5.82,5.82,0,0,0-4.79,3.22,4.53,4.53,0,0,0-2,5.52c2.27,7.76,6.53,14.52,10.91,21.24a162.05,162.05,0,0,1,12.26,21.76c3.22,7.1,6.1,14.35,9.67,21.29,4,7.81,8.32,15.48,12.28,23.33,4.36,8.65,8.61,17.35,12.95,26a5.39,5.39,0,0,0,1.49,3.6l.32.36c.69,1.41,1.48,2.79,2.29,4.13l.13.25s0,0,0,0c1,1.62,2,3.17,3,4.63,3.41,5.31,7.13,10.42,10.43,15.8q1.08,1.9,2.23,3.8a5.55,5.55,0,0,0,.66.89c-3.9,8.53-9.21,16.63-12.54,25.34a5.51,5.51,0,0,0-1.06,1c-.63-1.15-1.22-2.24-1.49-2.72l1.46,2.75,0,.05c-.45-.82-.9-1.64-1.3-2.48a139.66,139.66,0,0,0-7.78-14.06c-9.34-14.92-16.61-31.16-24.56-46.84-16.07-31.7-33.73-62.51-49.79-94.2-5.07-10-8.44-21.2-14.41-30.71-2.14-7.12-9.11-13.18-9.41-20.85-.23-6,13.33-2.91,16.79-2.47,7,.88,14.21,1.38,21.32,2.22a5.54,5.54,0,0,1,.53-.3c4,.41,8.06.85,12.06,1.39,1.77.43,3.68.77,5.64,1,.82.05,1.64.12,2.46.19,1.86.32,3.73.66,5.6,1,4.74,1,9.46,2.05,14.21,3,4.28.87,8.8,2.28,13.15,1.63A41.91,41.91,0,0,1,224,59.58a80.91,80.91,0,0,0,4.34,7.67c.29.54.58,1.08.88,1.62a5.89,5.89,0,0,0,1.15,1.49c3.78,5.67,7.87,11.2,11,17q3,5.57,5.92,11.22a6.37,6.37,0,0,0,.51,2c7.86,17.79,18.25,34.43,26.82,51.89,7.37,15,13.57,30.63,21.34,45.47h-.24a72.92,72.92,0,0,1,3.42,7.48c4.79,5.48,10.55,11.12,17.87,8.2l.23-.19a22.19,22.19,0,0,0,3.27-3.37,105.61,105.61,0,0,0,8.32-11.93c3.22-5.24,11.76-17,7.65-23.4a6,6,0,0,0-.63-.81,8,8,0,0,0-.69-1c-12.6-19.18-22-40.11-33.07-60.15-5.8-10.48-11.85-20.85-18.17-31-4.43-7.12-10.77-13.58-14.58-21.17,6.39.54,12.88.58,19.25,1.17,4.27.39,8.56.82,12.78,1.62a41.67,41.67,0,0,1,4.79,1.14ZM235,253.83l0-.05Z"/><path class="cls-3" d="M343.73,373.09c1.88,3.34,2.9,8.11-.12,11.13-5.48,5.47-17.71,2.2-24,.13-4.11-1.34-9-3.39-11.82-6.83s.37-7,3.27-8.54c3.4-1.83,7.61-2.7,11.4-3.29a36.47,36.47,0,0,1,5.12-.44c0,.05.07.08.1.13a13.76,13.76,0,0,1,5.19.07,12.66,12.66,0,0,1,5,2.29c.22.12.42.27.63.41A10,10,0,0,1,343.73,373.09Z"/><path class="cls-1" d="M309.23,270.26l.52.22c-.08,0-.28-.09-.61-.22Z"/><path class="cls-1" d="M272.83,355.59c2.31,13.27-9.44,18.91-20.88,19-10.74.07-26.53-3.43-28.77-16-1.2-6.66,3-12.58,8.39-16.09,4.74-3.1,9.46-3.21,14.34-3.32-2.47-5.76-3.18-12.77-4-18.76a185.4,185.4,0,0,1-1.64-20.11c-.29-10,0-20.07.24-30.1-2.53,1.74-5.81,1.88-9-.81-3.62-3.06-5.49-8-7.45-12.21-3.23-6.91-7.9-13-11.57-19.71-4.75-8.61-9-17.56-13.37-26.35-8.92-17.7-17.86-35.39-27.35-52.79-9.37-17.17-18.63-34.33-27.48-51.78C138.9,95.93,135.58,83.13,128.85,73a25.81,25.81,0,0,1-1.63-2.31c-.5-.66-1-1.31-1.55-1.94l.29-.21c-1-1.84-1.95-3.74-2.85-5.47-2.38-4.57-4.89-9.61-5.33-14.82-.92-10.81,8.5-15.77,18-15.85,4.83,0,9.63.84,14.41,1.36,5.36.59,10.72,1.15,16.07,1.77l.29.11.2.07c9.1-.52,18.55,1.42,27.38,3.15,5.06,1,10.1,2.09,15.15,3.13,2.7.56,5.67.86,8.5,1.5-5.87-.34-11.76-.72-17.61-1.29a38,38,0,0,1,2.63,4.88,10.91,10.91,0,0,1,.86,3c4.62.86,9.21,1.85,13.77,3,.68.17,1.37.37,2.05.55q.81.86,1.56,1.77c-4.35.65-8.87-.76-13.15-1.63-4.75-1-9.47-2-14.21-3-1.87-.39-3.74-.73-5.6-1-.82-.07-1.64-.14-2.46-.19-2-.28-3.87-.62-5.64-1-4-.54-8-1-12.06-1.39a5.54,5.54,0,0,0-.53.3c-7.11-.84-14.28-1.34-21.32-2.22-3.46-.44-17-3.58-16.79,2.47.3,7.67,7.27,13.73,9.41,20.85,6,9.51,9.34,20.7,14.41,30.71,16.06,31.69,33.72,62.5,49.79,94.2,7.95,15.68,15.22,31.92,24.56,46.84a139.66,139.66,0,0,1,7.78,14.06c.4.84.85,1.66,1.3,2.48l0-.05L235.08,254c.27.48.86,1.57,1.49,2.72a5.51,5.51,0,0,1,1.06-1c3.33-8.71,8.64-16.81,12.54-25.34a5.55,5.55,0,0,1-.66-.89q-1.15-1.89-2.23-3.8c-3.3-5.38-7-10.49-10.43-15.8-.94-1.46-2-3-3-4.63a7.82,7.82,0,0,1,3-3.59l.1-.11a9.49,9.49,0,0,1,1-.93,11,11,0,0,1,5.22-2.57c-.49-1-1-1.9-1.46-2.86,3.23,3.14,5.79,7.57,7.85,11,2.91,4.86,5.48,9.91,8.29,14.82q.75,1.25,1.47,2.52a35.35,35.35,0,0,1,1.21,11c-1.74,4.06-3.63,8.05-5.61,12-1.25,2.48-2.43,5.05-3.66,7.6a5.55,5.55,0,0,1,.7,2.71c.17,13.85-.58,27.7-.21,41.55a173.64,173.64,0,0,0,1.59,20.76c.91,6.13,3.14,12.19,3.83,18.31a2.23,2.23,0,0,1,0,.23C264.87,338.55,271.51,348.06,272.83,355.59Zm-11.53,3.09c.17-2.39-1.53-5.62-3.05-7.38-1.75-2-3.1-1.95-5.56-1.65-2.89.34-5.79.28-8.81.57-2.76.26-9.35,2.27-9.22,6,.18,5,10.67,6.19,14.4,6.4C252.48,362.83,261,363.47,261.3,358.68Z"/><path class="cls-3" d="M258.25,351.3c1.52,1.76,3.22,5,3.05,7.38-.34,4.79-8.82,4.15-12.24,3.95-3.73-.21-14.22-1.35-14.4-6.4-.13-3.74,6.46-5.75,9.22-6,3-.29,5.92-.23,8.81-.57C255.15,349.35,256.5,349.27,258.25,351.3Z"/><path class="cls-1" d="M241.66,195.22c.48,1,1,1.91,1.46,2.86a11,11,0,0,0-5.22,2.57,9.49,9.49,0,0,0-1,.93l-.1.11a7.82,7.82,0,0,0-3,3.59,1.76,1.76,0,0,0-.14-.23q-2.07-4-4.1-8.09a5.63,5.63,0,0,1,0-.58,15.09,15.09,0,0,1-.54-6.21c.52-3.81,6.07-4.78,8.43-2.23a11.44,11.44,0,0,1,1.12,1.42q1.11,2.22,2.25,4.43l.54,1.24Z"/><path class="cls-1" d="M241.66,195.22l-.19-.19-.54-1.24C241.17,194.27,241.41,194.75,241.66,195.22Z"/><path class="cls-1" d="M238.68,189.36a25.26,25.26,0,0,1,2.25,4.43Q239.79,191.58,238.68,189.36Z"/><path class="cls-1" d="M235,253.83l0-.05Z"/><path class="cls-1" d="M233.74,205.05a1.76,1.76,0,0,1,.14.23s0,0,0,0Z"/><path class="cls-1" d="M233.74,205.05c-.81-1.34-1.6-2.72-2.29-4.13l-.32-.36a5.39,5.39,0,0,1-1.49-3.6Q231.68,201,233.74,205.05Z"/><path class="cls-1" d="M223.4,45.61c3.74,2.27,3.29,8.58-1.26,9.63a8.77,8.77,0,0,1-1.12.2q-.75-.91-1.56-1.77c-.68-.18-1.37-.38-2.05-.55-4.56-1.15-9.15-2.14-13.77-3a10.91,10.91,0,0,0-.86-3,38,38,0,0,0-2.63-4.88c5.85.57,11.74.95,17.61,1.29l2.58.15,2.59.15a8.13,8.13,0,0,1,.23,1.44,1.58,1.58,0,0,1,0,.19.61.61,0,0,0,.07.1A1.29,1.29,0,0,1,223.4,45.61Z"/><path class="cls-1" d="M217.76,43.49l2.58.15Z"/></g><g id="Layer_1" data-name="Layer 1"><path class="cls-4" d="M251.63,261.05c.08,5.93.19,12.05-1.91,17.7-2.35,6.32-7.27,10.62-12.42,14.67-6.29,4.95-12.64,9.82-19,14.73q-6,4.65-11.94,9.29a2.22,2.22,0,0,1,0-.37,4,4,0,0,0-4-4,4.12,4.12,0,0,0-4,4c-.2,2.08-.91,4.87-.27,7l-.42.12q-9.12,7.06-18.22,14.16L159.63,353.8c-5.57,4.33-11.07,9.64-17.2,13.15-12.81,7.32-23.28-9.47-30.91-17.35q-16.44-17-32.86-33.93l-4.11-4.24q.86,9.42,1.7,18.84c0,.55.09,1.09.14,1.65-2.25-2.67-8.08-1.11-8,3.09,0,1.94.08,3.87.14,5.8a4.62,4.62,0,0,0-.35,1.89c0,1.95,0,3.92.1,5.88-.05-.48-.11-.95-.16-1.43-.06-.85-.12-1.69-.2-2.53l-4-44.1q-9.7-10-19.39-20.06C35.32,270.82,26,260.67,20,248.59c-6.38-12.83-8.67-27-9.69-41.16-1.1-15.55-1.38-31.16-2-46.73-.55-14.13-3.3-30.3.62-44.13S25.4,93.11,35.05,83.41Q70.12,48.16,105.2,12.92c3.09.72,4,1.24,8.16,4.08a5.15,5.15,0,0,1,1.43.38,459.22,459.22,0,0,1,86.68,48.41c12.64,9,26.7,18.4,37.08,30.06,10.82,12.18,10.83,26.61,11.09,42.08l1.58,98Q251.42,248.5,251.63,261.05Zm-9.62,7c.39-6.68-.09-13.49-.2-20.17l-.72-44.23q-.36-22.11-.71-44.22L240,135.54c-.11-6.56.16-13.37-1.32-19.81A29.35,29.35,0,0,0,234,105.57c-5-7.2-12.82-12.76-19.55-18.1Q198.59,74.9,181.59,63.84a459,459,0,0,0-71.65-38.17,4.21,4.21,0,0,1-2.09-1.8q-33.85,34-67.7,68c-5.48,5.51-11.45,10.81-16.33,16.89-5.31,6.59-6.89,14-6.92,22.26,0,15.76,1.13,31.61,1.76,47.35,1.1,28.22.69,56.52,18.94,79.84,8.23,10.53,18,19.86,27.31,29.44l4.61,4.75c1.85,1.92,1.67,1.7,3.58,3.69l22.21,22.94,21.41,22.12,0,0a14.3,14.3,0,0,0,2.91,3h0c2.28,2.36,4.57,4.71,6.85,7.08,2,2,5.08,6.85,7.83,7.67,3.67,1.1,8.39-4.09,10.92-6.06l16.1-12.51c23.53-18.3,47.37-36.28,70.63-54.92C238,280.64,241.57,276,242,268.07Z"/><path class="cls-4" d="M242.11,382.32c2.6,4.43,2.83,10.38-.1,14.7-3.09,4.57-9.06,6.4-14.21,7.38-10.21,2-25.39,2.31-31-8.46a18.72,18.72,0,0,1-.39-15.45c1.23,5,9.69,4.49,9.82-1.4q.08-2.79.12-5.58a12.82,12.82,0,0,1,1.38,0,5.22,5.22,0,0,1,1.23-.42C219.76,370.71,235.8,371.56,242.11,382.32Zm-8.35,8.17c.73-2.59-2-4.86-3.89-5.93a20.59,20.59,0,0,0-8.5-2.35,14.15,14.15,0,0,0-5-.61,14.28,14.28,0,0,0-5.09.31,14,14,0,0,0-2.84.38l-.27.07-.07,0c-3.54.25-3.92,4.23-3.22,7,.76,3,2.62,4.5,5.54,5.28,5.17,1.37,11.17.76,16.28-.52C228.74,393.57,233.07,392.87,233.76,390.49Z"/><path class="cls-5" d="M241.81,247.9c.11,6.68.59,13.49.2,20.17-.44,7.94-4,12.57-10,17.4-23.26,18.64-47.1,36.62-70.63,54.92l-16.1,12.51c-2.53,2-7.25,7.16-10.92,6.06-2.75-.82-5.82-5.62-7.83-7.67-2.28-2.37-4.57-4.72-6.85-7.08a6.29,6.29,0,0,0,7.68.32c4.54-2.87,1.46-9.55-2.87-9-2.61-2-4.1-7.49-4.62-10.09-1-5-.74-10.21-.7-15.28q.13-15.37.28-30.73a2.28,2.28,0,0,0,0-.45s0-.06,0-.08a4.26,4.26,0,0,0-.09-1.08,2.86,2.86,0,0,0,.21-.58,5.2,5.2,0,0,0-1.36-5.15,4.93,4.93,0,0,0-3.48-1.4l0-1a4.18,4.18,0,0,0,4.27-4.62c-1.85-28.64-3.21-57.42-3-86.12,0-3.23-.09-6.67,2.1-9.32,1.8-2.18,4.67-3.6,7.07-5Q134,159.21,143,153.87l36.88-22a4.47,4.47,0,0,0,2.1-5.3l1.14-.42a5,5,0,0,0,5.91,3.36,17.37,17.37,0,0,0,6.46-3,5.22,5.22,0,0,0,1.57-.56,113.53,113.53,0,0,1,34-12.37c2.71-.54,3.77-3.52,3.35-5.91a5.12,5.12,0,0,0-.1-.54,3.48,3.48,0,0,0-.6-1.39l.27-.18a29.35,29.35,0,0,1,4.66,10.16c1.48,6.44,1.21,13.25,1.32,19.81l.39,23.91q.35,22.11.71,44.22Z"/><path class="cls-5" d="M234.44,107.68c.42,2.39-.64,5.37-3.35,5.91a113.53,113.53,0,0,0-34,12.37,5.22,5.22,0,0,1-1.57.56,17.37,17.37,0,0,1-6.46,3,5,5,0,0,1-5.91-3.36,4.85,4.85,0,0,1,3.37-5.91,14.41,14.41,0,0,0,1.81-.53l.06,0c.23-.16.5-.28.74-.42s.55-.35.82-.53l.12-.1c.42-.38.81-.78,1.2-1.21a4.33,4.33,0,0,1,3.89-1.32,122,122,0,0,1,30.94-11.26,4.61,4.61,0,0,1,4.37-1.18,4.87,4.87,0,0,0,.52.12,4.79,4.79,0,0,1,2.74,2,3.48,3.48,0,0,1,.6,1.39A5.12,5.12,0,0,1,234.44,107.68Z"/><path class="cls-6" d="M234,105.57l-.27.18a4.79,4.79,0,0,0-2.74-2,4.87,4.87,0,0,1-.52-.12,4.61,4.61,0,0,0-4.37,1.18,122,122,0,0,0-30.94,11.26,4.33,4.33,0,0,0-3.89,1.32c-.39.43-.78.83-1.2,1.21l-.12.1c-.27.18-.54.37-.82.53s-.51.26-.74.42l-.06,0a14.41,14.41,0,0,1-1.81.53,4.85,4.85,0,0,0-3.37,5.91l-1.14.42c-.8-2.72-3.79-4.87-7-3L135.2,147.36c-6.72,4-16.26,7.95-22.48,14a5.36,5.36,0,0,0-.69-.51q-16.11-9.21-32.18-18.45c-5.38-3.08-10.22,5.21-4.85,8.3Q91.1,160,107.18,169.2l.27.12a16.87,16.87,0,0,0-.63,2.24c-1.43,6.9-.46,14.72-.36,21.73.12,7.57.28,15.16.51,22.73q.77,24.53,2.37,49a4.93,4.93,0,0,0,5.33,4.62l0,1a4.29,4.29,0,0,0-2.34.65c-3,1.87-3.18,5.1-3.47,8.3a36.51,36.51,0,0,0,.24,7.54v.08h0c.05.42.1.84.16,1.28a2.93,2.93,0,0,0,.29.91c-.44,11.78-1.1,23.86.48,35.32.48,3.51,2.89,11.4,6.66,16.43L95.31,319.06,73.1,296.12c-1.91-2-1.73-1.77-3.58-3.69l-4.61-4.75c-9.26-9.58-19.08-18.91-27.31-29.44-18.25-23.32-17.84-51.62-18.94-79.84-.63-15.74-1.8-31.59-1.76-47.35,0-8.3,1.61-15.67,6.92-22.26,4.88-6.08,10.85-11.38,16.33-16.89q33.85-34,67.7-68a4.21,4.21,0,0,0,2.09,1.8,459,459,0,0,1,71.65,38.17q17,11.07,32.87,23.63C221.19,92.81,229,98.37,234,105.57Z"/><path class="cls-3" d="M229.87,384.56c1.91,1.07,4.62,3.34,3.89,5.93-.69,2.38-5,3.08-7,3.6-5.11,1.28-11.11,1.89-16.28.52-2.92-.78-4.78-2.3-5.54-5.28-.7-2.77-.32-6.75,3.22-7l.07,0,.27-.07a14,14,0,0,1,2.84-.38,14.28,14.28,0,0,1,5.09-.31,14.15,14.15,0,0,1,5,.61A20.59,20.59,0,0,1,229.87,384.56Z"/><path class="cls-4" d="M206.34,318.35c.67,11.3,1.31,28.5.34,39.71h0c0-2.2,0-4.38,0-6.58,0-.12,0-.23,0-.35,0-.74,0-1.49.05-2.23a4.38,4.38,0,0,0-.06-.83,0,0,0,0,0,0,0v-1.11c0-5.11-6.49-5.82-8.61-2.25h0c0-.17,0-.33,0-.49.2-6.57.08-13.15-.32-19.71,0-.11,0-.21,0-.31l.42-.12a3.94,3.94,0,0,0,.49,1.06,3.77,3.77,0,0,0,5.86.76C206.23,324.06,206.23,321,206.34,318.35Z"/><path class="cls-4" d="M206.69,348.07a4.38,4.38,0,0,1,.06.83c0,.74,0,1.49-.05,2.23C206.7,350.11,206.7,349.09,206.69,348.07Z"/><path class="cls-4" d="M206.69,348.07c0,1,0,2,0,3.06,0,.12,0,.23,0,.35,0,2.19-.08,4.38-.14,6.57a1.13,1.13,0,0,0-.18,0,4.33,4.33,0,0,0-2.18.41c-.8-.31-1.59-.66-2.36-1A5,5,0,0,0,198,357c.12-2.55.2-5.09.21-7.65a5.58,5.58,0,0,0,0-.72c0-.47,0-.93,0-1.41h0c1.74-3.75,7.89-3.54,8.51.85A0,0,0,0,1,206.69,348.07Z"/><path class="cls-4" d="M206.69,346.94v1.11c-.62-4.39-6.77-4.6-8.51-.85h0c0-.83,0-1.67-.11-2.51h0C200.2,341.12,206.67,341.83,206.69,346.94Z"/><path class="cls-4" d="M206.69,351.48c0,2.2,0,4.38,0,6.58h-.1C206.61,355.86,206.65,353.67,206.69,351.48Z"/><path class="cls-4" d="M206.55,358.05h.1c0,5.15-.13,10.3-.25,15.45-4.86.1-8.17,3-9.94,7a4.78,4.78,0,0,1-.15-1.4c0-1.37.06-2.73.11-4.1.45-3.49.82-7,1.11-10.47a70.11,70.11,0,0,1,8.81.22C206.41,362.51,206.49,360.28,206.55,358.05Z"/><path class="cls-4" d="M206.55,358.05c-.06,2.23-.14,4.46-.21,6.69a70.11,70.11,0,0,0-8.81-.22c.22-2.51.39-5,.49-7.54a5,5,0,0,1,3.81.41c.77.38,1.56.73,2.36,1a4.33,4.33,0,0,1,2.18-.41A1.13,1.13,0,0,1,206.55,358.05Z"/><path class="cls-4" d="M202.43,313.07a4,4,0,0,1,4,4,2.22,2.22,0,0,0,0,.37l-.11.09c0-.09,0-.17,0-.24-.15-2.68-2,.25-3.11,2.66,1.05-.8,2.08-1.62,3.12-2.42,0,.26,0,.55.05.82-.11,2.62-.11,5.71-1.83,7.53a3.77,3.77,0,0,1-5.86-.76,3.94,3.94,0,0,1-.49-1.06c-.64-2.12.07-4.91.27-7A4.12,4.12,0,0,1,202.43,313.07Z"/><path class="cls-4" d="M206.4,373.51q0,2.79-.12,5.58c-.13,5.89-8.59,6.37-9.82,1.4C198.23,376.54,201.54,373.61,206.4,373.51Z"/><path class="cls-4" d="M206.29,317.53l.11-.09c0,.29,0,.6-.06.91C206.33,318.08,206.32,317.79,206.29,317.53Z"/><path class="cls-4" d="M206.28,317.29c0,.07,0,.15,0,.24-1,.8-2.07,1.62-3.12,2.42C204.27,317.54,206.13,314.61,206.28,317.29Z"/><path class="cls-4" d="M182,126.58a4.47,4.47,0,0,1-2.1,5.3l-36.88,22q-9,5.34-17.94,10.71c-2.4,1.42-5.27,2.84-7.07,5-2.19,2.65-2.09,6.09-2.1,9.32-.2,28.7,1.16,57.48,3,86.12a4.18,4.18,0,0,1-4.27,4.62,4.93,4.93,0,0,1-5.33-4.62q-1.59-24.5-2.37-49c-.23-7.57-.39-15.16-.51-22.73-.1-7-1.07-14.83.36-21.73a16.87,16.87,0,0,1,.63-2.24l-.27-.12Q91.09,160,75,150.75c-5.37-3.09-.53-11.38,4.85-8.3Q95.92,151.68,112,160.9a5.36,5.36,0,0,1,.69.51c6.22-6.1,15.76-10,22.48-14l39.87-23.77C178.23,121.71,181.22,123.86,182,126.58Z"/><path class="cls-5" d="M124.47,335.51c4.33-.53,7.41,6.15,2.87,9a6.29,6.29,0,0,1-7.68-.32h0c-1-1-1.94-2-2.91-3l0,0c-3.77-5-6.18-12.92-6.66-16.43-1.58-11.46-.92-23.54-.48-35.32a2.93,2.93,0,0,1-.29-.91c-.06-.44-.11-.86-.16-1.28h0v-.08a36.51,36.51,0,0,1-.24-7.54c.29-3.2.5-6.43,3.47-8.3a4.29,4.29,0,0,1,2.34-.65,4.93,4.93,0,0,1,3.48,1.4,5.2,5.2,0,0,1,1.36,5.15,2.86,2.86,0,0,1-.21.58,4.26,4.26,0,0,1,.09,1.08s0,.06,0,.08a2.28,2.28,0,0,1,0,.45q-.12,15.34-.28,30.73c0,5.07-.32,10.29.7,15.28C120.37,328,121.86,333.47,124.47,335.51Z"/><path class="cls-5" d="M116.74,341.21c1,1,2,2,2.91,3A14.3,14.3,0,0,1,116.74,341.21Z"/><path class="cls-4" d="M117.5,383.54c6,13.14-8,21.69-18.81,23.91C86.45,410,70,409.68,66.46,394.75a20,20,0,0,1,3.52-17c0,.35,0,.69,0,1,.15,4.4,4.86,5.68,7.65,3.87h0a5.23,5.23,0,0,0-.77,2.47,10.61,10.61,0,0,0,0,9c3.38,7.5,15.5,4.48,21.55,3,5.54-1.42,14.57-6.76,7.08-12.24-3.63-2.65-8.32-3.68-13-3.92a15.3,15.3,0,0,0-3.13-.73,14.44,14.44,0,0,0-8.33.3l-.11-.09c-.11.09-.23.16-.34.24-.42.16-.84.33-1.26.52a3.9,3.9,0,0,0-.35.19h0a5,5,0,0,0,.72-2.56c0-2.59.06-5.18,0-7.79h0a18.65,18.65,0,0,1,2.4-.57,4.92,4.92,0,0,0,3.95.1l.46.28C97.62,370,112.54,372.61,117.5,383.54Zm-3.94,6.22a2.24,2.24,0,0,1,0-.24l0,0C113.56,389.63,113.55,389.69,113.56,389.76Z"/><path class="cls-4" d="M113.59,389.52a2.24,2.24,0,0,0,0,.24c0-.07,0-.13,0-.21Z"/><path class="cls-3" d="M76.92,385.11a5.23,5.23,0,0,1,.77-2.47,3.48,3.48,0,0,1,1.3-1.31,3.9,3.9,0,0,1,.35-.19c.42-.19.84-.36,1.26-.52.11-.08.23-.15.34-.24l.11.09a14.44,14.44,0,0,1,8.33-.3,15.3,15.3,0,0,1,3.13.73c4.69.24,9.38,1.27,13,3.92,7.49,5.48-1.54,10.82-7.08,12.24-6,1.52-18.17,4.54-21.55-3A10.61,10.61,0,0,1,76.92,385.11Z"/><path class="cls-4" d="M79.75,371c0,2.61,0,5.2,0,7.79a5,5,0,0,1-.72,2.56h0a3.48,3.48,0,0,0-1.3,1.31h0c-2.79,1.81-7.5.53-7.65-3.87,0-.34,0-.68,0-1A19.44,19.44,0,0,1,79.75,371Z"/><path class="cls-4" d="M79.75,371h0A19.44,19.44,0,0,0,70,377.73c-.07-1.81-.14-3.62-.22-5.42a5,5,0,0,0,.2-1.77c-.14-2.57-.35-5.12-.59-7.68-.05-1-.09-2-.13-3a34.66,34.66,0,0,1,9.12.8q-.4-6.33-.77-12.68a1,1,0,0,1,.24.05c0-.33-.06-.66-.08-1-.46-5-.92-10.07-1.36-15.08a1.57,1.57,0,0,1,.2.25c.33,5.5,1.08,10.93,1.84,16.37a134.49,134.49,0,0,0,1.25,16.4C79.71,367,79.75,369,79.75,371Z"/><path class="cls-4" d="M77.75,347c0,.33.06.66.08,1a1,1,0,0,0-.24-.05c-.11-1.75-.22-3.49-.31-5.24-.3-5.11-7.14-5.8-8.74-1.89-.06-1.93-.11-3.86-.14-5.8-.09-4.2,5.74-5.76,8-3.09C76.83,336.93,77.29,342,77.75,347Z"/><path class="cls-4" d="M77.59,347.94q.38,6.35.77,12.68a34.66,34.66,0,0,0-9.12-.8c-.16-3.55-.3-7.1-.44-10.66a44.13,44.13,0,0,1,7.65-1.29A4.24,4.24,0,0,1,77.59,347.94Z"/><path class="cls-4" d="M77.28,342.7c.09,1.75.2,3.49.31,5.24a4.24,4.24,0,0,0-1.14-.07,44.13,44.13,0,0,0-7.65,1.29c-.1-2.78-.2-5.56-.26-8.35C70.14,336.9,77,337.59,77.28,342.7Z"/><path class="cls-4" d="M69.24,359.82h0c-.17-3.51-.48-7-.84-10.55l.44-.11C68.94,352.72,69.08,356.27,69.24,359.82Z"/><path class="cls-4" d="M68.8,349.16l-.44.11c0-.21,0-.42-.07-.63v-.06c-.05-2-.07-3.93-.1-5.88a4.62,4.62,0,0,1,.35-1.89C68.6,343.6,68.7,346.38,68.8,349.16Z"/></g><g id="Layer_7" data-name="Layer 7"><path class="cls-2" d="M358.71,197.43c4.93,3.79-5.43,15.13-9.26,19.93-25.88,16.31-59.37,18.31-89.16,16.54a143.88,143.88,0,0,1-34.19-6.05c-10.21-3.17-21.51-7.74-28.94-15.8A34.72,34.72,0,0,0,207,201.33c13.82,7.87,29.33,10.69,45.24,11.48,19.19.95,38.52.74,57.29-3.78,9-2.15,17.27-5.73,25.91-8.86a61.57,61.57,0,0,1,13.1-3.58C351.22,196.25,356.33,195.61,358.71,197.43Z"/><path class="cls-1" d="M192.11,173.93h0Z"/><path class="cls-1" d="M192.06,174.09c-.12.34-.12.26-.07.09a.36.36,0,0,0,0-.09Z"/><path class="cls-1" d="M192.11,173.93h0ZM184,179.74l-1.26-.52a1.64,1.64,0,0,1,.39.13c-.45-.18-.9-.38-1.34-.59l-.05,0c0,.41,0,.78-.07.52a5.81,5.81,0,0,1-.16,2.76c1.88,2.37.81,6.88-2.46,7.38-1.55.24-3,.11-4.51.2.61,0-1.29.51-.61.13-.32.14-.95.45-.59.31h0l.13-.05.1,0-.18.19-.08.14c-.05.41-.16,1.1-.11.29a2.49,2.49,0,0,1,0,.39c0,.08.06.2.11.4a5.76,5.76,0,0,0,.72,1.73,4.83,4.83,0,0,1,.61,2.55,4.72,4.72,0,0,1,1.34,3.4,5.26,5.26,0,0,1-5.2,5.21h-.25c0,.11,0,.23,0,.33s.08.45.1.52c.1.36.2.72.32,1.07a2.43,2.43,0,0,0,.17.3c.12.2.24.38.37.57a4.51,4.51,0,0,1,4.51.48H176c12.16.74,27.23-10.82,23.29-23.8a4.7,4.7,0,0,1-2.33-2.82,31.5,31.5,0,0,1-.44-3.75,3.34,3.34,0,0,0-.56-1.36.71.71,0,0,1-.09-.15l-.15-.18a3.24,3.24,0,0,0-.56-.55c.3.31-1.11-.5-.94-.52a7.63,7.63,0,0,1-1.25-.31c-.24,0-.48,0-.72,0l-.07,0-.12,0v0h0s0,0,0,0h0l0,.09a4.72,4.72,0,0,1-1.7,2.09,4.76,4.76,0,0,1-4.57,3.65A7.46,7.46,0,0,1,184,179.74Zm168.58,5.83c10.59.1,20.11,6,17.54,17.72-1.45,6.58-5.85,14-11.17,19a4.66,4.66,0,0,1-1.53,2.59c-11.78,10.41-29.74,14.57-44.81,17.17a221.44,221.44,0,0,1-53.2,2.35,149.36,149.36,0,0,1-38.65-7.58c-11.72-4.07-23.31-9.69-31.19-19.56a5.09,5.09,0,0,1-.64-1,24.41,24.41,0,0,1-14.16.62,4.65,4.65,0,0,1-1-.4c-5.88,2-11.49-2.85-13.13-8.68-1.27-4.53.12-9.8,3.62-12.42a11.16,11.16,0,0,1,7.53-15.85c-.41-4.06.82-8.23,4.78-10.28a11.28,11.28,0,0,1,7.3-.82c2.44-4.11,8.12-5.47,12.95-4,5.18,1.52,9.61,6.59,10.09,12a4.35,4.35,0,0,1,2.1,2.22,22.38,22.38,0,0,1,1.5,13.59c14.6,8,31.11,9.93,47.63,10.26,17,.35,33.81,0,50.4-4.25C323.14,194.47,337.11,185.43,352.54,185.57Zm-3.09,31.79c3.83-4.8,14.19-16.14,9.26-19.93-2.38-1.82-7.49-1.18-10.17-.84a61.57,61.57,0,0,0-13.1,3.58c-8.64,3.13-16.94,6.71-25.91,8.86-18.77,4.52-38.1,4.73-57.29,3.78-15.91-.79-31.42-3.61-45.24-11.48a34.72,34.72,0,0,1-9.84,10.72c7.43,8.06,18.73,12.63,28.94,15.8a143.88,143.88,0,0,0,34.19,6.05C290.08,235.67,323.57,233.67,349.45,217.36Z"/><path class="cls-7" d="M193,174.06a7.63,7.63,0,0,0,1.25.31c-.17,0,1.24.83.94.52a3.24,3.24,0,0,1,.56.55l.15.18a.71.71,0,0,0,.09.15,3.34,3.34,0,0,1,.56,1.36,31.5,31.5,0,0,0,.44,3.75,4.7,4.7,0,0,0,2.33,2.82c3.94,13-11.13,24.54-23.29,23.8h-.07a4.51,4.51,0,0,0-4.51-.48c-.13-.19-.25-.37-.37-.57a2.43,2.43,0,0,1-.17-.3c-.12-.35-.22-.71-.32-1.07,0-.07-.06-.31-.1-.52s0-.22,0-.33h.25a5.26,5.26,0,0,0,5.2-5.21,4.72,4.72,0,0,0-1.34-3.4,4.83,4.83,0,0,0-.61-2.55,5.76,5.76,0,0,1-.72-1.73c0-.2-.08-.32-.11-.4a2.49,2.49,0,0,0,0-.39c0,.81.06.12.11-.29l.08-.14.18-.19-.1,0-.13.05h0c-.36.14.27-.17.59-.31-.68.38,1.22-.12.61-.13,1.52-.09,3,0,4.51-.2,3.27-.5,4.34-5,2.46-7.38a5.81,5.81,0,0,0,.16-2.76c.07.26.07-.11.07-.52l.05,0c.44.21.89.41,1.34.59a1.64,1.64,0,0,0-.39-.13l1.26.52a7.46,7.46,0,0,0,1.76.18,4.76,4.76,0,0,0,4.57-3.65,4.72,4.72,0,0,0,1.7-2.09c-.05.17-.05.25.07-.09l.12,0,.07,0C192.49,174,192.73,174.05,193,174.06Z"/></g><g id="Layer_4" data-name="Layer 4"><path class="cls-4" d="M380.78,149.86c3.28,2.93,5.36,6.83,4.21,11.7a10.29,10.29,0,0,1-5.89,7.24,7.39,7.39,0,0,1-4.29.34,10.15,10.15,0,0,1,.4,3.05,13.55,13.55,0,0,1-2,6.34A10.45,10.45,0,0,1,363,183.46c-9.22-1.13-14.55-12.52-17.44-21.15-.09,0-.16.06-.26.08l-77.09,18.46c-10.79,2.58-21.84,6.22-32.86,7.57-7.31.91-16.1-1.83-18.27-9.77-2-7.42,3.67-13.11,10-15.78,9.64-4.07,20.91-5.44,31.06-7.81l67.56-15.8c5.36-1.25,11.83-3.42,17.68-2.66,0-.11,0-.22,0-.33a3.47,3.47,0,0,1,.24-1.69,4.77,4.77,0,0,1-.91-2.6c-.63-10.82,9.43-20.17,20.14-15.62a12.68,12.68,0,0,1,7.5,14.86c5,1,9.54,3.58,11.55,8.95A10.48,10.48,0,0,1,380.78,149.86Zm-8.32,9.21c1.63.2,4.07,1.84,2.88-1.22-.73-1.83-4.27-3-5.93-3.78-4.64-2.06-1.91-8.78,2.43-8.95,3.35-.12-2.14-4.37-3.34-4.66a24.81,24.81,0,0,0-6.67-.19c-5,.24-6.28-6.54-2.43-8.94,3.24-2,1.67-6.39-1.93-6.57-4-.19-5.4,4-5.21,7.22a4.7,4.7,0,0,1-.21,1.68,6.13,6.13,0,0,1,.88,2.61,45.44,45.44,0,0,1,.2,7c1.26,3.26.62,7.13-1,10.66a4.61,4.61,0,0,1,1.61,2.39c1.48,5,3.68,11.75,7.63,15.47,6.57,6.18,2.46-5.1,3.1-7.84C365.38,160.12,368.8,158.61,372.46,159.07ZM343,147.8c.09-.48.14-1,.2-1.44-1-.57-3-.29-4.09-.2-4.8.42-9.63,2.07-14.33,3.17l-32.05,7.49-32.06,7.49c-9.45,2.21-19.78,3.55-28.88,7-1.44.54-4.15,1.43-4.94,2.92-1.76,3.31,2.19,4.55,4.67,4.8,4.73.49,10-1.62,14.58-2.71l32.23-7.72,63-15.1a5.86,5.86,0,0,1,.51-.9c.38-.56.89-1.2,1.33-1.84A5.75,5.75,0,0,1,343,147.8Z"/><path class="cls-5" d="M375.34,157.85c1.19,3.06-1.25,1.42-2.88,1.22-3.66-.46-7.08,1.05-8,4.87-.64,2.74,3.47,14-3.1,7.84-3.95-3.72-6.15-10.46-7.63-15.47a4.61,4.61,0,0,0-1.61-2.39c1.61-3.53,2.25-7.4,1-10.66a45.44,45.44,0,0,0-.2-7,6.13,6.13,0,0,0-.88-2.61,4.7,4.7,0,0,0,.21-1.68c-.19-3.24,1.23-7.41,5.21-7.22,3.6.18,5.17,4.54,1.93,6.57-3.85,2.4-2.53,9.18,2.43,8.94a24.81,24.81,0,0,1,6.67.19c1.2.29,6.69,4.54,3.34,4.66-4.34.17-7.07,6.89-2.43,8.95C371.07,154.81,374.61,156,375.34,157.85Z"/><path class="cls-6" d="M343.21,146.36c-.06.48-.11,1-.2,1.44a5.75,5.75,0,0,0,.2,2.92c-.44.64-.95,1.28-1.33,1.84a5.86,5.86,0,0,0-.51.9l-63,15.1-32.23,7.72c-4.56,1.09-9.85,3.2-14.58,2.71-2.48-.25-6.43-1.49-4.67-4.8.79-1.49,3.5-2.38,4.94-2.92,9.1-3.41,19.43-4.75,28.88-7l32.06-7.49,32.05-7.49c4.7-1.1,9.53-2.75,14.33-3.17C340.25,146.07,342.19,145.79,343.21,146.36Z"/><path class="cls-1" d="M35.44,199.25c2.18,5.38,1.47,10.91-1.92,15a12.81,12.81,0,0,1-2.27,12.54c2.59,3.91,5.16,7.87,1.13,12.41s-10.61,3.25-15.2.78C2.5,232,1.92,213.67,2.74,199.12a4.65,4.65,0,0,1,1.75-3.51c-.1-12.86,21.28-30.73,29-14.25a15.57,15.57,0,0,1,.75,10.32c-.24.92-1.4,2.71-1.52,3.68C33,194.87,35.23,198.72,35.44,199.25ZM25.25,209c4.41-2.87.39-7-1.14-10-1.3-2.51-1.07-4.48-.22-7.06,1-3.17,2.47-8.94-3-6.45-3.76,1.73-7.19,7.42-6.73,11.31a3.77,3.77,0,0,1-1.92,4c-.46,7.94-.9,16.6,3,23.75a17.37,17.37,0,0,0,7.51,7.54c3.05,1.49,1,.59.38-.41A40.76,40.76,0,0,1,20.74,228c-1.09-2.16-.7-5.4,1.73-6.56,1.74-.84,3.4-3,1.8-4.92C22.28,214.09,22.45,210.82,25.25,209Z"/><path class="cls-7" d="M24.11,199c1.53,3,5.55,7.16,1.14,10-2.8,1.81-3,5.08-1,7.54,1.6,1.95-.06,4.08-1.8,4.92-2.43,1.16-2.82,4.4-1.73,6.56a40.76,40.76,0,0,0,2.39,3.64c.65,1,2.67,1.9-.38.41a17.37,17.37,0,0,1-7.51-7.54c-3.89-7.15-3.45-15.81-3-23.75a3.77,3.77,0,0,0,1.92-4c-.46-3.89,3-9.58,6.73-11.31,5.46-2.49,4,3.28,3,6.45C23,194.5,22.81,196.47,24.11,199Z"/></g></svg>