<?xml version="1.0" encoding="UTF-8"?>
<svg xmlns="http://www.w3.org/2000/svg" viewBox="0 0 420.92 420.92">
  <g id="Vagrant_Bottok" data-name="Vagrant Bottok">
    <g>
      <path d="M294.77,357.22s-.04.09-.08.18c.05-.16.09-.32.12-.46.01-.04.02-.05.03-.08.06-.12.11-.24.18-.35.1-.17.2-.33.31-.49.05-.05.35-.45.44-.55.26-.27.53-.53.81-.77.08-.08.47-.35.56-.42.55-.36,1.11-.7,1.71-.99.38-.19.91-.36,1.65-.6,2.11-.67,4.22-1.16,6.26-1.88.44.08.88.14,1.34.19.03,0,.06,0,.09,0,.21.04.43.07.64.11.66.11,1.33.25,1.98.42.54.14,1.07.3,1.59.48l.21.07c.13.06.26.12.39.19.17.09,1,.68,1.26.78.15.15.29.29.44.43.02.01.03.02.04.03.09.14.18.27.26.42.04.08.07.12.1.18.06.19.12.42.12.42,0,.03.02.05.03.08,0,.2.01.4.01.61-.01.1-.01.21-.02.32-.07.28-.17.66-.18.69,0,0-.03.12-.07.24-.07.16-.15.32-.24.48-.11.2-.23.41-.36.61-.07.1-.13.2-.2.29-.32.45-.27.39.15-.17-.07.42-.97,1-1.25,1.28-.08.08-.12.13-.15.17-.28.17-.64.32-.8.41-.16.08-.33.17-.49.25,0,0,0,0-.03.01-.05.02-.09.05-.14.08,0,.01-.03.02-.05.02-.01,0-.02,0-.03,0-.02.02-.05.03-.07.04h-.01s-.05.02-.07.03c-.66.21-1.32.43-1.99.59-.41.09-.83.16-1.24.25-.02,0-.06,0-.1,0-.79.1-1.57.18-2.36.22-1.3.07-2.61.09-3.91.03-.3-.02-1.46.05-1.61-.13.01,0,1.21.2.28.03-.38-.07-.76-.13-1.13-.21-.48-.11-.96-.23-1.42-.37-.31-.1-.61-.21-.91-.31-.12-.04-.2-.07-.25-.08-.02,0-.04-.01-.05-.01,0,0,0,0,0,0-.32-.19-.68-.45-.81-.53-.08-.05-.13-.09-.19-.12-.18-.17-.45-.46-.47-.48-.05-.05-.1-.1-.15-.16-.07-.1-.13-.2-.19-.31h0c-.02-.07-.04-.14-.04-.2,0-.02-.01-.11-.05-.28,0-.02,0-.05,0-.07.02-.18.1-.52.12-.63Z" style="fill: #818181;"/>
      <path d="M294.69,358.18s-.03-.1-.04-.18v-.08c.04.17.05.26.05.28t-.01-.02Z" style="fill: #225282;"/>
      <path d="M268.94,222.27c-.4.36-.8.71-1.2,1.06-1.19,1.04-2.38,2.08-3.59,3.1-2.48,2.1-4.91,4.31-7.48,6.31-.79.62-1.52,1.01-2.53,1.05-.96.04-1.83-.45-2.53-1.05-.16-.14-.45-.54-.56-.72-.79-1.3-.61-3.31.56-4.34,2.47-2.2,5.13-4.22,7.69-6.31,1.3-1.07,2.63-2.11,3.95-3.15.63-.49,1.25-.98,1.87-1.47.52-.4,1-.82,1.58-1.11.14-3.81.28-7.63.48-11.44.12-2.38.17-4.78.36-7.15.21-2.54.64-5.07,1.01-7.59.04-.33.18-.63.38-.88-.57-1.23-1.19-2.44-1.91-3.58-1.27-2.02-2.52-3.98-3.69-6.06-1.12-2-2.42-3.89-3.55-5.88-1.18-2.06-2.31-4.14-3.45-6.22-4.06-7.41-8.28-14.74-12.68-21.96-4.28-7.01-8.99-13.8-12.99-20.97-4.23-7.6-5.58-16.05-6.24-24.61-.33-4.34-.65-8.69-.97-13.04-.16-2.15-.34-4.3-.44-6.45-.01-.13-.02-.26-.03-.4-3.32,1.67-6.74,3.16-10.19,4.54-3.77,1.5-7.6,2.85-11.48,4.06-2.01.63-4.07,1.1-6.14,1.3-.29,4.03-.73,8.05-1.12,12.07-.44,4.45-1.06,8.97-.77,13.45.24,3.6,1.51,6.9,2.93,9.99,1.66,3.62,3.55,7.13,5.33,10.69,3.72,7.42,7.33,14.9,10.99,22.36,3.67,7.46,7.26,14.94,10.82,22.46,1.77,3.76,3.56,7.51,5.3,11.29.91,1.96,1.87,3.91,2.71,5.9.8,1.86,1.39,3.76,2.28,5.58.68,1.38.38,3.06-1.02,3.89-1.26.73-3.22.35-3.89-1.02-.3-.6-.57-1.21-.88-1.79-.28-.51-.65-.95-.99-1.44-.65-.95-1.19-2-1.72-3.02-1.12-2.14-2.23-4.27-3.34-6.4-2.18-4.19-4.31-8.42-6.46-12.63-7.66-15.01-15.13-30.14-22.38-45.35-1.73-3.63-3.84-7.37-4.86-11.28-.5-1.91-1.11-3.75-1.4-5.71-.31-2.12-.46-4.23-.39-6.37.12-4.12.74-8.24,1.21-12.33.41-3.57.79-7.15,1.28-10.72-.05-.01-.1-.01-.15-.03-3.35-.82-6.14-3.01-8.68-5.25-2.38-2.1-4.53-4.16-6.7-6.02-1.71-1.46-.34-4.57,1.84-4.45s4.2.77,5.98,2.06c1.68,1.23,3.27,2.59,4.88,3.91.15.12.31.24.46.37.04.03.1.07.18.14.38.26.76.53,1.15.78.29.18.59.36.89.52.11.06.86.37.86.4,2.01.67,3.05.39,5.33-.28,2.38-.7,4.71-1.62,7.03-2.51,2.33-.89,4-1.58,5.86-2.4,3.38-1.48,6.7-3.08,10.01-4.72-.07-.19-.13-.39-.17-.58-.1-.4-.12-.81-.1-1.21-1.23-.7-2.36-1.65-3.5-2.48-1.27-.92-2.53-1.85-3.8-2.77-2.66-1.95-5.34-3.88-8.01-5.8-2.41-1.74-4.81-3.48-7.22-5.21-2.12-1.53-4.21-3.3-6.53-4.53-.11-.06-.23-.12-.35-.17-.03-.01-.07-.03-.13-.05-.26-.08-.52-.16-.79-.21-.07-.02-.12-.03-.14-.04-.08,0-.17.01-.29.02-.3.01-.58,0-.88.03-.06.02-.15.03-.25.06-.31.07-.6.14-.9.22-.6.17-1.19.37-1.78.58-2.76,1.01-5.49,2.14-8.23,3.21-5.46,2.13-10.96,4.15-16.5,6.06-2.73.93-5.46,1.88-8.19,2.79-2.22.75-4.49,1.19-6.77,1.62-.1,5.29.07,10.63.44,15.9.38,5.57,1.31,11.07,2.69,16.48.33,1.29-.13,2.64-1.1,3.46.76.26,1.43.76,1.79,1.51,6.11,12.76,12,25.62,17.89,38.48,10.52,22.95,20.74,46.04,31.03,69.09s20.47,46.15,31,69.09c.63,1.38.52,2.95-.53,4,.07.17.14.34.2.52.29.1.58.2.86.34,1.02.52,1.99,1.29,2.94,1.95,1.84,1.29,3.46,2.61,5.33,4.02,6.2,4.71,13.04,9.72,19.9,14.06,3.4,2.16,6.83,4.26,10.33,6.27,2.46,1.41,5.03,2.69,7.54,4.04-.31-.96-.48-1.98-.69-2.95-.51-2.39-.96-4.79-1.41-7.19-1.62-8.66-2.87-17.34-3.78-26.1-.45-4.37-.83-8.76-1.15-13.15-.15-2.11-.28-4.22-.37-6.34-.09-2.25-.46-4.75.09-6.95.33-1.33,1.68-2.31,3.03-2.31,1.46,0,2.58.99,3.04,2.31.47,1.34.43,2.86.53,4.26l.27,3.42c.21,2.44.38,4.88.58,7.32.72,8.54,1.84,17.02,2.88,25.52.5,4.06,1.06,8.12,1.68,12.16.34,2.18.71,4.36,1.04,6.54.18,1.21.47,2.43.34,3.65-.02.16-.01.31,0,.46,1.03-.93,2.16-1.76,3.29-2.56,1.49-1.05,3.02-2.08,4.56-3.05,3.1-1.93,6.25-3.79,9.37-5.68,3.2-1.93,6.43-3.81,9.58-5.82,3.16-2.03,6.24-4.11,9.59-5.79.04-.02.07-.03.1-.04.27-.67.55-1.33.8-2.01.36-.96.86-1.69,1.73-2.24.09-.06.19-.09.29-.14.75-1.65,1.54-3.28,2.4-4.9,1.53-2.88,3.28-5.66,4.93-8.48,3.22-5.51,6.41-11.04,9.58-16.59,11.41-19.95,22.6-40.01,33.3-60.36,5.34-10.17,10.59-20.39,15.73-30.67,2.57-5.14,5.12-10.29,7.63-15.45,1.26-2.58,2.51-5.17,3.74-7.77,1.23-2.59,2.37-5.24,3.83-7.71.69-1.16,1.9-1.82,3.17-1.9-.87-5.97-1.56-11.96-2.03-17.97-.25-3.33-.37-6.67-.45-10-.03-1.2.02-2.38.07-3.57-.08-.06-.16-.12-.24-.19-1.32-1.3-2.47-3.13-3.46-4.41-1.15-1.47-2.31-2.94-3.48-4.4-2.3-2.85-4.67-5.64-7.01-8.46s-4.73-5.6-7.16-8.34c-.74-.84-1.46-1.7-2.18-2.56-1.01.67-2.12,1.09-3.38,1.38-1.11.27-2.24.47-3.35.71-2.24.48-4.47.96-6.71,1.45-4.54,1-9.08,2.04-13.61,3.11s-9.07,2.08-13.6,3.17c-2.23.54-4.44,1.08-6.69,1.51-.34.07-.68.14-1.03.21,1.03.9,2.01,1.87,2.98,2.78,2.06,1.94,4.12,3.87,6.15,5.84,7.07,6.84,14.11,13.71,21.2,20.53,1.53,1.47,2.59,2.48,4.08,3.4,1.17.73,1.14.66,2.36.99.05,0,.3.05.4.07.14.01.29.03.44.03.49.02,1,.02,1.5-.01,0,.01.57-.06.75-.08.17-.03.39-.08.44-.09.5-.11.99-.24,1.48-.4.21-.06.42-.13.63-.21.05-.02.37-.13.53-.19.11-.05.25-.11.25-.11.27-.13.55-.26.81-.39,2.25-1.11,4.32-2.62,6.73-3.36,4.31-1.33,7.75,4.52,4.43,7.61-2.32,2.17-5.49,3.44-8.46,4.47-2.64.92-5.64,1.59-8.45,1.32-.3-.03-.59-.07-.87-.12.13,4.23.22,8.47.21,12.7-.01,5.09-.01,10.23-.38,15.32.99,1.41,1.25,3.38.26,4.89-1.79,2.71-3.92,5.21-5.92,7.77-1.81,2.31-3.67,4.6-5.52,6.88-6.57,8.13-13.18,16.22-19.89,24.23-3.41,4.07-6.85,8.1-10.31,12.12-1.71,1.98-3.42,3.94-5.23,5.83-1.73,1.79-4.46,5.48-7.33,4.31-2.2-.9-2.68-3.36-1.53-5.34.77-1.32,1.74-2.54,2.65-3.77,1.86-2.51,3.82-4.93,5.79-7.36,6.75-8.33,13.38-16.75,20.05-25.15,3.3-4.16,6.6-8.33,9.88-12.51,3.07-3.9,6.05-7.98,9.41-11.65.16-5.19.51-10.37.6-15.57.08-5.22.04-10.44-.1-15.65-1.72-1.13-3.33-2.49-4.85-3.95-3.72-3.55-7.38-7.17-11.06-10.75l-11.25-10.96c-1.9-1.85-3.77-3.74-5.65-5.62l-.66-.66c.07,4.67.25,9.34.58,14,.25,3.53.54,7.06.9,10.57.16,1.64.34,3.28.54,4.91.24,2.02.65,3.43.58,5.38-.09,2.12-1.47,3.42-3.08,3.8-.84,2.12-2.29,4.08-3.43,5.96-1.55,2.53-3.12,5.03-4.75,7.51-5.84,8.94-11.93,17.72-18.26,26.32-3.22,4.38-6.48,8.72-9.89,12.95-3.24,4.02-6.63,7.97-9.73,12.1-1.18,1.57-3.15,2.22-4.83.92t-.01-.01c.07.87.12,1.74.14,2.61.05,2.3.03,4.61.04,6.91.02,3.75-.01,7.5-.04,11.25,1.31.3,2.61.74,3.83,1.21,2.23.84,4.36,1.93,6.43,3.1,2.16,1.22,4.24,2.47,6.18,4.04.84.67,1.66,1.38,2.45,2.11,1.66,1.54,2.59,3.27,2.14,5.58-.24,1.21-1.51,2.54-2.74,2.74-2.33.38-3.84-.42-5.47-2-.77-.75-1.57-1.48-2.4-2.17-.78-.66-1.54-1.33-2.33-1.97-.2-.17-.41-.33-.61-.5t-.02,0c-.42-.3-.82-.61-1.25-.9-1.75-1.16-3.62-2.11-5.49-3.07-1.09-.55-2.22-1.04-3.33-1.56-.39.14-.79.23-1.22.25-.5.02-1-.08-1.45-.28ZM315.11,300.78c-1.45.8-2.91,1.58-4.37,2.38-.25.13-.5.28-.75.42.38.59.61,1.3.6,2.04-.02,3.35-.37,6.68-.39,10.03-.02,3.27.11,6.54.37,9.8.28,3.46.59,5.93,1.13,9.06.42,2.5,1.13,5,1.62,7.52.58.14,1.16.31,1.71.48,3.64,1.16,7.22,3.36,8.99,6.88,3.79,7.56-.74,16.26-8.13,19.47-3.81,1.66-7.89,2.15-12.03,1.96-3.1-.13-6.27-.53-9.16-1.69-3.14-1.26-6.03-3.16-7.55-6.3-1.73-3.58-1.44-7.76.85-11.04,2.26-3.23,5.59-5.31,9.36-6.35,1.36-.38,2.72-.64,4.08-.84.27-.93.88-1.75,1.88-2.25.27-.13.55-.25.83-.35-.05-.31-.1-.62-.16-.92-.31-1.65-.58-3.3-.82-4.96-.5-3.54-.89-7.09-1.09-10.67-.2-3.42-.23-6.85-.12-10.28.08-2.39.19-4.84.47-7.24-.4.23-.8.46-1.19.69-3.24,1.87-6.45,3.78-9.71,5.6-1.58.9-3.23,1.74-4.86,2.54-1.67.81-3.56,1.85-5.4,2.13-1.02.16-1.93.01-2.67-.63-.05.23-.12.46-.22.68-.67,1.61-2.83,3.02-4.62,2.27-4.49-1.86-8.77-4.4-12.98-6.82-3.99-2.3-7.89-4.73-11.72-7.27-.21,2.43-.48,4.86-.67,7.29-.29,3.86-.47,7.73-.72,11.59-.44,6.66-.69,13.32-.78,19.99,1.38.43,2.69,1.1,3.82,1.94,3.42,2.55,5.59,6.15,6.03,10.41.75,7.17-4.73,13.15-10.96,15.7-6.42,2.62-14.11.61-19.79-2.91-2.89-1.78-5.96-4.05-7.61-7.11-2.05-3.79-1.36-8.37,2.01-11.16,2.64-2.19,6.2-3.56,9.5-4.37,1.94-.47,3.94-.76,5.92-.97.87-.09,1.76-.16,2.64-.15.15-7.21.47-14.43,1.06-21.62.32-3.95.83-7.9,1.34-11.84.49-3.74.89-7.56,1.72-11.25-.92-.65-1.85-1.3-2.76-1.97-3.45-2.53-6.9-5.1-10.15-7.89-.83-.72-1.67-1.44-2.48-2.18-.44.39-.95.71-1.53.9-2.1.68-4.09-.8-4.77-2.7-1.22-3.41-2.27-6.86-3.58-10.23-.31-.81-.64-1.62-.96-2.42-.04-.1-.38-.92-.4-.97-.13-.29-.25-.59-.38-.89-.45-1.04-.91-2.07-1.28-3.14-.13-.4-.32-.81-.42-1.22-.31-1.22.03-2.23.7-3.24.09-.13.19-.26.3-.38-3.76-8.2-7.54-16.38-11.32-24.58-10.54-22.91-21.12-45.8-31.65-68.71-10.54-22.94-21.06-45.9-31.03-69.09-.4-.93-.52-1.93-.29-2.83-.82-.05-1.6-.46-2.05-1.36-.79-1.56-.74-3.39-.89-5.11-.13-1.55-.22-3.11-.32-4.68-.19-2.95-.39-5.91-.58-8.86-.4-6.09-.73-12.13-.79-18.23,0-1.35,1.15-2.17,2.31-2.27.08-.65.44-1.28,1.18-1.73,1.54-.93,3.01-1.95,4.61-2.77,1.47-.75,2.92-1.47,4.43-2.12,3.36-1.43,6.7-2.87,10.07-4.28,5.37-2.26,11.34-4.59,17.07-6.76,2.66-1,5.34-2.25,8.15-2.75,3.49-.62,6.79,0,9.74,2.01,2.46,1.67,4.73,3.67,7.05,5.54l7.32,5.88c2.32,1.86,4.63,3.71,6.95,5.56,1.3,1.02,2.59,2.05,3.88,3.07,1.15.92,2.41,1.76,3.35,2.91.18.22.32.45.44.68.03.01.05.01.07.02,2.76.95,4.31,3.28,5.33,5.86.12.15.24.32.33.51,1.22,2.5,1.25,5.33,1.56,8.07.27,2.39.44,4.79.65,7.19.41,4.79.77,9.58,1.26,14.37.39,3.91,1.01,7.83,2.32,11.6.62,1.78,1.51,3.26,2.45,4.97.95,1.7,1.91,3.39,2.94,5.05,4.39,7.05,8.8,14.05,12.95,21.25,4.14,7.19,8.18,14.44,12.01,21.8,1.94,3.74,3.45,7.67,5.23,11.48.91,1.96,1.42,4.08,2.27,6.07.75,1.75,1.7,3.43,2.62,5.1,3.62-4.14,6.92-8.58,10.19-12.99,6.26-8.46,12.58-16.86,18.54-25.54,3-4.37,5.94-8.78,8.82-13.23,1.44-2.23,2.91-4.43,4.36-6.66,1.1-1.68,2.12-3.66,3.54-5.16-.4-1.66-.49-3.45-.68-5.12-.21-1.8-.4-3.6-.57-5.4-.32-3.43-.57-6.87-.71-10.32-.28-7.07-.26-14.14.05-21.21.06-1.52.96-2.86,2.29-3.42.08-.6.31-1.19.77-1.68.05-.06.1-.12.16-.18,1.43-1.96,4.15-2.73,6.39-3.53,2.16-.77,4.35-1.4,6.55-2.04,4.46-1.29,8.93-2.59,13.44-3.76,4.5-1.17,9.01-2.3,13.53-3.4,2.22-.54,4.44-1.07,6.66-1.6,1.73-.4,3.58-.97,5.4-1.12.65-.92,1.89-1.4,3.08-.7.1.06.2.1.3.15,1.71.34,3.1,1.73,4.39,2.95,1.31,1.23,2.6,2.46,3.83,3.77,2.56,2.72,5.09,5.47,7.56,8.27,2.47,2.81,4.84,5.71,7.18,8.62,1.17,1.46,2.34,2.92,3.49,4.39.39.51.81,1.02,1.23,1.53,1.02.12,1.98.75,2.29,1.9.17.6.26,1.23.34,1.87.36.86.42,1.7.22,2.47l.06.78c.18,1.63.38,3.25.48,4.89.21,3.17.51,6.34.78,9.51.48,5.32,1.09,10.55,1.89,15.79-1.12,2.85-2.4,5.63-3.42,8.52-1.17,3-2.65,5.85-4.06,8.74-1.39,2.87-2.78,5.75-4.18,8.61-2.8,5.74-5.62,11.47-8.48,17.18-10.33,20.62-21.07,41.03-32.22,61.22-5.6,10.13-11.26,20.22-17.11,30.2-2.91,4.95-5.85,9.89-8.8,14.82-2.51,4.17-5.09,8.2-8.08,11.99-.43,1.17-.9,2.33-1.38,3.48,0,.05-.02.1-.02.15-.3.53-.55,1.08-.78,1.65-.67.83-1.33,1.68-2.03,2.5-.49.59-.88,1.05-1.25,1.42-.76.51-1.59.89-2.4,1.33-.18.04-.37.09-.58.13-.15-.05-.29-.11-.43-.18ZM227.5,360.98s.12.1.29.21c.02.02.04.03.06.05.46.32.92.65,1.4.95,1.01.66,2.06,1.25,3.15,1.77.15.07.29.14.44.21.26.09.52.19.77.28.6.21,1.2.39,1.81.55.23.05,1.06.2,1.14.23.42.04.85.08,1.29.09.56,0,1.24.03,1.82-.07.29-.08.74-.2.89-.24.51-.14,1-.32,1.51-.47.05-.01.08-.02.12-.03.13-.07.24-.14.27-.15.49-.25.95-.54,1.41-.83-.03.03-.06.06-.09.1.04-.04.09-.09.15-.14,0-.01.03-.02.05-.03.09-.06.16-.12.2-.17.05-.03.09-.07.13-.11.38-.34.71-.73,1.07-1.08.12-.17.23-.33.34-.51.15-.24.28-.49.41-.74.02-.03.03-.06.04-.09.02-.03.02-.05.04-.08.03-.11.07-.22.11-.33l.18-.66v-.03s.04-.12.04-.23c.02-.14.05-.29.09-.42-.04.11-.06.2-.09.28,0-.17-.01-.35-.01-.52-.04-.21-.1-.6-.18-.92-.05-.04-.13-.13-.23-.32-.11-.2-.23-.4-.35-.59-.06-.09-.12-.17-.18-.26-.1-.1-.2-.19-.2-.2-.15-.15-.31-.3-.46-.45-.2-.14-.49-.36-.75-.53.07,0,.09,0-.01-.01-.22-.15-.4-.24-.46-.19-.03.02.02.06.1.1-.12-.03-.24-.07-.36-.1-.31.04-.84-.08-1.06-.11-.07-.01-.46-.07-.79-.12-.05,0-.11,0-.2-.01-.72-.03-1.35-.22-1.91-.5-2.15.63-4.4.99-6.51,1.74-.71.25-1.41.52-2.11.78-.39.14-.77.29-1.15.44-.11.05-.29.12-.32.14-.63.28-1.26.57-1.86.9-.32.17-.63.36-.95.55-.03.02-.05.04-.08.05-.11.1-.21.21-.32.31.04.07.07.13.09.16.06.11.24.32.32.42l.33.36c.26.25.53.49.81.74-.09-.07-.19-.15-.24-.17ZM311.32,359.96h.01s.07-.03.1-.05c.02,0,.04-.01.05-.02.1-.04.17-.08.17-.09.16-.08.33-.17.49-.25.16-.09.52-.24.8-.41.03-.04.07-.09.15-.17.28-.28,1.18-.86,1.25-1.28-.42.56-.47.62-.15.17.07-.09.13-.19.2-.29.13-.2.25-.41.36-.61.09-.16.17-.32.24-.48.04-.12.07-.24.07-.24.01-.03.11-.41.18-.69.01-.11.01-.22.02-.32,0-.21-.01-.41-.01-.61-.01-.03-.02-.05-.03-.08,0,0-.06-.23-.12-.42-.03-.06-.06-.1-.1-.18-.08-.15-.17-.28-.26-.42-.01-.01-.02-.02-.04-.03-.15-.14-.29-.28-.44-.43-.26-.1-1.09-.69-1.26-.78-.13-.07-.26-.13-.39-.19l-.21-.07c-.52-.18-1.05-.34-1.59-.48-.65-.17-1.32-.31-1.98-.42-.21-.04-.43-.07-.64-.11-.03,0-.06,0-.09,0-.46-.05-.9-.11-1.34-.19-2.04.72-4.15,1.21-6.26,1.88-.74.24-1.27.41-1.65.6-.6.29-1.16.63-1.71.99-.09.07-.48.34-.56.42-.28.24-.55.5-.81.77-.09.1-.39.5-.44.55-.11.16-.21.32-.31.49-.07.11-.12.23-.18.35-.01.03-.02.04-.03.08-.03.14-.07.3-.12.46.04-.09.06-.15.08-.18-.02.11-.1.45-.12.63,0,.02,0,.05,0,.07h0s0,.05,0,.08c.01.08.03.14.04.18t.01.02c0,.06.02.13.04.19h0c.06.12.12.22.19.32.05.06.1.11.15.16.02.02.29.31.47.48.06.03.11.07.19.12.13.08.49.34.81.53,0,0,0,0,0,0,.23.13.43.23.52.19,0,0-.32-.12-.47-.18.05.01.13.04.25.08.3.1.6.21.91.31.46.14.94.26,1.42.37.37.08.75.14,1.13.21.93.17-.27-.02-.28-.03.15.18,1.31.11,1.61.13,1.3.06,2.61.04,3.91-.03.79-.04,1.57-.12,2.36-.22.04,0,.08,0,.1,0,.41-.09.83-.16,1.24-.25.67-.16,1.33-.38,1.99-.59.02-.01.05-.02.07-.03Z" style="fill: #225282;"/>
      <path d="M246.54,359.29v.14c-.01.08-.02.16-.04.23-.04.11-.08.05.04-.37Z" style="fill: #225282;"/>
      <path d="M244.17,355.49s.01,0,.01.01c-.02-.01-.06-.02-.09-.03.03.01.05.01.08.02Z" style="fill: #225282;"/>
      <path d="M243.87,363.53c.3-.38.42-.37.31-.24-.09.07-.17.13-.25.2-.02.01-.04.02-.06.04Z" style="fill: #225282;"/>
      <path d="M244.31,363.18s-.08.08-.13.11c.11-.13-.01-.14-.31.24-.46.29-.92.58-1.41.83-.03.01-.14.08-.27.15-.04.01-.07.02-.12.03-.51.15-1,.33-1.51.47-.15.04-.6.16-.89.24-.58.1-1.26.07-1.82.07-.44-.01-.87-.05-1.29-.09-.08-.03-.91-.18-1.14-.23-.61-.16-1.21-.34-1.81-.55-.25-.09-.51-.19-.77-.28-.15-.07-.29-.14-.44-.21-1.09-.52-2.14-1.11-3.15-1.77-.48-.3-.94-.63-1.4-.95-.02-.02-.04-.03-.06-.05s-.03-.03-.05-.04c-.28-.25-.55-.49-.81-.74l-.33-.36c-.08-.1-.26-.31-.32-.42-.02-.03-.05-.09-.09-.16.11-.1.21-.21.32-.31.03-.01.05-.03.08-.05.32-.19.63-.38.95-.55.6-.33,1.23-.62,1.86-.9.03-.02.21-.09.32-.14.38-.15.76-.3,1.15-.44.7-.26,1.4-.53,2.11-.78,2.11-.75,4.36-1.11,6.51-1.74.56.28,1.19.47,1.91.5.09.01.15.01.2.01.33.05.72.11.79.12.22.03.75.15,1.06.11.12.03.24.07.36.1.02.01.05.01.07.02.07.02.15.04.21.05.03.01.07.02.09.03.26.17.55.39.75.53.15.15.31.3.46.45,0,.01.1.1.2.2.06.09.12.17.18.26.12.19.24.39.35.59.1.19.18.28.23.32.08.32.14.71.18.92,0,.17.01.35.01.52-.12.42-.08.48-.04.37v.03l-.18.66c-.04.11-.08.22-.11.33-.02.03-.02.05-.04.08-.01.03-.02.06-.04.09-.13.25-.26.5-.41.74-.11.18-.22.34-.34.51-.36.35-.69.74-1.07,1.08Z" style="fill: #818181;"/>
      <path d="M213.97,67.18c1.14.83,2.27,1.78,3.5,2.48-.02.4,0,.81.1,1.21.04.19.1.39.17.58-3.31,1.64-6.63,3.24-10.01,4.72-1.86.82-3.53,1.51-5.86,2.4-2.32.89-4.65,1.81-7.03,2.51-2.28.67-3.32.95-5.33.28,0-.03-.75-.34-.86-.4-.3-.16-.6-.34-.89-.52-.39-.25-.77-.52-1.15-.78-.08-.07-.14-.11-.18-.14-.15-.13-.31-.25-.46-.37-1.61-1.32-3.2-2.68-4.88-3.91-1.78-1.29-3.8-1.94-5.98-2.06s-3.55,2.99-1.84,4.45c2.17,1.86,4.32,3.92,6.7,6.02,2.54,2.24,5.33,4.43,8.68,5.25.05.02.1.02.15.03-.49,3.57-.87,7.15-1.28,10.72-.47,4.09-1.09,8.21-1.21,12.33-.07,2.14.08,4.25.39,6.37.29,1.96.9,3.8,1.4,5.71,1.02,3.91,3.13,7.65,4.86,11.28,7.25,15.21,14.72,30.34,22.38,45.35,2.15,4.21,4.28,8.44,6.46,12.63,1.11,2.13,2.22,4.26,3.34,6.4.53,1.02,1.07,2.07,1.72,3.02.34.49.71.93.99,1.44.31.58.58,1.19.88,1.79.67,1.37,2.63,1.75,3.89,1.02,1.4-.83,1.7-2.51,1.02-3.89-.89-1.82-1.48-3.72-2.28-5.58-.84-1.99-1.8-3.94-2.71-5.9-1.74-3.78-3.53-7.53-5.3-11.29-3.56-7.52-7.15-15-10.82-22.46-3.66-7.46-7.27-14.94-10.99-22.36-1.78-3.56-3.67-7.07-5.33-10.69-1.42-3.09-2.69-6.39-2.93-9.99-.29-4.48.33-9,.77-13.45.39-4.02.83-8.04,1.12-12.07,2.07-.2,4.13-.67,6.14-1.3,3.88-1.21,7.71-2.56,11.48-4.06,3.45-1.38,6.87-2.87,10.19-4.54.01.14.02.27.03.4.1,2.15.28,4.3.44,6.45.32,4.35.64,8.7.97,13.04.66,8.56,2.01,17.01,6.24,24.61,4,7.17,8.71,13.96,12.99,20.97,4.4,7.22,8.62,14.55,12.68,21.96,1.14,2.08,2.27,4.16,3.45,6.22,1.13,1.99,2.43,3.88,3.55,5.88,1.17,2.08,2.42,4.04,3.69,6.06.72,1.14,1.34,2.35,1.91,3.58-.2.25-.34.55-.38.88-.37,2.52-.8,5.05-1.01,7.59-.19,2.37-.24,4.77-.36,7.15-.2,3.81-.34,7.63-.48,11.44-.58.29-1.06.71-1.58,1.11-.62.49-1.24.98-1.87,1.47-1.32,1.04-2.65,2.08-3.95,3.15-2.56,2.09-5.22,4.11-7.69,6.31-1.17,1.03-1.35,3.04-.56,4.34.11.18.4.58.56.72.7.6,1.57,1.09,2.53,1.05,1.01-.04,1.74-.43,2.53-1.05,2.57-2,5-4.21,7.48-6.31,1.21-1.02,2.4-2.06,3.59-3.1.4-.35.8-.7,1.2-1.06.45.2.95.3,1.45.28.43-.02.83-.11,1.22-.25,1.11.52,2.24,1.01,3.33,1.56,1.87.96,3.74,1.91,5.49,3.07.43.29.83.6,1.25.9t.02,0c.2.17.41.33.61.5.79.64,1.55,1.31,2.33,1.97.83.69,1.63,1.42,2.4,2.17,1.63,1.58,3.14,2.38,5.47,2,1.23-.2,2.5-1.53,2.74-2.74.45-2.31-.48-4.04-2.14-5.58-.79-.73-1.61-1.44-2.45-2.11-1.94-1.57-4.02-2.82-6.18-4.04-2.07-1.17-4.2-2.26-6.43-3.1-1.22-.47-2.52-.91-3.83-1.21.03-3.75.06-7.5.04-11.25-.01-2.3,0-4.61-.04-6.91-.02-.87-.07-1.74-.14-2.61t.01.01c1.68,1.3,3.65.65,4.83-.92,3.1-4.13,6.49-8.08,9.73-12.1,3.41-4.23,6.67-8.57,9.89-12.95,6.33-8.6,12.42-17.38,18.26-26.32,1.63-2.48,3.2-4.98,4.75-7.51,1.14-1.88,2.59-3.84,3.43-5.96,1.61-.38,2.99-1.68,3.08-3.8.07-1.95-.34-3.36-.58-5.38-.2-1.63-.38-3.27-.54-4.91-.36-3.51-.65-7.04-.9-10.57-.33-4.66-.51-9.33-.58-14l.66.66c1.88,1.88,3.75,3.77,5.65,5.62l11.25,10.96c3.68,3.58,7.34,7.2,11.06,10.75,1.52,1.46,3.13,2.82,4.85,3.95.14,5.21.18,10.43.1,15.65-.09,5.2-.44,10.38-.6,15.57-3.36,3.67-6.34,7.75-9.41,11.65-3.28,4.18-6.58,8.35-9.88,12.51-6.67,8.4-13.3,16.82-20.05,25.15-1.97,2.43-3.93,4.85-5.79,7.36-.91,1.23-1.88,2.45-2.65,3.77-1.15,1.98-.67,4.44,1.53,5.34,2.87,1.17,5.6-2.52,7.33-4.31,1.81-1.89,3.52-3.85,5.23-5.83,3.46-4.02,6.9-8.05,10.31-12.12,6.71-8.01,13.32-16.1,19.89-24.23,1.85-2.28,3.71-4.57,5.52-6.88,2-2.56,4.13-5.06,5.92-7.77.99-1.51.73-3.48-.26-4.89.37-5.09.37-10.23.38-15.32.01-4.23-.08-8.47-.21-12.7.28.05.57.09.87.12,2.81.27,5.81-.4,8.45-1.32,2.97-1.03,6.14-2.3,8.46-4.47,3.32-3.09-.12-8.94-4.43-7.61-2.41.74-4.48,2.25-6.73,3.36-.26.13-.54.26-.81.39,0,0-.14.06-.25.11-.16.06-.48.17-.53.19-.21.08-.42.15-.63.21-.49.16-.98.29-1.48.4-.05,0-.27.06-.44.09-.18.02-.76.09-.75.08-.5.03-1.01.03-1.5.01-.15,0-.3-.02-.44-.03-.1-.02-.35-.06-.4-.07-1.22-.33-1.19-.26-2.36-.99-1.49-.92-2.55-1.93-4.08-3.4-7.09-6.82-14.13-13.69-21.2-20.53-2.03-1.97-4.09-3.9-6.15-5.84-.97-.91-1.95-1.88-2.98-2.78.35-.07.69-.14,1.03-.21,2.25-.43,4.46-.97,6.69-1.51,4.53-1.09,9.07-2.1,13.6-3.17s9.07-2.11,13.61-3.11c2.24-.49,4.47-.97,6.71-1.45,1.11-.24,2.24-.44,3.35-.71,1.26-.29,2.37-.71,3.38-1.38.72.86,1.44,1.72,2.18,2.56,2.43,2.74,4.82,5.52,7.16,8.34s4.71,5.61,7.01,8.46c1.17,1.46,2.33,2.93,3.48,4.4.99,1.28,2.14,3.11,3.46,4.41.08.07.16.13.24.19-.05,1.19-.1,2.37-.07,3.57.08,3.33.2,6.67.45,10,.47,6.01,1.16,12,2.03,17.97-1.27.08-2.48.74-3.17,1.9-1.46,2.47-2.6,5.12-3.83,7.71-1.23,2.6-2.48,5.19-3.74,7.77-2.51,5.16-5.06,10.31-7.63,15.45-5.14,10.28-10.39,20.5-15.73,30.67-10.7,20.35-21.89,40.41-33.3,60.36-3.17,5.55-6.36,11.08-9.58,16.59-1.65,2.82-3.4,5.6-4.93,8.48-.86,1.62-1.65,3.25-2.4,4.9-.1.05-.2.08-.29.14-.87.55-1.37,1.28-1.73,2.24-.25.68-.53,1.34-.8,2.01-.03,0-.06.02-.1.04-3.35,1.68-6.43,3.76-9.59,5.79-3.15,2.01-6.38,3.89-9.58,5.82-3.12,1.89-6.27,3.75-9.37,5.68-1.54.97-3.07,2-4.56,3.05-1.13.8-2.26,1.63-3.29,2.56-.01-.15-.02-.3,0-.46.13-1.22-.16-2.44-.34-3.65-.33-2.18-.7-4.36-1.04-6.54-.62-4.04-1.18-8.1-1.68-12.16-1.04-8.5-2.16-16.98-2.88-25.52-.2-2.44-.37-4.88-.58-7.32l-.27-3.42c-.1-1.4-.06-2.92-.53-4.26-.46-1.32-1.58-2.31-3.04-2.31-1.35,0-2.7.98-3.03,2.31-.55,2.2-.18,4.7-.09,6.95.09,2.12.22,4.23.37,6.34.32,4.39.7,8.78,1.15,13.15.91,8.76,2.16,17.44,3.78,26.1.45,2.4.9,4.8,1.41,7.19.21.97.38,1.99.69,2.95-2.51-1.35-5.08-2.63-7.54-4.04-3.5-2.01-6.93-4.11-10.33-6.27-6.86-4.34-13.7-9.35-19.9-14.06-1.87-1.41-3.49-2.73-5.33-4.02-.95-.66-1.92-1.43-2.94-1.95-.28-.14-.57-.24-.86-.34-.06-.18-.13-.35-.2-.52,1.05-1.05,1.16-2.62.53-4-10.53-22.94-20.71-46.04-31-69.09s-20.51-46.14-31.03-69.09c-5.89-12.86-11.78-25.72-17.89-38.48-.36-.75-1.03-1.25-1.79-1.51.97-.82,1.43-2.17,1.1-3.46-1.38-5.41-2.31-10.91-2.69-16.48-.37-5.27-.54-10.61-.44-15.9,2.28-.43,4.55-.87,6.77-1.62,2.73-.91,5.46-1.86,8.19-2.79,5.54-1.91,11.04-3.93,16.5-6.06,2.74-1.07,5.47-2.2,8.23-3.21.59-.21,1.18-.41,1.78-.58.3-.08.59-.15.9-.22.1-.03.19-.04.25-.06.3-.03.58-.02.88-.03.12,0,.21-.02.29-.02.02.01.07.02.14.04.27.05.53.13.79.21.06.02.1.04.13.05.12.05.24.11.35.17,2.32,1.23,4.41,3,6.53,4.53,2.41,1.73,4.81,3.47,7.22,5.21,2.67,1.92,5.35,3.85,8.01,5.8,1.27.92,2.53,1.85,3.8,2.77Z" style="fill: #478cca;"/>
    </g>
    <g>
      <path d="M404.61,102.81c1.36,2.12.63,4.79-1.09,6.4-.02-.15-.05-.29-.09-.43-.55-2.1-2.92-3.16-4.87-2.34-1,.42-1.76,1.33-2.07,2.37-.01-.01-.01-.02-.02-.03-.01.07-.02.14-.03.22-.06.25-.1.5-.1.76-.15,1.43-.09,2.89-.04,4.34-2.65,1.77-5.31,3.53-7.99,5.25-2.42,1.57-4.87,3.1-7.3,4.66-1.25.79-2.49,1.6-3.79,2.33-.57.32-1.15.63-1.74.93-.34.18-.71.39-1.08.56-.19.22-.39.44-.61.63-.06-.74-.13-1.47-.21-2.21-.2-1.84-.75-2.77-2.24-3.86-.85-.63-2.11-.64-3.14-.24.97-1.81,2.71-2.96,4.32-4.19.27-.2.84-.65,1.06-.8.33-.24.68-.47,1.02-.7l2.04-1.4c1.36-.94,2.72-1.88,4.08-2.81,5.58-3.83,11.25-7.53,16.89-11.27,2.38-1.59,5.57-.39,7,1.83Z" style="fill: #336fb7;"/>
      <path d="M404,122.08c.01,2.18-.01,4.35-.05,6.53-.04,2.22.34,5.25-.96,7.14-.95,1.37-2.64,2-4.11,1.64.58-2.22-1.01-3.87-2.84-4.19-.14-1.59.11-3.3.16-4.83.07-2.1.12-4.19.14-6.29.03-2.18.03-4.36,0-6.54,0-.48-.02-.96-.04-1.44,2.16-1.43,4.31-2.87,6.47-4.29.27-.18.52-.38.75-.6.47,2.1.32,4.45.38,6.58.05,2.09.09,4.19.1,6.29Z" style="fill: #336fb7;"/>
      <path d="M403.43,108.78c.04.14.07.28.09.43-.23.22-.48.42-.75.6-2.16,1.42-4.31,2.86-6.47,4.29-.05-1.45-.11-2.91.04-4.34,0-.26.04-.51.1-.76.01-.08.02-.15.03-.22,0,.01,0,.02.02.03.31-1.04,1.07-1.95,2.07-2.37,1.95-.82,4.32.24,4.87,2.34Z" style="fill: #336fb7;"/>
      <path d="M396.04,133.2c1.83.32,3.42,1.97,2.84,4.19-.83-.21-1.59-.74-2.1-1.64-.45-.78-.65-1.64-.74-2.55Z" style="fill: #336fb7;"/>
      <path d="M398.88,137.39s-.01.07-.02.1c-.92,3.23-2.46,6.3-3.81,9.38-1.28,2.95-2.59,5.9-3.9,8.84-2.56,5.73-5.22,11.41-7.92,17.08-9.66,20.25-19.89,40.23-30.84,59.82-10.9,19.47-22.44,38.56-34.66,57.22-1.14-1.17-2.82-1.54-4.59-1.26-.6.1-1.2.25-1.78.44-.03-.56.1-1.14.41-1.64,6.56-10.79,12.98-21.67,19.26-32.63,11.18-19.54,21.97-39.31,32.21-59.36,5.07-9.92,10-19.92,14.78-29.98,2.42-5.1,4.81-10.21,7.2-15.33,1.2-2.55,2.38-5.12,3.56-7.68,1.17-2.56,2.21-5.2,3.68-7.6.85-1.39,2.27-1.83,3.58-1.59.09.91.29,1.77.74,2.55.51.9,1.27,1.43,2.1,1.64Z" style="fill: #336fb7;"/>
      <path d="M396.34,115.54c.03,2.18.03,4.36,0,6.54-.02,2.1-.07,4.19-.14,6.29-.05,1.53-.3,3.24-.16,4.83-1.31-.24-2.73.2-3.58,1.59-1.47,2.4-2.51,5.04-3.68,7.6-1.18,2.56-2.36,5.13-3.56,7.68-2.39,5.12-4.78,10.23-7.2,15.33-4.78,10.06-9.71,20.06-14.78,29.98-10.24,20.05-21.03,39.82-32.21,59.36-6.28,10.96-12.7,21.84-19.26,32.63-.31.5-.44,1.08-.41,1.64-.99.33-1.96.75-2.93,1.13-1.65.65-3.3,1.32-4.93,2.03-2.97,1.29-5.88,2.71-8.75,4.21-3.61,1.88-7.12,3.94-10.56,6.1-.72-7.76-1.44-15.52-2.15-23.28-.47-5.11-.94-10.21-1.41-15.32-.24-2.56-.47-5.11-.71-7.66-.05-.54-.1-1.07-.15-1.61,1.11-.67,2.11-1.61,3.13-2.43,1.81-1.46,3.5-2.97,5.17-4.58,3.27-3.15,6.61-6.27,9.87-9.44,1.5-.57,2.92-1.09,4.3-2.01,1.51-1,2.96-2.06,4.41-3.15,2.98-2.25,5.78-4.76,8.64-7.16,5.45-4.58,10.96-9.11,16.34-13.78,9.58-8.31,18.4-17.43,26.23-27.42,2.35-3.01,4.65-6.05,6.83-9.18,1-1.45,1.98-2.91,2.94-4.39.48-.73.99-1.46,1.4-2.23.24-.45.42-.89.56-1.34.29.07.57.09.84.08,1.76-.08,3.52-1.2,3.94-3,.42-1.78.37-3.7.41-5.53.04-1.72.06-3.45.07-5.18.02-3.37-.03-6.75-.13-10.12-.09-3.29-.26-6.58-.49-9.87-.13-1.72-.27-3.45-.42-5.17-.01-.08-.01-.17-.02-.25.22-.19.42-.41.61-.63.37-.17.74-.38,1.08-.56.59-.3,1.17-.61,1.74-.93,1.3-.73,2.54-1.54,3.79-2.33,2.43-1.56,4.88-3.09,7.3-4.66,2.68-1.72,5.34-3.48,7.99-5.25.02.48.04.96.04,1.44Z" style="fill: #336fb7;"/>
      <path d="M374.72,143.75c.1,3.37.15,6.75.13,10.12-.01,1.73-.03,3.46-.07,5.18-.04,1.83.01,3.75-.41,5.53-.42,1.8-2.18,2.92-3.94,3-.27,0-.55-.01-.84-.08.3-.93.43-1.87.56-2.91.3-2.31-1.74-4.06-3.9-4.38.03-2.12.21-4.26.23-6.34.04-3.29.02-6.58-.05-9.87-.08-3.38-.2-6.75-.37-10.12-.08-1.64-.18-3.28-.28-4.92-.15-2.21-.52-4.25,1.17-6.01.33-.34.76-.61,1.25-.8-.09.16-.17.34-.25.52-.85,2.02-.04,4.17,1.38,5.66.02.08.04.15.06.23.58,2.2,3.37,1.91,4.17.11.08-.06.16-.13.23-.21.01.08.01.17.02.25.15,1.72.29,3.45.42,5.17.23,3.29.4,6.58.49,9.87Z" style="fill: #336fb7;"/>
      <path d="M373.79,128.46c-.07.08-.15.15-.23.21-.8,1.8-3.59,2.09-4.17-.11-.02-.08-.04-.15-.06-.23-1.42-1.49-2.23-3.64-1.38-5.66.08-.18.16-.36.25-.52,1.03-.4,2.29-.39,3.14.24,1.49,1.09,2.04,2.02,2.24,3.86.08.74.15,1.47.21,2.21Z" style="fill: #336fb7;"/>
      <path d="M366.25,160.21c2.16.32,4.2,2.07,3.9,4.38-.13,1.04-.26,1.98-.56,2.91-1.42-.32-2.89-1.52-3.1-2.92-.22-1.42-.26-2.89-.24-4.37Z" style="fill: #336fb7;"/>
      <path d="M369.59,167.5c-.14.45-.32.89-.56,1.34-.41.77-.92,1.5-1.4,2.23-.96,1.48-1.94,2.94-2.94,4.39-2.18,3.13-4.48,6.17-6.83,9.18-7.83,9.99-16.65,19.11-26.23,27.42-5.38,4.67-10.89,9.2-16.34,13.78-2.86,2.4-5.66,4.91-8.64,7.16-1.45,1.09-2.9,2.15-4.41,3.15-1.38.92-2.8,1.44-4.3,2.01.04-.03.07-.06.11-.1,1.93-1.86,2.02-5.38,0-7.23-.41-.38-.88-.69-1.38-.93.25-.27.51-.54.74-.8,1.34-1.48,2.73-2.92,4.21-4.25,2.96-2.68,5.99-5.29,8.98-7.93,9.84-8.69,19.98-17.1,28.95-26.7,2.11-2.25,4.15-4.56,6.15-6.91,1.04-1.23,2.07-2.47,3.08-3.73.46-.57.92-1.14,1.37-1.72.2-.25.4-.51.6-.76.09-.13.27-.36.35-.46,1.87-2.45,3.67-4.95,5.43-7.48,2.09-2.99,3.78-6.39,6.91-8.42.82-.53,1.83-.68,2.81-.53-.02,1.48.02,2.95.24,4.37.21,1.4,1.68,2.6,3.1,2.92Z" style="fill: #336fb7;"/>
      <path d="M318.71,291.31c.9,2.13.11,4.7-1.93,5.89-1.66.97-3.53,1.53-5.32,2.21-1.48.57-2.94,1.17-4.41,1.77-.35.15-.69.29-1.04.43-.06.02-.49.2-.7.29-.22.1-.59.25-.65.28-.41.18-.83.36-1.24.54-1.38.62-2.75,1.25-4.11,1.9-5.7,2.74-11.29,5.8-16.57,9.27-1.3.85-3.13.76-4.43,0-1.42-.84-2.04-2.21-2.18-3.79-.86-10.22-1.77-20.44-2.67-30.65-.45-5.11-.91-10.22-1.36-15.32-.22-2.48-.43-4.95-.65-7.42-.12-1.32-.24-2.64-.35-3.95,0-.04-.01-.07-.01-.1-.04-.13-.09-.27-.11-.4-.16-.74-.15-1.45.08-2.18h0c.13-.93.49-1.78,1.35-2.51,0,.01.01.02.01.04,1.02-1.02,2.58-1.43,3.99-.94-.68.83-1.4,1.66-1.94,2.55-.38.63-.67,1.32-.87,2.02-.17.6-.26.65-.62,1.2-1.46,2.19,1.46,5.16,3.66,3.66.45-.3.54-.48,1.02-.61.7-.19,1.37-.45,2.01-.82.03-.02.07-.04.1-.06.05.54.1,1.07.15,1.61.24,2.55.47,5.1.71,7.66.47,5.11.94,10.21,1.41,15.32.71,7.76,1.43,15.52,2.15,23.28,3.44-2.16,6.95-4.22,10.56-6.1,2.87-1.5,5.78-2.92,8.75-4.21,1.63-.71,3.28-1.38,4.93-2.03.97-.38,1.94-.8,2.93-1.13.02,1.08.6,2.14,1.55,2.69,1.54.91,3.39.3,4.34-1.13.16-.25.32-.49.48-.74.4.4.73.89.98,1.48Z" style="fill: #336fb7;"/>
      <path d="M317.73,289.83c-.16.25-.32.49-.48.74-.95,1.43-2.8,2.04-4.34,1.13-.95-.55-1.53-1.61-1.55-2.69.58-.19,1.18-.34,1.78-.44,1.77-.28,3.45.09,4.59,1.26Z" style="fill: #336fb7;"/>
      <path d="M298.05,230.83c2.02,1.85,1.93,5.37,0,7.23-.04.04-.07.07-.11.1-.29.11-.58.22-.87.34-2.43.97-4.39-2.22-3.24-4.21.48-.82.85-1.7,1.32-2.51.39-.67.96-1.29,1.52-1.88.5.24.97.55,1.38.93Z" style="fill: #336fb7;"/>
      <path d="M297.07,238.5c.29-.12.58-.23.87-.34-3.26,3.17-6.6,6.29-9.87,9.44-1.67,1.61-3.36,3.12-5.17,4.58-1.02.82-2.02,1.76-3.13,2.43-.07-.78-.14-1.57-.21-2.35-.2-2.18-.38-4.08-2.49-5.29-.21-.12-.43-.23-.66-.3.19-.23.38-.46.56-.69,1.4-1.77,2.86-3.43,4.41-5.07,3.16-3.35,6.27-6.75,9.43-10.08,1.56-1.65,3.94-1.84,5.86-.93-.56.59-1.13,1.21-1.52,1.88-.47.81-.84,1.69-1.32,2.51-1.15,1.99.81,5.18,3.24,4.21Z" style="fill: #336fb7;"/>
      <path d="M279.56,252.26c.07.78.14,1.57.21,2.35-.03.02-.07.04-.1.06-.64.37-1.31.63-2.01.82-.48.13-.57.31-1.02.61-2.2,1.5-5.12-1.47-3.66-3.66.36-.55.45-.6.62-1.2.2-.7.49-1.39.87-2.02.54-.89,1.26-1.72,1.94-2.55.23.07.45.18.66.3,2.11,1.21,2.29,3.11,2.49,5.29Z" style="fill: #336fb7;"/>
    </g>
    <g>
      <path d="M226.19,86.04s-.02-.09-.04-.19c0,.05.01.1.02.16,0,.02.01.03.02.03Z" style="fill: #336fb7;"/>
      <path d="M268.98,183.82c-3.01-7-6.15-13.92-9.73-20.65-3.54-6.64-7.34-13.14-11.41-19.48-4.27-6.65-8.89-13.03-13.77-19.26-.54-.69-1.09-1.38-1.63-2.07-.2-.26-.41-.52-.61-.78.12.15-.41-.54-.57-.76-1.07-1.45-2.1-2.94-2.97-4.52-.21-.38-.41-.76-.6-1.14-.11-.22-.27-.62-.3-.69-.27-.75-.53-1.51-.73-2.29-.1-.41-.2-.82-.28-1.24-.02-.09-.08-.42-.12-.67-.02-.2-.09-.76-.1-.89-.04-.49-.08-.99-.1-1.48-.19-4.11.29-8.2.51-12.29.11-2,.15-4.01.02-6-.08-1.21-.26-2.4-.42-3.6-.01-.04-.02-.13-.03-.23,0,.02,0,.05.01.07,0-.03,0-.06-.01-.08-.01-.22-.02-.5-.02-.55-.1-.93-.26-1.79-.53-2.68-.83-2.69-3.82-4.75-6.68-3.79-3.6,1.2-7.19,2.41-10.79,3.61-3.86,1.29-7.55,2.81-11.26,4.49-2.08.94-2.68,3.82-1.88,5.73.92,2.19,3.14,3.12,5.41,2.66,3.66-.74,7.21-1.61,10.78-2.72,1.68-.52,3.37-1.04,5.05-1.56.07,1.41.06,2.83.02,4.24-.11,3.6-.47,7.2-.48,10.8-.01,3.89.39,7.94,1.81,11.58,1.47,3.77,3.59,7.03,6.05,10.22.71.92,1.43,1.85,2.15,2.76.26.33.52.67.78,1.01.15.2.31.4.46.6,1.14,1.49,2.27,3,3.38,4.52,2.27,3.1,4.5,6.23,6.67,9.39,4.31,6.27,8.35,12.71,12.12,19.32,4.28,7.5,8.37,15.16,11.93,23.03.99,2.18,4.31,2.87,6.23,1.63,2.28-1.47,2.64-3.88,1.63-6.23Z" style="fill: #336fb7;"/>
    </g>
    <path d="M239.6,199.08c-7.52-13.56-15.04-27.12-22.01-40.97-3.45-6.85-6.96-13.64-10.19-20.6-1.64-3.54-2.89-6.01-3.92-9.74-.96-3.46-.93-6.66-.79-10.57.16-4.47.28-8.94.41-13.41.06-2.16.08-4.31.09-6.47,0-1.16.06-2.32.02-3.48-.04-1.37-.42-2.45-.94-3.68-.41-.99-1.05-1.75-2.19-1.89-1.01-.12-2.12.32-2.62,1.26-.48.9-1.07,1.87-1.31,2.86-.27,1.09-.25,2.33-.34,3.44-.18,2.15-.39,4.31-.54,6.47-.27,4.06-.54,8.12-.77,12.19-.23,4.16-.51,8.26.09,12.4.59,4.06,2.1,7.83,3.7,11.58,6.15,14.41,13.36,28.27,21,41.93,4.29,7.67,8.68,15.28,13.07,22.89,1.09,1.89,3.83,2.72,5.72,1.5,1.94-1.25,2.63-3.67,1.5-5.72Z" style="fill: #336fb7;"/>
    <path d="M267.56,185.92c0-.08,0-.16-.02-.23h-.01c-.05-.42-.1-.85-.16-1.27-.32-2.34-3.15-3.7-5.23-3.42-1.15.15-2.33.82-3.14,1.76-.3-.99-.61-1.97-.96-2.94-.1-.29-.21-.58-.32-.87-.11-.28-.67-2.06-.38-.85-.2-.86-.74-1.76-1.1-2.58-.56-1.27-1.17-2.51-1.8-3.74-.07-.14-.17-.25-.25-.38,1.29-1.46,1.82-3.7.63-5.41-3.22-4.61-6.44-9.22-9.66-13.83-2.36-4.03-5.06-7.85-8.07-11.45-.96-1.15-2.54-1.48-3.98-1.22-.3-.36-.6-.72-.89-1.09-.78-1.48-1.56-2.95-2.34-4.44-2.61-5.02-5.16-10.07-7.66-15.15-.06-.13-.15-.23-.22-.34-.38-2.91-.93-5.79-1.71-8.6.17-2.55-.12-5.13-.84-7.58,1.05-1.35,1.72-2.99,1.77-4.88.06-2.78-1.47-5.65-3.75-7.3.12-.04.24-.09.36-.13,2.31-.78,4.07-3.25,3.26-5.75-.74-2.3-3.27-4.1-5.75-3.26-6.2,2.1-11.49,5.64-15.73,10.48-.63-1.2-1.79-2.07-3.22-2.26-2.21-.3-4.02,1.04-4.74,3.1-2.51,7.19-.87,14.67,2.15,21.42,4.45,22.07,14.76,42.79,26.24,62.1,4.2,7.07,8.59,14.04,13.02,20.98.85,1.34,2.41,2.19,3.97,2.17.14.25.29.49.43.73-2.4-.57-5.13,1.85-3.62,4.7,2.64,4.96,5.29,9.83,7.82,14.79,1.29,2.52,2.49,5.1,3.87,7.57.02.04.04.07.06.11.04.1.1.24.2.46.34.81.81,1.42,1.5,1.95.71.55,1.56.93,2.44,1.17,1.49.41,3.16.31,4.6-.21,5.51-1.97,7.79-7.93,9.67-12.96,1.85-4.93,2.97-10.03,3.63-15.24.68-5.4.59-10.75-.05-16.13Z" style="fill: #336fb7;"/>
  </g>
  <g id="Layer_16" data-name="Layer 16">
    <g>
      <path d="M315.24,355.55c-.07.28-.17.66-.18.69,0,0-.03.12-.07.24-.07.16-.15.32-.24.48-.11.2-.23.41-.36.61-.07.1-.13.2-.2.29-.32.45-.27.39.15-.17-.07.42-.97,1-1.25,1.28-.08.08-.12.13-.15.17-.28.17-.64.32-.8.41-.16.08-.33.17-.49.25,0,0,0,0-.03.01-.05.02-.09.05-.14.08,0,.01-.03.02-.05.02-.01,0-.02,0-.03,0-.02.02-.05.03-.07.04h-.01s-.05.02-.07.03c-.66.21-1.32.43-1.99.59-.41.09-.83.16-1.24.25-.02,0-.06,0-.1,0-.79.1-1.57.18-2.36.22-1.3.07-2.61.09-3.91.03-.3-.02-1.46.05-1.61-.13.01,0,1.21.2.28.03-.38-.07-.76-.13-1.13-.21-.48-.11-.96-.23-1.42-.37-.31-.1-.61-.21-.91-.31-.12-.04-.2-.07-.25-.08-.02,0-.04-.01-.05-.01,0,0,0,0,0,0-.32-.19-.68-.45-.81-.53-.08-.05-.13-.09-.19-.12-.18-.17-.45-.46-.47-.48-.05-.05-.1-.1-.15-.16-.07-.1-.13-.2-.19-.31h0c-.02-.07-.04-.14-.04-.2,0-.02-.01-.11-.05-.28,0-.02,0-.05,0-.07.02-.18.1-.52.12-.63-.02.03-.04.09-.08.18.05-.16.09-.32.12-.46.01-.04.02-.05.03-.08.06-.12.11-.24.18-.35.1-.17.2-.33.31-.49.05-.05.35-.45.44-.55.26-.27.53-.53.81-.77.08-.08.47-.35.56-.42.55-.36,1.11-.7,1.71-.99.38-.19.91-.36,1.65-.6,2.11-.67,4.22-1.16,6.26-1.88.44.08.88.14,1.34.19.03,0,.06,0,.09,0,.21.04.43.07.64.11.66.11,1.33.25,1.98.42.54.14,1.07.3,1.59.48l.21.07c.13.06.26.12.39.19.17.09,1,.68,1.26.78.15.15.29.29.44.43.02.01.03.02.04.03.09.14.18.27.26.42.04.08.07.12.1.18.06.19.12.42.12.42,0,.03.02.05.03.08,0,.2.01.4.01.61-.01.1-.01.21-.02.32Z" style="fill: #818181;"/>
      <path d="M294.69,358.18s-.03-.1-.04-.18v-.08c.04.17.05.26.05.28t-.01-.02Z" style="fill: #225282;"/>
      <path d="M246.53,358.77c-.04-.21-.1-.6-.18-.92-.05-.04-.13-.13-.23-.32-.11-.2-.23-.4-.35-.59-.06-.09-.12-.17-.18-.26-.1-.1-.2-.19-.2-.2-.15-.15-.31-.3-.46-.45-.2-.14-.49-.36-.75-.53.07,0,.09,0-.01-.01-.22-.15-.4-.24-.46-.19-.03.02.02.06.1.1-.12-.03-.24-.07-.36-.1-.31.04-.84-.08-1.06-.11-.07-.01-.46-.07-.79-.12-.05,0-.11,0-.2-.01-.72-.03-1.35-.22-1.91-.5-2.15.63-4.4.99-6.51,1.74-.71.25-1.41.52-2.11.78-.39.14-.77.29-1.15.44-.11.05-.29.12-.32.14-.63.28-1.26.57-1.86.9-.32.17-.63.36-.95.55-.03.02-.05.04-.08.05-.11.1-.21.21-.32.31.04.07.07.13.09.16.06.11.24.32.32.42l.33.36c.26.25.53.49.81.74-.09-.07-.19-.15-.24-.17.03.03.12.1.29.21.02.02.04.03.06.05.46.32.92.65,1.4.95,1.01.66,2.06,1.25,3.15,1.77.15.07.29.14.44.21.26.09.52.19.77.28.6.21,1.2.39,1.81.55.23.05,1.06.2,1.14.23.42.04.85.08,1.29.09.56,0,1.24.03,1.82-.07.29-.08.74-.2.89-.24.51-.14,1-.32,1.51-.47.05-.01.08-.02.12-.03.13-.07.24-.14.27-.15.49-.25.95-.54,1.41-.83-.03.03-.06.06-.09.1.04-.04.09-.09.15-.14,0-.01.03-.02.05-.03.09-.06.16-.12.2-.17.05-.03.09-.07.13-.11.38-.34.71-.73,1.07-1.08.12-.17.23-.33.34-.51.15-.24.28-.49.41-.74.02-.03.03-.06.04-.09.02-.03.02-.05.04-.08.03-.11.07-.22.11-.33l.18-.66v-.03s.04-.12.04-.23c.02-.14.05-.29.09-.42-.04.11-.06.2-.09.28,0-.17-.01-.35-.01-.52ZM271.61,222.3c-.39.14-.79.23-1.22.25-.5.02-1-.08-1.45-.28-.4.36-.8.71-1.2,1.06-1.19,1.04-2.38,2.08-3.59,3.1-2.48,2.1-4.91,4.31-7.48,6.31-.79.62-1.52,1.01-2.53,1.05-.96.04-1.83-.45-2.53-1.05-.16-.14-.45-.54-.56-.72-.79-1.3-.61-3.31.56-4.34,2.47-2.2,5.13-4.22,7.69-6.31,1.3-1.07,2.63-2.11,3.95-3.15.63-.49,1.25-.98,1.87-1.47.52-.4,1-.82,1.58-1.11.14-3.81.28-7.63.48-11.44.12-2.38.17-4.78.36-7.15.21-2.54.64-5.07,1.01-7.59.04-.33.18-.63.38-.88-.57-1.23-1.19-2.44-1.91-3.58-1.27-2.02-2.52-3.98-3.69-6.06-1.12-2-2.42-3.89-3.55-5.88-1.18-2.06-2.31-4.14-3.45-6.22-4.06-7.41-8.28-14.74-12.68-21.96-4.28-7.01-8.99-13.8-12.99-20.97-4.23-7.6-5.58-16.05-6.24-24.61-.33-4.34-.65-8.69-.97-13.04-.16-2.15-.34-4.3-.44-6.45-.01-.13-.02-.26-.03-.4-3.32,1.67-6.74,3.16-10.19,4.54-3.77,1.5-7.6,2.85-11.48,4.06-2.01.63-4.07,1.1-6.14,1.3-.29,4.03-.73,8.05-1.12,12.07-.44,4.45-1.06,8.97-.77,13.45.24,3.6,1.51,6.9,2.93,9.99,1.66,3.62,3.55,7.13,5.33,10.69,3.72,7.42,7.33,14.9,10.99,22.36,3.67,7.46,7.26,14.94,10.82,22.46,1.77,3.76,3.56,7.51,5.3,11.29.91,1.96,1.87,3.91,2.71,5.9.8,1.86,1.39,3.76,2.28,5.58.68,1.38.38,3.06-1.02,3.89-1.26.73-3.22.35-3.89-1.02-.3-.6-.57-1.21-.88-1.79-.28-.51-.65-.95-.99-1.44-.65-.95-1.19-2-1.72-3.02-1.12-2.14-2.23-4.27-3.34-6.4-2.18-4.19-4.31-8.42-6.46-12.63-7.66-15.01-15.13-30.14-22.38-45.35-1.73-3.63-3.84-7.37-4.86-11.28-.5-1.91-1.11-3.75-1.4-5.71-.31-2.12-.46-4.23-.39-6.37.12-4.12.74-8.24,1.21-12.33.41-3.57.79-7.15,1.28-10.72-.05-.01-.1-.01-.15-.03-3.35-.82-6.14-3.01-8.68-5.25-2.38-2.1-4.53-4.16-6.7-6.02-1.71-1.46-.34-4.57,1.84-4.45s4.2.77,5.98,2.06c1.68,1.23,3.27,2.59,4.88,3.91.15.12.31.24.46.37.04.03.1.07.18.14.38.26.76.53,1.15.78.29.18.59.36.89.52.11.06.86.37.86.4,2.01.67,3.05.39,5.33-.28,2.38-.7,4.71-1.62,7.03-2.51,2.33-.89,4-1.58,5.86-2.4,3.38-1.48,6.7-3.08,10.01-4.72-.07-.19-.13-.39-.17-.58-.1-.4-.12-.81-.1-1.21-1.23-.7-2.36-1.65-3.5-2.48-1.27-.92-2.53-1.85-3.8-2.77-2.66-1.95-5.34-3.88-8.01-5.8-2.41-1.74-4.81-3.48-7.22-5.21-2.12-1.53-4.21-3.3-6.53-4.53-.11-.06-.23-.12-.35-.17-.03-.01-.07-.03-.13-.05-.26-.08-.52-.16-.79-.21-.07-.02-.12-.03-.14-.04-.08,0-.17.01-.29.02-.3.01-.58,0-.88.03-.06.02-.15.03-.25.06-.31.07-.6.14-.9.22-.6.17-1.19.37-1.78.58-2.76,1.01-5.49,2.14-8.23,3.21-5.46,2.13-10.96,4.15-16.5,6.06-2.73.93-5.46,1.88-8.19,2.79-2.22.75-4.49,1.19-6.77,1.62-.1,5.29.07,10.63.44,15.9.38,5.57,1.31,11.07,2.69,16.48.33,1.29-.13,2.64-1.1,3.46.76.26,1.43.76,1.79,1.51,6.11,12.76,12,25.62,17.89,38.48,10.52,22.95,20.74,46.04,31.03,69.09s20.47,46.15,31,69.09c.63,1.38.52,2.95-.53,4,.07.17.14.34.2.52.29.1.58.2.86.34,1.02.52,1.99,1.29,2.94,1.95,1.84,1.29,3.46,2.61,5.33,4.02,6.2,4.71,13.04,9.72,19.9,14.06,3.4,2.16,6.83,4.26,10.33,6.27,2.46,1.41,5.03,2.69,7.54,4.04-.31-.96-.48-1.98-.69-2.95-.51-2.39-.96-4.79-1.41-7.19-1.62-8.66-2.87-17.34-3.78-26.1-.45-4.37-.83-8.76-1.15-13.15-.15-2.11-.28-4.22-.37-6.34-.09-2.25-.46-4.75.09-6.95.33-1.33,1.68-2.31,3.03-2.31,1.46,0,2.58.99,3.04,2.31.47,1.34.43,2.86.53,4.26l.27,3.42c.21,2.44.38,4.88.58,7.32.72,8.54,1.84,17.02,2.88,25.52.5,4.06,1.06,8.12,1.68,12.16.34,2.18.71,4.36,1.04,6.54.18,1.21.47,2.43.34,3.65-.02.16-.01.31,0,.46,1.03-.93,2.16-1.76,3.29-2.56,1.49-1.05,3.02-2.08,4.56-3.05,3.1-1.93,6.25-3.79,9.37-5.68,3.2-1.93,6.43-3.81,9.58-5.82,3.16-2.03,6.24-4.11,9.59-5.79.04-.02.07-.03.1-.04.27-.67.55-1.33.8-2.01.36-.96.86-1.69,1.73-2.24.09-.06.19-.09.29-.14.75-1.65,1.54-3.28,2.4-4.9,1.53-2.88,3.28-5.66,4.93-8.48,3.22-5.51,6.41-11.04,9.58-16.59,11.41-19.95,22.6-40.01,33.3-60.36,5.34-10.17,10.59-20.39,15.73-30.67,2.57-5.14,5.12-10.29,7.63-15.45,1.26-2.58,2.51-5.17,3.74-7.77,1.23-2.59,2.37-5.24,3.83-7.71.69-1.16,1.9-1.82,3.17-1.9-.87-5.97-1.56-11.96-2.03-17.97-.25-3.33-.37-6.67-.45-10-.03-1.2.02-2.38.07-3.57-.08-.06-.16-.12-.24-.19-1.32-1.3-2.47-3.13-3.46-4.41-1.15-1.47-2.31-2.94-3.48-4.4-2.3-2.85-4.67-5.64-7.01-8.46s-4.73-5.6-7.16-8.34c-.74-.84-1.46-1.7-2.18-2.56-1.01.67-2.12,1.09-3.38,1.38-1.11.27-2.24.47-3.35.71-2.24.48-4.47.96-6.71,1.45-4.54,1-9.08,2.04-13.61,3.11s-9.07,2.08-13.6,3.17c-2.23.54-4.44,1.08-6.69,1.51-.34.07-.68.14-1.03.21,1.03.9,2.01,1.87,2.98,2.78,2.06,1.94,4.12,3.87,6.15,5.84,7.07,6.84,14.11,13.71,21.2,20.53,1.53,1.47,2.59,2.48,4.08,3.4,1.17.73,1.14.66,2.36.99.05,0,.3.05.4.07.14.01.29.03.44.03.49.02,1,.02,1.5-.01,0,.01.57-.06.75-.08.17-.03.39-.08.44-.09.5-.11.99-.24,1.48-.4.21-.06.42-.13.63-.21.05-.02.37-.13.53-.19.11-.05.25-.11.25-.11.27-.13.55-.26.81-.39,2.25-1.11,4.32-2.62,6.73-3.36,4.31-1.33,7.75,4.52,4.43,7.61-2.32,2.17-5.49,3.44-8.46,4.47-2.64.92-5.64,1.59-8.45,1.32-.3-.03-.59-.07-.87-.12.13,4.23.22,8.47.21,12.7-.01,5.09-.01,10.23-.38,15.32.99,1.41,1.25,3.38.26,4.89-1.79,2.71-3.92,5.21-5.92,7.77-1.81,2.31-3.67,4.6-5.52,6.88-6.57,8.13-13.18,16.22-19.89,24.23-3.41,4.07-6.85,8.1-10.31,12.12-1.71,1.98-3.42,3.94-5.23,5.83-1.73,1.79-4.46,5.48-7.33,4.31-2.2-.9-2.68-3.36-1.53-5.34.77-1.32,1.74-2.54,2.65-3.77,1.86-2.51,3.82-4.93,5.79-7.36,6.75-8.33,13.38-16.75,20.05-25.15,3.3-4.16,6.6-8.33,9.88-12.51,3.07-3.9,6.05-7.98,9.41-11.65.16-5.19.51-10.37.6-15.57.08-5.22.04-10.44-.1-15.65-1.72-1.13-3.33-2.49-4.85-3.95-3.72-3.55-7.38-7.17-11.06-10.75l-11.25-10.96c-1.9-1.85-3.77-3.74-5.65-5.62l-.66-.66c.07,4.67.25,9.34.58,14,.25,3.53.54,7.06.9,10.57.16,1.64.34,3.28.54,4.91.24,2.02.65,3.43.58,5.38-.09,2.12-1.47,3.42-3.08,3.8-.84,2.12-2.29,4.08-3.43,5.96-1.55,2.53-3.12,5.03-4.75,7.51-5.84,8.94-11.93,17.72-18.26,26.32-3.22,4.38-6.48,8.72-9.89,12.95-3.24,4.02-6.63,7.97-9.73,12.1-1.18,1.57-3.15,2.22-4.83.92t-.01-.01c.07.87.12,1.74.14,2.61.05,2.3.03,4.61.04,6.91.02,3.75-.01,7.5-.04,11.25,1.31.3,2.61.74,3.83,1.21,2.23.84,4.36,1.93,6.43,3.1,2.16,1.22,4.24,2.47,6.18,4.04.84.67,1.66,1.38,2.45,2.11,1.66,1.54,2.59,3.27,2.14,5.58-.24,1.21-1.51,2.54-2.74,2.74-2.33.38-3.84-.42-5.47-2-.77-.75-1.57-1.48-2.4-2.17-.78-.66-1.54-1.33-2.33-1.97-.2-.17-.41-.33-.61-.5t-.02,0c-.42-.3-.82-.61-1.25-.9-1.75-1.16-3.62-2.11-5.49-3.07-1.09-.55-2.22-1.04-3.33-1.56ZM297.77,360.41c.46.14.94.26,1.42.37.37.08.75.14,1.13.21.93.17-.27-.02-.28-.03.15.18,1.31.11,1.61.13,1.3.06,2.61.04,3.91-.03.79-.04,1.57-.12,2.36-.22.04,0,.08,0,.1,0,.41-.09.83-.16,1.24-.25.67-.16,1.33-.38,1.99-.59.02-.01.05-.02.07-.03h.01s.07-.03.1-.05c.02,0,.04-.01.05-.02.1-.04.17-.08.17-.09.16-.08.33-.17.49-.25.16-.09.52-.24.8-.41.03-.04.07-.09.15-.17.28-.28,1.18-.86,1.25-1.28-.42.56-.47.62-.15.17.07-.09.13-.19.2-.29.13-.2.25-.41.36-.61.09-.16.17-.32.24-.48.04-.12.07-.24.07-.24.01-.03.11-.41.18-.69.01-.11.01-.22.02-.32,0-.21-.01-.41-.01-.61-.01-.03-.02-.05-.03-.08,0,0-.06-.23-.12-.42-.03-.06-.06-.1-.1-.18-.08-.15-.17-.28-.26-.42-.01-.01-.02-.02-.04-.03-.15-.14-.29-.28-.44-.43-.26-.1-1.09-.69-1.26-.78-.13-.07-.26-.13-.39-.19l-.21-.07c-.52-.18-1.05-.34-1.59-.48-.65-.17-1.32-.31-1.98-.42-.21-.04-.43-.07-.64-.11-.03,0-.06,0-.09,0-.46-.05-.9-.11-1.34-.19-2.04.72-4.15,1.21-6.26,1.88-.74.24-1.27.41-1.65.6-.6.29-1.16.63-1.71.99-.09.07-.48.34-.56.42-.28.24-.55.5-.81.77-.09.1-.39.5-.44.55-.11.16-.21.32-.31.49-.07.11-.12.23-.18.35-.01.03-.02.04-.03.08-.03.14-.07.3-.12.46.04-.09.06-.15.08-.18-.02.11-.1.45-.12.63,0,.02,0,.05,0,.07h0s0,.05,0,.08c.01.08.03.14.04.18t.01.02c0,.06.02.13.04.19h0c.06.12.12.22.19.32.05.06.1.11.15.16.02.02.29.31.47.48.06.03.11.07.19.12.13.08.49.34.81.53,0,0,0,0,0,0,.23.13.43.23.52.19,0,0-.32-.12-.47-.18.05.01.13.04.25.08.3.1.6.21.91.31ZM225.65,291.52c-2.1.68-4.09-.8-4.77-2.7-1.22-3.41-2.27-6.86-3.58-10.23-.31-.81-.64-1.62-.96-2.42-.04-.1-.38-.92-.4-.97-.13-.29-.25-.59-.38-.89-.45-1.04-.91-2.07-1.28-3.14-.13-.4-.32-.81-.42-1.22-.31-1.22.03-2.23.7-3.24.09-.13.19-.26.3-.38-3.76-8.2-7.54-16.38-11.32-24.58-10.54-22.91-21.12-45.8-31.65-68.71-10.54-22.94-21.06-45.9-31.03-69.09-.4-.93-.52-1.93-.29-2.83-.82-.05-1.6-.46-2.05-1.36-.79-1.56-.74-3.39-.89-5.11-.13-1.55-.22-3.11-.32-4.68-.19-2.95-.39-5.91-.58-8.86-.4-6.09-.73-12.13-.79-18.23,0-1.35,1.15-2.17,2.31-2.27.08-.65.44-1.28,1.18-1.73,1.54-.93,3.01-1.95,4.61-2.77,1.47-.75,2.92-1.47,4.43-2.12,3.36-1.43,6.7-2.87,10.07-4.28,5.37-2.26,11.34-4.59,17.07-6.76,2.66-1,5.34-2.25,8.15-2.75,3.49-.62,6.79,0,9.74,2.01,2.46,1.67,4.73,3.67,7.05,5.54l7.32,5.88c2.32,1.86,4.63,3.71,6.95,5.56,1.3,1.02,2.59,2.05,3.88,3.07,1.15.92,2.41,1.76,3.35,2.91.18.22.32.45.44.68.03.01.05.01.07.02,2.76.95,4.31,3.28,5.33,5.86.12.15.24.32.33.51,1.22,2.5,1.25,5.33,1.56,8.07.27,2.39.44,4.79.65,7.19.41,4.79.77,9.58,1.26,14.37.39,3.91,1.01,7.83,2.32,11.6.62,1.78,1.51,3.26,2.45,4.97.95,1.7,1.91,3.39,2.94,5.05,4.39,7.05,8.8,14.05,12.95,21.25,4.14,7.19,8.18,14.44,12.01,21.8,1.94,3.74,3.45,7.67,5.23,11.48.91,1.96,1.42,4.08,2.27,6.07.75,1.75,1.7,3.43,2.62,5.1,3.62-4.14,6.92-8.58,10.19-12.99,6.26-8.46,12.58-16.86,18.54-25.54,3-4.37,5.94-8.78,8.82-13.23,1.44-2.23,2.91-4.43,4.36-6.66,1.1-1.68,2.12-3.66,3.54-5.16-.4-1.66-.49-3.45-.68-5.12-.21-1.8-.4-3.6-.57-5.4-.32-3.43-.57-6.87-.71-10.32-.28-7.07-.26-14.14.05-21.21.06-1.52.96-2.86,2.29-3.42.08-.6.31-1.19.77-1.68.05-.06.1-.12.16-.18,1.43-1.96,4.15-2.73,6.39-3.53,2.16-.77,4.35-1.4,6.55-2.04,4.46-1.29,8.93-2.59,13.44-3.76,4.5-1.17,9.01-2.3,13.53-3.4,2.22-.54,4.44-1.07,6.66-1.6,1.73-.4,3.58-.97,5.4-1.12.65-.92,1.89-1.4,3.08-.7.1.06.2.1.3.15,1.71.34,3.1,1.73,4.39,2.95,1.31,1.23,2.6,2.46,3.83,3.77,2.56,2.72,5.09,5.47,7.56,8.27,2.47,2.81,4.84,5.71,7.18,8.62,1.17,1.46,2.34,2.92,3.49,4.39.39.51.81,1.02,1.23,1.53,1.02.12,1.98.75,2.29,1.9.17.6.26,1.23.34,1.87.36.86.42,1.7.22,2.47l.06.78c.18,1.63.38,3.25.48,4.89.21,3.17.51,6.34.78,9.51.48,5.4,1.11,10.69,1.92,16.01-.06.17-.12.34-.17.52-.16.57-.33,1.14-.51,1.7q-.35.87-.81,1.76c-.38.95-.91,1.66-1.22,2.59l-.38.81s0,0,0,0c-1.21,3.33-2.86,6.47-4.41,9.65-1.39,2.87-2.78,5.75-4.18,8.61-2.8,5.74-5.62,11.47-8.48,17.18-10.33,20.62-21.07,41.03-32.22,61.22-5.6,10.13-11.26,20.22-17.11,30.2-2.91,4.95-5.85,9.89-8.8,14.82-2.51,4.17-5.09,8.2-8.08,11.99-.43,1.17-.9,2.33-1.38,3.48-.05,1.07-.52,2.1-1.25,2.92-.03.06-.06.12-.09.19-.2.26-.4.52-.61.78-1.52,1.88-3.05,2.39-5.36,3.05l-.18.06h0c-.71.23-1.3.57-1.78.98-.86.46-1.72.93-2.58,1.4-.25.13-.5.28-.75.42.38.59.61,1.3.6,2.04-.02,3.35-.37,6.68-.39,10.03-.02,3.27.11,6.54.37,9.8.28,3.46.59,5.93,1.13,9.06.42,2.5,1.13,5,1.62,7.52.58.14,1.16.31,1.71.48,3.64,1.16,7.22,3.36,8.99,6.88,3.79,7.56-.74,16.26-8.13,19.47-3.81,1.66-7.89,2.15-12.03,1.96-3.1-.13-6.27-.53-9.16-1.69-3.14-1.26-6.03-3.16-7.55-6.3-1.73-3.58-1.44-7.76.85-11.04,2.26-3.23,5.59-5.31,9.36-6.35,1.36-.38,2.72-.64,4.08-.84.27-.93.88-1.75,1.88-2.25.27-.13.55-.25.83-.35-.05-.31-.1-.62-.16-.92-.31-1.65-.58-3.3-.82-4.96-.5-3.54-.89-7.09-1.09-10.67-.2-3.42-.23-6.85-.12-10.28.08-2.39.19-4.84.47-7.24-.4.23-.8.46-1.19.69-3.24,1.87-6.45,3.78-9.71,5.6-1.58.9-3.23,1.74-4.86,2.54-1.67.81-3.56,1.85-5.4,2.13-1.02.16-1.93.01-2.67-.63-.05.23-.12.46-.22.68-.67,1.61-2.83,3.02-4.62,2.27-4.49-1.86-8.77-4.4-12.98-6.82-3.99-2.3-7.89-4.73-11.72-7.27-.21,2.43-.48,4.86-.67,7.29-.29,3.86-.47,7.73-.72,11.59-.44,6.66-.69,13.32-.78,19.99,1.38.43,2.69,1.1,3.82,1.94,3.42,2.55,5.59,6.15,6.03,10.41.75,7.17-4.73,13.15-10.96,15.7-6.42,2.62-14.11.61-19.79-2.91-2.89-1.78-5.96-4.05-7.61-7.11-2.05-3.79-1.36-8.37,2.01-11.16,2.64-2.19,6.2-3.56,9.5-4.37,1.94-.47,3.94-.76,5.92-.97.87-.09,1.76-.16,2.64-.15.15-7.21.47-14.43,1.06-21.62.32-3.95.83-7.9,1.34-11.84.49-3.74.89-7.56,1.72-11.25-.92-.65-1.85-1.3-2.76-1.97-3.45-2.53-6.9-5.1-10.15-7.89-.83-.72-1.67-1.44-2.48-2.18-.44.39-.95.71-1.53.9Z" style="fill: #225282;"/>
      <path d="M246.5,359.66c-.04.11-.08.05.04-.37v.14c-.01.08-.02.16-.04.23Z" style="fill: #225282;"/>
      <path d="M244.17,355.49s.01,0,.01.01c-.02-.01-.06-.02-.09-.03.03.01.05.01.08.02Z" style="fill: #225282;"/>
      <path d="M244.18,363.29c-.09.07-.17.13-.25.2-.02.01-.04.02-.06.04.3-.38.42-.37.31-.24Z" style="fill: #225282;"/>
      <path d="M246.35,357.85c.08.32.14.71.18.92,0,.17.01.35.01.52-.12.42-.08.48-.04.37v.03l-.18.66c-.04.11-.08.22-.11.33-.02.03-.02.05-.04.08-.01.03-.02.06-.04.09-.13.25-.26.5-.41.74-.11.18-.22.34-.34.51-.36.35-.69.74-1.07,1.08-.04.04-.08.08-.13.11.11-.13-.01-.14-.31.24-.46.29-.92.58-1.41.83-.03.01-.14.08-.27.15-.04.01-.07.02-.12.03-.51.15-1,.33-1.51.47-.15.04-.6.16-.89.24-.58.1-1.26.07-1.82.07-.44-.01-.87-.05-1.29-.09-.08-.03-.91-.18-1.14-.23-.61-.16-1.21-.34-1.81-.55-.25-.09-.51-.19-.77-.28-.15-.07-.29-.14-.44-.21-1.09-.52-2.14-1.11-3.15-1.77-.48-.3-.94-.63-1.4-.95-.02-.02-.04-.03-.06-.05s-.03-.03-.05-.04c-.28-.25-.55-.49-.81-.74l-.33-.36c-.08-.1-.26-.31-.32-.42-.02-.03-.05-.09-.09-.16.11-.1.21-.21.32-.31.03-.01.05-.03.08-.05.32-.19.63-.38.95-.55.6-.33,1.23-.62,1.86-.9.03-.02.21-.09.32-.14.38-.15.76-.3,1.15-.44.7-.26,1.4-.53,2.11-.78,2.11-.75,4.36-1.11,6.51-1.74.56.28,1.19.47,1.91.5.09.01.15.01.2.01.33.05.72.11.79.12.22.03.75.15,1.06.11.12.03.24.07.36.1.02.01.05.01.07.02.07.02.15.04.21.05.03.01.07.02.09.03.26.17.55.39.75.53.15.15.31.3.46.45,0,.01.1.1.2.2.06.09.12.17.18.26.12.19.24.39.35.59.1.19.18.28.23.32Z" style="fill: #818181;"/>
    </g>
  </g>
  <g id="Vagrant_Top" data-name="Vagrant Top">
    <g>
      <path d="M244.77,260.16c.09,5.79.2,11.77-1.85,17.27-2.3,6.17-7.1,10.36-12.13,14.32-6.13,4.83-12.32,9.58-18.48,14.37-3.91,3.04-7.84,6.09-11.76,9.13,0-.08-.01-.15-.01-.23-.16-2.61-1.98.26-3.03,2.6,1.02-.78,2.03-1.58,3.04-2.37.69,11.33,1.39,29.42.27,40.58,6.57.84,12.51,5.95,13.63,13.05,1.7,10.76-6.77,20.69-17.32,21.82-9.95,1.07-21.07-5.52-20.89-16.47.14-8.49,7-15.85,15.07-16.6,1.36-11.82,1.6-23.7.88-35.58-.01-.12.01-.21.01-.32-5.93,4.61-11.85,9.22-17.78,13.83l-19.42,15.08c-5.42,4.23-10.79,9.4-16.77,12.82-12.5,7.16-22.71-9.23-30.17-16.93-10.68-11.03-21.36-22.06-32.05-33.1-1.34-1.38-2.67-2.76-4.02-4.15.55,6.14,1.1,12.26,1.65,18.39.49,5.45.98,10.89,1.48,16.33.21,2.33.41,4.67.62,7,.19,2.11-.3,7.61.84,9.32.4.6.57.96.64,1.19.21-.05.62-.05,1.38.13,2.08.47,5.29-.61,7.54-.52,3.61.16,7.21.87,10.43,2.55,5.76,3.02,9.86,9.31,9.26,15.95-1.26,14.16-22.95,19.62-33.99,15.04-11.51-4.79-16.55-21.67-6.32-30.37.67-.57,1.38-.9,2.11-1.05-.07-.3-.14-.62-.19-.93-1.18-6.76-1.31-13.83-1.92-20.66-1.29-14.33-2.58-28.68-3.86-43.02-6.32-6.51-12.64-13.02-18.91-19.57-9.04-9.42-18.09-19.31-23.96-31.11-6.22-12.52-8.44-26.35-9.44-40.17-1.09-15.15-1.35-30.39-1.94-45.58-.54-13.8-3.22-29.56.6-43.06,3.79-13.37,16.03-22.88,25.45-32.36,22.81-22.92,45.63-45.85,68.44-68.78,3.02.7,3.89,1.21,7.96,3.99.46.06.91.15,1.39.35,29.79,12.68,58.19,28.47,84.57,47.26,12.34,8.78,26.07,17.95,36.18,29.33,10.58,11.89,10.58,25.96,10.82,41.06.52,31.88,1.03,63.76,1.56,95.64.13,8.16.27,16.33.39,24.49ZM235.4,267.02c.36-6.52-.09-13.16-.2-19.69-.23-14.38-.47-28.78-.7-43.16-.23-14.38-.47-28.76-.7-43.16-.12-7.78-.25-15.54-.37-23.32-.11-6.42.16-13.05-1.29-19.34-.85-3.67-2.46-6.93-4.54-9.91-4.92-7.03-12.51-12.45-19.08-17.66-10.32-8.19-21.05-15.87-32.07-23.07-22.15-14.46-45.57-26.89-69.92-37.24-1.01-.42-1.66-1.04-2.04-1.75L38.44,95.11c-5.35,5.39-11.17,10.56-15.94,16.48-5.18,6.43-6.72,13.62-6.75,21.72-.05,15.39,1.1,30.85,1.71,46.21,1.08,27.53.68,55.15,18.48,77.91,8.03,10.27,17.6,19.36,26.66,28.7,1.5,1.56,3,3.1,4.5,4.65,1.8,1.87,1.63,1.65,3.49,3.61,7.23,7.46,14.44,14.91,21.67,22.37,6.94,7.17,13.88,14.33,20.82,21.5.91,1.24,1.92,2.31,2.99,3.08,2.21,2.28,4.43,4.58,6.64,6.86,1.94,2.01,4.95,6.69,7.64,7.5,3.58,1.07,8.19-3.99,10.65-5.91,5.25-4.08,10.48-8.14,15.72-12.22,22.97-17.85,46.23-35.4,68.92-53.59,5.87-4.7,9.35-9.23,9.78-16.96ZM205.27,371.91c.15-3.7-2.6-6.61-5.82-6.79-1.02,1.71-3.53,2.55-5.32,2.04-4.67-1.3-9.52,3.98-8.39,8.67,1.03,4.26,6.27,5.97,10.13,5.63,4.98-.45,9.19-4.42,9.39-9.54ZM96.16,380.1c1.29-3.01-.98-6.32-3.48-7.88-5.59-3.47-11.61-.26-17.45-1.07-.94-.14-1.78-.4-2.54-.75-.16.19-.33.37-.54.56-3.77,3.21-3.51,8.8-.37,12.51,4.17,4.91,11.96,4.16,17.27,1.82,2.23-.97,6.1-2.82,7.11-5.19Z" style="fill: #124a31;"/>
      <path d="M235.2,247.33c.11,6.52.56,13.16.2,19.69-.43,7.73-3.91,12.26-9.78,16.96-22.7,18.19-45.96,35.74-68.92,53.59-5.24,4.08-10.47,8.14-15.72,12.22-2.46,1.92-7.06,6.98-10.65,5.91-2.68-.81-5.69-5.48-7.64-7.5-2.21-2.28-4.43-4.58-6.64-6.86,2.2,1.6,4.71,2.01,7.44.28,4.43-2.81,1.43-9.32-2.8-8.81-2.54-1.99-3.99-7.31-4.51-9.84-.98-4.87-.71-9.97-.67-14.91.08-10,.18-20,.27-30,0-.15-.02-.28-.04-.42,0-.04,0-.06.01-.09.02-.35-.01-.7-.08-1.04.07-.19.15-.37.2-.56.46-1.9.07-3.63-1.32-5.04-.87-.87-2.13-1.36-3.38-1.36l-.02-1.01c2.25-.08,4.34-1.57,4.16-4.49-1.82-27.94-3.13-56.03-2.95-84.04.02-3.14-.07-6.5,2.05-9.08,1.77-2.14,4.56-3.51,6.9-4.92,5.83-3.49,11.68-6.96,17.52-10.43,11.99-7.16,23.99-14.31,35.99-21.46,2.11-1.26,2.58-3.35,2.05-5.18l1.11-.41c.81,2.51,3.2,3.85,5.76,3.27,2.26-.5,4.43-1.52,6.3-2.92.5-.09,1.01-.25,1.52-.54,10.42-5.82,21.47-9.8,33.17-12.09,2.66-.52,3.68-3.43,3.28-5.76-.04-.18-.06-.34-.09-.52-.08-.48-.29-.94-.59-1.36l.26-.18c2.08,2.97,3.69,6.24,4.54,9.91,1.45,6.29,1.18,12.92,1.29,19.34.13,7.78.26,15.54.37,23.32.23,14.39.47,28.78.7,43.16.23,14.38.47,28.78.7,43.16Z" style="fill: #219968;"/>
      <path d="M228.01,110.51c.4,2.33-.62,5.25-3.28,5.76-11.7,2.28-22.74,6.27-33.17,12.09-.52.29-1.02.45-1.52.54-1.87,1.39-4.04,2.41-6.3,2.92-2.56.59-4.95-.76-5.76-3.27-.75-2.33.88-5.22,3.28-5.76.6-.14,1.18-.33,1.77-.52.01-.02.02-.02.05-.05.23-.15.5-.26.74-.4.27-.16.53-.34.8-.52.04-.02.07-.06.11-.09.41-.39.81-.77,1.17-1.18,1-1.12,2.42-1.48,3.81-1.29,9.54-5.01,19.64-8.71,30.19-11,1.02-.98,2.48-1.53,4.25-1.14.18.04.34.07.52.12,1,.22,2.05.97,2.68,1.91.29.42.5.88.59,1.36.04.18.06.34.09.52Z" style="fill: #219968;"/>
      <path d="M227.59,108.46l-.26.18c-.63-.94-1.69-1.69-2.68-1.91-.18-.05-.34-.08-.52-.12-1.77-.4-3.23.15-4.25,1.14-10.55,2.28-20.65,5.98-30.19,11-1.38-.19-2.81.16-3.81,1.29-.36.41-.76.8-1.17,1.18-.04.04-.07.07-.11.09-.27.18-.53.35-.8.52-.23.14-.5.25-.74.4-.02.02-.04.02-.05.05-.59.19-1.17.37-1.77.52-2.4.54-4.03,3.43-3.28,5.76l-1.11.41c-.78-2.66-3.7-4.75-6.78-2.92-12.96,7.73-25.94,15.46-38.91,23.2-6.57,3.91-15.87,7.75-21.94,13.7-.21-.18-.43-.34-.69-.49-10.46-6.01-20.93-12-31.39-18-5.25-3.01-9.97,5.08-4.73,8.08,10.46,6.01,20.93,12,31.4,18.01.08.05.18.07.26.12-.25.7-.45,1.43-.61,2.19-1.39,6.73-.46,14.35-.35,21.19.11,7.4.28,14.79.5,22.19.49,15.95,1.28,31.89,2.31,47.83.2,3.09,2.8,4.59,5.21,4.49l.02,1.01c-.81,0-1.62.2-2.3.63-2.89,1.83-3.1,4.97-3.38,8.1-.21,2.48-.06,4.91.23,7.35v.07h.01c.05.42.09.83.15,1.25.05.32.14.61.27.89-.42,11.5-1.05,23.28.48,34.46.47,3.4,2.8,11.04,6.43,15.95-6.94-7.17-13.88-14.33-20.82-21.5-7.23-7.46-14.44-14.91-21.67-22.37-1.86-1.96-1.69-1.73-3.49-3.61-1.5-1.55-3-3.09-4.5-4.65-9.05-9.35-18.62-18.43-26.66-28.7-17.8-22.76-17.4-50.37-18.48-77.91-.61-15.37-1.76-30.82-1.71-46.21.02-8.1,1.57-15.3,6.75-21.72,4.77-5.91,10.59-11.09,15.94-16.48L104.49,28.74c.37.7,1.03,1.32,2.04,1.75,24.35,10.35,47.77,22.78,69.92,37.24,11.02,7.2,21.75,14.89,32.07,23.07,6.57,5.21,14.16,10.63,19.08,17.66Z" style="fill: #2eb780;"/>
      <path d="M199.45,365.12c3.22.19,5.97,3.09,5.82,6.79-.2,5.13-4.42,9.1-9.39,9.54-3.86.34-9.1-1.37-10.13-5.63-1.14-4.68,3.71-9.97,8.39-8.67,1.79.52,4.3-.33,5.32-2.04Z" style="fill: #818181;"/>
      <path d="M200.53,315.03c0,.08.01.15.01.23-1.02.78-2.03,1.58-3.04,2.37,1.05-2.34,2.87-5.21,3.03-2.6Z" style="fill: #124a31;"/>
      <path d="M176.87,128.95c.53,1.83.06,3.91-2.05,5.18-12,7.14-24,14.3-35.99,21.46-5.84,3.48-11.69,6.94-17.52,10.43-2.34,1.41-5.13,2.78-6.9,4.92-2.12,2.58-2.03,5.94-2.05,9.08-.18,28.01,1.14,56.1,2.95,84.04.19,2.92-1.91,4.4-4.16,4.49-2.41.11-5.01-1.39-5.21-4.49-1.03-15.94-1.82-31.88-2.31-47.83-.22-7.4-.4-14.79-.5-22.19-.11-6.84-1.04-14.45.35-21.19.16-.76.36-1.49.61-2.19-.08-.05-.18-.07-.26-.12-10.47-6.01-20.94-12-31.4-18.01-5.24-3-.52-11.09,4.73-8.08,10.46,6,20.93,11.99,31.39,18,.26.15.48.32.69.49,6.07-5.95,15.37-9.79,21.94-13.7,12.96-7.74,25.94-15.47,38.91-23.2,3.08-1.84,6,.26,6.78,2.92Z" style="fill: #124a31;"/>
      <path d="M120.7,332.82c4.23-.52,7.23,6,2.8,8.81-2.73,1.73-5.24,1.32-7.44-.28-1-1.03-1.99-2.05-2.99-3.08-3.63-4.91-5.96-12.55-6.43-15.95-1.53-11.17-.9-22.95-.48-34.46-.13-.28-.22-.57-.27-.89-.06-.42-.11-.83-.15-1.25h-.01v-.07c-.29-2.45-.45-4.87-.23-7.35.28-3.14.49-6.28,3.38-8.1.68-.43,1.49-.63,2.3-.63,1.25,0,2.52.49,3.38,1.36,1.39,1.41,1.78,3.14,1.32,5.04-.05.19-.13.37-.2.56.07.34.11.69.08,1.04-.01.04-.01.06-.01.09.01.14.04.27.04.42-.09,10-.19,20-.27,30-.05,4.94-.32,10.04.67,14.91.52,2.53,1.97,7.85,4.51,9.84Z" style="fill: #219968;"/>
      <path d="M113.07,338.26c1,1.03,1.99,2.05,2.99,3.08-1.07-.77-2.07-1.84-2.99-3.08Z" style="fill: #219968;"/>
      <path d="M92.68,372.21c2.49,1.56,4.77,4.87,3.48,7.88-1.01,2.37-4.88,4.22-7.11,5.19-5.32,2.34-13.11,3.09-17.27-1.82-3.14-3.71-3.4-9.3.37-12.51.21-.19.37-.37.54-.56.76.35,1.6.61,2.54.75,5.84.81,11.86-2.4,17.45,1.07Z" style="fill: #818181;"/>
    </g>
    <g>
      <path d="M370.44,224.34c2.76,3.28,4.22,7.36,2.42,11.9-1.19,2.96-3.59,5.34-6.71,6.14-1.59.41-2.91.14-4.2-.27.1,1,.15,2.01-.04,2.99-.43,2.1-1.47,4.22-2.86,5.85-2.6,3.05-6.66,4.37-10.51,3.31-8.74-2.4-12.28-14.15-13.84-22.89-.08.01-.17.03-.25.03-25.68,2.3-51.36,4.6-77.06,6.9-10.77.96-21.96,2.91-32.79,2.64-7.18-.17-15.28-4.04-16.25-12.01-.93-7.48,5.41-12.16,11.85-13.83,9.88-2.57,20.96-2.3,31.1-3.14l67.45-5.67c5.36-.46,11.91-1.62,17.45-.07,0-.12.02-.22.02-.33.01-.58.19-1.11.46-1.59-.39-.74-.6-1.63-.51-2.64.94-10.53,11.98-18.13,21.67-12.23,5.79,3.53,7.26,10.06,5.13,15.42,4.72,1.71,8.71,4.79,9.88,10.28.77,3.61-.29,6.87-2.42,9.2ZM361.11,232.05c1.55.42,3.67,2.36,2.94-.76-.43-1.89-3.68-3.56-5.17-4.5-4.19-2.65-.61-8.74,3.61-8.29,3.24.35-1.44-4.52-2.56-4.97-1.98-.79-4.33-.93-6.43-1.13-4.81-.48-5.13-7.2-1.07-8.99,3.41-1.49,2.53-5.93-.93-6.6-3.82-.76-5.78,3.06-6.06,6.22-.05.61-.21,1.13-.44,1.59.36.8.52,1.71.49,2.64-.09,2.31-.37,4.56-.81,6.78.76,3.32-.41,6.96-2.46,10.14.64.67,1.07,1.53,1.21,2.55.71,5.05,1.89,11.87,5.17,16,5.47,6.91,3.1-4.56,4.11-7.11,1.41-3.56,4.93-4.53,8.4-3.57ZM334.28,217c.15-.45.27-.92.4-1.37-.9-.69-2.83-.69-3.93-.75-4.69-.27-9.6.63-14.28,1.02-10.67.9-21.33,1.79-32,2.7-10.68.89-21.34,1.79-32.01,2.69-9.43.79-19.6.63-28.87,2.63-1.47.32-4.21.78-5.19,2.11-2.17,2.95,1.48,4.7,3.83,5.3,4.5,1.15,9.91-.14,14.46-.55,10.74-.97,21.46-1.93,32.19-2.88,21-1.89,42.01-3.76,63.01-5.64.17-.27.36-.54.62-.81.45-.49,1.03-1.02,1.55-1.58-.17-.91-.11-1.91.22-2.84Z" style="fill: #124a31;"/>
      <path d="M364.05,231.29c.72,3.12-1.39,1.18-2.94.76-3.47-.96-6.99.02-8.4,3.57-1.01,2.55,1.36,14.03-4.11,7.11-3.27-4.14-4.45-10.95-5.17-16-.15-1.02-.58-1.87-1.21-2.55,2.05-3.18,3.21-6.82,2.46-10.14.43-2.22.72-4.48.81-6.78.03-.93-.13-1.84-.49-2.64.22-.46.38-.99.44-1.59.29-3.17,2.24-6.99,6.06-6.22,3.45.67,4.34,5.11.93,6.6-4.06,1.78-3.73,8.51,1.07,8.99,2.1.2,4.45.35,6.43,1.13,1.12.45,5.8,5.31,2.56,4.97-4.22-.45-7.8,5.64-3.61,8.29,1.5.94,4.74,2.61,5.17,4.5Z" style="fill: #219968;"/>
      <path d="M334.68,215.62c-.14.45-.25.92-.4,1.37-.33.93-.39,1.93-.22,2.84-.52.56-1.1,1.09-1.55,1.58-.25.27-.45.54-.62.81-21,1.88-42,3.75-63.01,5.64-10.73.96-21.46,1.92-32.19,2.88-4.56.41-9.97,1.7-14.46.55-2.35-.59-6-2.35-3.83-5.3.98-1.34,3.72-1.8,5.19-2.11,9.27-2,19.43-1.83,28.87-2.63,10.67-.9,21.33-1.79,32.01-2.69,10.67-.91,21.33-1.8,32-2.7,4.69-.39,9.59-1.29,14.28-1.02,1.09.07,3.02.06,3.93.75Z" style="fill: #2eb780;"/>
    </g>
    <g>
      <path d="M33.83,199.87c2.13,5.24,1.44,10.65-1.87,14.64,1.41,4.23.7,8.9-2.23,12.23,2.54,3.81,5.05,7.68,1.11,12.11-3.81,4.29-10.35,3.17-14.83.75-14.32-7.74-14.89-25.67-14.1-39.85.09-1.53.77-2.67,1.72-3.43-.11-12.54,20.75-29.98,28.28-13.91,1.45,3.1,1.58,6.79.73,10.08-.22.9-1.36,2.65-1.46,3.6.23-.49,2.44,3.28,2.65,3.79ZM23.89,209.39c4.31-2.81.39-6.87-1.12-9.8-1.25-2.44-1.04-4.36-.21-6.89,1.03-3.08,2.42-8.71-2.9-6.28-3.67,1.69-7.02,7.23-6.58,11.02.23,1.94-.61,3.24-1.87,3.91-.43,7.75-.87,16.21,2.93,23.19,1.71,3.13,4.09,5.76,7.33,7.34,2.97,1.46,1.01.59.36-.4-.78-1.19-1.66-2.24-2.32-3.55-1.08-2.11-.69-5.26,1.67-6.41,1.71-.82,3.31-2.88,1.77-4.79-1.96-2.4-1.78-5.59.95-7.35Z" style="fill: #225282;"/>
      <path d="M22.77,199.59c1.51,2.93,5.43,6.99,1.12,9.8-2.73,1.77-2.9,4.95-.95,7.35,1.55,1.91-.06,3.97-1.77,4.79-2.37,1.15-2.75,4.3-1.67,6.41.66,1.31,1.53,2.35,2.32,3.55.64.98,2.61,1.86-.36.4-3.24-1.58-5.62-4.22-7.33-7.34-3.79-6.98-3.36-15.44-2.93-23.19,1.26-.67,2.11-1.97,1.87-3.91-.43-3.79,2.92-9.33,6.58-11.02,5.33-2.44,3.94,3.2,2.9,6.28-.83,2.53-1.04,4.45.21,6.89Z" style="fill: #336fb7;"/>
    </g>
    <g>
      <path d="M341.56,259.05c-.09-.15-.19-.3-.28-.45-.06-.1-.1-.17-.12-.22-.05-.03-.12-.08-.21-.16-.06-.05-.6-.42-.6-.45-.14-.07-.26-.15-.4-.22-.17-.07-.25-.11-.29-.13-.15-.05-.29-.09-.43-.13-.25-.06-.5-.11-.75-.16-.07-.01-.66-.06-.75-.08-.3,0-.6-.01-.9,0-.69.01-1.37.07-2.05.16-.35.04-.69.09-1.04.15-.1,0-.16.02-.19.02-.05.01-.11.03-.19.04-3.04.63-6.04,1.47-9.08,2.13-25.02,5.47-50.86,6.03-76.16,2.13-12.31-1.89-24.56-4.82-36.3-9.01-6.13-2.19-12.18-4.6-18.07-7.38-5.43-2.56-10.85-5.23-15.82-8.61.5-.83.96-1.69,1.37-2.58.47-1.02.88-2.08,1.22-3.17,2.71,1.25,5.37,2.57,8.05,3.88,11.81,5.78,23.26,10.07,35.81,13.61,12.5,3.52,25.33,5.87,38.28,6.98.29.03.44.04.44.04.14,0,.28.02.41.03.36.03.72.05,1.07.08.86.06,1.72.12,2.58.17,1.43.08,2.87.15,4.3.2,3.3.12,6.6.17,9.89.13,6.46-.06,12.91-.44,19.33-1.11,3.28-.35,6.56-.78,9.82-1.27,1.63-.24,3.26-.51,4.88-.8.36-.06.71-.12,1.06-.19.14-.02.24-.04.31-.05.08-.02.17-.04.32-.07.7-.13,1.41-.27,2.11-.41,3.22-.65,6.41-1.42,9.6-2.19,3.47-.84,6.93-1.44,10.51-1.07,3.59.38,6.91,2.25,8.9,5.28,1.88,2.86,2.44,6.48,2.21,9.84-.46,6.45-3.67,12.43-8.41,16.79-9.92,9.13-23.96,10.45-36.8,11.24-28.2,1.73-56.78-1.19-84.04-8.61-13.4-3.65-26.65-8.31-39.24-14.18-10.13-4.72-20.35-11.62-25.36-21.91,1.66.15,3.34.13,4.94-.04,1.08-.11,2.13-.31,3.15-.58.67,1.08,1.4,2.11,2.19,3.1.07.09.15.19.23.29.04.03.11.11.23.25.25.27.49.55.74.81.42.45.86.88,1.31,1.29.91.84,1.87,1.63,2.85,2.39.36.28.73.55,1.09.82.11.07.34.23.4.28.57.39,1.15.77,1.74,1.14,1.07.67,2.16,1.31,3.27,1.93,5.26,2.92,10.83,5.31,16.4,7.59,12.22,4.99,24.98,9.01,38.07,12.02,26.23,6.05,53.24,8.07,80.07,5.26,3.05-.31,5.87-.71,8.57-1.33,1.48-.34,2.95-.74,4.4-1.22.79-.26,1.56-.55,2.33-.85.26-.11.51-.21.77-.32,0,0,.64-.31.74-.34,1.28-.65,2.53-1.36,3.71-2.18,1.34-.93,1.67-1.2,2.84-2.35.97-.96,1.88-1.99,2.68-3.1.09-.15.38-.58.39-.59.14-.22.27-.44.4-.66.36-.6.68-1.22.98-1.86.15-.32.28-.64.41-.97.04-.12.23-.63.24-.68.19-.6.34-1.21.46-1.83.06-.31.12-.62.16-.93.02-.11.05-.4.06-.52.03-.54.04-1.08.01-1.62-.02-.46-.07-.92-.13-1.37-.02-.14-.07-.4-.09-.49-.08-.32-.18-.63-.28-.94-.03-.06-.35-.69-.32-.69Z" style="fill: #225282;"/>
      <path d="M342.38,262.54c.03.54.02,1.08-.01,1.62,0,.12-.04.41-.06.52-.04.31-.1.62-.16.93-.12.62-.27,1.23-.46,1.83-.01.05-.2.56-.24.68-.13.33-.26.65-.41.97-.3.64-.62,1.26-.98,1.86-.13.22-.26.44-.4.66,0,0-.3.44-.39.59-.8,1.11-1.71,2.14-2.68,3.1-1.17,1.15-1.5,1.42-2.84,2.35-1.18.82-2.43,1.53-3.71,2.18-.1.03-.74.34-.74.34-.26.11-.51.21-.77.32-.77.3-1.54.59-2.33.85-1.45.48-2.92.88-4.4,1.22-2.7.62-5.52,1.02-8.57,1.33-26.83,2.81-53.84.79-80.07-5.26-13.09-3.01-25.85-7.03-38.07-12.02-5.57-2.28-11.14-4.67-16.4-7.59-1.11-.62-2.2-1.26-3.27-1.93-.59-.37-1.17-.75-1.74-1.14-.06-.05-.29-.21-.4-.28-.36-.27-.73-.54-1.09-.82-.98-.76-1.94-1.55-2.85-2.39-.45-.41-.89-.84-1.31-1.29-.25-.26-.49-.54-.74-.81-.12-.14-.19-.22-.23-.25-.08-.1-.16-.2-.23-.29-.79-.99-1.52-2.02-2.19-3.1,5.54-1.47,10.27-5.13,13.29-10.04,4.97,3.38,10.39,6.05,15.82,8.61,5.89,2.78,11.94,5.19,18.07,7.38,11.74,4.19,23.99,7.12,36.3,9.01,25.3,3.9,51.14,3.34,76.16-2.13,3.04-.66,6.04-1.5,9.08-2.13.08-.01.14-.03.19-.04.03,0,.09-.01.19-.02.35-.06.69-.11,1.04-.15.68-.09,1.36-.15,2.05-.16.3-.01.6,0,.9,0,.09.02.68.07.75.08.25.05.5.1.75.16.14.04.28.08.43.13.04.02.12.06.29.13.14.07.26.15.4.22,0,.03.54.4.6.45.09.08.16.13.21.16.02.05.06.12.12.22.09.15.19.3.28.45-.03,0,.29.63.32.69.1.31.2.62.28.94.02.09.07.35.09.49.06.45.11.91.13,1.37Z" style="fill: #478cca;"/>
      <path d="M175.87,232c.8-1.54,2.65-1.99,4.16-1.3.16.08.33.15.49.23-.34,1.09-.75,2.15-1.22,3.17-.41.89-.87,1.75-1.37,2.58-.26-.16-.51-.34-.77-.52-1.37-.96-2.15-2.54-1.29-4.16Z" style="fill: #225282;"/>
      <path d="M164.64,246.72c-1.02.27-2.07.47-3.15.58-1.6.17-3.28.19-4.94.04-.24-.47-.45-.95-.66-1.43-.8-1.88.62-4.15,2.42-4.74,2.05-.66,3.93.56,4.73,2.42l.36.84c.03.05.32.64.32.65.28.54.59,1.08.9,1.6.01.01.02.03.02.04Z" style="fill: #225282;"/>
      <path d="M146.98,238.13c2.08,1.21,4.38,1.8,6.8,2.31,1.73.37,2.38.43,4.14.28.4-.03.79-.07,1.18-.13.18-.02.37-.05.55-.08.02-.01.03-.01.06-.02.77-.17,1.52-.37,2.27-.62.7-.23,1.37-.51,2.05-.78.25-.1.49-.2.74-.31.04-.03.4-.2.53-.27.65-.34,1.27-.73,1.87-1.15.27-.19.54-.39.81-.6h0c.12-.11.23-.21.34-.31.59-.55,1.15-1.13,1.67-1.74.24-.28.47-.56.69-.86.07-.08.29-.39.38-.5.82-1.24,1.53-2.56,2.1-3.94.01-.04.11-.28.16-.41.03-.09.07-.2.08-.21.11-.35.22-.71.32-1.07.21-.71.38-1.44.52-2.17.08-.43.15-.86.21-1.29.02-.19.04-.37.07-.56,0,0,.02-.16.03-.27s.02-.23.02-.23c0-.19,0-.38.02-.57.02-.43.02-.87.01-1.31-.01-.81-.06-1.62-.15-2.42-.1-.91-.13-1.1-.25-1.66-.32-1.46-.77-2.99-1.34-3.89-.12-.18-.24-.37-.38-.54l-.07-.07s-.03-.02-.04-.04c-.04.1-.1.18-.14.27-.11.24-.2.49-.3.74-.04.12-.15.41-.19.52-.63,1.76-1.27,3.69-2.91,4.79-2.14,1.44-4.52.56-6.1-1.24-1.18-1.35-2.1-2.75-3.34-3.9-.38-.34-.35-.34-.71-.55-.09-.05-.68-.33-.64-.33-.54-.19-.68-.22-.99-.07,0,0-.02.01-.05.04-.02.02-.04.05-.07.11-.05.1-.11.2-.16.3-.01.03-.02.04-.02.05-.03.1-.06.2-.09.31-.02.11-.1.54-.13.68,0,.12-.02.39-.02.43-.01.18-.01.35,0,.53.01.35.03.7.06,1.05.03.36.08.7.13,1.05.02.16.03.22.03.25,0,0,0,.04.05.24.28,1.39.06,2.63-1.05,3.59-.9.78-2.64,1.17-3.71.42-1.03-.71-2.15-1.58-3.33-1.97-.54-.18-.67-.21-1.23-.14,0,.03-.21.1-.31.13,0,.01-.03.04-.07.08.02.03.04.06.07.11.36.53.29.43.68.81.37.36.76.7,1.15,1.03,1.87,1.58,1.02,4.64-1.17,5.38-1.53.52-3.1,1.04-4.55,1.74-.6.29-1.17.71-1.78.99.55.88,1.8,2.96,2.01,3.26.94,1.33,1.99,2.57,3.04,3.82.23.27.36.59.45.91ZM152.31,241.28c-.35-.19-.69-.38-1.08-.48-.51-.13-.9-.07-1.4-.06-.51.02-1.01,0-1.52-.07.24.03.48.06.72.1-.32-.05-.65-.08-.98-.12-.65-.1-1.27-.27-1.89-.5-.34-.17-.68-.34-1.03-.46-.31-.11-.63-.19-.93-.31-.32-.12-.82-.09-1.14,0-.45.12-.83.4-1.12.77-.26.35-.44.81-.45,1.28-1.69-1.63-3.15-3.52-4.41-5.5-1.26-1.97-2.46-4.17-2.2-6.58.32-2.88,2.55-4.12,4.9-5.23.61-.28,1.22-.57,1.83-.87-1.36-2.39-1.62-5.19.62-7.6,1.47-1.59,3.73-2.47,5.88-2.39.64.02,1.25.12,1.85.26.29-2.41,1.24-4.64,3.41-6.11,2.33-1.57,5.25-1.5,7.75-.4,1.86.82,3.26,2.2,4.56,3.7.59-1.54,1.34-2.96,2.73-4.02,4.12-3.18,9.12-.06,11.1,3.97,3.04,6.15,3.12,13.72,1.01,20.27-.16-.08-.33-.15-.49-.23-1.51-.69-3.36-.24-4.16,1.3-.86,1.62-.08,3.2,1.29,4.16.26.18.51.36.77.52-3.02,4.91-7.75,8.57-13.29,10.04,0-.01-.01-.03-.02-.04-.31-.52-.62-1.06-.9-1.6,0-.01-.29-.6-.32-.65l-.36-.84c-.8-1.86-2.68-3.08-4.73-2.42-1.8.59-3.22,2.86-2.42,4.74.21.48.42.96.66,1.43-1.86-.16-3.7-.52-5.4-1.1-.11-.04-.23-.08-.34-.13.41-.05.81-.16,1.17-.38.31-.19.57-.44.82-.7,1.01-1.08.91-3.01-.49-3.75Z" style="fill: #225282;"/>
      <path d="M144.9,242.07c1.65,1.77,3.62,3.21,5.91,4.04-.16.03-.33.05-.49.06-.36.03-.73.04-1.1.02-.91-.03-1.82-.16-2.69-.45-.87-.28-1.72-.65-2.51-1.1-.45-.25-.95-.55-1.31-.91-.35-.36-.65-.8-.93-1.2-.23-.31-.31-.71-.29-1.1h.01c.91.87,2.27,1.07,3.4.64Z" style="fill: #225282;"/>
      <path d="M158.04,213s.55.28.64.33c.36.21.33.21.71.55,1.24,1.15,2.16,2.55,3.34,3.9,1.58,1.8,3.96,2.68,6.1,1.24,1.64-1.1,2.28-3.03,2.91-4.79.04-.11.15-.4.19-.52.1-.25.19-.5.3-.74.04-.09.1-.17.14-.27.01.02.03.03.04.04l.07.07c.14.17.26.36.38.54.57.9,1.02,2.43,1.34,3.89.12.56.15.75.25,1.66.09.8.14,1.61.15,2.42.01.44.01.88-.01,1.31-.01.19-.02.38-.02.57,0,0-.01.12-.02.23s-.03.27-.03.27c-.03.19-.05.37-.07.56-.06.43-.13.86-.21,1.29-.14.73-.31,1.46-.52,2.17-.1.36-.21.72-.32,1.07-.01.01-.05.12-.08.21-.05.13-.15.37-.16.41-.57,1.38-1.28,2.7-2.1,3.94-.09.11-.31.42-.38.5-.22.3-.45.58-.69.86-.52.61-1.08,1.19-1.67,1.74-.11.1-.22.2-.34.3h0c-.27.22-.54.42-.81.61-.6.42-1.22.81-1.87,1.15-.13.07-.49.24-.53.27-.25.11-.49.21-.74.31-.68.27-1.35.55-2.05.78-.75.25-1.5.45-2.27.62-.03.01-.04.01-.06.02-.18.03-.37.06-.55.08-.39.06-.78.1-1.18.13-1.76.15-2.41.09-4.14-.28-2.42-.51-4.72-1.1-6.8-2.31-.09-.32-.22-.64-.45-.91-1.05-1.25-2.1-2.49-3.04-3.82-.21-.3-1.46-2.38-2.01-3.26.61-.28,1.18-.7,1.78-.99,1.45-.7,3.02-1.22,4.55-1.74,2.19-.74,3.04-3.8,1.17-5.38-.39-.33-.78-.67-1.15-1.03-.39-.38-.32-.28-.68-.81-.03-.05-.05-.08-.07-.11.04-.04.07-.07.07-.08.1-.03.31-.1.31-.13.56-.07.69-.04,1.23.14,1.18.39,2.3,1.26,3.33,1.97,1.07.75,2.81.36,3.71-.42,1.11-.96,1.33-2.2,1.05-3.59-.04-.2-.05-.24-.05-.24,0-.03-.01-.09-.03-.25-.05-.35-.1-.69-.13-1.05-.03-.35-.05-.7-.06-1.05-.01-.18-.01-.35,0-.53,0-.04.02-.31.02-.43.03-.14.11-.57.13-.68.03-.11.06-.21.09-.31,0-.01.01-.02.02-.05.05-.1.11-.2.16-.3.03-.06.05-.09.07-.11.03-.03.05-.04.05-.04.31-.15.45-.12.99.07Z" style="fill: #336fb7;"/>
      <path d="M151.23,240.8c.39.1.73.29,1.08.48,1.4.74,1.5,2.67.49,3.75-.25.26-.51.51-.82.7-.36.22-.76.33-1.17.38-2.29-.83-4.26-2.27-5.91-4.04-1.13.43-2.49.23-3.4-.63h-.01c.01-.48.19-.94.45-1.29.29-.37.67-.65,1.12-.77.32-.09.82-.12,1.14,0,.3.12.62.2.93.31.35.12.69.29,1.03.46.62.23,1.24.4,1.89.5.33.04.66.07.98.12-.24-.04-.48-.07-.72-.1.51.06,1.01.09,1.52.07.5,0,.89-.07,1.4.06Z" style="fill: #225282;"/>
    </g>
  </g>
</svg>