<svg xmlns="http://www.w3.org/2000/svg" viewBox="0 0 128 128"><defs><style>.cls-1{fill:#25ba81;}.cls-2{fill:#1f9967;}.cls-3{fill:#e6e6e6;}.cls-4{fill:#fff;}.cls-5,.cls-6{fill:none;stroke:#fff;stroke-linecap:round;stroke-width:3px;}.cls-5{stroke-miterlimit:10;}.cls-6{stroke-linejoin:round;}.cls-7{fill:#ff67ac;}</style></defs><g id="Layer_1" data-name="Layer 1"><polygon class="cls-1" points="71.99 117.34 12.64 104.42 12.64 58.72 71.99 67.83 71.99 117.34"/><polygon class="cls-1" points="71.99 67.83 12.64 58.72 38.48 28.16 90.21 35.49 71.99 67.83"/><polygon class="cls-2" points="90.21 84.99 71.99 117.34 71.99 67.83 90.21 35.49 90.21 84.99"/><path class="cls-3" d="M11.77,43.68s-3,12.3,0,14.89C26,54.64,70.11,42.72,90.43,43.43c3-6.7-.33-11.5-.33-11.5S42.22,29.93,11.77,43.68Z"/><path class="cls-4" d="M14.11,43.42s-2.9,11.57,0,14c13.61-3.69,55.83-14.9,75.28-14.23,2.84-6.3-.31-10.82-.31-10.82S43.26,30.49,14.11,43.42Z"/><path class="cls-3" d="M11.58,44.59C8.51,41.67,1.65,36,1,31.14s11.78-23,31.69-11.27c-.07-5.22,19.24-18.7,29.13-7.3,6.75-7.73,30-14.72,38.34-1.75,9.49,14.72-7.91,16.15-10.31,23C66.09,34.05,36.58,35.06,11.58,44.59Z"/><path class="cls-4" d="M12.36,44.2C9.34,41.33,2.62,35.76,2,31S13.47,9.2,33,20.69c-.07-5.12,19.28-18.21,29-7C68.59,6.08,90.3-1.13,99.22,11.09,110,25.87,88.62,26.2,89.11,33.59,65.8,33.86,36.86,34.85,12.36,44.2Z"/><path class="cls-3" d="M6.88,40.16s3.22,5,4.7,4.43c17.26-6.6,37-9.08,54.33-10.08a58.4,58.4,0,0,0,24-.74,48.88,48.88,0,0,1,2.93-4.64,33.68,33.68,0,0,0-3,2.85c-7.61,1.4-13,3.51-24,.65-1.09-.28,0-10.11-1.16-10-1,.08-4.15,10.46-5.11,10.54-6.56.62-13.31,1.47-19.85,2.6-.89.15-3.73-4.76-4.61-4.6-1.08.2-.2,5.48-1.26,5.69-3.77.76-7.42,1.63-10.87,2.59-.71.2-3.14-2.17-3.82-2s.43,3-.2,3.17c-2.2.7-4.29,1.46-6.25,2.26C11.3,43.45,6.88,40.16,6.88,40.16Z"/></g><g id="Layer_2" data-name="Layer 2"><path class="cls-5" d="M59.77,66.23a31.32,31.32,0,0,1-21.41.92"/><path class="cls-5" d="M88,55a28.57,28.57,0,0,1-18.85,4.91"/><path class="cls-6" d="M72,87s4-2.44,4.45,0a4.22,4.22,0,0,1-1.72,4s4,1.41,2.86,4.15-5.59,0-5.59,0"/></g><g id="Layer_3" data-name="Layer 3"><path class="cls-7" d="M108.35,55.14c11-1.27,10.75,7.38,7.44,10.19-4.68,4-17,5.57-17,5.57s-4.26-11.67-2.9-17.65C96.78,49.35,103.58,44.31,108.35,55.14Z"/></g><g id="Layer_8" data-name="Layer 8"><path class="cls-1" d="M125.31,98.29c-2.5-5.05-10.1-12.19-19-15.13-6-2-14-2.15-20,.2a4.56,4.56,0,0,0-2.87,4.27l-.89.27c-4,1.31-3.58,6.89-.74,8.52a4.56,4.56,0,0,0-.54,6.73c3.18,3.42,6.35,6.87,9.57,10.25,2.86,3,10.85,7.46,11.36,7.64,9,3.16,21,2,23.86-9.28C127.52,106.06,127.28,102.24,125.31,98.29Zm-18.46,13.23c-1.91-.16-5-.28-6.34-1.16-2.36-1.56-4.26-4-6.21-6.06l-7.07-7.57a4.51,4.51,0,0,0-.66-.59,34.9,34.9,0,0,1,13.77-.88c2,.31,4.92,1.1,6.3,3,1.61,2.16,3.66,3.85,3.32,7.91C109.8,108.08,107.5,111.58,106.85,111.52Z"/><path class="cls-2" d="M80.87,97.48s.62-1,.95-1.06c.39.39,3.23.6,4.75-.28.53.19,11.6,12.31,11.6,12.31s1.09.91,2.34,1.91a22,22,0,0,0,6.34,1.16s-1.32,1.78-5.4,1-14-14-14-14S85.89,96.44,80.87,97.48Z"/><path class="cls-2" d="M83.45,87.63s21.66-6,30.13,5.45c.35,0-5.18-11.9-30-6.22A2.84,2.84,0,0,0,83.45,87.63Z"/></g></svg>