<svg xmlns="http://www.w3.org/2000/svg" xmlns:xlink="http://www.w3.org/1999/xlink" viewBox="0 0 128 128"><defs><style>.cls-1,.cls-6{fill:none;}.cls-2{fill:#1f9967;}.cls-3{fill:#25ba81;}.cls-4{fill:#fff;}.cls-5{fill:#231f20;}.cls-6{stroke:#1f9967;stroke-linejoin:round;stroke-width:6px;}.cls-7{fill:#522538;}.cls-8{clip-path:url(#clip-path);}.cls-9{fill:#ff67ac;}</style><clipPath id="clip-path"><ellipse class="cls-1" cx="72.21" cy="112.2" rx="20.66" ry="18.83"/></clipPath></defs><g id="Layer_1" data-name="Layer 1"><polyline class="cls-2" points="64 127 64.29 127 119.13 95.5 119.13 32.58 118.1 32.57 63.82 63.85"/><polyline class="cls-3" points="119.13 32.58 119.13 32.5 63.54 1 8.88 32.59 63.82 63.85"/><polyline class="cls-3" points="9.2 32.58 8.88 32.59 8.88 95.5 64 127 63.82 63.85"/></g><g id="Layer_2" data-name="Layer 2"><path class="cls-4" d="M49.24,54.76c0,6.49-5.26,7-11.75,7s-11.76-.47-11.76-7a11.76,11.76,0,0,1,23.51,0Z"/><circle class="cls-5" cx="41.56" cy="50.17" r="4.59"/><path class="cls-4" d="M101.74,54.76c0,6.49-5.27,7-11.76,7s-11.75-.47-11.75-7a11.76,11.76,0,0,1,23.51,0Z"/><circle class="cls-5" cx="94.06" cy="50.17" r="4.59"/></g><g id="Layer_3" data-name="Layer 3"><path class="cls-6" d="M23.27,76.58h81.46C108.23,95,45.14,146.06,23.27,76.58Z"/><path class="cls-7" d="M23.27,76.58h81.46C108.23,95,45.14,146.06,23.27,76.58Z"/><g class="cls-8"><path class="cls-9" d="M23.27,76.58h81.46C108.23,95,45.14,146.06,23.27,76.58Z"/></g></g></svg>