<svg xmlns="http://www.w3.org/2000/svg" viewBox="0 0 128 128"><defs><style>.cls-1{fill:#1f9967;}.cls-2{fill:#25ba81;}.cls-3{fill:#fff;}.cls-4{fill:#231f20;}.cls-5{fill:#005cff;}.cls-6{fill:none;stroke:#fff;stroke-linecap:round;stroke-linejoin:round;stroke-width:6px;}</style></defs><g id="Layer_1" data-name="Layer 1"><polyline class="cls-1" points="64 127 64.29 127 119.13 95.5 119.13 32.58 118.1 32.57 63.82 63.85"/><polyline class="cls-2" points="119.13 32.58 119.13 32.5 63.54 1 8.88 32.59 63.82 63.85"/><polyline class="cls-2" points="9.2 32.58 8.88 32.59 8.88 95.5 64 127 63.82 63.85"/></g><g id="Layer_2" data-name="Layer 2"><circle class="cls-3" cx="39.93" cy="51.2" r="10.2"/><circle class="cls-4" cx="39.93" cy="51.2" r="3.98"/><circle class="cls-3" cx="88.07" cy="51.2" r="10.2"/><circle class="cls-4" cx="88.07" cy="51.2" r="3.98"/><path class="cls-5" d="M107.31,6.1s-1-.18-2.57,3.43c-2.6,6-11.24,19.92-11.5,29.33-.16,5.77,4.25,13.33,14,13.32,9.44,0,13.63-6.75,13.62-13.42,0-9-8.18-22.4-11.18-29.23C108,5.87,107.31,6.1,107.31,6.1Z"/><path class="cls-5" d="M107.21,8s-.64-.12-1.62,2.4c-1.64,4.21-7.1,13.94-7.26,20.53-.11,4,2.68,9.33,8.81,9.32,6,0,8.61-4.72,8.6-9.39,0-6.32-5.16-15.68-7.06-20.46C107.67,7.8,107.21,8,107.21,8Z"/></g><g id="Layer_3" data-name="Layer 3"><path class="cls-6" d="M37.44,83.75S65,105.66,89.93,81.89"/></g></svg>