<svg xmlns="http://www.w3.org/2000/svg" xmlns:xlink="http://www.w3.org/1999/xlink" viewBox="0 0 128 128"><defs><style>.cls-1{fill:#1f9967;}.cls-2{fill:#25ba81;}.cls-3,.cls-4{fill:#fff;}.cls-4,.cls-7{stroke:#fff;stroke-linecap:round;stroke-linejoin:round;}.cls-4{stroke-width:6px;}.cls-5{fill:url(#linear-gradient);}.cls-6{fill:#c0d7eb;opacity:0.23;}.cls-7{fill:none;stroke-width:2px;}</style><linearGradient id="linear-gradient" x1="64.16" y1="89.85" x2="97.94" y2="89.85" gradientUnits="userSpaceOnUse"><stop offset="0" stop-color="#fff"/><stop offset="0.03" stop-color="#fbfdff"/><stop offset="0.19" stop-color="#f0f8ff"/><stop offset="0.4" stop-color="#e9f5ff"/><stop offset="1" stop-color="#e7f4ff"/></linearGradient></defs><g id="Layer_1" data-name="Layer 1"><polyline class="cls-1" points="64 127 64.29 127 119.13 95.5 119.13 32.58 118.1 32.57 63.82 63.85"/><polyline class="cls-2" points="119.13 32.58 119.13 32.5 63.54 1 8.88 32.59 63.82 63.85"/><polyline class="cls-2" points="9.2 32.58 8.88 32.59 8.88 95.5 64 127 63.82 63.85"/></g><g id="Layer_2" data-name="Layer 2"><circle class="cls-3" cx="39.38" cy="47.92" r="6"/><circle class="cls-3" cx="87.52" cy="47.92" r="6"/></g><g id="Layer_3" data-name="Layer 3"><polygon class="cls-4" points="30.55 74.46 63.84 58.75 96.35 74.46 95.04 99.92 63.84 120.96 32.8 100.07 30.55 74.46"/><polyline class="cls-5" points="64.16 57.52 97.94 73.85 96.58 100.32 64.16 122.19"/><polygon class="cls-6" points="33.41 74.58 64.16 82.2 95.36 74.58 63.82 77.78 33.41 74.58"/><polygon class="cls-6" points="33.41 89.85 64.16 97.47 95.36 89.85 64.16 92.8 33.41 89.85"/><polygon class="cls-6" points="40.88 104.03 64.21 109.81 87.88 104.03 64.16 106.27 40.88 104.03"/><line class="cls-7" x1="8.87" y1="32.59" x2="28.88" y2="74.58"/><line class="cls-7" x1="119.13" y1="32.58" x2="98.48" y2="72.8"/><line class="cls-7" x1="119.13" y1="95.5" x2="97.74" y2="100.27"/><line class="cls-7" x1="8.87" y1="95.5" x2="30.55" y2="101.08"/></g></svg>