<svg xmlns="http://www.w3.org/2000/svg" viewBox="0 0 128 128"><defs><style>.cls-1{fill:#1f9967;}.cls-2{fill:#25ba81;}.cls-3{fill:none;stroke:#fff;stroke-linecap:round;stroke-linejoin:round;stroke-width:6px;}</style></defs><g id="Layer_1" data-name="Layer 1"><polyline class="cls-1" points="64 127 64.29 127 119.13 95.5 119.13 32.58 118.1 32.57 63.82 63.85"/><polyline class="cls-2" points="119.13 32.58 119.13 32.5 63.54 1 8.88 32.59 63.82 63.85"/><polyline class="cls-2" points="9.2 32.58 8.88 32.59 8.88 95.5 64 127 63.82 63.85"/><path d="M14,35.89s19-.56,25.29,0c6.73.61,16.85,4,19.13,5.92C61,44,66,43,68,41.56c2.54-1.77,10.62-5.11,16.14-5.11s29.82-.56,29.82-.56,2.76.83,1.32,3.19-1.25,2-1.72,4.07C113,45.52,108.63,66,97.59,67.92a53.13,53.13,0,0,1-15.8,0S71.08,66,65.34,48.81c-2.1-4.08-3.42.34-3.42.34s-4.24,14.7-14.8,18.44c-8.68,3.07-14.39.78-19.95-.81-5.94-1.69-10.62-9.08-12.72-23.1-.6-2.24-1.71-2.93-2.23-3.81C12,39.5,11,36.56,14,35.89Z"/><path d="M55.92,52.47c0,6.83-8.11,12.36-18.12,12.36S19.69,59.3,19.69,52.47s.07-14,18.11-12.36C53.93,41.55,55.92,45.64,55.92,52.47Z"/><path d="M71.35,52.48c0,6.82,8.11,12.36,18.11,12.36s18.11-5.54,18.11-12.36-.06-14-18.11-12.36C73.34,41.56,71.35,45.65,71.35,52.48Z"/></g><g id="Layer_3" data-name="Layer 3"><path class="cls-3" d="M37.44,83.75S65,105.66,89.93,81.89"/></g></svg>