<?xml version="1.0" encoding="UTF-8"?><svg xmlns="http://www.w3.org/2000/svg" xmlns:xlink="http://www.w3.org/1999/xlink" viewBox="0 0 128 128"><defs><style>.aa{fill:url(#v);}.ab{fill:url(#x);}.ac{fill:url(#w);}.ad{fill:url(#y);}.ae{fill:url(#a`);}.af{fill:#fff;}.ag{fill:#8c896c;}.ah{fill:#d6d6d6;}.ai{fill:#a8a69b;}.aj{fill:#125e3c;}.ak{fill:#178c5b;}.al{fill:#156d45;}.am{fill:#1f9967;}.an{fill:#63625c;}.ao{fill:#25ba81;}.ap{fill:none;stroke:#fff;stroke-linecap:round;stroke-linejoin:round;stroke-width:6px;}</style><linearGradient id="v" x1="12.87" y1="49.13" x2="47.46" y2="32.74" gradientTransform="matrix(1, 0, 0, 1, 0, 0)" gradientUnits="userSpaceOnUse"><stop offset="0" stop-color="#ffb239" stop-opacity=".7"/><stop offset="1" stop-color="#b32700" stop-opacity=".1"/></linearGradient><linearGradient id="w" x1="14.99" y1="25.73" x2="39.94" y2="13.91" xlink:href="#v"/><linearGradient id="x" x1="66.11" y1="19.02" x2="80.81" y2="12.06" gradientTransform="matrix(1, 0, 0, 1, 0, 0)" gradientUnits="userSpaceOnUse"><stop offset="0" stop-color="#b32700" stop-opacity=".1"/><stop offset="1" stop-color="#ffb239" stop-opacity=".7"/></linearGradient><linearGradient id="y" x1="84.73" y1="32.63" x2="119.25" y2="16.27" xlink:href="#x"/><linearGradient id="a`" x1="87.34" y1="50.98" x2="115.98" y2="37.41" xlink:href="#x"/></defs><g id="a"/><g id="b"/><g id="c"/><g id="d"/><g id="e"/><g id="f"/><g id="g"/><g id="h"/><g id="i"/><g id="j"/><g id="k"/><g id="l"/><g id="m"/><g id="n"/><g id="o"/><g id="p"/><g id="q"/><g id="r"/><g id="s"/><g id="t"/><g id="u"><g><polyline points="119.13 32.58 119.13 32.58 63.54 .8 8.87 32.59 63.85 73.39" style="fill:#156d45;"/><polyline points="119.13 32.58 119.13 32.58 63.54 .8 63.85 73.39 63.85 73.39" style="fill:#125e3c;"/></g><g><polyline points="64 126.99 64.29 127 119.13 95.5 119.13 32.58 76.92 62.34 63.85 65.82 63.85 73.39 63.85 73.39" style="fill:#1f9967;"/><polygon points="8.87 32.59 8.87 95.5 64 126.99 63.85 73.39 63.85 65.82 48.9 62.29 8.87 32.59" style="fill:#25ba81;"/></g><g><circle cx="39.93" cy="65.34" r="6" style="fill:#fff;"/><circle cx="88.07" cy="65.34" r="6" style="fill:#fff;"/></g><path d="M88,97.61s-20.49-2.94-48,0c-.3,.03,24-36.48,48,0Z" style="fill:none; stroke:#fff; stroke-linecap:round; stroke-linejoin:round; stroke-width:6px;"/><path d="M54.42,45.16c-.72,4.99-11.82,6.97-17.61,4.19-6.55-3.15-8.27-4.19-14.51-1.71-7.64,3.04-13.67,.08-17.81-2.73-6.64-4.51-6.01-15.67,2.5-19.39,5.25-2.29,6.81-1.54,11.16-5.71,2.63-2.53,2.05-2.75,4.94-5.52,3.12-2.99,8.45-5.09,13.73-5.3,4.93-.2,7.58,1.51,8.58-.64s2.12-3.37,5.15-5.77c3.92-3.11,11.12-3.27,16.45-1.03,3.15,1.32,4.05,2.76,6.88,3.87,5.06,1.98,5.85-3.79,14.79-1.08,8.13,2.46,6.81,5.65,7.95,7.52,2.39,3.94,7.25-.73,12.88,.88,.94,.27,6.81,1.95,8.58,6.19,1.44,3.43,.31,6.73,0,7.23-1.7,2.77-1.87,3.06-.85,4.03,.72,.69,.24-.06,4.57,1.85,3,1.33,5.87,4.52,6.01,7.96,.19,4.57-5.23,9.71-6.38,10.13-8.22,3.01-14.37,1.41-20.88-2.93-4.85-3.23-6.36-.17-13.65-.25-4.29-.05-3.86-1.85-7.87-1.57-2.16,.15-5.29-3.57-5.49-1.49-1.29,13.67,6.5,14.29,8.72,14.68l-5.35,3.77-13.09,3.48-14.93-3.52-2.34-1.67c4.36-2.3,8.44-1.28,7.86-15.47Z" style="fill:#a8a69b;"/><path d="M29.55,31.18c1.86,2.79,.73,7.21,1.38,7.26,.25,.02,.41-.52,.88-1.55,.68-1.46,1.69-3.64,3.2-4.86,1.71-1.38,3.67-1.21,3.65-1.44-.04-.29-2.7,.59-6.55-.33-2.23-.54-3.36-.79-6.08-3.51-1.35-1.35-4.03-2.01-4.06-1.89-.08,.3,5.32,2.96,7.57,6.31Z" style="fill:#63625c;"/><path d="M48.55,16.14c-.36,.05,1.96,6.13-.11,9.79-.79,1.4-4.34,4.35-4.34,4.4,0,.09,4.71-2.87,6.3-.99,.93,1.09,.77,3,.77,2.65,.08-6.55,2.36-7.91,3.2-10.16,.14-.39-1.41,3.06-2.73,2.93-1.79-.18-2.75-8.67-3.09-8.62Z" style="fill:#63625c;"/><path d="M69.31,10.25c-.52,2.24-.69,5.49-4.4,8.53-1.08,.88-3.04,1.66-3.04,1.66,0,0,3.65-1.38,6.96,.38,1.79,.95,3.18,1.93,3.49,1.7,.32-.24-1.28-.93-2.44-4.73-1.28-4.17-.44-8.13-.58-7.54Z" style="fill:#63625c;"/><path d="M91.23,18.83c-.58,.55-1.55,2.23-3.89,3.4-1.82,.9-2.15,.77-4.18,1.06,5.59,.27,7.29,3.72,9.7,6.17-1.82-3.28-1.87-5.3-2.05-6.32-.44-2.47,1.12-4.97,.42-4.3Z" style="fill:#63625c;"/><path d="M102.64,33.64c-.8,0-2.67,.55-5.16-.23-1.94-.6-1.83-.75-1.83-.75,1.43,3.5,1.84,3.45,1.34,8.15,.94-3.63,1.81-3.48,2.38-4.35,1.39-2.09,4.24-2.82,3.27-2.82Z" style="fill:#63625c;"/><path d="M38.66,9.77c.03-.13,2.49-.15,5.16,.83,.85,.31,1.63,.3,2.22,.17,.86-1.06,.98-2.88,1.21-2.85,.14,.02-.12,1.39-.08,2.73,.06,2.19,.5,2.84,.19,2.96-.29,.1-.59-.76-1.63-1.46-.79-.54-1.93-1.02-2.79-1.38-2.4-1-4.31-.87-4.28-1Z" style="fill:#63625c;"/><path d="M67.36,2.9s.61,1.01,1.76,1.98c.6,.5,1.21,1.01,2.09,1.19,1.48,.29,2.78-.57,2.84-.43,.04,.09-.49,.34-1.15,.82-1.4,1.03-1.62,1.81-2.18,1.74-.31-.04-.6-.5-1.16-1.41-.51-.83-.61-1.15-1.1-2.04-.61-1.1-1.13-1.83-1.1-1.85Z" style="fill:#63625c;"/><path d="M95.86,12.08s.07,.76,.57,1.53c.18,.28,.48,.73,1.05,.99,.49,.22,.94,.2,1.31,.18,.82-.05,1.36-.33,1.38-.28,.02,.06-.55,.41-1.26,.71-.86,.36-1.27,.36-1.64,.81-.17,.2-.22,.37-.32,.36-.17-.03-.11-.62-.33-1.51-.14-.54-.21-.51-.43-1.22-.27-.89-.35-1.57-.33-1.57Z" style="fill:#63625c;"/><path d="M114.38,29.27s-.39,.36-.79,.99c-.23,.35-.26,.51-.25,.64,.03,.34,.33,.57,.38,.6,.22,.16,.46,.18,.46,.19,0,.01-.61-.21-1.3-.22-.82-.02-1.34,.26-1.38,.17-.05-.11,.64-.31,1.33-1.05,.32-.34,.49-.64,.99-1.01,.29-.21,.54-.33,.57-.3Z" style="fill:#63625c;"/><path d="M94.98,45.44c.06,.12,.61-.21,1.52-.21,.55,0,.98,.12,1.21,.18,.62,.17,1.05,.43,1.31,.58,1.75,1.04,2.61,1.74,2.7,1.64,.09-.1-.74-.73-1.36-1.87-1.08-1.98-.5-3.67-1.24-3.92-.55-.19-1.34,.58-1.77,.99-.58,.57-.53,.82-1.22,1.52-.66,.67-1.23,.97-1.17,1.08Z" style="fill:#63625c;"/><path d="M12.82,23.9s.33-.07,.78-.18c.62-.16,1.07-.36,1.37-.5,.5-.23,1.74-.79,2.8-1.97,.82-.92,1.15-1.78,1.22-1.75,.08,.04-.51,.97-.78,2.37-.31,1.63,.1,2.48-.37,2.76-.42,.25-.85-.37-2.13-.69-1.52-.38-2.88,0-2.88-.06Z" style="fill:#63625c;"/><path d="M22.44,46.75c.02,.05,1.88-.2,4.91-1.49,.88-.37,1.39-.49,2.16-.41,.68,.06,1.11,.05,1.93,.86s1.59,1.46,1.61,1.44c.02-.02-1.68-1.21-2.51-3.24-.74-1.82-.44-3.51-.69-3.53-.25-.02-.11,1.76-1.28,3.21-.62,.76-1.41,1.14-3,1.9-1.81,.86-3.14,1.21-3.13,1.25Z" style="fill:#63625c;"/><path d="M8.27,25.5c-1.19,.29-2.33,.66-3.51,1.68-1.38,1.2-3.01,3.17-3.88,5.91-.9,2.82-.36,5.35-.11,6.27,.68,2.57,3.03,4.86,3.03,4.86,0,0-1.26-2.43-1.87-6.16-.54-3.31,.5-8.81,6.32-11.13,1.92-.76,5.05-1.22,5.05-1.22,0,0-2.17-.91-5.04-.22Z" style="fill:#d6d6d6;"/><path d="M21.64,19.51s.22-4.12,4.11-6.81c.55-.38,3.46-2.24,7.08-2.84,1.46-.24,3.99-.88,8.34,1.16,1.32,.62,3.26,2.76,3.26,2.76,0,0-2.7-1.4-5.25-2.32-1.1-.4-3.43-.91-5.88-.39-2.6,.55-3.43,.91-5.74,2.21-.93,.52-2.19,.98-3.87,3.18s-2.05,3.05-2.05,3.05Z" style="fill:#d6d6d6;"/><path d="M47.49,9.1s-.31-2.83,1.71-4.97c1.87-1.98,4.7-2.92,5.19-3.05,2.11-.57,3.4-.78,4.16-.83,.64-.04,4.14-.25,7.26,1.41,1.69,.9,1.55,2.42,1.55,2.42,0,0-2.52-2.56-6.52-2.48-6.49,.13-8.85,2.15-10.09,3.14-2.41,1.92-3.26,4.36-3.26,4.36Z" style="fill:#d6d6d6;"/><path d="M76.11,7.18s1.62-.43,3.78-1.96c3.36-2.38,10.39-.56,12.31,1.09,2.77,2.39,2.92,3.75,2.97,4.29,.23,2.37-.56,5-.56,5,0,0-.17-4.08-2.24-7.1-1.15-1.67-4.88-2.76-7.4-3.12-2.89-.42-8.87,1.8-8.87,1.8Z" style="fill:#d6d6d6;"/><path d="M102.21,13.98s2.34-.62,4.47-.88c2.82-.34,5.97,1.16,6.57,1.52,.63,.37,3.32,1.8,4.42,4.72,.18,.48,1.07,2.95,.17,5.63-.32,.97-1.61,3.26-1.61,3.26,0,0,.98-4.01,.5-6.71-.37-2.09-2.19-6-8.26-7.48-2.85-.7-6.27-.06-6.27-.06Z" style="fill:#d6d6d6;"/><path d="M106.41,48.83c-.42-.14,2.47,2.05,6.52,2.35,1.04,.08,6.72-.41,9.41-2.32,2.74-1.95,4.22-5.24,4.48-6.19,1.04-3.88-.97-6.98-1.32-6.95-.19,.02,.95,2,.58,3.96-.28,1.44-.85,3.61-2.54,5.69-2.14,2.63-5.76,4.21-6.6,4.36-4.29,.81-7.15,.19-10.52-.91Z" style="fill:#d6d6d6;"/><path d="M43.33,30.85s4.1-.09,6.04,1.22c1.08,.73,2.73,1.89,3.65,4.32,.75,1.99,.22,5.42,.22,5.42,0,0-.54-4.37-2.63-7.03-2.72-3.48-7.27-3.93-7.27-3.93Z" style="fill:#d6d6d6;"/><path d="M70.19,32.7s1.23-4.76,3.44-6.52c1.23-.98,3.16-2.47,6.38-2.66,2.64-.15,6.59,1.69,6.59,1.69,0,0-5.42-.94-9.3,.52-5.06,1.9-7.1,6.98-7.1,6.98Z" style="fill:#d6d6d6;"/><path d="M54.48,48.25c.28-.5,.2,4.01,1.61,3.65,1.1-.28,.81-3.57,1.94-3.96,1.14-.4,1.08,3.65,2.7,3.74,2.08,.12,2.05-4.32,3.76-3.99,1.49,.29,.94,3.6,2.31,3.6,1.31,0,1.66-3.61,2.95-3.48,1.21,.12,1.52,3.34,2.61,3.2,1-.13,.91-3.44,1.06-3.18,.08,.15,0,.43,.11,1.38,0,0,.31,1.22,.53,2.21,.43,1.98,1.64,4.12,2.05,4.64,.1,.13-2.23-1.9-2.51-1.85-.26,.04-.91,2.48-1.16,2.5-.26,.03-.49-2.73-.77-2.72-.29,.01-1.43,2.65-1.71,2.66-.3,.01-.12-4.14-.39-4.13-.27,.02-1.36,3.92-1.62,3.93-.25,.01-.6-3.95-.83-3.93-.23,.02-1.3,3.55-1.59,3.6-.31,.05-1.32-3.66-1.62-3.6-.28,.05-.76,3.8-1.05,3.85-.3,.06-.96-3.27-1.25-3.22-.28,.05-1.23,3.67-1.48,3.7-.26,.04-.76-4-1.06-3.98-.29,.03-1.91,4.04-2.26,4.09-.38,.06-.79-3.75-.99-3.76-.24,0-3.38,4.19-3.53,4.18-.11,0,.64-.88,1.33-2.46,.47-1.08,.46-1.61,.64-3.05,.23-1.78,.05-3.33,.22-3.63Z" style="fill:#8c896c;"/><path d="M51.97,44.43c-.12,.35,3.66,2.75,8.51,3.15,3.81,.31,6.84-.73,9.06-1.49,3.01-1.03,6.35-2.75,6.19-3.26-.07-.22-.82-.29-.99-.17q-.97,.69-2.49,1.35c-2.34,1.02-8.04,1.92-11.05,1.96-5.57,.08-9.11-1.88-9.22-1.55Z" style="fill:#63625c;"/><path d="M46.56,60.63l2.25,1.6,15.01,3.67,13.1-3.56,5.35-3.77s-1.58,.01-3.56-.95c-1.18,1.73-7.51,3.46-10.21,3.76-3.3,.37-11.05,0-13.28-.55-2.24-.55-4.72-1-5.22-1.71-.63,.36-3.42,1.52-3.42,1.52Z" style="fill:#8c896c;"/><polygon points="6.43 40.39 11.18 46.25 17.81 46.25 14.16 40.82 6.43 40.39" style="fill:#25ba81;"/><polygon points="16.59 9.57 8.87 16.37 11.62 22.55 12.82 16.75 17.81 15.61 16.59 9.57" style="fill:#25ba81;"/><polygon points="74.06 2.9 70.73 8.21 75.54 13.04 78.39 7.43 74.06 2.9" style="fill:#1f9967;"/><polygon points="119.89 44.73 116.02 49.08 108.95 47.15 108.95 55.49 118.25 57.4 123.87 51.19 119.89 44.73" style="fill:#1f9967;"/><polygon points="116.41 9.57 123.09 12.95 122.21 22.55 111.49 22.11 116.41 9.57" style="fill:#1f9967;"/><polygon points="16.59 9.57 17.53 9.57 18.72 15.88 13.31 17.15 12.37 22.43 11.62 22.55 12.82 16.75 17.81 15.61 16.59 9.57" style="fill:#1f9967;"/><polygon points="6.43 40.39 7.18 40.19 14.61 40.29 18.22 45.79 17.81 46.25 14.16 40.82 6.43 40.39" style="fill:#1f9967;"/><polygon points="74.06 2.9 73.6 3.09 70.01 8.43 75.15 13.45 75.54 13.04 70.73 8.21 74.06 2.9" style="fill:#25ba81;"/><polygon points="116.41 9.57 115.69 10.03 110.55 22.55 121.91 22.95 122.21 22.55 111.49 22.11 116.41 9.57" style="fill:#25ba81;"/><polygon points="119.89 44.73 119.13 44.94 115.86 48.64 108.43 46.68 108.43 54.6 108.95 55.49 108.95 47.15 116.02 49.08 119.89 44.73" style="fill:#125e3c;"/><polygon points="108.43 54.6 108.95 55.49 118.25 57.4 119.13 56.43 119.13 57.4 118.29 58.22 108.7 56.1 108.43 54.6" style="fill:#178c5b;"/><polygon points="7.18 40.19 19.52 40.19 48.52 40.49 51.55 42.45 18.22 45.79 14.61 40.29 7.18 40.19" style="fill:url(#v);"/><polygon points="17.53 9.57 45.42 26.26 42.06 27.14 12.37 22.43 13.31 17.15 18.72 15.88 17.53 9.57" style="fill:url(#w);"/><polygon points="70.01 8.43 67.9 24.11 69.64 26.1 78.39 7.43 75.54 13.04 75.15 13.45 70.01 8.43" style="fill:url(#x);"/><polygon points="115.69 10.03 81.46 28.81 85.41 29.46 121.91 22.95 110.55 22.55 115.69 10.03" style="fill:url(#y);"/><polygon points="119.13 44.94 84.39 39.14 81.08 40.33 108.43 54.6 108.43 46.68 115.86 48.64 119.13 44.94" style="fill:url(#a`);"/></g></svg>