<svg xmlns="http://www.w3.org/2000/svg" viewBox="0 0 128 128"><defs><style>.cls-1{fill:#1f9967;}.cls-2{fill:#25ba81;}.cls-3,.cls-6{fill:#fff;}.cls-4,.cls-5,.cls-7{fill:none;}.cls-4,.cls-5{stroke:#fff;}.cls-4,.cls-5,.cls-6,.cls-7{stroke-linecap:round;stroke-linejoin:round;}.cls-4{stroke-width:6px;}.cls-5,.cls-7{stroke-width:3px;}.cls-6{fill-opacity:0.2;stroke-width:4px;}.cls-6,.cls-7{stroke:#fbde76;}</style></defs><g id="Layer_1" data-name="Layer 1"><polyline class="cls-1" points="59.21 126.92 59.49 126.95 116.82 99.76 121.76 36.83 120.74 36.74 63.99 63.76"/><polyline class="cls-2" points="121.76 36.83 121.77 36.75 68.65 0.88 11.49 28.17 63.99 63.76"/><polyline class="cls-2" points="11.82 28.19 11.49 28.17 6.55 91.09 59.21 126.92 63.99 63.76"/></g><g id="Layer_2" data-name="Layer 2"><circle class="cls-3" cx="42.38" cy="49.17" r="6.02"/><circle class="cls-3" cx="86.52" cy="52.96" r="6.02"/></g><g id="Layer_3" data-name="Layer 3"><path class="cls-4" d="M46.19,81.87S49.74,69,84.32,85.79"/><path class="cls-5" d="M22.7,40.85s-1-11,30.59-1.13"/><circle class="cls-6" cx="86.21" cy="52.36" r="16.36"/><path class="cls-7" d="M111.16,127c-1.84-2.46-12.42-17-8.61-35.94,2-10.13,11.74-13.4,11.48-21.66s-4.16-12.88-11.46-17"/></g></svg>