<svg xmlns="http://www.w3.org/2000/svg" viewBox="0 0 128 128"><defs><style>.cls-1{fill:#1f9967;}.cls-2{fill:#25ba81;}.cls-3{fill:#fff;}.cls-4{fill:none;stroke:#fff;stroke-linecap:round;stroke-linejoin:round;stroke-width:6px;}.cls-5{fill:#bf9d80;}.cls-6{fill:#856046;}</style></defs><g id="Layer_1" data-name="Layer 1"><polyline class="cls-1" points="65 124.38 65.24 124.39 111.72 97.69 111.72 44.37 110.84 44.37 64.85 70.87"/><polyline class="cls-2" points="111.72 44.37 111.72 44.31 64.61 17.61 18.29 44.38 64.85 70.87"/><polyline class="cls-2" points="18.56 44.38 18.29 44.38 18.29 97.69 65 124.38 64.85 70.87"/></g><g id="Layer_2" data-name="Layer 2"><circle class="cls-3" cx="44.11" cy="59.45" r="5.08"/><circle class="cls-3" cx="84.91" cy="59.45" r="5.08"/></g><g id="Layer_3" data-name="Layer 3"><path class="cls-4" d="M73.47,93.12c0,6.68-4,10.08-8.89,10.08s-8.9-3.4-8.9-10.08,4-9.41,8.9-9.41S73.47,86.44,73.47,93.12Z"/><path class="cls-5" d="M28.36,32.78S38.52-6,50.53,2.25C60.86,9.36,68.85,9.92,79,2.66,91-6,99.64,34.72,99.64,34.72S49.76,40.66,28.36,32.78Z"/><path class="cls-6" d="M28.36,32.78c28.37,7.52,53.11,7.28,71.1,1C97.88,26,95.93,21.6,94.55,17.31c-21.34,7.92-39.69,8-60.89,0A62.54,62.54,0,0,0,28.36,32.78Z"/><path class="cls-5" d="M2.1,31c31.54,16.8,88.66,18.56,122.41,0,7.2-4.22.95-10.38-3.3-7.93C86.05,43.3,40.32,39.35,5.73,23.72-1.65,22.79-.29,29.72,2.1,31Z"/></g></svg>