<svg xmlns="http://www.w3.org/2000/svg" viewBox="0 0 128 128"><defs><style>.cls-1{fill:#1f9967;}.cls-2{fill:#25ba81;}.cls-3{fill:#fff;}.cls-4{fill:none;stroke:#fff;stroke-linecap:round;stroke-linejoin:round;stroke-width:6px;}.cls-5{fill:#ff67ac;}</style></defs><g id="Layer_1" data-name="Layer 1"><polyline class="cls-1" points="65 127 65.29 127 120.13 95.5 120.13 32.58 119.1 32.57 64.82 63.85"/><polyline class="cls-2" points="120.13 32.58 120.13 32.5 64.54 1 9.88 32.59 64.82 63.85"/><polyline class="cls-2" points="10.2 32.58 9.88 32.59 9.88 95.5 65 127 64.82 63.85"/></g><g id="Layer_2" data-name="Layer 2"><circle class="cls-3" cx="40.93" cy="51.2" r="6"/><circle class="cls-3" cx="89.07" cy="51.2" r="6"/></g><g id="Layer_3" data-name="Layer 3"><path class="cls-4" d="M41,78.3s20,6.7,48,0C89.29,78.23,65,121.77,41,78.3Z"/><path class="cls-5" d="M37.56,38.52C20.78,31.6,17.3,45.38,21.27,51.29c5.62,8.36,24.37,16.39,24.37,16.39s12-16.53,12.47-26.59C58.44,34.54,49.94,23.53,37.56,38.52Z"/><path class="cls-5" d="M90.22,38.52c16.78-6.92,20.26,6.86,16.29,12.77-5.62,8.36-24.37,16.39-24.37,16.39s-12-16.53-12.47-26.59C69.33,34.54,77.84,23.53,90.22,38.52Z"/></g></svg>