<svg xmlns="http://www.w3.org/2000/svg" xmlns:xlink="http://www.w3.org/1999/xlink" viewBox="0 0 128 128"><defs><style>.cls-1,.cls-5{fill:none;}.cls-2{fill:url(#linear-gradient);}.cls-3{fill:#1f9967;}.cls-4{fill:#25ba81;}.cls-5{stroke:#fff;stroke-linecap:round;stroke-linejoin:round;stroke-width:6px;}.cls-6{fill:url(#linear-gradient-2);}.cls-7{clip-path:url(#clip-path);}</style><linearGradient id="linear-gradient" x1="63.82" y1="28.55" x2="63.82" y2="-43.04" gradientUnits="userSpaceOnUse"><stop offset="0" stop-color="#fbde76"/><stop offset="1" stop-color="#fbc053"/></linearGradient><linearGradient id="linear-gradient-2" x1="63.86" y1="28.26" x2="63.7" y2="-7.54" xlink:href="#linear-gradient"/><clipPath id="clip-path"><rect class="cls-1" y="-105.93" width="128" height="95.93"/></clipPath></defs><g id="Layer_7" data-name="Layer 7"><path class="cls-2" d="M63.82,4.21C29.5,4.21,1.68,10.75,1.68,18.82S29.5,33.43,63.82,33.43,126,26.89,126,18.82,98.14,4.21,63.82,4.21Zm0,23.28c-26.47,0-47.93-4.4-47.93-9.83S37.35,7.84,63.82,7.84s47.94,4.4,47.94,9.82S90.3,27.49,63.82,27.49Z"/></g><g id="Layer_1" data-name="Layer 1"><polyline class="cls-3" points="64 127 64.29 127 119.13 95.5 119.13 32.58 118.1 32.57 63.82 63.85"/><polyline class="cls-4" points="119.13 32.58 119.13 32.5 63.54 1 8.88 32.59 63.82 63.85"/><polyline class="cls-4" points="9.2 32.58 8.88 32.59 8.88 95.5 64 127 63.82 63.85"/></g><g id="Layer_11" data-name="Layer 11"><path class="cls-5" d="M31.83,57.2s7.68-25.1,15,0"/><path class="cls-5" d="M80.42,57.2s7.74-25.1,15.16,0"/></g><g id="Layer_3" data-name="Layer 3"><path class="cls-5" d="M37.58,83.7s27.53,21.91,52.49-1.86"/><path class="cls-6" d="M63.82,27.82C39.26,27.82,19,24,16.23,19.15H1.68c0,8.07,27.82,14.61,62.14,14.61S126,27.22,126,19.15H111.42C108.63,24,88.39,27.82,63.82,27.82Z"/></g><g id="Layer_18" data-name="Layer 18"><g class="cls-7"><polyline class="cls-3" points="77.57 2.01 77.81 2.05 127.54 -17.34 135.46 -69.85 134.6 -69.98 85.37 -50.71"/><polyline class="cls-3" points="43.72 -83.68 43.45 -83.71 35.53 -31.21 77.57 2.01 85.37 -50.71"/><polyline class="cls-3" points="77.72 1.05 77.95 1.09 126.78 -17.94 134.55 -69.5 133.71 -69.63 85.37 -50.71"/><polyline class="cls-4" points="44.48 -83.08 44.21 -83.11 36.44 -31.56 77.72 1.05 85.37 -50.71"/></g></g></svg>