<svg xmlns="http://www.w3.org/2000/svg" viewBox="0 0 128 128"><defs><style>.cls-1{fill:#0093ff;}.cls-2{fill:#1f9967;}.cls-3{fill:#25ba81;}.cls-4{fill:#005cff;}.cls-5,.cls-6{fill:none;stroke:#fff;stroke-linecap:round;}.cls-5{stroke-miterlimit:10;stroke-width:3px;}.cls-6{stroke-linejoin:round;stroke-width:6px;}</style></defs><g id="Layer_7" data-name="Layer 7"><path class="cls-1" d="M29,106v4a2.94,2.94,0,0,0,3,3c3,0,2,2,2,2a4.83,4.83,0,0,0,0,4c1,2,3,1,3-1s-1-4,1-3,1,2,3,2,2.23,1.53,3,2c1.29.8,3,0,6-1C47,116,29,106,29,106Z"/><path class="cls-1" d="M79,118l22-12v5a2,2,0,0,1-2,2c-2,0-2-2-3-1s-2,1.84-2,5c0,2,1,5-1,5s-1-3-1-5c0-2.24-4,0-4,1s-1.76,3.86-3,2c-2-3-5-3-6-2"/></g><g id="Layer_1" data-name="Layer 1"><polyline class="cls-2" points="65 127 65.29 127 120.13 95.5 120.13 32.58 119.1 32.57 64.82 63.85"/><polyline class="cls-3" points="120.13 32.58 120.13 32.5 64.54 1 9.88 32.59 64.82 63.85"/><polyline class="cls-3" points="10.2 32.58 9.88 32.59 9.88 95.5 65 127 64.82 63.85"/></g><g id="Layer_6" data-name="Layer 6"><path class="cls-4" d="M28,106V46s11-4.39,20.66-.8c0-.61,0,72.8,0,72.8Z"/><path class="cls-4" d="M102.67,106V46s-11-4.39-20.67-.8c0-.61,0,72.8,0,72.8Z"/></g><g id="Layer_2" data-name="Layer 2"><path class="cls-5" d="M26,46a36.59,36.59,0,0,1,25,0"/><path class="cls-5" d="M80,46a36.59,36.59,0,0,1,25,0"/></g><g id="Layer_3" data-name="Layer 3"><path class="cls-6" d="M75,90.1C75,98,70.3,102,64.5,102S54,98,54,90.1,58.7,79,64.5,79,75,82.22,75,90.1Z"/></g></svg>