<?xml version="1.0" encoding="UTF-8"?><svg xmlns="http://www.w3.org/2000/svg" xmlns:xlink="http://www.w3.org/1999/xlink" viewBox="0 0 128 128"><defs><style>.w{fill:url(#i);}.x{fill:#fff;}.y{fill:#ff67ac;}.a`{fill:#1f9967;}.aa{fill:#25ba81;}.ab{stroke-width:3px;}.ab,.ac{fill:none;stroke:#fff;stroke-linecap:round;stroke-linejoin:round;}.ac{stroke-width:6px;}</style><linearGradient id="i" x1="49.51" y1="103.88" x2="97.26" y2="93.72" gradientTransform="matrix(1, 0, 0, 1, 0, 0)" gradientUnits="userSpaceOnUse"><stop offset="0" stop-color="#25ba81"/><stop offset=".57" stop-color="#25ba81"/><stop offset=".64" stop-color="#25ba81"/><stop offset=".82" stop-color="#21a570"/><stop offset=".97" stop-color="#1f9967"/></linearGradient></defs><g id="a"/><g id="b"/><g id="c"/><g id="d"><g><polyline points="70.62 126.79 70.91 126.76 122.4 89.7 115.95 26.91 114.92 27.01 63.97 63.79" style="fill:#1f9967;"/><polyline points="115.95 26.91 115.94 26.83 57.24 1.09 5.92 38.23 63.97 63.79" style="fill:#25ba81;"/><polyline points="6.25 38.19 5.92 38.23 12.38 101.01 70.62 126.79 63.97 63.79" style="fill:#25ba81;"/></g></g><g id="e"/><g id="f"><g><path d="M52.25,49.53c1,2.57-2.3,3.36-6.11,4.51-3.81,1.15-6.69,2.23-7.7-.34-1-2.57,3.88-6.04,7.7-7.19,3.81-1.15,5.11,.44,6.11,3.01Z" style="fill:#fff;"/><path d="M88.73,49.33c-.06,2.76-3.21,2.41-7.18,2-3.96-.4-7.24-.71-7.18-3.46,.06-2.76,1.48-4.68,5.44-4.28,3.96,.4,8.98,2.98,8.91,5.74Z" style="fill:#fff;"/></g></g><g id="g"/><g id="h"><path d="M38.02,82.16c26.23-10.56,31.47,10.94,25.21,20.1-8.86,12.94-38.15,25.2-38.15,25.2,0,0-18.39-25.89-19.07-41.55-.44-10.21,12.94-27.25,32.02-3.75Z" style="fill:#ff67ac;"/><path d="M50.4,69.49s10.54,12.82,27.18-2.43" style="fill:none; stroke:#fff; stroke-linecap:round; stroke-linejoin:round; stroke-width:6px;"/><path d="M27.64,44.54s17.54,.62,23.74-5.74" style="fill:none; stroke:#fff; stroke-linecap:round; stroke-linejoin:round; stroke-width:3px;"/><path d="M97,40.54s-17.54,.62-23.74-5.74" style="fill:none; stroke:#fff; stroke-linecap:round; stroke-linejoin:round; stroke-width:3px;"/><path d="M95.29,84.03c-7.69,5.24-14.57,6.62-18.23,7.07-6.19,.76-12-.3-17.57-1.1,0,0-1.76-.55-4.14-.66-.58-.03-1.68,.37-2.21,.83-.72,.62-.8,1.82-.83,2.23-.13,1.65,1.18,1.3,1.18,1.3,0,0-2.09,.21-2.67,2.14-.38,1.28,.88,2.58,.88,2.58,0,0-1.68-.29-2.4,1.27-1.07,2.33,.42,2.96,.42,2.96,0,0-1.12-.62-1.93,.83-1.05,1.88,.09,3.23,.44,3.7,1.13,1.49,6.88,3.79,17.39,4.2,14.17,.54,26.52-4.47,33.54-8.56" style="fill:#1f9967;"/><path d="M95.29,84.51c-7.69,5.24-14.57,6.62-18.23,7.07-6.19,.76-12-.3-17.57-1.1,0,0-1.76-.55-4.14-.66-.58-.03-1.68,.37-2.21,.83-.72,.62-.81,1.75-.77,2.15,.12,1.14,1.12,1.37,1.12,1.37,0,0-2.09,.21-2.67,2.14-.38,1.28,.88,2.58,.88,2.58,0,0-1.68-.29-2.4,1.27-1.07,2.33,.42,2.96,.42,2.96,0,0-1.12-.62-1.93,.83-1.05,1.88,.09,3.23,.44,3.7,1.13,1.49,6.88,3.32,17.39,3.72,14.17,.54,26.52-3.99,33.54-8.08" style="fill:url(#i);"/><path d="M52.4,94.5c.48-.17,12.83,2.54,16.23,1.71-6.26,.19-14.74-2.33-16.06-2.78-.04-.01,.08,.14,.26,.43,.14,.23-.61,.7-.43,.64Z" style="fill:#1f9967;"/><path d="M50.44,99.05s11.48,1.89,17.58,1.94c-5.15-.11-16.79-2.38-16.95-3.02,0,0,.22,.49,.15,.64-.09,.21-.79,.43-.79,.43Z" style="fill:#1f9967;"/><path d="M48.94,103.01c1.02,.44,9.85,3.01,18.17,3.01-7.28-.14-16.87-2.84-18.04-3.59-.06-.04,.21,.33,.18,.45-.03,.1-.41,.1-.31,.14Z" style="fill:#1f9967;"/><g><path d="M8.72,79.58c1.65,1.33,1.81,1.36,4.65,2.11,.65,.17,.83,.52,.95,.96,.58,2.02,.25,2.16-.23,2.77-.78,1-1.51,.42-1.51,.42,0,0,.52,.48,.75,1.06,.47,.69,.92,2.71-.26,3.38-1.58,.9-1.46,.26-1.46,.26,0,0,.27,.37,.53,.79,.5,.79,.81,3.01-.32,3.83-.87,.64-1.42,.57-1.42,.57,0,0,.02,.08,.55,1.15s.28,2.82-.95,3.39-3.57-1.38-3.8-1.52c-2.32-1.36-2.95-5.89-3.2-7.63-1.04-7.18,1.97-12.92,3.18-15.69l.44-.85,1.38,1.62s-.39,2.31,.72,3.39Z" style="fill:#1f9967;"/><path d="M8.12,78.93c.69,1.39,2.29,2.25,5.14,2.99,.65,.17,.78,.57,1.01,1.17,.37,.9,.01,2.2-.71,2.62-.65,.38-1.19,.42-1.19,.42,0,0,.58,.46,.98,1.26,.73,.96,.15,2.55-.77,2.98-.88,.41-1.64,.43-1.64,.43,0,0,.81,.63,1.2,1.35,.59,1.1,.08,2.73-.87,3.16-.78,.36-1.66,.31-1.66,.31,0,0,.52,.73,.97,1.84,.66,1.61-.03,2.45-.84,2.82-1.25,.58-3.85-.78-4.07-.92-2.32-1.36-2.95-5.89-3.2-7.63-1.04-7.18,1.33-13.57,2.54-16.34l3.84-8.88,.94,8.78s-2.23,2.66-1.65,3.63Z" style="fill:#25ba81;"/><path d="M13.26,85.95s-3.07-.35-6.14-2.75c-.08,.66,4.57,3.33,5.94,3.55-.14-.23-.34-.31-.48-.52,.42-.06,.69-.29,.69-.29Z" style="fill:#1f9967;"/><path d="M12.05,90.72s-4.45-.87-5.7-2.4c.38,.98,3.93,2.72,5.22,3.04,.01-.16-.27-.34-.44-.51,.39,.09,.93-.13,.93-.13Z" style="fill:#1f9967;"/><path d="M10.68,95.61c-.66-.31-3.54-.38-5.15-2.98,.59,1.21,1.43,2.3,4.59,3.71,.15-.14-.09-.38-.52-.73,.45,.19,.8,.2,1.07,0Z" style="fill:#1f9967;"/></g></g><g id="j"/><g id="k"/><g id="l"/><g id="m"/><g id="n"/><g id="o"/><g id="p"/><g id="q"/><g id="r"/><g id="s"/><g id="t"/><g id="u"/><g id="v"/></svg>