<svg xmlns="http://www.w3.org/2000/svg" xmlns:xlink="http://www.w3.org/1999/xlink" viewBox="0 0 128 128"><defs><style>.cls-1,.cls-10,.cls-9{fill:none;}.cls-2,.cls-3{fill:#14a5f2;}.cls-3,.cls-4{stroke:#1f9967;}.cls-10,.cls-3,.cls-4{stroke-miterlimit:10;}.cls-4,.cls-7{fill:#25ba81;}.cls-5{clip-path:url(#clip-path);}.cls-6{fill:#1f9967;}.cls-11,.cls-8{fill:#fff;}.cls-10,.cls-9{stroke:#fff;stroke-width:6px;}.cls-10,.cls-11,.cls-9{stroke-linecap:round;}.cls-11,.cls-9{stroke-linejoin:round;}.cls-11{stroke:#44758e;}</style><clipPath id="clip-path"><rect class="cls-1" y="32.07" width="128" height="95.93"/></clipPath></defs><g id="Layer_16" data-name="Layer 16"><rect class="cls-2" width="128" height="128"/><path class="cls-3" d="M15.43,75.93c-.47,2.78-.37,7.23,3.65,11.88A28.13,28.13,0,0,0,39.46,98.07a37.17,37.17,0,0,0,15.41-2.45"/><path class="cls-4" d="M41.6,102.13c-.78,0-1.58,0-2.39-.07A32,32,0,0,1,16.06,90.43c-4.94-5.7-5.21-11.4-4.57-15.17l7.89,1.33A10.21,10.21,0,0,0,22.1,85.2a24,24,0,0,0,17.61,8.87,33.1,33.1,0,0,0,13.72-2.18l2.89,7.46A41.2,41.2,0,0,1,41.6,102.13Z"/></g><g id="Layer_18" data-name="Layer 18"><g class="cls-5"><polyline class="cls-6" points="77.57 140.01 77.81 140.05 127.54 120.66 135.46 68.15 134.6 68.02 85.37 87.29"/><polyline class="cls-6" points="135.46 68.15 135.47 68.09 93.05 34.8 43.45 54.29 85.37 87.29"/><polyline class="cls-6" points="43.72 54.32 43.45 54.29 35.53 106.79 77.57 140.01 85.37 87.29"/><polyline class="cls-6" points="77.72 139.06 77.95 139.09 126.78 120.06 134.55 68.5 133.71 68.37 85.37 87.29"/><polyline class="cls-7" points="134.55 68.5 134.56 68.44 92.91 35.76 44.21 54.89 85.37 87.29"/><polyline class="cls-7" points="44.48 54.92 44.21 54.89 36.44 106.44 77.72 139.06 85.37 87.29"/><circle class="cls-8" cx="65.36" cy="74.98" r="4.97"/><circle class="cls-8" cx="104.8" cy="80.93" r="4.97"/><path class="cls-9" d="M105.57,118.37C85,88.92,50.88,98.65,60.82,114.22,70.6,110.08,79.74,109.08,105.57,118.37Z"/><polyline class="cls-10" points="62.31 54.61 87.35 75.15 117.33 62.91"/><path class="cls-4" d="M5.35,77.75c.3,2.68,4.33,2.41,9.28,3.31,2.94.54,5.14,1,7.95.34a18,18,0,0,0,5.14-2.32,70.89,70.89,0,0,0,6-10.11c.36-1.62.85-4.52-.11-6.47s-1.72-.72-2.61-1.16c-1.62-.78-.35-2.91-1.26-5.46-.12-.35-1-2.81-3-3.48s-2.57,1-5.31,1-3.17-1.7-6-1.49a8,8,0,0,0-4,1.49A6.41,6.41,0,0,0,9,56.21c-.35.89-.19,1.26-.66,1.82-.68.82-1.52.63-2.65,1.16-1.56.73-1.75.91-1.91,1.61a18.53,18.53,0,0,0-.24,6.43C4.29,73.13,5.1,75.51,5.35,77.75Z"/><path class="cls-4" d="M12.14,65.9a3.31,3.31,0,0,0-2.73,1.16,3.15,3.15,0,0,0-.17,3.48,4.08,4.08,0,0,0,3.15,1.58c3,.4,7.06-1.14,8.2-4.4.13-.34,1.1-1.94.17-3.23C18.4,61.25,13.83,59.22,8.33,58"/><path class="cls-4" d="M28.55,69.22a5,5,0,0,1-3.81.08,4.85,4.85,0,0,1-2.16-1.91,3.86,3.86,0,0,1-.83-3,4,4,0,0,1,2.49-2.32,9.56,9.56,0,0,1,2.82-.58c1.1-.14,3.28-.13,3.91-.17"/><path class="cls-4" d="M16,79.41a7.5,7.5,0,0,0,6-8.21"/><path class="cls-4" d="M20.29,53.28a12.19,12.19,0,0,1,4.2,4.09,9.51,9.51,0,0,1,.76,4.41"/></g><path class="cls-11" d="M6.42,34.12c4,2.25,10,.68,13.11-.14,1.86-.48,3.85-1.17,5.19-.13,1,.8,2.52.49,3.64,1.14a4.43,4.43,0,0,0,4,.77,37.61,37.61,0,0,1,4.5-.55c5.74-.88,7.52.35,16.12-.13,3.48-.2,5.25-.31,6.7-1a6.28,6.28,0,0,1,3.27-1c1.38.11,3.7.23,5,1,3,1.79,8.73,1.08,9.75-.34.55-.76-2.91-2.72-3.13-2.81-2.29-1-4.59.67-7.38-1.95-2.1-2-1-3.19-2.87-5.06-3.16-3.13-7-.42-10.52-3-3.26-2.4-1.2-5.64-4.78-10.66a16.61,16.61,0,0,0-9.7-6.56A19.54,19.54,0,0,0,28.14,5c-3.42,1.37-7.31,5-7.31,7.93,0,3.32-1.72,6.76.74,8,.91.45-1.83,1.73-1.66,3.81.2,2.43,1.8,1.39-.1,2.43-1.43.79-3.84.2-6.42.79-2.19.5-2.17,0-4.5.78-5,1.73-5,.19-5.48,1.44S4.63,33.12,6.42,34.12Z"/></g></svg>