<svg xmlns="http://www.w3.org/2000/svg" viewBox="0 0 500 500"><defs><style>.cls-1{isolation:isolate;}.cls-2,.cls-4{fill:#cf7a36;}.cls-3{fill:#c45121;}.cls-15,.cls-4{opacity:0.22;}.cls-14,.cls-17,.cls-25,.cls-26,.cls-30,.cls-34,.cls-35,.cls-4,.cls-40,.cls-42,.cls-44,.cls-46,.cls-49,.cls-51,.cls-53,.cls-59,.cls-6,.cls-61{mix-blend-mode:multiply;}.cls-5,.cls-6{fill:#5b321c;}.cls-6{opacity:0.21;}.cls-7{fill:#754c29;}.cls-8{fill:#5c3c20;}.cls-9{fill:#414042;}.cls-10{fill:#58595b;}.cls-11{fill:#b8580b;}.cls-12,.cls-15{fill:#a7a9ac;}.cls-13,.cls-14,.cls-42,.cls-43{fill:#d1d3d4;}.cls-14{opacity:0.29;}.cls-15,.cls-28,.cls-39,.cls-41,.cls-43,.cls-47,.cls-54,.cls-60{mix-blend-mode:screen;}.cls-16,.cls-17{fill:#e1e2e3;}.cls-18{fill:#bd161d;}.cls-19{fill:#f1f2f2;}.cls-20{fill:#372f3a;}.cls-21{fill:#ebecee;}.cls-22{fill:#77787d;}.cls-23{fill:#f1f2f4;}.cls-24,.cls-25,.cls-41{fill:#648f72;}.cls-25{opacity:0.1;}.cls-26,.cls-29,.cls-30,.cls-34,.cls-35,.cls-39,.cls-40,.cls-44,.cls-59,.cls-60,.cls-61{fill:#77a28c;}.cls-26{opacity:0.15;}.cls-27,.cls-46,.cls-47{fill:#5e8e75;}.cls-28,.cls-39{opacity:0.73;}.cls-30{opacity:0.34;}.cls-31{fill:#80ba9d;}.cls-32{fill:#603913;}.cls-33{fill:#ba6831;}.cls-34{opacity:0.24;}.cls-35{opacity:0.47;}.cls-36,.cls-38{fill:none;stroke-linecap:round;}.cls-36{stroke:#808285;stroke-miterlimit:10;stroke-width:0.25px;}.cls-37{fill:#808285;}.cls-38{stroke:#991b13;stroke-linejoin:round;}.cls-40{opacity:0.54;}.cls-41,.cls-47,.cls-61{opacity:0.2;}.cls-42{opacity:0.53;}.cls-43{opacity:0.25;}.cls-44{opacity:0.16;}.cls-45{fill:#493e4d;}.cls-46,.cls-60{opacity:0.13;}.cls-48,.cls-49{fill:#f1e5cf;}.cls-49{opacity:0.45;}.cls-50{fill:#bd6f31;}.cls-51{opacity:0.31;}.cls-52,.cls-53,.cls-54{fill:#db3333;}.cls-53{opacity:0.44;}.cls-54{opacity:0.55;}.cls-55,.cls-57{fill:#1f9967;}.cls-55{stroke:#008e47;stroke-width:4px;}.cls-56{fill:#fff;}.cls-58{fill:#25ba81;}.cls-59{opacity:0.11;}</style></defs><g class="cls-1"><g id="skintone4"><path class="cls-2" d="M244.69,274.27a24.75,24.75,0,0,1,16.84-22.33s34.63,16,36.42,22.3c2.73,9.62.25,51.49-1.71,87.35H274.68c-2.29-14.32-4.53-29.4-5.82-40.9s3.59-28.56,5.84-34.17C258.45,284.18,244.69,274.27,244.69,274.27Z"/><path class="cls-3" d="M274.7,286.52c-16.25-2.34-30-12.25-30-12.25a24.78,24.78,0,0,1,13-20.59c8.93,4.32,31.32,15.55,32.75,20.56,2.73,9.62.25,51.49-1.71,87.35H274.68c-2.29-14.32-4.53-29.4-5.82-40.9S272.45,292.13,274.7,286.52Z"/><path class="cls-4" d="M296.24,361.59H284.51c-1.06-5.3-3.42-19.48-4-42.48s11.88-38.34,17.64-44.16C300.57,285.72,298.16,326.53,296.24,361.59Z"/><path class="cls-2" d="M232.93,274.27a24.75,24.75,0,0,1,16.84-22.33s34.63,16,36.42,22.3c2.73,9.62.26,51.49-1.71,87.35H265.9c-2.29-14.32-4.44-29.8-5.73-41.29s.53-28.17,2.78-33.78C246.69,284.18,232.93,274.27,232.93,274.27Z"/><path class="cls-4" d="M249.77,251.94s9.27,4.29,18.46,9.3c-1.63,3.39-7,15.29-6.83,25-15.57-2.72-28.47-12-28.47-12A24.75,24.75,0,0,1,249.77,251.94Z"/><path class="cls-4" d="M284.48,361.59H272.75c-1.06-5.3-3.42-19.48-4-42.48S280.6,280.77,286.36,275C288.81,285.72,286.4,326.53,284.48,361.59Z"/><path class="cls-5" d="M249.22,300.23s2.11-30.86-17.4-33.7-128.76,0-138.7,0-24.81,1.06-24.82,33.7l3.39,6.25H237.8Z"/><path class="cls-6" d="M93.12,266.53c9.94,0,119.19-2.84,138.7,0s17.4,33.7,17.4,33.7l-11.42,6.25H203c-2.54-8.07-10.95-12-18.35-15.61-8.73-4.22-17.89-2.09-27.2-1.2-10,1-20.18,2.29-30.26,2.31-9.81,0-20.46.07-30.06-1.91C86.92,288,79.9,282.31,73.77,274.89,79,266.94,87,266.53,93.12,266.53Z"/><path class="cls-7" d="M298.66,361.59l-3.06,42.65S311.71,416.1,319,418.05s6.9,7.07,4.07,8.85c-1.52,1-13.21,1.13-24.47.93-.82-.12-2-.22-3.37-.47a12.34,12.34,0,0,1-9.35-6.62s-.05,3.78-1.19,5.68a2.38,2.38,0,0,1-.83.91,63.91,63.91,0,0,1-6.65-.6c-4.91-1-1.75-19.22.88-23.41l-5.79-41.73h26.38Z"/><path class="cls-8" d="M311.47,418.05c7.26,1.95,6.9,7.07,4.07,8.85-1,.62-6.39.91-13.15,1l-3.81-.05c-.82-.12-2-.22-3.37-.47a12.34,12.34,0,0,1-9.35-6.62s-.05,3.78-1.19,5.68l0,.06a11.81,11.81,0,0,1-6.28-5.74s-.05,3.78-1.19,5.68l-.15.22c-4.63-1.48-1.53-19.18,1.06-23.32l-5.79-41.73h18.87l-3.06,42.65S304.2,416.1,311.47,418.05Z"/><path class="cls-9" d="M259.22,64.15c0,6.4,2.26,11.59,5,11.59s5-5.19,5-11.59-2.25-11.6-5-11.6S259.22,57.74,259.22,64.15Z"/><path class="cls-10" d="M259.77,64.15c0,6.4,2.26,11.59,5,11.59s5-5.19,5-11.59-2.25-11.6-5-11.6S259.77,57.74,259.77,64.15Z"/><path class="cls-11" d="M213.36,109.58l9.9,2.81c-1.71-4.16,2.62-9.92,2.62-9.92a12.7,12.7,0,0,1,2.35-3.63c6.92-7.13,10.08-8,10.08-8s-4.91-7.63-10.46-7.93-17.26,20.6-17.26,20.6l3.15,6"/><path class="cls-2" d="M231.35,85.57l-3.5-21.42,7.2-17.24h17.27l10.73,8.73s7.21,26.65-5.76,35.29-25.94-5.36-25.94-5.36"/><path class="cls-12" d="M335.52,128.94c0,8.62,2.63,15.62,5.87,15.62s5.89-7,5.89-15.62-2.64-15.62-5.89-15.62S335.52,120.31,335.52,128.94Z"/><path class="cls-13" d="M336.14,128.94c0,8.62,2.63,15.62,5.88,15.62s5.88-7,5.88-15.62-2.63-15.62-5.88-15.62S336.14,120.31,336.14,128.94Z"/><path class="cls-14" d="M343.3,128.94c0-6.46-1.47-12-3.58-14.38a3.13,3.13,0,0,1,2.3-1.24c3.25,0,5.88,7,5.88,15.62s-2.63,15.62-5.88,15.62a3.13,3.13,0,0,1-2.3-1.24C341.83,140.94,343.3,135.4,343.3,128.94Z"/><path class="cls-12" d="M345.51,122.61c3.47,2.87,9.1,7,0,14a20.22,20.22,0,0,1-1.4-7C344.11,124.42,345.51,122.61,345.51,122.61Z"/><path class="cls-15" d="M345,123.59a4.82,4.82,0,0,1,.49-1c2.82,2.33,7.05,5.5,3.69,10.33C351.43,128.66,347.64,125.76,345,123.59Z"/><path class="cls-16" d="M356.59,184a1.51,1.51,0,0,0,1.3-.74c.7-1.22,17.17-29.81,11.63-42.77-5.66-13.21-19-12.91-19.16-12.9a1.49,1.49,0,0,0-1.45,1.55,1.47,1.47,0,0,0,1.55,1.45,17.77,17.77,0,0,1,16.3,11.08c4.95,11.59-11.3,39.79-11.46,40.08a1.49,1.49,0,0,0,.54,2A1.46,1.46,0,0,0,356.59,184Z"/><path class="cls-17" d="M349.4,128a1.27,1.27,0,0,0-.06.39,1.46,1.46,0,0,0,1.55,1.45,17.76,17.76,0,0,1,16.29,11.08c5,11.59-11.29,39.79-11.46,40.08a1.5,1.5,0,0,0,.55,2,1.43,1.43,0,0,0,.75.2,1.49,1.49,0,0,0,1.29-.75s.05-.08.09-.14l-.51.9a1.51,1.51,0,0,1-1.3.74,1.46,1.46,0,0,1-.75-.2,1.49,1.49,0,0,1-.54-2c.16-.29,16.41-28.49,11.46-40.08a17.77,17.77,0,0,0-16.3-11.08,1.47,1.47,0,0,1-1.55-1.45A1.49,1.49,0,0,1,349.4,128Z"/><path class="cls-2" d="M328,180.7c10.66-2.44,9.19,9.42,10.54,8.33s8.88-2.19,8.58-6.7-1.87-9.57-8.26-10.29-12.95,2.45-12.95,2.45c-17.77-7.58-58.85-18.68-58.85-18.68-39.23-34.66-61.31-49.24-60.87-34.88.58,18.69,39,40.33,55.81,48.4,13.72,6.58,61.5,11.42,61.5,11.42,1.06,3.3,2,3.29,2,3.29S326.36,181.08,328,180.7Z"/><path class="cls-13" d="M278.11,130.52c0,10.15,7,18.38,15.66,18.38s15.68-8.23,15.68-18.38-7-18.37-15.68-18.37S278.11,120.38,278.11,130.52Z"/><path class="cls-12" d="M295.1,130.52c0,3.86,2.32,7,5.17,7s5.16-3.13,5.16-7-2.31-7-5.16-7S295.1,126.67,295.1,130.52Z"/><path class="cls-18" d="M26.65,330.62c-10.66,3.69.81-22.32,5-22.32H44.76S41.81,325.35,26.65,330.62Z"/><path class="cls-19" d="M26.88,344.45c-5.33-14,5.95-25.95,17.12-35.53s22.8-5.64,22.8-5.64-1.54,19.5-20.64,32.42S26.88,344.45,26.88,344.45Z"/><path class="cls-20" d="M379.24,430.39a59,59,0,1,0,59-59A59,59,0,0,0,379.24,430.39Z"/><path class="cls-21" d="M401.58,430.39a36.69,36.69,0,1,0,36.69-36.7A36.69,36.69,0,0,0,401.58,430.39Z"/><path class="cls-22" d="M406.1,430.39a32.18,32.18,0,1,0,32.17-32.18A32.17,32.17,0,0,0,406.1,430.39Z"/><path class="cls-23" d="M418.26,430.39a20,20,0,1,0,20-20A20,20,0,0,0,418.26,430.39Z"/><path class="cls-24" d="M418.27,344.46c9.27-.72,24.2-1.85,40,2.58,25.39,7.1,41.3,24.6,38.29,34.17S458,381.4,435.79,396s-34.21,37.4-57,34.06c-10.7-1.57-16.66-7.85-16.14-17.77C362.62,412.29,369.06,348.26,418.27,344.46Z"/><path class="cls-25" d="M418.27,344.46c3.31-.25,7.34-.56,11.87-.65-1.61,2.1-5,13.74-22.07,30.41-9.87,9.62-4.86,14.91.5,15.26,4.24.27,19.32-10.77,37.26-12.32,26.08-2.25,40.46-.82,48.81,6.44-8.29,5.5-39-.7-58.85,12.4-22.15,14.61-34.21,37.4-57,34.06-10.7-1.57-16.66-7.85-16.14-17.77C362.62,412.29,369.06,348.26,418.27,344.46Z"/><path class="cls-26" d="M418.33,355.38c-12.11,13.22-21.46,5-30.83,24.77-5.93,12.58-12.29,30.75-21.7,43.23a15,15,0,0,1-1.47-2.3.36.36,0,0,0-.05-.09,15.8,15.8,0,0,1-1-2.48c-.07-.25-.1-.52-.17-.77a17.62,17.62,0,0,1-.42-2.14,21.15,21.15,0,0,1-.09-3.31s6.44-64,55.65-67.83c1.66-.13,3.55-.26,5.54-.38C423.48,347.7,421.86,351.53,418.33,355.38Z"/><path class="cls-27" d="M362,226.75s3.59,17,13.18,43c6.06,16.43,10.64,39.73,31,50,10.27,5.21,20.08,18.16,8,31.38s-21.46,4.95-30.83,24.76-19.73,53.56-41.46,57c-13.48,2.13-133.37,0-142.24,0s-15.56-4-18.8-14.12c-8.18-25.48-166.36-9.65-166.36-9.65s-12,1.78-11.69-6.69c.84-21.85,13.46-52.9,35.45-67.8s30.15-34.4,30.15-34.4H249.22c1.41,18.44-8.17,22.34-11,26.24s-28.39,25.9-18.81,55,29.09,33.34,57.82,34.4,64.55,2.13,73.07-18.09,19.51-62.43,17.38-78.75-26.59-87.25-26.59-87.25S356.3,222.69,362,226.75Z"/><g class="cls-28"><path class="cls-29" d="M342.59,231.77S367.05,302.7,369.18,319s-8.87,58.53-17.38,78.75c-6.71,15.92-30.34,18.64-54.1,18.56,23.25,0,46-3,52.6-18.56,8.51-20.22,19.51-62.43,17.38-78.75s-26.59-87.25-26.59-87.25,10.91-6.51,17.68-6C352,226.15,342.59,231.77,342.59,231.77Z"/><path class="cls-29" d="M38.15,334.63c22-14.9,30.15-34.4,30.15-34.4h1.5s-8.16,19.5-30.15,34.4S5,380.58,4.2,402.43c-.21,5.59,5,6.71,8.48,6.83-3.3.13-10.23-.37-10-6.83C3.54,380.58,16.16,349.53,38.15,334.63Z"/><path class="cls-29" d="M182.25,418.77c3.23,10.09,9.93,14.12,18.8,14.12,5.89,0,60.85.94,101,.95-40.27,0-96.53-.95-102.5-.95-8.87,0-15.56-4-18.8-14.12-3.66-11.39-37.32-14.52-73.41-14.51C144,404.16,178.54,407.22,182.25,418.77Z"/></g><path class="cls-30" d="M362.39,228.68c-2.18,2.78-15.79,6.34-20.45,5.57l-.85-2.48s15.21-9.08,20.86-5C362,226.75,362.1,227.43,362.39,228.68Z"/><path class="cls-31" d="M238.12,420.83c-15.69-9.85-18.37-37.54-19.23-41.1H219c.16.58.26,1.14.45,1.73,9.58,29.08,29.09,33.34,57.82,34.4s64.55,2.13,73.07-18.09c.14-.33.28-.72.43-1.06h0S344,425.62,319.8,425.62,253.82,430.67,238.12,420.83Z"/><path class="cls-32" d="M270,48.75s2.24,6.23-5.55,9.09-17.59-3.92-25.87,4.6c-4.49,4.62-5.49-4.59-5.49-4.59l6-10.8,14.16-3.54S267.3,45.14,270,48.75Z"/><path class="cls-33" d="M264.15,68c.9.17,2.68,5.69,1.85,7-.68,1-3.86,1.28-4.42.78S263.41,70.21,264.15,68Z"/><path class="cls-34" d="M379.24,312.91c-7.07-43.36-26.75-64.21-34.73-71.08-2.08-6.17-3.42-10.06-3.42-10.06s15.21-9.08,20.86-5c0,0,3.59,17,13.18,43,6.06,16.43,10.64,39.73,31,50,10.27,5.21,20.08,18.16,8,31.38s-21.46,4.95-30.83,24.76c-7.1,15.06-14.81,38.13-27.62,49.87C368,404.88,387,360.33,379.24,312.91Z"/><path class="cls-20" d="M333.25,189.1s-6.75.08-7.7-4.43,6.86-5.78,6.86-5.78c4.43-.15,13.62,2,10.09,7.31C340.23,189.58,333.25,189.1,333.25,189.1Z"/><path class="cls-29" d="M341.09,231.77c-3.86-1.65-12.14-35.3-9.94-43.28,3.92-14.17,37.81-10.7,40.17-10.3,14.86,2.47,13.78,34.33,2.68,36.4-7.68,1.43-12.93,0-11.28,11C363.17,228.6,344.94,233.42,341.09,231.77Z"/><path class="cls-35" d="M348.38,192.12c4.44,2.13,4.44,4.08,4.79,8s-2.82,8.16-16.31,11.88c-1.08.3-2,.55-2.95.79A123.1,123.1,0,0,1,331,195.88C337.58,193.53,345.33,190.66,348.38,192.12Z"/><path class="cls-9" d="M251.69,66.46c0,6.4,2.25,11.59,5,11.59s5-5.19,5-11.59-2.25-11.6-5-11.6S251.69,60.05,251.69,66.46Z"/><path class="cls-10" d="M252.24,66.46c0,6.4,2.25,11.59,5,11.59s5-5.19,5-11.59-2.25-11.6-5-11.6S252.24,60.05,252.24,66.46Z"/><line class="cls-36" x1="252.24" y1="67.75" x2="233.08" y2="66.41"/><path class="cls-37" d="M262,66.93c3.29,0,3.9-.34,4-.4s-.09-.32-1.24-1c0,0,0,0,0-.07,0-.23-.05-.46-.08-.7a.51.51,0,0,1,.67-.14c.93.55,2,1.29,1.73,2.15-.28,1-2.14,1.23-5,1.23a.53.53,0,1,1,0-1.06Z"/><path class="cls-38" d="M258.25,87.25s-3.53,1.42-6-1.33"/><path class="cls-34" d="M249.22,300.23c1.41,18.44-8.17,22.34-11,26.24s-28.39,25.9-18.81,55c8.93,27.12,26.5,32.65,52.14,34.13a67.49,67.49,0,0,0,23.26,18.24c-39.45-.08-89.64-.94-95.26-.94-8.87,0-15.56-4-18.8-14.12-1.62-5-9.16-8.48-20.18-10.72l3.14-62.95c22-15.34,26.54-32.88,26.47-44.87Z"/><path class="cls-20" d="M49.89,430.39a59,59,0,1,0,59-59A59,59,0,0,0,49.89,430.39Z"/><path class="cls-21" d="M72.24,430.39a36.69,36.69,0,1,0,36.68-36.7A36.69,36.69,0,0,0,72.24,430.39Z"/><path class="cls-22" d="M76.75,430.39a32.18,32.18,0,1,0,32.17-32.18A32.17,32.17,0,0,0,76.75,430.39Z"/><path class="cls-23" d="M88.91,430.39a20,20,0,1,0,20-20A20,20,0,0,0,88.91,430.39Z"/><path class="cls-10" d="M149.12,417.53s-6.33,16.31-26.9,16.31H89.61c-13.35,0-19-9.91-20.88-17.34l19.14-8.72,51.29,2.13Z"/><path class="cls-39" d="M16.87,381.81c7.64-19.29,46.47-66.33,105-68.81,2-.09,4-.11,5.89-.08-1.43,0-2.88,0-4.39.08-58.52,2.48-97.35,49.52-105,68.81-6.74,17-4.52,36.18,4.26,36.17,2.84,0,71.17.79,118.25.8-47.11,0-116.89-.8-119.75-.8C12.35,418,10.13,398.84,16.87,381.81Z"/><path class="cls-40" d="M25,418c-8.78,0-11-19.14-4.25-36.17,7.63-19.29,46.46-66.33,105-68.81s68.81,41.85,73.43,64.91-6,38.3-12.07,40.08S29.25,418,25,418Z"/><path class="cls-29" d="M20.74,418c-8.78,0-11-19.14-4.25-36.17,7.63-19.29,46.46-66.33,105-68.81s68.81,41.85,73.42,64.91-6,38.3-12.06,40.08S25,418,20.74,418Z"/><path class="cls-39" d="M16.49,381.81c7.63-19.29,46.46-66.33,105-68.81,2-.09,4-.11,5.89-.08-1.44,0-2.89,0-4.39.08-58.53,2.48-97.36,49.52-105,68.81-6.75,17-4.53,36.18,4.25,36.17,2.84,0,71.18.79,118.26.8-47.12,0-116.89-.8-119.76-.8C12,418,9.74,398.84,16.49,381.81Z"/><path class="cls-6" d="M180.75,277.25c-30.16,0-15.64,15.55-64.31,10.12-18.79-2.1-30.73-8.6-39.6-16.08,5-4.48,11.27-4.76,16.28-4.76,9.94,0,119.19-2.84,138.7,0,9.49,1.38,13.85,9.38,15.84,17.25C218.8,299.77,196.81,277.23,180.75,277.25Z"/><path class="cls-41" d="M442.08,348.71c9.89-3.37,48.27,15,42.77,20.76s-24.51-.5-43.77,3.66C412.79,379.24,420.07,356.21,442.08,348.71Z"/><path class="cls-42" d="M285.51,145.68c9.94,0,18-9.45,18-21.1a23.93,23.93,0,0,0-2.26-10.21c4.89,3.12,8.2,9.18,8.2,16.15,0,10.15-7,18.38-15.68,18.38a14,14,0,0,1-8.89-3.26C285.09,145.65,285.3,145.68,285.51,145.68Z"/><path class="cls-16" d="M347.83,187.81a1.51,1.51,0,0,0,1.48-1.8c-.28-1.4-7-34.46-23.14-49.59-6.24-5.86-22.89-7.33-23.6-7.39a1.5,1.5,0,0,0-.25,3c.16,0,16.31,1.44,21.79,6.59,15.41,14.46,22.19,47.65,22.25,48A1.51,1.51,0,0,0,347.83,187.81Z"/><path class="cls-17" d="M301.29,129.62a1.48,1.48,0,0,0,1.36,1.52c.16,0,16.31,1.44,21.79,6.59,15.41,14.47,22.18,47.66,22.25,48a1.5,1.5,0,0,0,1.47,1.21l.3,0a1.5,1.5,0,0,0,.85-.53,1.49,1.49,0,0,1-1.18,1.41,1.5,1.5,0,0,1-1.77-1.18c-.06-.34-6.84-33.53-22.25-48-5.48-5.15-21.63-6.58-21.79-6.59A1.5,1.5,0,0,1,301,130.4,1.42,1.42,0,0,1,301.29,129.62Z"/><path class="cls-43" d="M281.71,124.85c-2.33,6.91-.66,13.72,3.73,15.2s9.85-2.93,12.18-9.85.65-13.72-3.74-15.2S284,117.93,281.71,124.85Z"/><path class="cls-43" d="M337.23,129.23c0,4.84.77,8.77,1.73,8.77s1.74-3.93,1.74-8.77-.78-8.78-1.74-8.78S337.23,124.38,337.23,129.23Z"/><path class="cls-44" d="M348.91,198c11.34-4.38,14.89-16.53,15.75-20.38,3.54.16,6.08.45,6.66.55,14.86,2.47,13.78,34.33,2.68,36.4-7.68,1.43-12.93,0-11.28,11,.36,2.36-10.76,5.83-17.45,6.42C340.5,221.29,336.9,202.65,348.91,198Z"/><path class="cls-19" d="M374,214.59c-2.27.42-4.32.6-6.05.91a73.74,73.74,0,0,1-1.14-37.74c2.38.16,4.05.35,4.51.43C386.18,180.66,385.1,212.52,374,214.59Z"/><path class="cls-20" d="M316.73,199.84s5.14-.89,6.92,4.79-3,7.63-6.92,8.51S302,217.22,302,217.22s-4.83.7-5.89-6.92S316.73,199.84,316.73,199.84Z"/><path class="cls-27" d="M316.73,199.84s-1.13-2.13,5.14-3.37,20.74-8.34,25.19-6.21,4.43,4.08,4.78,8-2.82,8.16-16.31,11.88-13.23,2.31-14.42,1.42"/><path class="cls-45" d="M296.12,210.3c-.24-1.71.7-3.17,2.26-4.43.1,0,10.13,2.69,3.63,11.35C302,217.22,297.18,217.92,296.12,210.3Z"/><path class="cls-3" d="M208.8,115.67c3.87-1.24,12,3,24,11.79,6.58,9,14.24,21.27,23.13,35.1,0,0,5.58,3.85,13.12,9.27a47.06,47.06,0,0,1-7-2.5c-12.55-6-37.18-19.64-49.07-33.93C208.45,127.62,206.17,120.4,208.8,115.67Z"/><path class="cls-46" d="M340.88,200.28c1.77-2.54,2.13-7.09.27-9.91,2.5-.56,4.63-.72,5.91-.11,4.44,2.13,4.43,4.08,4.78,8s-2.82,8.16-16.31,11.88-13.23,2.31-14.42,1.42l-.48-1.29a38.88,38.88,0,0,0,11.52-3.15A19.62,19.62,0,0,0,340.88,200.28Z"/><path class="cls-47" d="M338.79,194.52c.92,1.72-1.13,8.22-5.75,10.3s-9.38,3.83-10.88,2.08-3.5-5.59-2.13-7.11S337.79,192.66,338.79,194.52Z"/><path class="cls-7" d="M286.85,360l-3,44.25S300,416.1,307.22,418.05s6.9,7.07,4.07,8.85c-1.52,1-13.21,1.13-24.47.93-.82-.12-2-.22-3.37-.47a12.37,12.37,0,0,1-9.35-6.62s-.05,3.78-1.19,5.68a2.31,2.31,0,0,1-.83.91,64.21,64.21,0,0,1-6.65-.6c-4.91-1-1.75-19.22.88-23.41L260.47,360h26.38Z"/><path class="cls-48" d="M219.85,107a9.24,9.24,0,0,1,3.41,5.44c1.79,4.08,3.8,29.19,1.26,36.46a138.26,138.26,0,0,1-15.57,33s20.49,48.76,61.17,51.57c0,0,6.26,29.06-19.24,45.48-30.46,19.62-53.48-4.63-70.13-4.62-30.16,0-15.64,15.56-64.31,10.13S64.94,244,42.91,238.8c0,0,79.49-90.54,133.82-68.3,0,0,3.14-23.52,4-33.31s6.16-27.91,6.16-27.91S204.7,95.79,219.85,107Z"/><path class="cls-49" d="M179.28,174.19s-100.1,38.37-95.85,74.47C86.37,273.62,148.74,194.1,179.28,174.19Z"/><path class="cls-49" d="M179.28,175.69S153.71,201,154.71,212.56,176.44,186.57,179.28,175.69Z"/><path class="cls-49" d="M125.91,285.22h0c35-6.46,33.05-22.55,52-24.05s33.14-4.31,26.75-26.14.78-38.1-4-45.9a66.68,66.68,0,0,0-11.2-13.44c5.51,4.07,15.23,3.19,15.23,3.19,6.54-12.72-2.84-41.37-2.84-41.37,12.38-1.6,7-32.91,7-32.91a30.84,30.84,0,0,1,4.18-1.11,22.46,22.46,0,0,1,6.85,3.46,9.24,9.24,0,0,1,3.41,5.44c1.79,4.08,3.8,29.19,1.26,36.46a138.26,138.26,0,0,1-15.57,33s20.49,48.76,61.17,51.57c0,0,6.26,29.06-19.24,45.48-30.46,19.62-53.48-4.63-70.13-4.62C152.74,274.27,163.26,287.66,125.91,285.22Z"/><path class="cls-50" d="M211.79,135.23s-3.36,4-6.09.54,1-19.17,1-19.17C207.56,115.49,215.93,122.55,211.79,135.23Z"/><path class="cls-32" d="M229.48,85.65s4.7,8.6-3.6,16.82-21.49,9.86-30.6,9.09-18.66-10.33-35.23-1.12-5.74,24.25-1.08,22.32c0,0-20.53,6.07-19.6-16a5.52,5.52,0,0,0-2.31,4.95s-6.72-9.64.9-14.8c0,0-16.82,5.63-23.85-8.43s6.63-16.8,7.68-16.88c0,0-2.45,10.53,6.3,11.3a4.81,4.81,0,0,0-3.72-5.09s1.47-4.18,11.25-1.5c0,0-7.1-7.49,3.54-15.17,0,0,2.25,9.08,11.82,8.93s10.74-15.81,34.71-15.92C185.69,64.15,221.51,66,229.48,85.65Z"/><path class="cls-49" d="M200.48,181.32S208,207.9,217,223.65s23.25,37.21,5,41.61S199.23,196.5,200.48,181.32Z"/><path class="cls-49" d="M198.79,181.32s-.94,24.37-3.75,27.19S192.6,192.76,198.79,181.32Z"/><path class="cls-2" d="M301,204.21c9.07,0,4.42,10.81,6.32,11.47,1.63.58,10.09.58,11.25-3.78s1.31-9.66-4.52-12.4-13-1.84-13-1.84c-14.39-12.89-46.56-35.1-46.56-35.1-20.6-32-34.58-55.61-43.84-50.17-16.12,9.49,16.11,44.7,29.42,57.74,10.87,10.64,56.68,32.68,56.68,32.68-.06,3.46.87,3.77.87,3.77A22.56,22.56,0,0,1,301,204.21Z"/><g class="cls-51"><path class="cls-32" d="M158.43,132.9l.54-.14A1.66,1.66,0,0,1,158.43,132.9Z"/><path class="cls-32" d="M161.27,97.67c16.7-7.13,37.89,3.74,44.94-5.45s-18.63-26.77-18.63-26.77l2.92-.83c10,1.29,32.82,5.84,39,21,0,0,4.7,8.6-3.6,16.82s-21.49,9.86-30.6,9.09-18.66-10.33-35.23-1.12c-16,8.88-6.49,23.16-1.62,22.46a24.09,24.09,0,0,1-4.68.62C139.32,127.44,146.12,104.13,161.27,97.67Z"/></g><path class="cls-32" d="M236.33,82.94s.75,7.85,7.34,10.16c-7.11-1.92-12.32-7.53-12.32-7.53l-.33-2Z"/><path class="cls-52" d="M270,48.75c-1.17,3.93-25.33-.87-30.58,11.49s-.3,22.12-4.18,23.73S223.85,88.76,203,80.39s-22.31-29.32-18.67-41.83S202.81,5.84,231.46,8.07,274.06,35.15,270,48.75Z"/><path class="cls-53" d="M241.05,13.71a47.5,47.5,0,0,1,15,3.63c11.61,9.05,16.56,22.59,13.92,31.41-1.17,3.93-25.33-.87-30.58,11.49s-.3,22.12-4.18,23.73-11.33,4.76-32-3.49c-11.84-10-12.32-26-9.33-36.27C197.58,31.7,212.4,11.48,241.05,13.71Z"/><path class="cls-53" d="M253.19,20.9a48.82,48.82,0,0,1,8.12,1.32c7.8,8.57,10.88,19.19,8.68,26.53-1.17,3.93-25.33-.87-30.58,11.49s-.3,22.12-4.18,23.73c-3.32,1.37-9.31,3.87-24-.66-7.72-9.87-7.75-23-5.16-31.92C209.73,38.89,224.54,18.67,253.19,20.9Z"/><path class="cls-19" d="M236,84.27a2.12,2.12,0,0,0,2-1.41,18.56,18.56,0,0,0,.84-7.9c-.17-3.27-.37-7,2.57-13.89,3.08-7.26,13.32-8.11,20.8-8.73,4.22-.35,7.28-.6,9.05-1.85A2.13,2.13,0,1,0,268.76,47c-.82.58-4.21.86-6.95,1.09-8.07.66-20.26,1.67-24.35,11.29-3.33,7.83-3.09,12.24-2.91,15.79a14.52,14.52,0,0,1-.59,6.24,2.13,2.13,0,0,0,1.28,2.72A2.27,2.27,0,0,0,236,84.27Z"/><path class="cls-54" d="M232.1,12.31c7.9,3.37,1.57,11.58-9.38,18.38s-22.1,19.51-24.35,26.64-13.27,1.5-10.27-16.88S218.94,6.68,232.1,12.31Z"/><path class="cls-55" d="M114.17,325.25,77.84,346.51v41.73l36.71,21.06,36.71-21.06V346.51Z"/><path class="cls-56" d="M95.16,339.75h40.68V393H95.16Z"/><path class="cls-57" d="M151.08,388.12v-41.8l-.7-.14L130.81,357.5v13.84l-9.65,5.59-6.71-4.19v36.35h.14Z"/><path class="cls-58" d="M102.29,360.72l4.89-3.08,12.17,6.71v-14l11.46-6.85v14l20.27-11.18v-.14l-37.05-21L77.69,346.32Z"/><path class="cls-58" d="M98.52,390.91V363l4.19-2.51L77.83,346.32h-.14v41.8l36.76,21V372.74l-4.89-2.8v14Z"/><path class="cls-59" d="M52,412.32c57.71,0,104.5-37,104.5-82.55a66.09,66.09,0,0,0-1-11.56c29.09,12.09,35.95,42.09,39.47,59.7,4.62,23.06-6,38.3-12.06,40.08S25,418,20.74,418s-7.14-4.77-7.95-11.68A128.69,128.69,0,0,0,52,412.32Z"/><path class="cls-60" d="M145.39,322c10.73,4.07-10.83,77.71-95,77.71-9.42,0-28.11,4-27.1-3.11C29,356.21,104.41,306.48,145.39,322Z"/><path class="cls-61" d="M167.57,349.2a67.14,67.14,0,0,0-6.23-28.14c24.15,13.47,30.29,40.5,33.56,56.85,4.62,23.06-6,38.3-12.06,40.08-2.54.75-31.06.86-63.49.75C148.34,404.07,167.57,378.41,167.57,349.2Z"/></g></g></svg>