<svg xmlns="http://www.w3.org/2000/svg" viewBox="0 0 128 128"><defs><style>.cls-1{fill:#1f9967;}.cls-2{fill:#25ba81;}.cls-3{fill:none;stroke:#fff;stroke-linecap:round;stroke-linejoin:round;stroke-width:6px;}.cls-4{fill:#fbde76;}</style></defs><g id="Layer_1" data-name="Layer 1"><polyline class="cls-1" points="64 127 64.29 127 119.13 95.5 119.13 32.58 118.1 32.57 63.82 63.85"/><polyline class="cls-2" points="119.13 32.58 119.13 32.5 63.54 1 8.88 32.59 63.82 63.85"/><polyline class="cls-2" points="9.2 32.58 8.88 32.59 8.88 95.5 64 127 63.82 63.85"/></g><g id="Layer_3" data-name="Layer 3"><path class="cls-3" d="M40,78.3s20,6.7,48,0C88.29,78.23,64,121.77,40,78.3Z"/><path class="cls-4" d="M35.88,32.47,42.51,41a1.82,1.82,0,0,0,1.53.7L54.81,41a1.79,1.79,0,0,1,1.59,2.8l-6,8.94a1.78,1.78,0,0,0-.18,1.66l3.93,10.05a1.79,1.79,0,0,1-2.17,2.38l-10.37-3a1.77,1.77,0,0,0-1.64.34l-8.34,6.84a1.8,1.8,0,0,1-2.94-1.33L28.29,59a1.79,1.79,0,0,0-.83-1.45l-9.09-5.82a1.8,1.8,0,0,1,.36-3.21L28.87,44.8A1.82,1.82,0,0,0,30,43.56l2.72-10.44A1.8,1.8,0,0,1,35.88,32.47Z"/><path class="cls-4" d="M90.25,32.47,83.62,41a1.81,1.81,0,0,1-1.53.7L71.33,41a1.8,1.8,0,0,0-1.6,2.8l6,8.94A1.78,1.78,0,0,1,76,54.43L72,64.48a1.79,1.79,0,0,0,2.17,2.38l10.37-3a1.77,1.77,0,0,1,1.64.34l8.34,6.84a1.8,1.8,0,0,0,2.94-1.33L97.84,59a1.79,1.79,0,0,1,.83-1.45l9.09-5.82a1.8,1.8,0,0,0-.36-3.21L97.26,44.8a1.84,1.84,0,0,1-1.13-1.24L93.41,33.12A1.8,1.8,0,0,0,90.25,32.47Z"/></g></svg>