<svg xmlns="http://www.w3.org/2000/svg" viewBox="0 0 267.39 267.39"><defs><style>.cls-1{fill:#1f9967;}.cls-2{fill:#25ba81;}.cls-3{fill:#fff;}.cls-4{fill:none;stroke:#fff;stroke-linecap:round;stroke-linejoin:round;stroke-width:11px;}</style></defs><g id="Layer_1" data-name="Layer 1"><polyline class="cls-1" points="141.26 204.86 141.69 204.83 219.92 149.48 210.93 54.56 209.38 54.7 131.98 109.63"/><polyline class="cls-2" points="210.93 54.56 210.92 54.45 122.58 14.87 44.63 70.33 131.98 109.63"/><polyline class="cls-2" points="45.11 70.27 44.63 70.33 53.61 165.22 141.26 204.86 131.98 109.63"/></g><g id="Layer_3" data-name="Layer 3"><circle class="cls-3" cx="94.13" cy="93.97" r="9.09"/><circle class="cls-3" cx="166.75" cy="87.09" r="9.09"/><path class="cls-4" d="M96.83,159.4s69.54,6.5,89-36.91"/></g><g id="Layer_8" data-name="Layer 8"><path class="cls-2" d="M96.85,180.82c-3.44-3.74-6.77-7.94-11.4-10.26-5.54-2.77-13.1-1.66-16.22,4.25a13.26,13.26,0,0,0-1.4,7.14c-8.51-4.92-14.28-13.72-19.79-22-5-7.48-14.14-6.36-19.09-1.58-8.61-6-23,4.43-16.9,16.1.36.69.78,1.34,1.16,2A12.46,12.46,0,0,0,5,179.87C.11,184.7.78,191.74,5,196.63A87.91,87.91,0,0,0,42.9,222.31C54.18,230.23,72,231.15,84.8,227c11.46-3.7,20.29-14.8,20.76-26.38a9.37,9.37,0,0,0,.49-1.35C107.88,191.2,101.73,186.13,96.85,180.82Z"/><path class="cls-1" d="M6.59,178.53c6.28-1.12,8.35-4.61,38.21,25.25,1.19-2,4.11-1.66,4.38-3.33-10.13,1.66-26.48-24.26-35.61-24A12.23,12.23,0,0,0,6.59,178.53Z"/><path class="cls-1" d="M18.93,157.4c14.85-2.06,14.51,20,38.46,32.15a11.53,11.53,0,0,0,1.78-1.86C37.6,178.5,32.65,160.81,29,158.34,24.33,155,18.93,157.4,18.93,157.4Z"/><path class="cls-1" d="M37.74,154.56c7.95,2.88,5.44,1.05,18.9,19.52,6.44,8.84,23.9,13.67,24.13,21,0,0,3.22,2.55,1.79-1.77-4-7.45-12.89-10.18-14.73-11.34-5.65-3.53-8.66-5.48-20.69-23.07A11,11,0,0,0,37.74,154.56Z"/><path class="cls-1" d="M73.45,170.55c6.94-.14,9.73-.74,16.45,5.33,7.72,7,14.92,13.34,14.63,21.36s-.54,11.17-.54,11.17,3.83-10,1.74-15.87-14.06-19.29-21-22.29A12.53,12.53,0,0,0,73.45,170.55Z"/><path class="cls-2" d="M168.86,177c3.44-3.74,6.78-7.94,11.41-10.26,5.53-2.77,13.09-1.66,16.21,4.25a13.27,13.27,0,0,1,1.41,7.14c8.5-4.92,14.28-13.72,19.78-22,5-7.48,14.14-6.36,19.09-1.58,8.61-6,23,4.43,16.91,16.1-.36.69-.79,1.34-1.16,2a12.5,12.5,0,0,1,8.26,3.42c4.83,4.83,4.16,11.87,0,16.76a88,88,0,0,1-38,25.68c-11.28,7.92-29.08,8.83-41.9,4.69-11.46-3.7-20.28-14.8-20.76-26.38a10.29,10.29,0,0,1-.48-1.35C157.83,187.37,164,182.3,168.86,177Z"/><path class="cls-1" d="M259.12,174.7c-6.28-1.12-8.34-4.61-38.2,25.25-1.2-2-4.12-1.66-4.39-3.33,10.13,1.66,26.48-24.26,35.62-24A12.21,12.21,0,0,1,259.12,174.7Z"/><path class="cls-1" d="M246.79,153.57c-14.86-2.06-14.52,20.05-38.46,32.15a11.26,11.26,0,0,1-1.79-1.86c21.57-9.19,26.52-26.88,30.22-29.35C241.38,151.21,246.79,153.57,246.79,153.57Z"/><path class="cls-1" d="M228,150.72c-8,2.89-5.45,1.06-18.9,19.53-6.44,8.84-23.91,13.67-24.14,21,0,0-3.22,2.55-1.79-1.77,4-7.45,12.89-10.18,14.74-11.34,5.64-3.53,8.65-5.48,20.68-23.08A11,11,0,0,1,228,150.72Z"/><path class="cls-1" d="M192.27,166.72c-7-.15-9.74-.74-16.46,5.33-7.72,7-14.92,13.34-14.62,21.35s.53,11.17.53,11.17-3.83-10-1.73-15.86,14-19.29,20.94-22.29A12.56,12.56,0,0,1,192.27,166.72Z"/></g></svg>