<?xml version="1.0" encoding="UTF-8"?><svg xmlns="http://www.w3.org/2000/svg" xmlns:xlink="http://www.w3.org/1999/xlink" viewBox="0 0 128 128"><defs><style>.x{fill:url(#u);}.y{fill:url(#v);}.a`{fill:#fff;}.aa{fill:#125e3c;}.ab{fill:#156d45;}.ac{fill:#1f9967;}.ad{fill:#85e5bd;}.ae{fill:#25ba81;}.af{fill:none;stroke:#fff;stroke-linecap:round;stroke-linejoin:round;stroke-width:6px;}</style><linearGradient id="u" x1="39.12" y1="53.97" x2="51.66" y2="33.45" gradientTransform="matrix(1, 0, 0, 1, 0, 0)" gradientUnits="userSpaceOnUse"><stop offset=".1" stop-color="#24b37c"/><stop offset=".67" stop-color="#1d8f60"/></linearGradient><linearGradient id="v" x1="57.27" y1="67.17" x2="33.43" y2="35.04" gradientTransform="matrix(1, 0, 0, 1, 0, 0)" gradientUnits="userSpaceOnUse"><stop offset="0" stop-color="#178759"/><stop offset="1" stop-color="#25ba81" stop-opacity="0"/></linearGradient></defs><g id="a"/><g id="b"/><g id="c"/><g id="d"/><g id="e"/><g id="f"/><g id="g"/><g id="h"/><g id="i"/><g id="j"/><g id="k"/><g id="l"/><g id="m"/><g id="n"/><g id="o"/><g id="p"/><g id="q"/><g id="r"/><g id="s"/><g id="t"><g><g><polyline points="64 127.38 64.28 127.38 117.44 96.85 117.44 35.85 116.44 35.85 63.83 66.17" style="fill:#1f9967;"/><polyline points="117.44 35.85 117.44 35.78 63.56 5.24 10.56 35.86 63.83 66.17" style="fill:#156d45;"/><polyline points="63.83 66.17 64 127.38 10.56 96.85 10.56 35.86 10.88 35.86" style="fill:#25ba81;"/><polyline points="117.44 35.85 117.44 35.78 63.56 5.24" style="fill:#156d45;"/><polyline points="117.44 35.85 117.44 35.78 63.56 5.24 63.83 66.17 63.83 66.17" style="fill:#125e3c;"/></g><g><path d="M115.01,56.17l-17.02,9.29c-.38,.21-.69-.44-.69-1.43l-.08-11.89c0-1,.29-2,.67-2.21l17.1-9.92c.41-.24,.74,.42,.74,1.47v12.41c.01,1.04-.32,2.06-.72,2.28Z" style="fill:#85e5bd;"/><g><path d="M99.14,51.21v-1.11l.14-.09s.04-.02,.06-.02c.02,0,.04,.01,.05,.03,.01,.02,.03,.05,.04,.09,0,.04,.01,.09,.01,.16s0,.12-.01,.18c0,.05-.02,.1-.03,.14-.01,.04-.03,.07-.05,.1s-.04,.05-.06,.06l-.05,.03v.37l-.09,.05Zm.09-.63l.05-.03c.05-.03,.08-.1,.08-.22,0-.06,0-.09-.02-.11s-.03-.02-.06,0l-.05,.03v.33Z" style="fill:#1f9967;"/><path d="M99.48,51.01l.12-1.18,.11-.07,.14,1.03-.1,.06-.03-.25-.13,.07-.02,.28-.1,.06Zm.15-.65v.11l.08-.05v-.1l-.03-.17c0-.06-.01-.12-.02-.17h0v.19c-.02,.06-.03,.13-.03,.19Z" style="fill:#1f9967;"/><path d="M100.09,50.68s-.05,.02-.07,0c-.02-.01-.04-.04-.06-.07-.02-.04-.03-.09-.04-.15-.01-.06-.02-.14-.02-.24s0-.18,.01-.25c0-.08,.02-.15,.04-.21,.02-.06,.04-.11,.06-.15s.05-.07,.08-.08,.05-.01,.07,0c.02,.02,.04,.04,.05,.07l-.05,.18s-.02-.03-.03-.04c-.01,0-.03,0-.04,0s-.03,.02-.04,.05-.02,.05-.03,.09-.02,.08-.02,.12c0,.05,0,.1,0,.15,0,.11,.01,.2,.03,.25,.02,.05,.05,.07,.08,.05,.01,0,.03-.03,.04-.05,.01-.03,.02-.06,.03-.09l.05,.12c-.03,.13-.08,.21-.14,.24Z" style="fill:#1f9967;"/><path d="M100.29,50.55v-1.11l.09-.06v.45h0l.12-.53,.1-.06-.12,.51,.14,.59-.1,.06-.09-.42-.05,.2v.3l-.09,.06Z" style="fill:#1f9967;"/><path d="M101.06,50.1v-1.11l.09-.06,.09,.5,.04,.22h0c0-.06,0-.12,0-.19,0-.07,0-.14,0-.2v-.39l.09-.05v1.11l-.09,.06-.09-.5-.04-.22h0c0,.06,0,.13,0,.19,0,.07,0,.14,0,.2v.39l-.09,.05Z" style="fill:#1f9967;"/><path d="M101.41,49.9l.13-1.19,.11-.07,.14,1.04-.1,.06-.03-.25-.13,.07-.02,.28-.1,.06Zm.15-.65v.11l.08-.05v-.1l-.03-.17c0-.06-.01-.12-.02-.17h0l-.02,.19c0,.07-.01,.13-.02,.19Z" style="fill:#1f9967;"/><path d="M101.83,49.66v-1.11l.09-.06,.04,.37,.02,.15h0v-.16l.05-.42,.1-.06v1.11l-.07,.05v-.34s0-.07,0-.12c0-.05,0-.1,0-.15,0-.05,0-.1,0-.15v-.12h0l-.03,.32-.03,.29-.05,.03-.03-.25-.03-.28h0s0,.07,0,.11v.14s0,.1,0,.14c0,.05,0,.08,0,.12v.34l-.08,.05Z" style="fill:#1f9967;"/><path d="M102.24,49.42v-1.11l.27-.16v.21l-.18,.11v.22l.16-.09v.21l-.16,.09v.26l.19-.11v.21l-.29,.16Z" style="fill:#1f9967;"/><path d="M104.68,48.45v-1.72l.08-.05v1.72l-.08,.05Z" style="fill:#1f9967;"/><path d="M105.75,47.4v-1.12l.15-.09s.04-.02,.06-.02c.02,0,.04,0,.05,.03,.02,.02,.03,.05,.04,.09,0,.04,.01,.09,.01,.16,0,.08,0,.15-.02,.22-.01,.06-.03,.11-.05,.15l.1,.39-.11,.06-.08-.36-.05,.03v.4l-.1,.06Zm.09-.66l.05-.03c.05-.03,.08-.1,.08-.21,0-.06,0-.09-.02-.1s-.03-.01-.06,0l-.05,.03v.32Z" style="fill:#1f9967;"/><path d="M106.16,47.17v-1.12l.28-.16v.21l-.19,.11v.23l.16-.09v.21l-.16,.09v.26l.19-.11v.21l-.29,.17Z" style="fill:#1f9967;"/><path d="M106.56,46.93v-1.13l.28-.17v.21l-.19,.11v.26l.16-.09v.21l-.16,.09v.44l-.1,.06Z" style="fill:#1f9967;"/><path d="M108.24,46.4v-1.73l.08-.05v1.73l-.08,.05Z" style="fill:#1f9967;"/><path d="M108.92,45.58v-1.13l.1-.06,.04,.38,.02,.15h0v-.17l.06-.43,.1-.06v1.13l-.08,.05v-.35s0-.07,0-.12c0-.05,0-.1,0-.15,0-.05,0-.1,0-.15v-.12h0l-.03,.32-.03,.29-.05,.03-.03-.25-.03-.28h0s0,.07,0,.11v.14s0,.1,0,.14c0,.05,0,.09,0,.12v.35l-.08,.05Z" style="fill:#1f9967;"/><path d="M109.35,45.33v-1.13l.29-.17v.22l-.19,.11v.23l.16-.09v.21l-.16,.09v.26l.2-.11v.22l-.29,.17Z" style="fill:#1f9967;"/><path d="M109.84,45.05v-.92l-.13,.08v-.22l.36-.21v.22l-.13,.08v.92l-.1,.06Z" style="fill:#1f9967;"/><path d="M110.09,44.9l.13-1.21,.12-.07,.14,1.06-.1,.06-.03-.25-.13,.08-.03,.29-.1,.06Zm.16-.66v.11l.08-.05v-.1l-.03-.17c0-.06-.01-.12-.02-.18h0l-.02,.2c0,.07-.01,.13-.02,.19Z" style="fill:#1f9967;"/><path d="M110.54,44.65v-1.14l.12-.07s.06-.02,.09-.02c.03,0,.05,.03,.07,.06,.02,.04,.03,.09,.04,.15,.01,.07,.02,.15,.02,.24s0,.19-.01,.26-.02,.15-.04,.2c-.02,.06-.04,.11-.06,.14-.03,.04-.05,.07-.08,.08l-.13,.07Zm.1-.26h.02s.03-.03,.05-.06c.01-.02,.03-.05,.04-.08,.01-.03,.02-.08,.02-.13,0-.05,0-.11,0-.18s0-.12,0-.17c0-.04-.01-.07-.02-.1-.01-.02-.02-.03-.04-.04s-.03,0-.05,0h-.02v.73Z" style="fill:#1f9967;"/><path d="M110.9,44.44l.13-1.22,.12-.07,.14,1.06-.11,.06-.03-.26-.13,.08-.03,.29-.1,.06Zm.16-.67v.11l.08-.05v-.1l-.03-.17c0-.06-.01-.12-.02-.18h0l-.02,.2c0,.07-.01,.13-.02,.19Z" style="fill:#1f9967;"/><path d="M111.45,44.12v-.92l-.13,.08v-.22l.36-.21v.22l-.13,.08v.92l-.1,.06Z" style="fill:#1f9967;"/><path d="M111.71,43.98l.13-1.22,.12-.07,.14,1.06-.11,.06-.03-.26-.13,.08-.03,.29-.1,.06Zm.16-.67v.11l.08-.05v-.1l-.03-.17c0-.06-.01-.12-.02-.18h0l-.02,.2c0,.07-.01,.13-.02,.19Z" style="fill:#1f9967;"/><path d="M112.66,43.43l-.14-1.06,.11-.06,.05,.5c0,.06,.01,.12,.02,.17s.01,.11,.02,.17h0c0-.07,.01-.13,.02-.2,0-.06,.01-.13,.02-.19l.05-.56,.1-.06-.13,1.22-.12,.07Z" style="fill:#1f9967;"/><path d="M112.98,43.24v-1.14l.29-.17v.22l-.19,.11v.23l.16-.09v.22l-.16,.09v.26l.2-.12v.22l-.3,.17Z" style="fill:#1f9967;"/><path d="M113.37,43.02v-1.14l.16-.09s.05-.02,.07-.02c.02,0,.04,0,.05,.03,.02,.02,.03,.05,.04,.09,0,.04,.01,.09,.01,.16,0,.08,0,.16-.02,.22-.01,.06-.03,.11-.06,.15l.1,.4-.11,.06-.09-.36-.05,.03v.41l-.1,.06Zm.1-.67l.05-.03c.05-.03,.08-.1,.08-.22,0-.06,0-.09-.02-.11s-.03-.01-.06,0l-.05,.03v.32Z" style="fill:#1f9967;"/><path d="M113.94,42.71s-.06,.02-.09,0c-.03-.01-.06-.04-.08-.08l.06-.21s.04,.04,.06,.05c.02,.01,.04,0,.06,0s.04-.03,.05-.06,.01-.05,.01-.08c0-.02,0-.04,0-.05,0-.01,0-.02-.01-.03,0,0-.01-.01-.02-.02l-.03-.02-.06-.03s-.02-.01-.04-.03-.02-.03-.03-.05c0-.02-.02-.05-.02-.08s0-.07,0-.11c0-.05,0-.09,.01-.14s.02-.09,.03-.13,.03-.07,.05-.1c.02-.03,.04-.05,.07-.06,.03-.02,.05-.02,.08,0,.03,.01,.05,.04,.07,.07l-.05,.19s-.03-.03-.05-.04c-.02,0-.03,0-.06,0-.02,0-.03,.03-.04,.05-.01,.02-.02,.05-.02,.09s0,.06,.02,.07c.01,.01,.03,.02,.05,.03l.05,.03s.05,.04,.07,.08c.02,.04,.03,.1,.03,.18,0,.05,0,.1-.01,.14,0,.05-.02,.09-.03,.13-.01,.04-.03,.08-.05,.11-.02,.03-.05,.06-.07,.07Z" style="fill:#1f9967;"/><path d="M114.19,42.54v-.22l.1-.06v-.71l-.1,.06v-.22l.31-.18v.22l-.1,.06v.71l.1-.06v.22l-.31,.18Z" style="fill:#1f9967;"/><path d="M114.76,42.24s-.05,.02-.07,0c-.02-.01-.04-.04-.06-.08-.02-.04-.03-.1-.04-.17,0-.07-.01-.15-.01-.25s0-.18,.01-.26c0-.08,.02-.15,.04-.21,.02-.06,.03-.11,.06-.15,.02-.04,.05-.06,.07-.08s.05-.02,.07,0,.04,.04,.06,.08,.03,.1,.04,.16c0,.07,.01,.15,.01,.25s0,.19-.01,.27c0,.08-.02,.15-.04,.21s-.03,.11-.06,.15-.05,.07-.07,.08Zm0-.22s.04-.06,.06-.13c.01-.07,.02-.17,.02-.29s0-.21-.02-.26c-.01-.05-.03-.07-.06-.06s-.04,.06-.06,.13c-.01,.07-.02,.16-.02,.28s0,.21,.02,.27c.01,.06,.03,.08,.06,.06Z" style="fill:#1f9967;"/><path d="M115.01,42.08v-1.15l.1-.06,.09,.52,.04,.23h0c0-.06,0-.13,0-.2,0-.07,0-.14,0-.21v-.41l.1-.06v1.15l-.1,.06-.09-.52-.04-.23h0c0,.06,0,.13,0,.2,0,.07,0,.14,0,.21v.41l-.1,.06Z" style="fill:#1f9967;"/><path d="M97.24,53.86v-.18l.29-.17v.18l-.29,.17Z" style="fill:#1f9967;"/><path d="M97.62,53.65v-.18l.29-.17v.18l-.29,.17Z" style="fill:#1f9967;"/><path d="M98,53.43v-.18l.29-.17v.18l-.29,.17Z" style="fill:#1f9967;"/><path d="M98.38,53.21v-.18l.29-.17v.18l-.29,.17Z" style="fill:#1f9967;"/><path d="M98.76,52.99v-.18l.29-.17v.18l-.29,.17Z" style="fill:#1f9967;"/><path d="M99.15,52.77v-.18l.29-.17v.18l-.29,.17Z" style="fill:#1f9967;"/><path d="M99.53,52.55v-.18l.29-.17v.18l-.29,.17Z" style="fill:#1f9967;"/><path d="M99.91,52.33v-.18l.29-.17v.18l-.29,.17Z" style="fill:#1f9967;"/><path d="M100.3,52.11v-.18l.29-.17v.18l-.29,.17Z" style="fill:#1f9967;"/><path d="M100.68,51.89v-.18l.3-.17v.18l-.3,.17Z" style="fill:#1f9967;"/><path d="M101.07,51.67v-.18l.3-.17v.18l-.3,.17Z" style="fill:#1f9967;"/><path d="M101.46,51.45v-.18l.3-.17v.18l-.3,.17Z" style="fill:#1f9967;"/><path d="M101.85,51.23v-.18l.3-.17v.18l-.3,.17Z" style="fill:#1f9967;"/><path d="M102.23,51.01v-.18l.3-.17v.18l-.3,.17Z" style="fill:#1f9967;"/><path d="M102.62,50.78v-.18l.3-.17v.18l-.3,.17Z" style="fill:#1f9967;"/><path d="M103.01,50.56v-.18l.3-.17v.18l-.3,.17Z" style="fill:#1f9967;"/><path d="M103.4,50.34v-.18l.3-.17v.18l-.3,.17Z" style="fill:#1f9967;"/><path d="M103.79,50.11v-.18l.3-.17v.18l-.3,.17Z" style="fill:#1f9967;"/><path d="M104.18,49.89v-.18l.3-.17v.18l-.3,.17Z" style="fill:#1f9967;"/><path d="M104.69,49.92v-.32l-.12,.07v-.18l.11-.07v-.32l.07-.04v.32l.12-.07v.18l-.11,.07v.32l-.07,.04Z" style="fill:#1f9967;"/><path d="M104.97,49.44v-.18l.3-.17v.18l-.3,.17Z" style="fill:#1f9967;"/><path d="M105.36,49.22v-.18l.3-.17v.18l-.3,.17Z" style="fill:#1f9967;"/><path d="M105.76,48.99v-.18l.3-.17v.18l-.3,.17Z" style="fill:#1f9967;"/><path d="M106.15,48.76v-.18l.3-.17v.18l-.3,.17Z" style="fill:#1f9967;"/><path d="M106.55,48.54v-.18l.3-.17v.18l-.3,.17Z" style="fill:#1f9967;"/><path d="M106.94,48.31v-.18l.3-.17v.18l-.3,.17Z" style="fill:#1f9967;"/><path d="M107.34,48.08v-.18l.3-.17v.18l-.3,.17Z" style="fill:#1f9967;"/><path d="M107.74,47.86v-.18l.3-.17v.18l-.3,.17Z" style="fill:#1f9967;"/><path d="M108.25,47.88v-.32l-.12,.07v-.18l.12-.07v-.32l.07-.04v.32l.12-.07v.18l-.12,.07v.32l-.07,.04Z" style="fill:#1f9967;"/><path d="M108.54,47.4v-.18l.31-.18v.18l-.31,.18Z" style="fill:#1f9967;"/><path d="M108.94,47.17v-.18l.31-.18v.18l-.31,.18Z" style="fill:#1f9967;"/><path d="M109.34,46.94v-.18l.31-.18v.18l-.31,.18Z" style="fill:#1f9967;"/><path d="M109.74,46.71v-.18l.31-.18v.18l-.31,.18Z" style="fill:#1f9967;"/><path d="M110.14,46.48v-.18l.31-.18v.18l-.31,.18Z" style="fill:#1f9967;"/><path d="M110.54,46.25v-.18l.31-.18v.18l-.31,.18Z" style="fill:#1f9967;"/><path d="M110.94,46.02v-.18l.31-.18v.18l-.31,.18Z" style="fill:#1f9967;"/><path d="M111.35,45.79v-.18l.31-.18v.18l-.31,.18Z" style="fill:#1f9967;"/><path d="M111.75,45.56v-.18l.31-.18v.18l-.31,.18Z" style="fill:#1f9967;"/><path d="M112.16,45.33v-.18l.31-.18v.18l-.31,.18Z" style="fill:#1f9967;"/><path d="M112.56,45.1v-.18l.31-.18v.18l-.31,.18Z" style="fill:#1f9967;"/><path d="M112.97,44.86v-.18l.31-.18v.18l-.31,.18Z" style="fill:#1f9967;"/><path d="M113.38,44.63v-.18l.31-.18v.18l-.31,.18Z" style="fill:#1f9967;"/><path d="M113.78,44.4v-.18l.31-.18v.18l-.31,.18Z" style="fill:#1f9967;"/><path d="M114.19,44.16v-.18l.31-.18v.18l-.31,.18Z" style="fill:#1f9967;"/><path d="M114.6,43.93v-.18l.31-.18v.18l-.31,.18Z" style="fill:#1f9967;"/><path d="M115.01,43.69v-.18l.31-.18v.18l-.31,.18Z" style="fill:#1f9967;"/><path d="M115.42,43.46v-.18l.32-.18v.18l-.32,.18Z" style="fill:#1f9967;"/><path d="M98.11,55.87v-.64l-.09,.05v-.18l.08-.06v-.02s0-.09,0-.14c0-.04,.01-.09,.02-.12,.01-.04,.03-.07,.04-.1,.02-.03,.04-.05,.06-.06,.02-.01,.04-.02,.05-.02,.02,0,.03,0,.04,0l-.02,.19s-.04,0-.07,0c-.02,.01-.04,.03-.04,.06s-.01,.07-.01,.12v.02l.11-.06v.19l-.11,.06v.64l-.09,.05Z" style="fill:#1f9967;"/><path d="M98.5,55.67s-.03,.01-.04,0-.02-.02-.03-.04-.02-.04-.02-.07,0-.06,0-.1c0-.05,0-.09,.01-.13,0-.04,.02-.08,.04-.11,.02-.03,.04-.07,.06-.1,.03-.03,.06-.06,.1-.09,0-.04,0-.06-.02-.08s-.03-.02-.05,0c-.02,0-.03,.02-.05,.05-.02,.02-.03,.05-.05,.08l-.03-.14s.04-.09,.07-.12c.02-.04,.05-.06,.08-.08,.04-.03,.08-.01,.11,.03,.03,.05,.04,.14,.04,.26v.48l-.07,.04v-.09h-.01s-.03,.08-.05,.11c-.02,.03-.04,.05-.06,.07Zm.03-.21s.03-.02,.04-.05c.01-.02,.02-.05,.03-.08v-.14s-.04,.03-.06,.05c-.02,.02-.03,.03-.04,.05s-.02,.03-.02,.05c0,.02,0,.04,0,.05,0,.03,0,.04,.01,.05,0,0,.02,0,.03,0Z" style="fill:#1f9967;"/><path d="M98.95,55.41s-.03,0-.04,0c-.01-.01-.03-.03-.04-.06h0v.1l-.08,.04v-1.18l.09-.05v.42h0s.03-.07,.04-.1,.03-.04,.05-.05c.02-.01,.04-.01,.05,0,.02,.01,.03,.03,.04,.06,.01,.03,.02,.07,.03,.12s0,.11,.01,.17c0,.07,0,.14-.01,.2,0,.06-.02,.11-.03,.16-.01,.05-.03,.08-.04,.11-.02,.03-.03,.05-.05,.06Zm-.02-.19s.03-.04,.04-.08c.01-.05,.02-.11,.02-.2,0-.15-.02-.22-.06-.19-.02,.01-.04,.05-.06,.11v.34s.02,.02,.03,.03c0,0,.02,0,.03,0Z" style="fill:#1f9967;"/><path d="M99.29,55.2v-.64l-.13,.07v-.19l.22-.13v.84l-.09,.05Zm.04-1s-.03,0-.05-.02c-.01-.02-.02-.05-.02-.1s0-.09,.02-.12,.03-.06,.04-.07,.03,0,.05,.02c.01,.02,.02,.06,.02,.1s0,.09-.02,.12c-.01,.03-.03,.06-.04,.07Z" style="fill:#1f9967;"/><path d="M99.69,54.99s-.04,.01-.06,0c-.02,0-.04-.03-.05-.06s-.03-.07-.04-.12c0-.05-.01-.11-.01-.18s0-.13,.01-.19,.02-.11,.04-.16c.01-.05,.03-.08,.05-.11s.04-.05,.06-.06,.04-.01,.06,0c.02,0,.04,.03,.05,.06,.02,.03,.03,.07,.04,.12s.01,.11,.01,.18,0,.13-.01,.19c0,.06-.02,.11-.04,.16s-.03,.08-.05,.11c-.02,.03-.04,.05-.06,.06Zm0-.2s.04-.04,.05-.09c.01-.05,.02-.11,.02-.18s0-.13-.02-.17c-.01-.04-.03-.05-.05-.04s-.04,.04-.05,.09-.02,.11-.02,.18,0,.13,.02,.17c.01,.04,.03,.05,.05,.04Z" style="fill:#1f9967;"/><path d="M104.7,52.57v-1.71l.08-.05v1.71l-.08,.05Z" style="fill:#1f9967;"/><path d="M105.59,51.65s-.07,0-.09-.04c-.02-.05-.03-.13-.03-.24v-.67l-.11,.06v-.2l.2-.11v.88s0,.05,0,.06c0,.02,0,.03,.01,.04,0,0,.01,.01,.02,.01s.01,0,.02,0c0,0,.02-.01,.02-.02,0,0,.02-.02,.03-.04l.02,.17-.02,.03s-.01,.02-.02,.03-.02,.02-.02,.02c0,0-.02,.01-.03,.02Z" style="fill:#1f9967;"/><path d="M105.87,51.49s-.03,.01-.04,0-.02-.02-.03-.04-.02-.04-.02-.07,0-.06,0-.1c0-.05,0-.09,.01-.13,0-.04,.02-.08,.04-.11,.02-.04,.04-.07,.07-.1,.03-.03,.06-.06,.1-.09,0-.04,0-.06-.02-.08s-.03-.02-.05,0c-.02,0-.03,.03-.05,.05-.02,.02-.03,.05-.05,.09l-.03-.15s.05-.09,.07-.12c.03-.04,.05-.06,.08-.08,.05-.03,.08-.01,.11,.03,.03,.05,.04,.14,.04,.27v.49l-.08,.04v-.09h-.01s-.03,.08-.05,.12c-.02,.03-.04,.06-.06,.07Zm.03-.21s.03-.02,.04-.05c.01-.02,.02-.05,.04-.08v-.14s-.04,.03-.06,.05c-.02,.02-.03,.03-.04,.05s-.02,.04-.02,.05c0,.02,0,.04,0,.05,0,.03,0,.05,.01,.05,0,0,.02,0,.03,0Z" style="fill:#1f9967;"/><path d="M106.37,51.21s-.05,.02-.07,0-.03-.03-.04-.05c-.01-.03-.02-.06-.02-.1,0-.04,0-.09,0-.15v-.3l-.08,.05v-.19l.09-.06v-.27l.09-.05v.26l.14-.08v.2l-.14,.08v.3c0,.07,0,.11,.02,.13,.01,.02,.03,.02,.05,.01,.01,0,.02-.02,.03-.03,.01-.01,.02-.02,.03-.04l.02,.17s-.03,.04-.05,.06c-.02,.02-.04,.04-.06,.05Z" style="fill:#1f9967;"/><path d="M106.73,51.01s-.05,.02-.07,.01c-.02,0-.04-.03-.06-.05-.02-.03-.03-.07-.04-.12,0-.05-.01-.11-.01-.18s0-.14,.01-.2,.02-.12,.04-.16c.02-.05,.03-.09,.05-.12s.04-.05,.06-.07c.03-.01,.05-.02,.07,0,.02,0,.04,.03,.05,.06,.01,.03,.02,.07,.03,.11s.01,.1,.01,.16c0,.02,0,.05,0,.07v.05l-.23,.13c0,.06,.02,.1,.03,.12,.02,.02,.04,.02,.07,0,.01,0,.03-.02,.04-.04,.01-.02,.03-.04,.04-.07l.03,.13s-.04,.08-.06,.11-.05,.05-.07,.06Zm-.01-.7s-.04,.03-.05,.07c-.01,.03-.02,.08-.03,.14l.14-.08c0-.1-.03-.15-.07-.12Z" style="fill:#1f9967;"/><path d="M107.1,50.79s-.06,.02-.09,.01c-.03,0-.05-.03-.07-.05l.04-.18s.04,.04,.06,.04,.05,0,.07-.01c.02-.01,.03-.02,.04-.04,0-.02,.01-.04,.01-.06,0-.01,0-.02,0-.03,0,0,0-.01-.01-.02,0,0-.01,0-.02,0h-.04s-.08-.02-.1-.05c-.02-.03-.03-.08-.03-.15,0-.04,0-.08,.01-.11,0-.04,.02-.07,.03-.1,.01-.03,.03-.06,.05-.08,.02-.02,.04-.04,.06-.06,.03-.02,.06-.02,.08,0,.02,.01,.04,.03,.06,.04l-.04,.18s-.03-.03-.05-.03c-.02,0-.04,0-.05,.01-.02,0-.03,.02-.03,.04s-.01,.04-.01,.05c0,.02,0,.04,.02,.04s.03,0,.06,0c.03,0,.05,0,.06,.01,.02,0,.03,.02,.04,.04,0,.02,.02,.04,.02,.06,0,.03,0,.06,0,.09,0,.04,0,.08-.01,.11,0,.04-.02,.07-.03,.1-.01,.03-.03,.06-.05,.09-.02,.03-.04,.05-.07,.06Z" style="fill:#1f9967;"/><path d="M107.56,50.54s-.05,.02-.07,.01-.03-.03-.04-.05c-.01-.03-.02-.06-.02-.1,0-.04,0-.09,0-.15v-.3l-.08,.05v-.19l.09-.06v-.27l.09-.05v.26l.14-.08v.2l-.14,.08v.3c0,.07,0,.11,.02,.13,.01,.02,.03,.02,.05,.01,.01,0,.02-.02,.03-.03,.01-.01,.02-.02,.03-.04l.02,.17s-.03,.04-.05,.06c-.02,.02-.04,.04-.06,.05Z" style="fill:#1f9967;"/><path d="M108.26,50.55v-1.73l.08-.05v1.73l-.08,.05Z" style="fill:#1f9967;"/><path d="M109.1,49.66s-.05,.01-.07,0c-.02-.01-.04-.04-.05-.08-.01-.04-.03-.09-.03-.16s-.01-.15-.01-.24,0-.18,.01-.25,.02-.14,.03-.2c.01-.06,.03-.1,.05-.14,.02-.04,.04-.06,.07-.07s.05-.01,.07,0c.02,.01,.04,.04,.05,.08,.01,.04,.03,.09,.03,.16,0,.07,.01,.15,.01,.24s0,.18-.01,.25c0,.08-.02,.14-.03,.2s-.03,.1-.05,.14c-.02,.04-.04,.06-.07,.07Zm0-.2s.02-.02,.03-.04c0-.02,.02-.04,.02-.08,0-.03,.01-.07,.02-.13,0-.05,0-.11,0-.18s0-.13,0-.17c0-.05,0-.08-.02-.1,0-.02-.01-.04-.02-.05,0,0-.02,0-.03,0s-.02,.02-.03,.03c0,.02-.02,.04-.02,.07,0,.03-.01,.07-.02,.12,0,.05,0,.11,0,.18s0,.13,0,.18c0,.05,0,.08,.02,.11s.01,.04,.02,.05c0,0,.02,0,.03,0Zm0-.25s-.03,0-.04-.02-.01-.05-.01-.09,0-.08,.01-.1,.02-.05,.04-.06,.03,0,.04,.02,.01,.05,.01,.09,0,.08-.01,.1-.02,.05-.04,.06Z" style="fill:#1f9967;"/><path d="M109.5,49.44s-.04,0-.06-.03c-.01-.03-.02-.07-.02-.13,0-.03,0-.06,0-.08,0-.03,0-.05,.02-.07s.01-.04,.02-.06c0-.02,.02-.03,.03-.03s.02,0,.03,0c0,0,.02,.01,.02,.03,0,.01,.01,.03,.02,.06,0,.02,0,.05,0,.08,0,.06,0,.11-.02,.16-.01,.05-.03,.08-.06,.09Z" style="fill:#1f9967;"/><path d="M109.9,49.21s-.05,.01-.07,0c-.02-.01-.04-.04-.05-.08-.01-.04-.03-.09-.03-.16s-.01-.15-.01-.24,0-.18,.01-.25,.02-.14,.03-.2c.01-.06,.03-.1,.05-.14,.02-.04,.04-.06,.07-.07s.05-.01,.07,0c.02,.01,.04,.04,.05,.08,.01,.04,.03,.09,.03,.16,0,.07,.01,.15,.01,.24s0,.18-.01,.25c0,.08-.02,.14-.03,.2s-.03,.1-.05,.14c-.02,.04-.04,.06-.07,.08Zm0-.2s.02-.02,.03-.04c0-.02,.02-.04,.02-.08,0-.03,.01-.08,.02-.13,0-.05,0-.11,0-.18s0-.13,0-.18c0-.05,0-.08-.02-.1,0-.02-.01-.04-.02-.05,0,0-.02,0-.03,0s-.02,.02-.03,.03c0,.02-.02,.04-.02,.07,0,.03-.01,.07-.02,.12,0,.05,0,.11,0,.18s0,.13,0,.18c0,.05,0,.08,.02,.11s.01,.04,.02,.05c0,0,.02,0,.03,0Zm0-.25s-.03,0-.04-.02-.01-.05-.01-.09,0-.08,.01-.1,.02-.05,.04-.06,.03,0,.04,.02,.01,.05,.01,.09,0,.08-.01,.1-.02,.05-.04,.06Z" style="fill:#1f9967;"/><path d="M110.3,48.98s-.04,0-.06-.03c-.01-.03-.02-.07-.02-.13,0-.03,0-.06,0-.08,0-.03,0-.05,.02-.07s.01-.04,.02-.06c0-.02,.02-.03,.03-.03s.02,0,.03,0c0,0,.02,.01,.02,.03,0,.01,.01,.03,.02,.06,0,.02,0,.05,0,.08,0,.06,0,.11-.02,.16-.01,.05-.03,.08-.06,.09Z" style="fill:#1f9967;"/><path d="M110.55,48.82v-.21l.11-.07v-.64l-.1,.05v-.16s.03-.03,.04-.04,.02-.03,.03-.04c0-.01,.02-.03,.03-.04,0-.01,.02-.03,.02-.05l.07-.04v.9l.1-.05v.21l-.31,.18Z" style="fill:#1f9967;"/><path d="M98.16,58.23s-.04,.02-.06,.02c-.02,0-.03,0-.05-.01-.01-.01-.02-.03-.03-.05,0-.02-.01-.05-.01-.09,0-.07,.02-.13,.05-.19h0s-.02-.03-.02-.05,0-.05,0-.08c0-.03,0-.06,0-.09,0-.03,.02-.06,.03-.09h0s-.02-.04-.03-.08c0-.03-.01-.07-.01-.12s0-.1,.01-.14,.02-.08,.03-.11c.01-.03,.03-.06,.04-.08,.02-.02,.03-.04,.05-.05,.02-.01,.04-.01,.05,0l.13-.07v.18l-.06,.04s0,.02,0,.04c0,.02,0,.04,0,.06,0,.05,0,.09,0,.13,0,.04-.02,.07-.03,.1s-.03,.05-.04,.07-.03,.04-.05,.05c-.01,0-.03,.01-.04,0,0,.01,0,.02-.01,.03,0,.01,0,.02,0,.04,0,.02,0,.04,.01,.04,0,0,.02,0,.04,0l.06-.03s.07-.02,.1,0c.02,.02,.03,.07,.03,.14,0,.04,0,.09-.01,.13s-.02,.08-.04,.12c-.02,.04-.04,.07-.06,.1-.02,.03-.05,.05-.08,.07Zm.01-.16s.05-.04,.06-.06,.02-.06,.02-.09c0-.03,0-.04-.01-.04,0,0-.02,0-.04,.01l-.04,.02s-.02,.01-.03,.01c0,0-.01,0-.02,0,0,.02-.01,.03-.02,.05,0,.01,0,.03,0,.05,0,.03,0,.05,.02,.06,.01,0,.03,0,.06,0Zm-.01-.61s.02-.03,.03-.05,.01-.07,.01-.11,0-.07-.01-.09-.02-.02-.03-.02-.02,.03-.03,.05-.01,.07-.01,.11c0,.05,0,.08,.01,.1s.02,.02,.03,.02Z" style="fill:#1f9967;"/><path d="M98.44,57.71v-.84l.07-.04v.18h.01c.02-.08,.03-.14,.06-.19,.02-.05,.05-.08,.07-.09,.01,0,.03-.01,.03-.01,0,0,.02,0,.03,.01l-.02,.22s-.02,0-.03,0c0,0-.02,0-.03,.01-.02,.01-.04,.04-.06,.08-.02,.04-.03,.1-.05,.19v.44l-.09,.05Z" style="fill:#1f9967;"/><path d="M98.89,57.48s-.03,.01-.04,0-.02-.02-.03-.04-.02-.04-.02-.07,0-.06,0-.1c0-.05,0-.09,.01-.13,0-.04,.02-.08,.04-.11,.02-.03,.04-.07,.06-.1,.03-.03,.06-.06,.1-.09,0-.04,0-.06-.02-.08s-.03-.02-.05,0c-.02,0-.03,.02-.05,.05-.02,.02-.03,.05-.05,.08l-.03-.14s.04-.08,.07-.12c.02-.04,.05-.06,.08-.08,.04-.02,.08-.01,.11,.03,.03,.05,.04,.14,.04,.26v.48l-.07,.04v-.09h-.01s-.03,.08-.05,.11c-.02,.03-.04,.05-.06,.07Zm.03-.21s.03-.02,.04-.05c.01-.02,.02-.05,.03-.08v-.14s-.04,.03-.06,.05c-.02,.02-.03,.03-.04,.05s-.02,.03-.02,.05c0,.02,0,.04,0,.05,0,.03,0,.04,.01,.05,0,0,.02,0,.03,0Z" style="fill:#1f9967;"/><path d="M99.27,57.25v-.64l-.09,.05v-.18l.08-.06v-.02s0-.09,0-.14c0-.04,.01-.09,.02-.12,.01-.04,.03-.07,.04-.1,.02-.03,.04-.05,.06-.06,.02-.01,.04-.02,.05-.02,.02,0,.03,0,.04,0l-.02,.19s-.04,0-.07,0c-.02,.01-.04,.03-.04,.06s-.01,.07-.01,.12v.02l.11-.06v.19l-.11,.06v.64l-.09,.05Z" style="fill:#1f9967;"/><path d="M99.66,57.05s-.03,.01-.04,0-.02-.02-.03-.04-.02-.04-.02-.07,0-.06,0-.1c0-.05,0-.09,.01-.13,0-.04,.02-.08,.04-.11,.02-.03,.04-.07,.06-.1,.03-.03,.06-.06,.1-.09,0-.04,0-.06-.02-.08s-.03-.02-.05,0c-.02,0-.03,.02-.05,.05-.02,.02-.03,.05-.05,.08l-.03-.14s.04-.09,.07-.12c.02-.04,.05-.06,.08-.08,.04-.02,.08-.01,.11,.03,.03,.05,.04,.14,.04,.26v.48l-.07,.04v-.09h-.01s-.03,.08-.05,.11c-.02,.03-.04,.05-.06,.07Zm.03-.21s.03-.02,.04-.05c.01-.02,.02-.05,.03-.08v-.14s-.04,.03-.06,.05c-.02,.02-.03,.03-.04,.05s-.02,.03-.02,.05c0,.02,0,.04,0,.05,0,.03,0,.04,.01,.05,0,0,.02,0,.03,0Z" style="fill:#1f9967;"/><path d="M99.94,56.87v-.84l.07-.04v.11h.01s.03-.09,.05-.12c.02-.04,.04-.06,.06-.07,.04-.02,.06,0,.08,.05,.02,.05,.03,.13,.03,.24v.52l-.09,.05v-.49c0-.06,0-.1-.01-.12,0-.02-.02-.03-.04-.02-.01,0-.02,.02-.03,.04,0,.02-.02,.05-.03,.08v.56l-.09,.05Z" style="fill:#1f9967;"/><path d="M100.42,56.62s-.03,.01-.04,0-.02-.02-.03-.04-.02-.04-.02-.07,0-.06,0-.1c0-.05,0-.09,.01-.13,0-.04,.02-.08,.04-.11,.02-.03,.04-.07,.06-.1,.03-.03,.06-.06,.1-.09,0-.04,0-.06-.02-.08s-.03-.02-.05,0c-.02,0-.03,.02-.05,.05-.02,.02-.03,.05-.05,.09l-.03-.14s.04-.09,.07-.12c.02-.04,.05-.06,.08-.08,.04-.03,.08-.01,.11,.03,.03,.05,.04,.14,.04,.26v.48l-.07,.04v-.09h-.01s-.03,.08-.05,.11c-.02,.03-.04,.05-.06,.07Zm.03-.21s.03-.02,.04-.05c.01-.02,.02-.05,.03-.08v-.14s-.04,.03-.06,.05c-.02,.02-.03,.03-.04,.05s-.02,.03-.02,.05c0,.02,0,.04,0,.05,0,.03,0,.04,.01,.05,0,0,.02,0,.03,0Z" style="fill:#1f9967;"/><path d="M104.71,54.62v-1.71l.08-.05v1.71l-.08,.05Z" style="fill:#1f9967;"/><path d="M105.6,53.71s-.07,0-.09-.04c-.02-.05-.03-.13-.03-.24v-.67l-.11,.06v-.2l.2-.11v.88s0,.05,0,.06c0,.02,0,.03,.01,.04,0,0,.01,.01,.02,.01s.01,0,.02,0c0,0,.02-.01,.02-.02,0,0,.02-.02,.03-.04l.02,.17-.02,.03s-.01,.02-.02,.03-.02,.02-.02,.02c0,0-.02,.01-.03,.02Z" style="fill:#1f9967;"/><path d="M105.88,53.55s-.03,.01-.04,0-.02-.02-.03-.04-.02-.04-.02-.07,0-.06,0-.1c0-.05,0-.09,.01-.13,0-.04,.02-.08,.04-.11,.02-.03,.04-.07,.07-.1,.03-.03,.06-.06,.1-.09,0-.04,0-.06-.02-.08s-.03-.02-.05,0c-.02,0-.03,.03-.05,.05-.02,.02-.03,.05-.05,.09l-.03-.15s.05-.09,.07-.12c.03-.04,.05-.06,.08-.08,.05-.03,.08-.01,.11,.03,.03,.05,.04,.14,.04,.27v.49l-.08,.04v-.09h-.01s-.03,.08-.05,.12c-.02,.03-.04,.06-.06,.07Zm.03-.21s.03-.02,.04-.05c.01-.02,.02-.05,.04-.08v-.14s-.04,.03-.06,.05c-.02,.02-.03,.03-.04,.05s-.02,.03-.02,.05c0,.02,0,.04,0,.05,0,.03,0,.05,.01,.05,0,0,.02,0,.03,0Z" style="fill:#1f9967;"/><path d="M106.38,53.27s-.05,.02-.07,0-.03-.03-.04-.05c-.01-.03-.02-.06-.02-.1,0-.04,0-.09,0-.15v-.3l-.08,.05v-.19l.09-.06v-.27l.09-.04v.26l.14-.08v.2l-.14,.08v.3c0,.07,0,.11,.02,.13,.01,.02,.03,.02,.05,.01,.01,0,.02-.02,.03-.03,.01-.01,.02-.02,.03-.04l.02,.17s-.03,.04-.05,.06c-.02,.02-.04,.04-.06,.05Z" style="fill:#1f9967;"/><path d="M106.74,53.07s-.05,.02-.07,.01c-.02,0-.04-.03-.06-.05-.02-.03-.03-.07-.04-.12,0-.05-.01-.11-.01-.18s0-.14,.01-.2,.02-.11,.04-.16c.02-.05,.03-.09,.05-.12s.04-.05,.06-.07c.03-.01,.05-.02,.07,0,.02,0,.04,.03,.05,.06,.01,.03,.02,.07,.03,.11s.01,.1,.01,.16c0,.02,0,.05,0,.07v.05l-.23,.13c0,.06,.02,.1,.03,.12,.02,.02,.04,.02,.07,0,.01,0,.03-.02,.04-.04,.01-.02,.03-.04,.04-.07l.03,.13s-.04,.08-.06,.11-.05,.05-.07,.06Zm-.01-.7s-.04,.03-.05,.07c-.01,.03-.02,.08-.03,.14l.14-.08c0-.1-.03-.15-.07-.12Z" style="fill:#1f9967;"/><path d="M107.11,52.86s-.06,.02-.09,.01c-.03,0-.05-.03-.07-.05l.04-.18s.04,.04,.06,.04,.05,0,.07-.01c.02-.01,.03-.02,.04-.04,0-.02,.01-.04,.01-.06,0-.01,0-.02,0-.03,0,0,0-.01-.01-.02,0,0-.01,0-.02,0h-.04s-.08-.02-.1-.05c-.02-.03-.03-.08-.03-.15,0-.04,0-.08,.01-.11,0-.04,.02-.07,.03-.1,.01-.03,.03-.06,.05-.08,.02-.02,.04-.04,.06-.06,.03-.02,.06-.02,.08,0,.02,.01,.04,.03,.06,.05l-.04,.18s-.03-.03-.05-.03c-.02,0-.04,0-.05,.01-.02,0-.03,.02-.03,.04s-.01,.04-.01,.05c0,.02,0,.04,.02,.04s.03,0,.06,0c.03,0,.05,0,.06,.01,.02,0,.03,.02,.04,.04,0,.02,.02,.04,.02,.06,0,.03,0,.06,0,.09,0,.04,0,.08-.01,.11,0,.04-.02,.07-.03,.1-.01,.03-.03,.06-.05,.09-.02,.03-.04,.05-.07,.06Z" style="fill:#1f9967;"/><path d="M107.57,52.6s-.05,.02-.07,0-.03-.03-.04-.05c-.01-.03-.02-.06-.02-.1,0-.04,0-.09,0-.15v-.3l-.08,.05v-.19l.09-.06v-.27l.09-.05v.26l.14-.08v.2l-.14,.08v.3c0,.07,0,.11,.02,.13,.01,.02,.03,.02,.05,.01,.01,0,.02-.02,.03-.03,.01-.01,.02-.02,.03-.04l.02,.17s-.03,.04-.05,.06c-.02,.02-.04,.04-.06,.05Z" style="fill:#1f9967;"/><path d="M108.26,52.62v-1.73l.08-.05v1.73l-.08,.05Z" style="fill:#1f9967;"/><path d="M109.1,51.74s-.05,.01-.07,0c-.02-.01-.04-.04-.05-.08-.01-.04-.03-.09-.03-.16s-.01-.15-.01-.24,0-.18,.01-.25,.02-.14,.03-.2c.01-.06,.03-.1,.05-.14,.02-.03,.04-.06,.07-.07s.05-.01,.07,0c.02,.01,.04,.04,.05,.08,.01,.04,.03,.09,.03,.16,0,.07,.01,.15,.01,.24s0,.18-.01,.25c0,.08-.02,.14-.03,.2s-.03,.1-.05,.14c-.02,.04-.04,.06-.07,.07Zm0-.2s.02-.02,.03-.04c0-.02,.02-.04,.02-.08,0-.03,.01-.07,.02-.12,0-.05,0-.11,0-.18s0-.13,0-.17c0-.05,0-.08-.02-.1,0-.02-.01-.04-.02-.05,0,0-.02,0-.03,0s-.02,.02-.03,.03c0,.02-.02,.04-.02,.07,0,.03-.01,.07-.02,.12,0,.05,0,.11,0,.18s0,.13,0,.18c0,.05,0,.08,.02,.11s.01,.04,.02,.05c0,0,.02,0,.03,0Zm0-.25s-.03,0-.04-.02-.01-.05-.01-.09,0-.08,.01-.1,.02-.05,.04-.06,.03,0,.04,.02,.01,.05,.01,.09,0,.08-.01,.1-.02,.05-.04,.06Z" style="fill:#1f9967;"/><path d="M109.5,51.52s-.04,0-.06-.03c-.01-.03-.02-.07-.02-.13,0-.03,0-.06,0-.08,0-.03,0-.05,.02-.07s.01-.04,.02-.06c0-.02,.02-.03,.03-.03s.02,0,.03,0c0,0,.02,.01,.02,.03,0,.01,.01,.03,.02,.06,0,.02,0,.05,0,.08,0,.06,0,.11-.02,.16-.01,.05-.03,.08-.06,.09Z" style="fill:#1f9967;"/><path d="M109.9,51.29s-.05,.01-.07,0c-.02-.01-.04-.04-.05-.08-.01-.04-.03-.09-.03-.16s-.01-.15-.01-.24,0-.18,.01-.25,.02-.14,.03-.2c.01-.06,.03-.1,.05-.14,.02-.03,.04-.06,.07-.07s.05-.01,.07,0c.02,.01,.04,.04,.05,.08,.01,.04,.03,.09,.03,.16,0,.07,.01,.15,.01,.24s0,.18-.01,.25c0,.08-.02,.14-.03,.2s-.03,.1-.05,.14c-.02,.04-.04,.06-.07,.07Zm0-.2s.02-.02,.03-.04c0-.02,.02-.04,.02-.08,0-.03,.01-.07,.02-.13,0-.05,0-.11,0-.18s0-.13,0-.18c0-.05,0-.08-.02-.1,0-.02-.01-.04-.02-.05,0,0-.02,0-.03,0s-.02,.02-.03,.03c0,.02-.02,.04-.02,.07,0,.03-.01,.07-.02,.12,0,.05,0,.11,0,.18s0,.13,0,.18c0,.05,0,.08,.02,.11s.01,.04,.02,.05c0,0,.02,0,.03,0Zm0-.25s-.03,0-.04-.02-.01-.05-.01-.09,0-.08,.01-.1,.02-.05,.04-.06,.03,0,.04,.02,.01,.05,.01,.09,0,.08-.01,.1-.02,.05-.04,.06Z" style="fill:#1f9967;"/><path d="M110.3,51.06s-.04,0-.06-.03c-.01-.03-.02-.07-.02-.13,0-.03,0-.06,0-.08,0-.03,0-.05,.02-.07s.01-.04,.02-.06c0-.02,.02-.03,.03-.03s.02,0,.03,0c0,0,.02,.01,.02,.03,0,.01,.01,.03,.02,.06,0,.02,0,.05,0,.08,0,.06,0,.11-.02,.16-.01,.05-.03,.08-.06,.09Z" style="fill:#1f9967;"/><path d="M110.56,50.9v-.21l.11-.06v-.64l-.1,.05v-.16s.03-.03,.04-.04,.02-.03,.03-.04c0-.01,.02-.03,.03-.04,0-.01,.02-.03,.02-.05l.07-.04v.9l.1-.05v.21l-.31,.17Z" style="fill:#1f9967;"/><path d="M98.04,59.96v-1.18l.09-.05v.45h0s.03-.08,.04-.11,.04-.06,.06-.07c.04-.02,.06,0,.08,.05,.02,.05,.03,.13,.03,.24v.52l-.09,.05v-.48c0-.06,0-.1-.01-.12,0-.02-.02-.03-.04-.02-.01,0-.02,.02-.03,.04,0,.02-.02,.05-.03,.08v.56l-.09,.05Z" style="fill:#1f9967;"/><path d="M98.59,59.68s-.05,.02-.07,0c-.02,0-.04-.03-.06-.05-.02-.03-.03-.07-.04-.12,0-.05-.01-.11-.01-.18s0-.13,.01-.19,.02-.11,.04-.16c.02-.05,.03-.08,.05-.12s.04-.05,.06-.06c.02-.01,.05-.02,.06,0,.02,0,.03,.03,.05,.06,.01,.03,.02,.07,.03,.11s.01,.1,.01,.15c0,.02,0,.04,0,.07v.05l-.22,.12c0,.06,.02,.1,.03,.12,.02,.02,.04,.02,.06,0,.01,0,.03-.02,.04-.04,.01-.02,.03-.04,.04-.07l.03,.13s-.04,.08-.06,.11-.04,.05-.06,.06Zm-.01-.68s-.03,.03-.05,.06c-.01,.03-.02,.08-.02,.13l.13-.08c0-.1-.03-.14-.06-.12Z" style="fill:#1f9967;"/><path d="M99.01,59.44s-.07,0-.09-.04c-.02-.05-.03-.13-.03-.24v-.66l-.1,.06v-.2l.19-.11v.87s0,.05,0,.06c0,.02,0,.03,.01,.04,0,0,.01,.01,.02,.01s.01,0,.02,0c0,0,.01-.01,.02-.02,0,0,.02-.02,.03-.04l.02,.17-.02,.03-.02,.03s-.01,.02-.02,.02c0,0-.02,.01-.03,.02Z" style="fill:#1f9967;"/><path d="M99.39,59.23s-.07,0-.09-.04c-.02-.05-.03-.13-.03-.24v-.66l-.1,.06v-.2l.19-.11v.87s0,.05,0,.06c0,.02,0,.03,.01,.04,0,0,.01,.01,.02,.01s.01,0,.02,0c0,0,.01-.01,.02-.02,0,0,.02-.02,.03-.04l.02,.17-.02,.03-.02,.03s-.01,.02-.02,.02c0,0-.02,.01-.03,.02Z" style="fill:#1f9967;"/><path d="M99.72,59.05s-.04,.01-.06,0c-.02,0-.04-.03-.05-.06s-.03-.07-.04-.12c0-.05-.01-.11-.01-.18s0-.13,.01-.19,.02-.11,.04-.16c.01-.05,.03-.08,.05-.11s.04-.05,.06-.06,.04-.01,.06,0c.02,0,.04,.03,.05,.06,.02,.03,.03,.07,.04,.12s.01,.11,.01,.18,0,.13-.01,.19c0,.06-.02,.11-.04,.16s-.03,.08-.05,.11c-.02,.03-.04,.05-.06,.06Zm0-.2s.04-.04,.05-.09c.01-.05,.02-.11,.02-.18s0-.13-.02-.16c-.01-.04-.03-.05-.05-.04s-.04,.04-.05,.09-.02,.11-.02,.18,0,.13,.02,.16c.01,.04,.03,.05,.05,.04Z" style="fill:#1f9967;"/><path d="M99.95,59.18v-.19l.31-.17v.19l-.31,.17Z" style="fill:#1f9967;"/><path d="M100.35,58.68l-.06-.81,.09-.05,.02,.38s0,.08,0,.12c0,.04,0,.08,0,.12h0v-.13s.01-.09,.01-.13l.02-.29,.07-.04,.02,.27s0,.08,0,.12c0,.04,0,.08,0,.12h0s0-.09,0-.13c0-.04,0-.08,0-.13l.02-.4,.09-.05-.04,.87-.11,.06-.02-.26s0-.07,0-.11v-.13h0v.26l-.02,.28-.11,.06Z" style="fill:#1f9967;"/><path d="M100.87,58.41s-.04,.01-.06,0c-.02,0-.04-.03-.05-.06s-.03-.07-.04-.12c0-.05-.01-.11-.01-.18s0-.13,.01-.19,.02-.11,.04-.16c.01-.05,.03-.08,.05-.11s.04-.05,.06-.06,.04-.01,.06,0c.02,0,.04,.03,.05,.06,.02,.03,.03,.07,.04,.12s.01,.11,.01,.18,0,.13-.01,.19c0,.06-.02,.11-.04,.16s-.03,.08-.05,.11c-.02,.03-.04,.05-.06,.06Zm0-.2s.04-.04,.05-.09c.01-.05,.02-.11,.02-.18s0-.13-.02-.17c-.01-.04-.03-.05-.05-.04s-.04,.04-.05,.09-.02,.11-.02,.18,0,.13,.02,.17c.01,.04,.03,.05,.05,.04Z" style="fill:#1f9967;"/><path d="M101.14,58.24v-.84l.07-.04v.18h.01c.02-.08,.03-.14,.06-.19,.02-.05,.05-.08,.07-.09,.01,0,.03-.01,.03-.01,0,0,.02,0,.03,.01l-.02,.22s-.02,0-.03,0c0,0-.02,0-.03,.01-.02,.01-.04,.04-.06,.08-.02,.04-.04,.1-.05,.19v.44l-.09,.05Z" style="fill:#1f9967;"/><path d="M101.7,57.94s-.07,0-.09-.04c-.02-.05-.03-.13-.03-.24v-.66l-.1,.06v-.2l.19-.11v.87s0,.05,0,.06c0,.02,0,.03,.01,.04,0,0,.01,.01,.02,.01s.01,0,.02,0c0,0,.01-.01,.02-.02,0,0,.02-.02,.03-.04l.02,.17-.02,.03-.02,.03s-.02,.02-.02,.02c0,0-.02,.01-.03,.02Z" style="fill:#1f9967;"/><path d="M102,57.78s-.04,.01-.06,0c-.02-.01-.03-.03-.04-.06-.01-.03-.02-.07-.03-.12s-.01-.11-.01-.18,0-.13,.01-.19c0-.06,.02-.11,.03-.16,.01-.05,.03-.08,.04-.11,.02-.03,.03-.05,.05-.06s.03-.01,.05,0c.01,0,.02,.02,.04,.05h0v-.42l.09-.05v1.19l-.07,.04v-.08h0s-.03,.07-.04,.1c-.02,.03-.03,.05-.05,.06Zm.02-.22s.02-.02,.03-.03,.02-.04,.03-.08v-.34s-.02-.03-.03-.03c0,0-.02,0-.03,0-.02,0-.03,.04-.05,.08-.01,.05-.02,.11-.02,.19,0,.08,0,.14,.02,.17,.01,.03,.03,.04,.05,.03Z" style="fill:#1f9967;"/><path d="M104.72,56.67v-1.71l.08-.05v1.71l-.08,.05Z" style="fill:#1f9967;"/><path d="M105.6,55.77s-.07,0-.09-.04c-.02-.05-.03-.13-.03-.24v-.67l-.11,.06v-.2l.2-.11v.88s0,.05,0,.06c0,.02,0,.03,.01,.04,0,0,.01,.01,.02,.01s.01,0,.02,0c0,0,.02-.01,.02-.02,0,0,.02-.02,.03-.04l.02,.17-.02,.03-.02,.03s-.02,.02-.02,.02c0,0-.02,.01-.03,.02Z" style="fill:#1f9967;"/><path d="M105.89,55.61s-.03,.01-.04,0-.02-.02-.03-.04-.02-.04-.02-.07,0-.06,0-.1c0-.05,0-.09,.01-.13,0-.04,.02-.08,.04-.11,.02-.03,.04-.07,.07-.1,.03-.03,.06-.06,.1-.09,0-.04,0-.06-.02-.08s-.03-.02-.05,0c-.02,0-.03,.02-.05,.05-.02,.02-.03,.05-.05,.09l-.03-.15s.05-.09,.07-.12c.03-.04,.05-.06,.08-.08,.05-.03,.08-.01,.11,.03,.03,.05,.04,.14,.04,.27v.49l-.08,.04v-.09h-.01s-.03,.08-.05,.11c-.02,.03-.04,.06-.06,.07Zm.03-.21s.03-.02,.04-.05c.01-.02,.02-.05,.04-.08v-.14s-.04,.03-.06,.05c-.02,.02-.03,.03-.04,.05s-.02,.03-.02,.05c0,.02,0,.04,0,.05,0,.03,0,.05,.01,.05,0,0,.02,0,.03,0Z" style="fill:#1f9967;"/><path d="M106.39,55.33s-.05,.02-.07,0-.03-.03-.04-.05c-.01-.03-.02-.06-.02-.1,0-.04,0-.09,0-.15v-.3l-.08,.05v-.19l.09-.06v-.27l.09-.04v.26l.14-.08v.2l-.14,.08v.3c0,.07,0,.11,.02,.13,.01,.02,.03,.02,.05,.01,.01,0,.02-.02,.03-.03,.01-.01,.02-.02,.03-.04l.02,.17s-.03,.04-.05,.06c-.02,.02-.04,.04-.06,.05Z" style="fill:#1f9967;"/><path d="M106.74,55.13s-.05,.02-.07,0c-.02,0-.04-.03-.06-.05-.02-.03-.03-.07-.04-.12,0-.05-.01-.11-.01-.18s0-.14,.01-.2,.02-.11,.04-.16c.02-.05,.03-.09,.05-.12s.04-.05,.06-.07c.03-.01,.05-.02,.07,0,.02,0,.04,.03,.05,.06,.01,.03,.02,.07,.03,.11s.01,.1,.01,.16c0,.02,0,.05,0,.07v.05l-.23,.12c0,.06,.02,.1,.03,.12,.02,.02,.04,.02,.07,0,.01,0,.03-.02,.04-.04,.01-.02,.03-.04,.04-.07l.03,.13s-.04,.08-.06,.11-.05,.05-.07,.06Zm-.01-.7s-.04,.03-.05,.07c-.01,.03-.02,.08-.03,.14l.14-.08c0-.1-.03-.14-.07-.12Z" style="fill:#1f9967;"/><path d="M107.12,54.92s-.06,.02-.09,.01c-.03,0-.05-.03-.07-.05l.04-.18s.04,.04,.06,.04,.04,0,.07-.01c.02-.01,.03-.02,.04-.04,0-.02,.01-.04,.01-.06,0-.01,0-.02,0-.03,0,0,0-.01-.01-.02,0,0-.01,0-.02,0h-.04s-.08-.02-.1-.05c-.02-.03-.03-.08-.03-.15,0-.04,0-.08,.01-.11,0-.04,.02-.07,.03-.1,.01-.03,.03-.06,.05-.08,.02-.02,.04-.04,.06-.05,.03-.02,.06-.02,.08,0,.02,.01,.04,.03,.06,.05l-.04,.18s-.03-.03-.05-.03c-.02,0-.04,0-.05,0-.02,0-.03,.02-.03,.04s-.01,.03-.01,.05c0,.02,0,.04,.02,.04s.03,0,.06,0c.03,0,.05,0,.06,.01,.02,0,.03,.02,.04,.04,0,.02,.02,.04,.02,.06,0,.03,0,.06,0,.09,0,.04,0,.08-.01,.11,0,.04-.02,.07-.03,.1-.01,.03-.03,.06-.05,.09-.02,.03-.04,.05-.07,.06Z" style="fill:#1f9967;"/><path d="M107.57,54.67s-.05,.02-.07,0-.03-.03-.04-.05c-.01-.03-.02-.06-.02-.1,0-.04,0-.09,0-.15v-.3l-.08,.05v-.19l.09-.06v-.27l.09-.04v.26l.14-.08v.2l-.14,.08v.3c0,.07,0,.11,.02,.13,.01,.02,.03,.02,.05,.01,.01,0,.02-.02,.03-.03,.01-.01,.02-.02,.03-.04l.02,.17s-.03,.04-.05,.06c-.02,.02-.04,.04-.06,.05Z" style="fill:#1f9967;"/><path d="M108.27,54.69v-1.72l.08-.05v1.72l-.08,.05Z" style="fill:#1f9967;"/><path d="M109.11,53.81s-.05,.01-.07,0c-.02-.01-.04-.04-.05-.08-.01-.04-.03-.09-.03-.16s-.01-.15-.01-.24,0-.18,.01-.25,.02-.14,.03-.2c.01-.06,.03-.1,.05-.14,.02-.03,.04-.06,.07-.07s.05-.01,.07,0c.02,.01,.04,.04,.05,.08,.01,.04,.03,.09,.03,.16,0,.07,.01,.15,.01,.24s0,.18-.01,.25c0,.08-.02,.14-.03,.2s-.03,.1-.05,.14c-.02,.04-.04,.06-.07,.07Zm0-.2s.02-.02,.03-.04c0-.02,.02-.04,.02-.08,0-.03,.01-.07,.02-.12,0-.05,0-.11,0-.18s0-.13,0-.17c0-.05,0-.08-.02-.1,0-.02-.01-.04-.02-.05,0,0-.02,0-.03,0s-.02,.02-.03,.03c0,.02-.02,.04-.02,.07,0,.03-.01,.07-.02,.12,0,.05,0,.11,0,.18s0,.13,0,.18c0,.05,0,.08,.02,.11s.01,.04,.02,.05c0,0,.02,0,.03,0Zm0-.25s-.03,0-.04-.02-.01-.05-.01-.09,0-.07,.01-.1,.02-.05,.04-.06,.03,0,.04,.02,.01,.05,.01,.09,0,.07-.01,.1-.02,.05-.04,.06Z" style="fill:#1f9967;"/><path d="M109.51,53.59s-.04,0-.06-.03c-.01-.03-.02-.07-.02-.13,0-.03,0-.06,0-.08,0-.03,0-.05,.02-.07s.01-.04,.02-.06c0-.02,.02-.03,.03-.03s.02,0,.03,0c0,0,.02,.02,.02,.03,0,.01,.01,.03,.02,.06,0,.02,0,.05,0,.08,0,.06,0,.11-.02,.16-.01,.05-.03,.08-.06,.09Z" style="fill:#1f9967;"/><path d="M109.91,53.37s-.05,.01-.07,0c-.02-.01-.04-.04-.05-.08-.01-.04-.03-.09-.03-.16s-.01-.15-.01-.24,0-.18,.01-.25,.02-.14,.03-.2c.01-.06,.03-.1,.05-.14,.02-.03,.04-.06,.07-.07s.05-.01,.07,0c.02,.01,.04,.04,.05,.08,.01,.04,.03,.09,.03,.16,0,.07,.01,.15,.01,.24s0,.18-.01,.25c0,.08-.02,.14-.03,.2s-.03,.1-.05,.14c-.02,.04-.04,.06-.07,.07Zm0-.2s.02-.02,.03-.04c0-.02,.02-.04,.02-.08,0-.03,.01-.07,.02-.12,0-.05,0-.11,0-.18s0-.13,0-.17c0-.05,0-.08-.02-.1,0-.02-.01-.04-.02-.05,0,0-.02,0-.03,0s-.02,.02-.03,.03c0,.02-.02,.04-.02,.07,0,.03-.01,.07-.02,.12,0,.05,0,.11,0,.18s0,.13,0,.18c0,.05,0,.08,.02,.11s.01,.04,.02,.05c0,0,.02,0,.03,0Zm0-.25s-.03,0-.04-.02-.01-.05-.01-.09,0-.08,.01-.1,.02-.05,.04-.06,.03,0,.04,.02,.01,.05,.01,.09,0,.08-.01,.1-.02,.05-.04,.06Z" style="fill:#1f9967;"/><path d="M110.31,53.14s-.04,0-.06-.03c-.01-.03-.02-.07-.02-.13,0-.03,0-.06,0-.08,0-.03,0-.05,.02-.07s.01-.04,.02-.06c0-.02,.02-.03,.03-.03s.02,0,.03,0c0,0,.02,.02,.02,.03,0,.01,.01,.03,.02,.06,0,.02,0,.05,0,.08,0,.06,0,.11-.02,.16-.01,.05-.03,.08-.06,.09Z" style="fill:#1f9967;"/><path d="M110.56,52.98v-.21l.11-.06v-.64l-.1,.05v-.16s.03-.03,.04-.04,.02-.03,.03-.04c0-.01,.02-.03,.03-.04,0-.01,.02-.03,.02-.05l.07-.04v.89l.1-.05v.21l-.31,.17Z" style="fill:#1f9967;"/><path d="M98.06,61.98v-.83l.07-.04v.11h.01s.03-.08,.05-.12c.02-.04,.04-.06,.06-.07,.04-.02,.06,0,.08,.05,.02,.05,.03,.13,.03,.24v.51l-.09,.05v-.48c0-.06,0-.09-.01-.12,0-.02-.02-.03-.04-.02-.01,0-.02,.02-.03,.04,0,.02-.02,.05-.03,.08v.56l-.09,.05Z" style="fill:#1f9967;"/><path d="M98.57,62.05s-.04,.02-.06,.02c-.02,0-.03,0-.05-.01-.01-.01-.02-.03-.03-.05,0-.02-.01-.05-.01-.09,0-.07,.02-.13,.05-.19h0s-.02-.03-.02-.05,0-.05,0-.08c0-.03,0-.06,0-.09,0-.03,.02-.06,.03-.09h0s-.02-.04-.03-.08c0-.03-.01-.07-.01-.12s0-.1,.01-.14,.02-.08,.03-.11c.01-.03,.03-.06,.04-.08,.02-.02,.03-.04,.05-.05,.02-.01,.04-.01,.05,0l.13-.07v.18l-.06,.04s0,.02,0,.04c0,.02,0,.04,0,.06,0,.05,0,.09,0,.13,0,.04-.02,.07-.03,.1s-.03,.05-.04,.07-.03,.04-.05,.05c-.01,0-.03,0-.04,0,0,.01,0,.02-.01,.03,0,.01,0,.02,0,.04,0,.02,0,.04,.01,.04,0,0,.02,0,.04,0l.06-.03s.07-.02,.1,0c.02,.02,.03,.07,.03,.14,0,.04,0,.09-.01,.13s-.02,.08-.04,.12c-.02,.04-.04,.07-.06,.09-.02,.03-.05,.05-.08,.07Zm.01-.16s.05-.04,.06-.06,.02-.06,.02-.09c0-.03,0-.04-.01-.04,0,0-.02,0-.04,.01l-.04,.02s-.02,.01-.03,.01c0,0-.01,0-.02,0,0,.02-.01,.03-.02,.05,0,.01,0,.03,0,.05,0,.03,0,.05,.02,.06,.01,0,.03,0,.06,0Zm-.01-.61s.02-.03,.03-.05,.01-.07,.01-.11,0-.07-.01-.09-.02-.02-.03-.02-.02,.03-.03,.05-.01,.06-.01,.11c0,.05,0,.08,.01,.1s.02,.02,.03,.02Z" style="fill:#1f9967;"/><path d="M98.95,61.49v-.64l-.13,.07v-.19l.22-.12v.84l-.09,.05Zm.04-.99s-.03,0-.05-.02c-.01-.02-.02-.05-.02-.1s0-.09,.02-.12,.03-.06,.04-.07,.03,0,.05,.02c.01,.02,.02,.06,.02,.1s0,.09-.02,.12c-.01,.03-.03,.06-.04,.07Z" style="fill:#1f9967;"/><path d="M99.2,61.35v-.84l.07-.04v.11h.01s.03-.08,.05-.12c.02-.04,.04-.06,.06-.07,.04-.02,.06,0,.08,.05,.02,.05,.03,.13,.03,.24v.52l-.09,.05v-.48c0-.06,0-.1-.01-.12,0-.02-.02-.03-.04-.02-.01,0-.02,.02-.03,.04,0,.02-.02,.05-.03,.08v.56l-.09,.05Z" style="fill:#1f9967;"/><path d="M99.56,61.15l.11-.5-.11-.34,.1-.06,.03,.12s.01,.04,.02,.06l.02,.06h0v-.08l.03-.08,.03-.15,.1-.05-.1,.49,.11,.35-.1,.06-.04-.12-.02-.06-.02-.06h0v.08s-.02,.05-.03,.08l-.03,.16-.1,.05Z" style="fill:#1f9967;"/><path d="M104.73,58.72v-1.71l.08-.05v1.71l-.08,.05Z" style="fill:#1f9967;"/><path d="M105.61,57.82s-.07,0-.09-.04c-.02-.05-.03-.13-.03-.24v-.67l-.1,.06v-.2l.2-.11v.88s0,.05,0,.06c0,.02,0,.03,.01,.04,0,0,.01,.01,.02,.01s.01,0,.02,0c0,0,.02-.01,.02-.02,0,0,.02-.02,.03-.04l.02,.17-.02,.03-.02,.03s-.02,.02-.02,.02c0,0-.02,.01-.03,.02Z" style="fill:#1f9967;"/><path d="M105.89,57.66s-.03,.01-.04,0-.02-.02-.03-.04-.02-.04-.02-.07,0-.06,0-.1c0-.05,0-.09,.01-.13,0-.04,.02-.08,.04-.11,.02-.03,.04-.07,.07-.1,.03-.03,.06-.06,.1-.09,0-.04,0-.06-.02-.08s-.03-.02-.05,0c-.02,0-.03,.02-.05,.05-.02,.02-.03,.05-.05,.09l-.03-.15s.05-.09,.07-.12c.03-.04,.05-.06,.08-.08,.05-.03,.08-.01,.11,.03,.03,.05,.04,.14,.04,.27v.49l-.08,.04v-.09h-.01s-.03,.08-.05,.11c-.02,.03-.04,.06-.06,.07Zm.03-.21s.03-.02,.04-.05c.01-.02,.02-.05,.04-.08v-.14s-.04,.03-.06,.05c-.02,.02-.03,.03-.04,.05s-.02,.03-.02,.05c0,.02,0,.04,0,.05,0,.03,0,.05,.01,.05,0,0,.02,0,.03,0Z" style="fill:#1f9967;"/><path d="M106.4,57.39s-.05,.02-.07,0-.03-.03-.04-.05c-.01-.03-.02-.06-.02-.1,0-.04,0-.09,0-.15v-.3l-.08,.05v-.19l.09-.06v-.27l.09-.04v.26l.14-.08v.2l-.14,.08v.3c0,.07,0,.11,.02,.13,.01,.02,.03,.02,.05,.01,.01,0,.02-.02,.03-.03,.01-.01,.02-.02,.03-.04l.02,.17s-.03,.04-.05,.06c-.02,.02-.04,.03-.06,.05Z" style="fill:#1f9967;"/><path d="M106.75,57.19s-.05,.02-.07,0c-.02,0-.04-.03-.06-.05-.02-.03-.03-.07-.04-.12,0-.05-.01-.11-.01-.18s0-.13,.01-.2,.02-.11,.04-.16c.02-.05,.03-.09,.05-.12s.04-.05,.06-.07c.03-.01,.05-.02,.07,0,.02,0,.04,.03,.05,.06,.01,.03,.02,.07,.03,.11s.01,.1,.01,.16c0,.02,0,.05,0,.07v.05l-.23,.12c0,.06,.02,.1,.03,.12,.02,.02,.04,.02,.07,0,.01,0,.03-.02,.04-.04,.01-.02,.03-.04,.04-.07l.03,.13s-.04,.08-.06,.11-.05,.05-.07,.06Zm-.01-.7s-.04,.03-.05,.07c-.01,.03-.02,.08-.03,.13l.14-.08c0-.1-.03-.14-.07-.12Z" style="fill:#1f9967;"/><path d="M107.13,56.98s-.06,.02-.09,.01c-.03,0-.05-.03-.07-.05l.04-.18s.04,.04,.06,.04,.04,0,.07-.01c.02,0,.03-.02,.04-.04,0-.02,.01-.04,.01-.06,0-.01,0-.02,0-.03,0,0,0-.01-.01-.02,0,0-.01,0-.02,0h-.04s-.08-.02-.1-.05c-.02-.03-.03-.08-.03-.15,0-.04,0-.08,.01-.11,0-.04,.02-.07,.03-.1,.01-.03,.03-.06,.05-.08,.02-.02,.04-.04,.06-.05,.03-.02,.06-.02,.08,0,.02,.01,.04,.03,.06,.05l-.04,.18s-.03-.03-.05-.03c-.02,0-.04,0-.05,0-.02,0-.03,.02-.03,.04s-.01,.03-.01,.05c0,.02,0,.04,.02,.04s.03,0,.06,0c.03,0,.05,0,.06,.01,.02,0,.03,.02,.04,.04,0,.02,.02,.04,.02,.06,0,.03,0,.06,0,.09,0,.04,0,.08-.01,.11,0,.04-.02,.07-.03,.1-.01,.03-.03,.06-.05,.09-.02,.03-.04,.05-.07,.06Z" style="fill:#1f9967;"/><path d="M107.58,56.73s-.05,.02-.07,0-.03-.03-.04-.05c-.01-.03-.02-.06-.02-.1,0-.04,0-.09,0-.15v-.3l-.08,.05v-.19l.09-.06v-.27l.09-.04v.26l.14-.08v.2l-.14,.08v.3c0,.07,0,.11,.02,.13,.01,.02,.03,.02,.05,.01,.01,0,.02-.02,.03-.03,.01-.01,.02-.02,.03-.04l.02,.17s-.03,.04-.05,.06c-.02,.02-.04,.04-.06,.05Z" style="fill:#1f9967;"/><path d="M108.28,56.76v-1.72l.08-.05v1.72l-.08,.05Z" style="fill:#1f9967;"/><path d="M109.11,55.88s-.05,.01-.07,0c-.02-.01-.04-.04-.05-.08-.01-.04-.03-.09-.03-.16s-.01-.15-.01-.24,0-.18,.01-.25,.02-.14,.03-.2c.01-.06,.03-.1,.05-.14,.02-.03,.04-.06,.07-.07s.05-.01,.07,0c.02,.01,.04,.04,.05,.08,.01,.04,.03,.09,.03,.16,0,.07,.01,.15,.01,.24s0,.18-.01,.25c0,.08-.02,.14-.03,.2s-.03,.1-.05,.14c-.02,.04-.04,.06-.07,.07Zm0-.2s.02-.02,.03-.04c0-.02,.02-.04,.02-.08,0-.03,.01-.07,.02-.12,0-.05,0-.11,0-.18s0-.13,0-.17c0-.04,0-.08-.02-.1,0-.02-.01-.04-.02-.05,0,0-.02,0-.03,0s-.02,.02-.03,.03c0,.02-.02,.04-.02,.07,0,.03-.01,.07-.02,.12,0,.05,0,.11,0,.18s0,.13,0,.18c0,.05,0,.08,.02,.11s.01,.04,.02,.05c0,0,.02,0,.03,0Zm0-.25s-.03,0-.04-.02-.01-.05-.01-.09,0-.07,.01-.1,.02-.05,.04-.06,.03,0,.04,.02,.01,.05,.01,.09,0,.07-.01,.1-.02,.05-.04,.06Z" style="fill:#1f9967;"/><path d="M109.51,55.66s-.04,0-.06-.03c-.01-.03-.02-.07-.02-.13,0-.03,0-.06,0-.08,0-.03,0-.05,.02-.07s.01-.04,.02-.06c0-.02,.02-.03,.03-.03s.02,0,.03,0c0,0,.02,.02,.02,.03,0,.01,.01,.03,.02,.06,0,.02,0,.05,0,.08,0,.06,0,.11-.02,.16-.01,.05-.03,.08-.06,.09Z" style="fill:#1f9967;"/><path d="M109.91,55.44s-.05,.01-.07,0c-.02-.01-.04-.04-.05-.08-.01-.04-.03-.09-.03-.16s-.01-.15-.01-.24,0-.18,.01-.25,.02-.14,.03-.2c.01-.06,.03-.1,.05-.14,.02-.03,.04-.06,.07-.07s.05-.01,.07,0c.02,.01,.04,.04,.05,.08,.01,.04,.03,.09,.03,.16,0,.07,.01,.15,.01,.24s0,.18-.01,.25c0,.08-.02,.14-.03,.2s-.03,.1-.05,.14c-.02,.04-.04,.06-.07,.07Zm0-.2s.02-.02,.03-.04c0-.02,.02-.04,.02-.08,0-.03,.01-.07,.02-.12,0-.05,0-.11,0-.18s0-.13,0-.17c0-.05,0-.08-.02-.1,0-.02-.01-.04-.02-.05,0,0-.02,0-.03,0s-.02,.02-.03,.03c0,.02-.02,.04-.02,.07,0,.03-.01,.07-.02,.12,0,.05,0,.11,0,.18s0,.13,0,.18c0,.05,0,.08,.02,.11s.01,.04,.02,.05c0,0,.02,0,.03,0Zm0-.25s-.03,0-.04-.02-.01-.05-.01-.09,0-.07,.01-.1,.02-.05,.04-.06,.03,0,.04,.02,.01,.05,.01,.09,0,.07-.01,.1-.02,.05-.04,.06Z" style="fill:#1f9967;"/><path d="M110.32,55.22s-.04,0-.06-.03c-.01-.03-.02-.07-.02-.13,0-.03,0-.06,0-.08,0-.03,0-.05,.02-.07s.01-.04,.02-.06c0-.02,.02-.03,.03-.03s.02,0,.03,0c0,0,.02,.02,.02,.03,0,.01,.01,.03,.02,.06,0,.02,0,.05,0,.08,0,.06,0,.11-.02,.16-.01,.05-.03,.08-.06,.09Z" style="fill:#1f9967;"/><path d="M110.57,55.06v-.21l.11-.06v-.64l-.1,.05v-.16s.03-.03,.04-.04,.02-.03,.03-.04c0-.01,.02-.03,.03-.04,0-.01,.02-.03,.02-.05l.07-.04v.89l.1-.05v.21l-.31,.17Z" style="fill:#1f9967;"/><path d="M98.07,64v-.83l.07-.04v.11h.01s.03-.08,.05-.12c.02-.04,.04-.06,.06-.07,.04-.02,.06,0,.08,.05,.02,.05,.03,.13,.03,.23v.51l-.09,.05v-.48c0-.06,0-.09-.01-.12,0-.02-.02-.03-.04-.02-.01,0-.02,.02-.03,.04,0,.02-.02,.05-.03,.08v.56l-.09,.05Z" style="fill:#1f9967;"/><path d="M98.6,63.73s-.04,.01-.06,0c-.02,0-.04-.03-.05-.06s-.03-.07-.04-.12c0-.05-.01-.11-.01-.18s0-.13,.01-.19,.02-.11,.03-.16c.01-.05,.03-.08,.05-.11s.04-.05,.06-.06,.04-.01,.06,0c.02,0,.04,.03,.05,.06,.02,.03,.03,.07,.04,.12s.01,.11,.01,.18,0,.13-.01,.19c0,.06-.02,.11-.04,.16s-.03,.08-.05,.11c-.02,.03-.04,.05-.06,.06Zm0-.2s.04-.04,.05-.09c.01-.05,.02-.11,.02-.18s0-.13-.02-.16c-.01-.04-.03-.05-.05-.04s-.04,.04-.05,.09-.02,.11-.02,.18,0,.13,.02,.16c.01,.04,.03,.05,.05,.04Z" style="fill:#1f9967;"/><path d="M98.81,63.59v-.83l.07-.04v.1h0s.01-.07,.02-.1,.02-.05,.04-.06c.01,0,.03,0,.03,.02,0,.02,.02,.05,.02,.09,0-.04,.01-.08,.03-.11,.01-.03,.03-.05,.04-.06,.02-.01,.04,0,.05,.04,.01,.04,.02,.1,.02,.19v.59l-.09,.05v-.57s0-.04,0-.06,0-.01-.01-.01c0,0-.01,.01-.02,.03s0,.04-.01,.07v.56l-.07,.04v-.57c0-.05,0-.07-.02-.07,0,0-.01,.01-.02,.03s0,.04-.01,.07v.56l-.09,.05Z" style="fill:#1f9967;"/><path d="M99.31,63.33s-.03,.01-.04,0-.02-.02-.03-.04-.02-.04-.02-.07,0-.06,0-.1c0-.05,0-.09,.01-.13,0-.04,.02-.08,.04-.11,.02-.03,.04-.07,.06-.1,.03-.03,.06-.06,.1-.08,0-.04,0-.06-.02-.08s-.03-.02-.05,0c-.02,0-.03,.02-.05,.05-.02,.02-.03,.05-.05,.08l-.03-.14s.04-.08,.07-.12c.02-.03,.05-.06,.08-.07,.04-.02,.08-.01,.11,.04,.03,.05,.04,.14,.04,.26v.48l-.07,.04v-.09h-.01s-.03,.08-.05,.11c-.02,.03-.04,.05-.06,.07Zm.03-.21s.03-.02,.04-.04c.01-.02,.02-.05,.03-.08v-.14s-.04,.03-.06,.05c-.02,.02-.03,.03-.04,.05s-.02,.03-.02,.05c0,.02,0,.04,0,.05,0,.03,0,.04,.01,.05,0,0,.02,0,.03,0Z" style="fill:#1f9967;"/><path d="M99.71,63.11s-.04,.01-.05,0c-.02-.01-.03-.03-.04-.06-.01-.03-.02-.07-.03-.12s-.01-.11-.01-.18,0-.13,.01-.19c0-.06,.02-.11,.03-.15,.01-.04,.03-.08,.04-.11,.02-.03,.03-.05,.05-.06s.03-.01,.05,0c.01,0,.02,.02,.03,.05h0v-.41l.09-.05v1.18l-.07,.04v-.08h0s-.03,.07-.04,.1c-.02,.03-.03,.05-.05,.06Zm.02-.22s.02-.02,.03-.03,.02-.04,.03-.07v-.34s-.02-.03-.03-.03c0,0-.02,0-.03,0-.02,0-.03,.04-.04,.08-.01,.05-.02,.11-.02,.19,0,.08,0,.14,.02,.17,.01,.03,.03,.04,.05,.03Z" style="fill:#1f9967;"/><path d="M99.97,63.23v-.19l.31-.17v.19l-.31,.17Z" style="fill:#1f9967;"/><path d="M100.46,62.7s-.03,.01-.04,0-.02-.02-.03-.04-.02-.04-.02-.07,0-.06,0-.1c0-.05,0-.09,.01-.13,0-.04,.02-.08,.04-.11,.02-.03,.04-.07,.06-.1,.03-.03,.06-.06,.1-.08,0-.04,0-.06-.02-.08s-.03-.02-.05,0c-.02,0-.03,.02-.05,.05-.02,.02-.03,.05-.05,.08l-.03-.14s.04-.08,.07-.12c.02-.04,.05-.06,.08-.08,.04-.02,.08-.01,.11,.04,.03,.05,.04,.14,.04,.26v.48l-.07,.04v-.09h-.01s-.03,.08-.05,.11c-.02,.03-.04,.05-.06,.07Zm.03-.21s.03-.02,.04-.04c.01-.02,.02-.05,.03-.08v-.14s-.04,.03-.06,.05c-.02,.02-.03,.03-.04,.05s-.02,.03-.02,.05c0,.02,0,.04,0,.05,0,.03,0,.04,.01,.05,0,0,.02,0,.03,0Z" style="fill:#1f9967;"/><path d="M100.84,62.49s-.06,0-.08-.05c-.02-.05-.03-.13-.03-.24v-.52l.09-.05v.48c0,.06,0,.1,.01,.12,0,.02,.02,.03,.04,.02,.01,0,.02-.02,.03-.04s.02-.05,.03-.09v-.55l.09-.05v.84l-.07,.04v-.12h-.01c-.01,.05-.03,.09-.05,.13-.02,.03-.04,.06-.06,.07Z" style="fill:#1f9967;"/><path d="M101.33,62.22s-.05,.02-.06,0-.03-.03-.04-.05c-.01-.03-.02-.06-.02-.1,0-.04,0-.09,0-.15v-.3l-.08,.04v-.18l.08-.06v-.26l.09-.04v.26l.14-.07v.19l-.13,.07v.29c0,.06,0,.11,.02,.13,.01,.02,.03,.02,.05,.01,.01,0,.02-.02,.03-.03,.01-.01,.02-.02,.03-.04l.02,.17s-.03,.04-.05,.06c-.02,.02-.04,.03-.06,.05Z" style="fill:#1f9967;"/><path d="M101.66,62.04s-.04,.01-.06,0c-.02,0-.04-.03-.05-.06s-.03-.07-.04-.12c0-.05-.01-.11-.01-.18s0-.13,.01-.19,.02-.11,.04-.16c.02-.05,.03-.08,.05-.11s.04-.05,.06-.06,.04-.01,.06,0c.02,0,.04,.03,.05,.06,.02,.03,.03,.07,.04,.12s.01,.11,.01,.18,0,.13-.01,.19c0,.06-.02,.11-.04,.16s-.03,.08-.05,.11c-.02,.03-.04,.05-.06,.06Zm0-.2s.04-.04,.05-.09c.01-.05,.02-.11,.02-.18s0-.13-.02-.17c-.01-.04-.03-.05-.05-.04s-.04,.04-.05,.09-.02,.11-.02,.18,0,.13,.02,.17c.01,.04,.03,.05,.05,.04Z" style="fill:#1f9967;"/><path d="M102.05,61.83s-.06,.02-.08,0c-.03,0-.05-.03-.07-.05l.04-.18s.04,.04,.06,.04,.04,0,.07-.01c.02,0,.03-.02,.04-.04,0-.02,.01-.04,.01-.06,0-.01,0-.02,0-.03,0,0,0-.01-.01-.02,0,0-.01,0-.02,0h-.04s-.07-.02-.09-.05c-.02-.03-.03-.08-.03-.15,0-.04,0-.08,0-.11,0-.04,.02-.07,.03-.1,.01-.03,.03-.06,.05-.08,.02-.02,.04-.04,.06-.05,.03-.02,.05-.02,.08,0,.02,.01,.04,.03,.06,.05l-.04,.17s-.03-.03-.05-.03c-.02,0-.04,0-.05,0-.02,0-.03,.02-.03,.04s-.01,.03-.01,.05c0,.02,0,.04,.02,.04s.03,0,.06,0c.02,0,.05,0,.06,.01,.02,0,.03,.02,.04,.04,0,.02,.02,.04,.02,.06,0,.02,0,.05,0,.09,0,.04,0,.08,0,.11,0,.04-.02,.07-.03,.1-.01,.03-.03,.06-.05,.08-.02,.02-.04,.04-.07,.06Z" style="fill:#1f9967;"/><path d="M102.47,61.6s-.05,.02-.07,0c-.02,0-.04-.03-.06-.05s-.03-.07-.04-.12c0-.05-.01-.11-.01-.18s0-.14,.01-.2c0-.06,.02-.11,.04-.16,.02-.05,.04-.09,.06-.12,.02-.03,.05-.05,.07-.07s.05-.02,.07,0c.02,.01,.04,.03,.05,.05l-.04,.18s-.05-.04-.07-.03c-.03,.02-.05,.05-.07,.1-.02,.05-.03,.12-.02,.19s0,.13,.03,.16c.02,.03,.04,.04,.07,.03,.02,0,.03-.03,.05-.05,.01-.02,.03-.05,.04-.08l.04,.14c-.02,.05-.04,.1-.06,.13-.02,.03-.05,.05-.07,.07Z" style="fill:#1f9967;"/><path d="M102.78,61.43s-.03,.01-.04,0-.02-.02-.03-.04-.02-.04-.02-.07,0-.06,0-.1c0-.05,0-.09,.01-.13,0-.04,.02-.08,.04-.11,.02-.03,.04-.07,.07-.1,.03-.03,.06-.06,.1-.08,0-.04,0-.06-.02-.08s-.03-.02-.05,0c-.02,0-.03,.02-.05,.05-.02,.02-.03,.05-.05,.08l-.03-.14s.05-.09,.07-.12c.03-.04,.05-.06,.08-.08,.04-.02,.08-.01,.11,.03,.03,.05,.04,.14,.04,.27v.48l-.08,.04v-.09h-.01s-.03,.08-.05,.11c-.02,.03-.04,.05-.06,.07Zm.03-.21s.03-.02,.04-.04c.01-.02,.02-.05,.04-.08v-.14s-.04,.03-.06,.05c-.02,.02-.03,.03-.04,.05s-.02,.03-.02,.05c0,.02,0,.04,0,.05,0,.03,0,.05,.01,.05,0,0,.02,0,.03,0Z" style="fill:#1f9967;"/><path d="M103.28,61.16s-.07,0-.09-.04c-.02-.05-.03-.13-.03-.24v-.66l-.1,.06v-.2l.2-.11v.87s0,.05,0,.06c0,.02,0,.03,.01,.04,0,0,.01,.01,.02,.01s.01,0,.02,0c0,0,.02-.01,.02-.02,0,0,.02-.02,.03-.04l.02,.17-.02,.03-.02,.03s-.02,.02-.02,.02c0,0-.02,.01-.03,.02Z" style="fill:#1f9967;"/><path d="M103.62,60.97s-.05,.02-.07,0c-.02,0-.04-.03-.06-.05-.02-.03-.03-.07-.04-.12,0-.05-.01-.11-.01-.18s0-.13,.01-.19,.02-.11,.04-.16c.02-.05,.03-.09,.05-.12s.04-.05,.06-.06c.02-.01,.05-.02,.07,0,.02,0,.04,.03,.05,.06,.01,.03,.02,.07,.03,.11s.01,.1,.01,.16c0,.02,0,.04,0,.07v.05l-.22,.12c0,.06,.02,.1,.03,.12,.02,.02,.04,.02,.06,0,.01,0,.03-.02,.04-.04,.01-.02,.03-.04,.04-.07l.03,.13s-.04,.08-.06,.11-.04,.05-.07,.06Zm-.01-.69s-.03,.03-.05,.07c-.01,.03-.02,.08-.03,.13l.14-.08c0-.1-.03-.14-.06-.12Z" style="fill:#1f9967;"/><path d="M103.87,60.81v-.84l.07-.04v.18h.01c.02-.08,.03-.14,.06-.19,.02-.05,.05-.08,.07-.09,.01,0,.03-.01,.03-.01,0,0,.02,0,.03,.01l-.02,.22s-.02,0-.03,0c0,0-.02,0-.03,.01-.02,.01-.04,.04-.06,.08-.02,.04-.04,.1-.05,.19v.44l-.09,.05Z" style="fill:#1f9967;"/><path d="M104.73,60.76v-1.7l.08-.05v1.7l-.08,.05Z" style="fill:#1f9967;"/><path d="M105.62,59.87s-.07,0-.09-.04c-.02-.05-.03-.13-.03-.24v-.67l-.1,.06v-.2l.2-.11v.88s0,.05,0,.06c0,.02,0,.03,.01,.04,0,0,.01,.01,.02,.01s.01,0,.02,0c0,0,.02-.01,.02-.02,0,0,.02-.02,.03-.04l.02,.17-.02,.03-.02,.03s-.02,.02-.02,.02c0,0-.02,.01-.03,.02Z" style="fill:#1f9967;"/><path d="M105.9,59.72s-.03,.01-.04,0-.02-.02-.03-.04-.02-.04-.02-.07,0-.06,0-.1c0-.05,0-.09,.01-.13,0-.04,.02-.08,.04-.11,.02-.03,.04-.07,.07-.1,.03-.03,.06-.06,.1-.09,0-.04,0-.06-.02-.08s-.03-.02-.05,0c-.02,0-.03,.02-.05,.05-.02,.02-.03,.05-.05,.09l-.03-.15s.05-.09,.07-.12c.03-.04,.05-.06,.08-.08,.05-.03,.08-.01,.11,.03,.03,.05,.04,.14,.04,.27v.49l-.08,.04v-.09h-.01s-.03,.08-.05,.11c-.02,.03-.04,.06-.06,.07Zm.03-.21s.03-.02,.04-.05c.01-.02,.02-.05,.04-.08v-.14s-.04,.03-.06,.05c-.02,.02-.03,.03-.04,.05s-.02,.03-.02,.05c0,.02,0,.04,0,.05,0,.03,0,.05,.01,.05,0,0,.02,0,.03,0Z" style="fill:#1f9967;"/><path d="M106.4,59.44s-.05,.02-.07,0-.03-.03-.04-.05c-.01-.03-.02-.06-.02-.1,0-.04,0-.09,0-.15v-.3l-.08,.05v-.19l.09-.06v-.27l.09-.04v.26l.14-.08v.2l-.14,.08v.3c0,.07,0,.11,.02,.13,.01,.02,.03,.02,.05,.01,.01,0,.02-.02,.03-.03,.01-.01,.02-.02,.03-.04l.02,.17s-.03,.04-.05,.06c-.02,.02-.04,.03-.06,.05Z" style="fill:#1f9967;"/><path d="M106.76,59.25s-.05,.02-.07,0c-.02,0-.04-.03-.06-.05-.02-.03-.03-.07-.04-.12,0-.05-.01-.11-.01-.18s0-.13,.01-.2,.02-.11,.04-.16c.02-.05,.03-.09,.05-.12s.04-.05,.06-.06c.03-.01,.05-.02,.07,0,.02,0,.04,.03,.05,.06,.01,.03,.02,.07,.03,.11s.01,.1,.01,.16c0,.02,0,.05,0,.07v.05l-.23,.12c0,.06,.02,.1,.03,.12,.02,.02,.04,.02,.07,0,.01,0,.03-.02,.04-.04,.01-.02,.03-.04,.04-.07l.03,.13s-.04,.08-.06,.11-.05,.05-.07,.06Zm-.01-.69s-.04,.03-.05,.07c-.01,.03-.02,.08-.03,.13l.14-.08c0-.1-.03-.14-.07-.12Z" style="fill:#1f9967;"/><path d="M107.13,59.04s-.06,.02-.09,0c-.03,0-.05-.03-.07-.05l.04-.18s.04,.04,.06,.04,.04,0,.07-.01c.02,0,.03-.02,.04-.04,0-.02,.01-.04,.01-.06,0-.01,0-.02,0-.03,0,0,0-.01-.01-.02,0,0-.01,0-.02,0h-.04s-.08-.02-.1-.05c-.02-.03-.03-.08-.03-.15,0-.04,0-.08,.01-.11,0-.04,.02-.07,.03-.1,.01-.03,.03-.06,.05-.08,.02-.02,.04-.04,.06-.05,.03-.02,.06-.02,.08,0,.02,.01,.04,.03,.06,.05l-.04,.17s-.03-.03-.05-.03c-.02,0-.04,0-.05,0-.02,0-.03,.02-.03,.04s-.01,.03-.01,.05c0,.02,0,.04,.02,.04s.03,0,.06,0c.03,0,.05,0,.06,.01,.02,0,.03,.02,.04,.04,0,.02,.02,.04,.02,.06,0,.03,0,.06,0,.09,0,.04,0,.08-.01,.11,0,.04-.02,.07-.03,.1-.01,.03-.03,.06-.05,.09-.02,.03-.04,.05-.07,.06Z" style="fill:#1f9967;"/><path d="M107.59,58.79s-.05,.02-.07,0-.03-.03-.04-.05c-.01-.03-.02-.06-.02-.1,0-.04,0-.09,0-.15v-.3l-.08,.05v-.19l.09-.06v-.27l.09-.04v.26l.14-.08v.2l-.14,.08v.3c0,.07,0,.11,.02,.13,.01,.02,.03,.02,.05,.01,.01,0,.02-.02,.03-.03,.01-.01,.02-.02,.03-.04l.02,.17s-.03,.04-.05,.06c-.02,.02-.04,.03-.06,.05Z" style="fill:#1f9967;"/><path d="M108.28,58.82v-1.72l.08-.05v1.72l-.08,.05Z" style="fill:#1f9967;"/><path d="M109.12,57.95s-.05,.01-.07,0c-.02-.01-.04-.04-.05-.08-.01-.04-.03-.09-.03-.16s-.01-.15-.01-.24,0-.18,.01-.25,.02-.14,.03-.19c.01-.06,.03-.1,.05-.13,.02-.03,.04-.06,.07-.07s.05-.01,.07,0c.02,.01,.04,.04,.05,.08,.01,.04,.03,.09,.03,.16,0,.07,.01,.15,.01,.24s0,.18-.01,.25c0,.08-.02,.14-.03,.2s-.03,.1-.05,.14c-.02,.04-.04,.06-.07,.07Zm0-.2s.02-.02,.03-.04c0-.02,.02-.04,.02-.08,0-.03,.01-.07,.02-.12,0-.05,0-.11,0-.18s0-.13,0-.17c0-.04,0-.08-.02-.1,0-.02-.01-.04-.02-.05,0,0-.02,0-.03,0s-.02,.02-.03,.03c0,.02-.02,.04-.02,.07,0,.03-.01,.07-.02,.12,0,.05,0,.11,0,.18s0,.13,0,.17c0,.05,0,.08,.02,.11s.01,.04,.02,.05c0,0,.02,0,.03,0Zm0-.25s-.03,0-.04-.02-.01-.05-.01-.09,0-.07,.01-.1,.02-.05,.04-.05,.03,0,.04,.02,.01,.05,.01,.09,0,.07-.01,.1-.02,.05-.04,.05Z" style="fill:#1f9967;"/><path d="M109.52,57.73s-.04,0-.06-.03c-.01-.03-.02-.07-.02-.13,0-.03,0-.06,0-.08,0-.03,0-.05,.02-.07s.01-.04,.02-.06c0-.02,.02-.03,.03-.03s.02,0,.03,0c0,0,.02,.02,.02,.03,0,.01,.01,.03,.02,.06,0,.02,0,.05,0,.08,0,.06,0,.11-.02,.16-.01,.05-.03,.08-.06,.09Z" style="fill:#1f9967;"/><path d="M109.92,57.51s-.05,.01-.07,0c-.02-.01-.04-.04-.05-.08-.01-.04-.03-.09-.03-.16s-.01-.15-.01-.24,0-.18,.01-.25,.02-.14,.03-.2c.01-.06,.03-.1,.05-.14,.02-.03,.04-.06,.07-.07s.05-.01,.07,0c.02,.01,.04,.04,.05,.08,.01,.04,.03,.09,.03,.16,0,.07,.01,.15,.01,.24s0,.18-.01,.25c0,.08-.02,.14-.03,.2s-.03,.1-.05,.14c-.02,.04-.04,.06-.07,.07Zm0-.2s.02-.02,.03-.04c0-.02,.02-.04,.02-.08,0-.03,.01-.07,.02-.12,0-.05,0-.11,0-.18s0-.13,0-.17c0-.05,0-.08-.02-.1,0-.02-.01-.04-.02-.05,0,0-.02,0-.03,0s-.02,.02-.03,.03c0,.02-.02,.04-.02,.07,0,.03-.01,.07-.02,.12,0,.05,0,.11,0,.18s0,.13,0,.18c0,.05,0,.08,.02,.11s.01,.04,.02,.05c0,0,.02,0,.03,0Zm0-.25s-.03,0-.04-.02-.01-.05-.01-.09,0-.07,.01-.1,.02-.05,.04-.06,.03,0,.04,.02,.01,.05,.01,.09,0,.07-.01,.1-.02,.05-.04,.06Z" style="fill:#1f9967;"/><path d="M110.32,57.29s-.04,0-.06-.03c-.01-.03-.02-.07-.02-.13,0-.03,0-.06,0-.08,0-.03,0-.05,.02-.07s.01-.04,.02-.06c0-.02,.02-.03,.03-.03s.02,0,.03,0c0,0,.02,.02,.02,.03,0,.01,.01,.03,.02,.06,0,.02,0,.05,0,.08,0,.06,0,.11-.02,.16-.01,.05-.03,.08-.06,.09Z" style="fill:#1f9967;"/><path d="M110.57,57.13v-.21l.11-.06v-.63l-.1,.05v-.16s.03-.03,.04-.04,.02-.03,.03-.04c0-.01,.02-.03,.03-.04,0-.01,.02-.03,.02-.05l.07-.04v.89l.1-.05v.21l-.31,.17Z" style="fill:#1f9967;"/></g></g><path d="M40.73,80.18s19.39,6.49,46.53,0c.29-.07-23.27,42.14-46.53,0Z" style="fill:none; stroke:#fff; stroke-linecap:round; stroke-linejoin:round; stroke-width:6px;"/><polygon points="86.92 114.38 86.92 89.02 89.46 89.6 90.12 87.28 92.51 87.71 93.15 85.47 95.43 86 96.18 83.72 97.72 84.68 98.79 82.29 100.25 83.19 101.42 80.74 101.42 106.05 86.92 114.38" style="fill:#85e5bd;"/><polygon points="10.56 35.86 63.83 66.17 75.22 59.72 34.85 36.96 10.56 35.86" style="fill:url(#u);"/><polygon points="117.44 35.78 63.56 5.24 37.28 .62 88.21 32.61 117.44 35.85 117.44 35.78" style="fill:#25ba81;"/><polygon points="10.56 35.86 63.83 66.17 75.22 59.72 34.85 36.96 10.56 35.86" style="fill:url(#v);"/><g><circle cx="40.67" cy="53.91" r="5.82" style="fill:#fff;"/><circle cx="87.33" cy="53.91" r="5.82" style="fill:#fff;"/></g></g></g><g id="w"/></svg>