<svg xmlns="http://www.w3.org/2000/svg" viewBox="0 0 128 128"><defs><style>.cls-1{fill:#1f9967;}.cls-2{fill:#25ba81;}.cls-3{fill:#fff;}.cls-4,.cls-5{fill:none;stroke:#fff;stroke-linecap:round;stroke-linejoin:round;}.cls-4{stroke-width:6px;}.cls-5{stroke-width:3px;}</style></defs><g id="Layer_1" data-name="Layer 1"><polyline class="cls-1" points="59.52 118.92 59.79 118.95 113.47 93.48 118.11 34.54 117.15 34.46 64 59.77"/><polyline class="cls-2" points="118.11 34.54 118.11 34.47 68.37 0.88 14.84 26.44 64 59.77"/><polyline class="cls-2" points="15.14 26.46 14.84 26.44 10.21 85.37 59.52 118.92 64 59.77"/></g><g id="Layer_2" data-name="Layer 2"><circle class="cls-3" cx="43.77" cy="46.11" r="5.64"/><circle class="cls-3" cx="85.1" cy="49.65" r="5.64"/></g><g id="Layer_3" data-name="Layer 3"><path class="cls-4" d="M47.33,76.73s3.32-12,35.71,3.67"/><path class="cls-5" d="M71.35,41.2S98.4,40.77,102.14,37"/><path class="cls-5" d="M25.33,38.32S53.56,28.51,54,37.26"/><path class="cls-1" d="M32.44,98.1,89.72,86.18s4.8-.54,4.8,4.69c-.35.64-58.3,11-58.3,11"/><path class="cls-1" d="M21.58,99.39S18.81,94.67,18,93.05c-.56-1.09-.28-7.93,7.43-5.69,4.28,1.23,6.28,15.37,6.28,15.37Z"/><path class="cls-2" d="M88.59,87Q73.65,90,58.84,93.65C47.55,96.18,34.23,99.45,30,96.5A22.38,22.38,0,0,0,26.81,90c-1.54-2.14-4.24-3.17-6.67-1.75-2.1,1.23-3.29,4.52-1.75,6.66,4.09,5.69,3.33,12.38,1.93,18.86-.87,4-.57,8,3.3,10.34,3.33,2,7.8,2.57,11.58,3a55.6,55.6,0,0,0,11.75,0c3.64-.33,7.48-1.29,11.11-1.9,9.3-1.58,9.3-7.18,7.69-9.49.84-1.57,2.82-4.72,0-7.36.36-.23-.31.28,0,0a6.83,6.83,0,0,0,2.38-5.58,7,7,0,0,0-.24-1.38q11.58-2.72,23.25-5.11C97.32,95.11,94.72,85.72,88.59,87Z"/><path class="cls-1" d="M68.33,101.8c-.1-.28-.53-.29-.81-.22l-2.65.61s5.25-.52,2.06,5C66.93,107.17,69.24,104.36,68.33,101.8Z"/><path class="cls-1" d="M66.43,114.51s1.95-5.88-3.13-5.55a8.83,8.83,0,0,1,2.49-.52S68.81,110.31,66.43,114.51Z"/><path class="cls-1" d="M62.23,116.56l3.52-.76a4.57,4.57,0,0,1,.18,5.15C66,119.62,66.71,115.8,62.23,116.56Z"/><path class="cls-1" d="M27.53,91.09c.64,2.1,2.87,6.78,2.18,8,2.07-1.15,4.06-.18,20.44-3.49-6.22.82-12.34,3-18.89,1.57C29.56,96.36,30.25,95.35,27.53,91.09Z"/><path class="cls-1" d="M94.52,90.87s.16,4.11-6.21,5.29c-12,2.22-28.88,6.57-28.88,6.57l5.44-.54,26.77-5.93S95.57,95.38,94.52,90.87Z"/></g></svg>