<svg xmlns="http://www.w3.org/2000/svg" viewBox="0 0 128 128"><defs><style>.cls-1{fill:#1f9967;}.cls-2{fill:#25ba81;}.cls-3{fill:#fff;}.cls-4,.cls-9{fill:none;}.cls-4{stroke:#fff;stroke-linecap:round;stroke-linejoin:round;stroke-width:6px;}.cls-5{fill:#856046;}.cls-6{fill:#7d563c;}.cls-7{fill:#73533e;}.cls-8{fill:#926446;}.cls-9{stroke:#403024;stroke-miterlimit:10;}</style></defs><g id="Layer_3" data-name="Layer 3"><polyline class="cls-1" points="70.38 119.64 70.59 119.55 102.23 79.31 83.18 32.07 82.41 32.37 51.13 72.28"/><polyline class="cls-2" points="83.18 32.07 83.16 32.01 31.9 25.18 0.42 65.45 51.13 72.28"/><polyline class="cls-2" points="0.66 65.34 0.42 65.45 19.46 112.68 70.38 119.64 51.13 72.28"/><circle class="cls-3" cx="29.36" cy="70.02" r="4.86"/><circle class="cls-3" cx="65.51" cy="55.45" r="4.86"/><path class="cls-4" d="M70.37,78.25c9.45,10.44-1.92,20.82-13.54,12.85-5.7,19.13-20.44,7-19.52.57"/><rect class="cls-5" x="63.82" width="64.18" height="128"/><rect class="cls-6" x="63.82" width="22.87" height="17.56"/><rect class="cls-7" x="86.69" width="41.31" height="17.56"/><rect class="cls-8" x="63.82" y="17.57" width="47.89" height="30.1"/><rect class="cls-6" x="111.71" y="17.57" width="16.29" height="30.1"/><rect class="cls-8" x="63.82" y="77.81" width="36.28" height="30.1"/><rect class="cls-7" x="100.11" y="77.81" width="27.89" height="30.1"/><rect class="cls-6" x="63.82" y="107.9" width="24" height="20.1"/><rect class="cls-8" x="87.82" y="107.9" width="40.18" height="20.1"/><rect class="cls-7" x="63.82" y="47.71" width="14.25" height="30.1"/><rect class="cls-6" x="78.07" y="47.71" width="41.78" height="30.1"/><rect class="cls-8" x="119.86" y="47.71" width="8.14" height="30.1"/><polyline class="cls-9" points="86.69 0 86.69 17.56 63.82 17.56"/><line class="cls-9" x1="86.69" y1="17.56" x2="128" y2="17.56"/><polyline class="cls-9" points="63.82 17.57 111.72 17.57 111.72 47.67 63.82 47.67"/><polyline class="cls-9" points="128 17.57 111.72 17.57 111.72 47.67 128 47.67"/><polyline class="cls-9" points="63.82 77.81 100.11 77.81 100.11 107.9 63.82 107.9"/><polyline class="cls-9" points="128 77.81 100.11 77.81 100.11 107.9 128 107.9"/><polyline class="cls-9" points="63.82 107.9 87.82 107.9 87.82 128"/><polyline class="cls-9" points="78.07 47.71 78.07 77.81 63.82 77.81"/><rect class="cls-9" x="78.07" y="47.71" width="41.78" height="30.1"/><polyline class="cls-9" points="128 47.71 119.86 47.71 119.86 77.81 128 77.81"/><line class="cls-9" x1="63.82" x2="63.82" y2="128"/></g></svg>