<?xml version="1.0" encoding="UTF-8"?><svg xmlns="http://www.w3.org/2000/svg" viewBox="0 0 128 128"><g id="a"/><g id="b"/><g id="c"/><g id="d"><g><polyline points="99.75 99.96 99.9 99.97 129.96 82.7 129.96 48.21 129.4 48.21 99.65 65.35" style="fill:#3e607c;"/><polyline points="129.96 48.21 129.96 48.17 99.5 30.9 69.53 48.22 99.65 65.35" style="fill:#4b779a;"/><polyline points="69.71 48.21 69.53 48.22 69.53 82.7 99.75 99.96 99.65 65.35" style="fill:#4b779a;"/></g><g><polyline points="28.61 99.96 28.77 99.97 58.83 82.7 58.83 48.21 58.27 48.21 28.52 65.35" style="fill:#8f5543;"/><polyline points="58.83 48.21 58.83 48.17 28.36 30.9 -1.6 48.22 28.52 65.35" style="fill:#ad664f;"/><polyline points="-1.42 48.21 -1.6 48.22 -1.6 82.7 28.61 99.96 28.52 65.35" style="fill:#ad664f;"/></g><g><polyline points="64.49 120.59 64.65 120.59 94.71 103.33 94.71 68.84 94.14 68.83 64.39 85.98" style="fill:#1f9967;"/><polyline points="94.71 68.84 94.71 68.79 64.24 51.53 34.27 68.84 64.39 85.98" style="fill:#25ba81;"/><polyline points="34.45 68.84 34.27 68.84 34.27 103.33 64.49 120.59 64.39 85.98" style="fill:#25ba81;"/></g><g><polyline points="64.49 76.63 64.65 76.64 94.71 59.37 94.71 24.88 94.14 24.87 64.39 42.02" style="fill:#884c7c;"/><polyline points="94.71 24.88 94.71 24.84 64.24 7.57 34.27 24.89 64.39 42.02" style="fill:#a65c97;"/><polyline points="34.45 24.88 34.27 24.89 34.27 59.37 64.49 76.63 64.39 42.02" style="fill:#a65c97;"/></g></g><g id="e"/><g id="f"><g><circle cx="51.3" cy="79.05" r="3.29" style="fill:#fff;"/><circle cx="77.68" cy="79.05" r="3.29" style="fill:#fff;"/></g></g><g id="g"/><g id="h"><path d="M77.65,93.9c-10.12,9.31-15.97,9.65-26.31,0" style="fill:none; stroke:#fff; stroke-linecap:round; stroke-linejoin:round; stroke-width:3px;"/></g><g id="i"/><g id="j"/><g id="k"/><g id="l"/><g id="m"/><g id="n"/><g id="o"/><g id="p"/><g id="q"/><g id="r"/><g id="s"/><g id="t"/><g id="u"/></svg>