<svg xmlns="http://www.w3.org/2000/svg" viewBox="0 0 128 128"><defs><style>.cls-1{fill:#1f9967;}.cls-2{fill:#25ba81;}.cls-3{fill:#005cff;}.cls-4{fill:none;stroke:#fff;stroke-linecap:round;stroke-linejoin:round;stroke-width:6px;}</style></defs><g id="Layer_1" data-name="Layer 1"><polyline class="cls-1" points="64 127 64.29 127 119.13 95.5 119.13 32.58 118.1 32.57 63.82 63.85"/><polyline class="cls-2" points="119.13 32.58 119.13 32.5 63.54 1 8.88 32.59 63.82 63.85"/><polyline class="cls-2" points="9.2 32.58 8.88 32.59 8.88 95.5 64 127 63.82 63.85"/><path class="cls-3" d="M109.66,6.38s-1-.18-2.57,3.43c-2.6,6-11.24,19.92-11.5,29.33-.17,5.77,4.25,13.33,14,13.32,9.45,0,13.63-6.75,13.63-13.41,0-9-8.18-22.41-11.19-29.24C110.39,6.15,109.66,6.38,109.66,6.38Z"/><path class="cls-3" d="M109.56,8.24s-.64-.12-1.63,2.4c-1.64,4.21-7.09,13.94-7.26,20.53-.1,4,2.69,9.33,8.82,9.32,6,0,8.6-4.72,8.6-9.39,0-6.32-5.16-15.68-7.06-20.46C110,8.08,109.56,8.24,109.56,8.24Z"/></g><g id="Layer_11" data-name="Layer 11"><path class="cls-4" d="M31.83,57.2s7.68-25.1,15,0"/><path class="cls-4" d="M80.42,57.2s7.74-25.1,15.16,0"/></g><g id="Layer_3" data-name="Layer 3"><path class="cls-4" d="M40,78.3s20,6.7,48,0C88.29,78.23,64,121.77,40,78.3Z"/></g></svg>